<svg width="128" height="128" viewBox="0 0 128 128" fill="none" xmlns="http://www.w3.org/2000/svg">
<path d="M61.4412 48.5776L51.5977 78.6731H57.766L67.5741 48.5776H61.4412Z"/>
<path d="M38.2855 78.6731L48.0968 48.5776H41.9607L32.1172 78.6731H38.2855Z"/>
<path d="M107.26 48.5752V63.6307C107.26 66.4172 106.542 68.6626 105.125 70.2985C103.727 71.9157 101.836 72.7025 99.3525 72.7025C97.0817 72.7025 95.3939 72.121 94.3374 70.9703C93.2551 69.7947 92.7075 67.8478 92.7075 65.1795V48.5752H86.6262V65.733C86.6262 67.7639 86.9 69.5801 87.4411 71.1289C87.9919 72.6994 88.7778 74.0398 89.786 75.1097C90.8007 76.1919 92.0408 77.013 93.4709 77.551C94.8753 78.0828 96.431 78.3503 98.0899 78.3503C100.541 78.3503 102.609 77.7811 104.232 76.6553C105.402 75.8436 106.416 74.8111 107.257 73.5764V83.3076C107.257 84.1908 106.903 84.1908 106.751 84.1908H86.6358L86.6133 89.7297H108.117C109.634 89.7297 110.897 89.2415 111.873 88.2774C112.842 87.3195 113.335 86.0942 113.335 84.6356V48.5752H107.254H107.26Z"/>
<path d="M20.5489 26.667C18.816 26.667 17.4052 27.2081 16.3068 28.2904C15.2116 29.3727 14.6641 30.7504 14.6641 32.4205V43.0504H20.623V34.1901C20.623 32.7128 21.3123 31.9758 22.6845 31.9758H32.2285V26.667H20.5489Z"/>
<path d="M20.5489 100.667C18.816 100.667 17.4052 100.126 16.3068 99.0434C15.2116 97.9611 14.6641 96.5834 14.6641 94.9102V84.2803H20.623V93.1406C20.623 94.6179 21.3123 95.355 22.6845 95.355H32.2285V100.667H20.5489Z"/>
<style>
        path { fill: #000; }
        @media (prefers-color-scheme: dark) {
            path { fill: #FFF; }
        }
    </style>
</svg>
