<svg width="40" height="40" viewBox="0 0 40 40" fill="none" xmlns="http://www.w3.org/2000/svg">
<g clip-path="url(#clip0_6078_5589)">
<path d="M13.7623 27.998C13.7623 27.998 13.4977 28.7949 13.0983 29.193C12.9818 29.3231 12.8383 29.4261 12.6779 29.495C12.5175 29.5639 12.344 29.5971 12.1695 29.5921C11.5143 29.768 10.8483 29.901 10.1758 29.9902C10.1758 29.9902 11.1061 30.1234 12.1695 30.2562C12.5673 30.2562 12.5673 30.2562 12.8333 30.3893C13.4977 30.3893 13.7623 29.9902 13.7623 29.9902V27.998ZM25.9842 27.998C25.9842 27.998 26.2502 28.7949 26.6483 29.193C26.7651 29.323 26.9088 29.426 27.0694 29.4949C27.23 29.5638 27.4036 29.597 27.5783 29.5921C28.233 29.7681 28.8984 29.9011 29.5705 29.9902C29.5705 29.9902 28.6414 30.1234 27.4455 30.2562C27.0473 30.2562 27.0473 30.2562 26.7811 30.3893C25.9842 30.3893 25.8511 29.9902 25.8511 29.9902L25.9842 27.998Z" fill="#E9654B"/>
<path d="M34.35 14.8466C34.35 22.77 27.9266 29.1935 20.0031 29.1935C12.0794 29.1935 5.65625 22.77 5.65625 14.8466C5.65625 6.9241 12.0794 0.500977 20.0031 0.500977C27.9266 0.500977 34.35 6.9241 34.35 14.8466Z" fill="#B6CFEA"/>
<path d="M33.822 14.8463C33.822 22.4769 27.6367 28.6619 20.0061 28.6619C12.3767 28.6619 6.19141 22.4769 6.19141 14.8463C6.19141 7.21688 12.3767 1.03125 20.0061 1.03125C27.6367 1.03125 33.8217 7.21656 33.8217 14.8459L33.822 14.8463Z" fill="#E6F5F8"/>
<path d="M31.2977 15.1129C31.2977 21.3491 26.243 26.4041 20.0064 26.4041C13.7708 26.4041 8.71484 21.3491 8.71484 15.1125C8.71484 8.87723 13.7711 3.82129 20.0064 3.82129C26.243 3.82129 31.2977 8.87785 31.2977 15.1129Z" fill="#D0E8F0"/>
<path d="M13.3642 20.4258C13.3642 20.4258 14.2942 35.4367 14.2942 35.703C14.2942 35.8348 14.4273 36.1008 13.762 36.367C13.098 36.632 10.9727 37.1639 10.9727 37.1639H14.1611C15.6223 37.1639 15.6223 35.968 15.6223 35.703C15.6223 35.4367 16.0205 29.7252 16.0205 29.7252C16.0205 29.7252 16.1533 36.5002 16.1533 36.7648C16.1533 37.0311 16.0205 37.4289 15.0914 37.6952C14.4273 37.8283 12.4339 38.2264 12.4339 38.2264H15.4895C17.3498 38.2264 17.3498 37.0311 17.3498 37.0311L17.7477 31.0533C17.7477 31.0533 17.8808 37.0311 17.8808 37.6952C17.8808 38.2264 17.4827 38.6255 16.0205 38.8902C15.0914 39.1564 13.8952 39.4223 13.8952 39.4223H17.3498C19.0758 39.2895 19.342 38.093 19.342 38.093L22.2642 23.2152L13.3642 20.4258Z" fill="#EE794B"/>
<path d="M26.647 20.4263C26.647 20.4263 25.718 35.4373 25.718 35.7035C25.718 35.8354 25.5848 36.1013 26.2492 36.3676C26.913 36.6326 29.0383 37.1645 29.0383 37.1645H25.8498C24.3886 37.1645 24.3886 35.9685 24.3886 35.7035C24.3886 35.4373 23.9908 29.7257 23.9908 29.7257C23.9908 29.7257 23.8577 36.5007 23.8577 36.7654C23.8577 37.0316 23.9908 37.4295 24.9208 37.6957L27.577 38.227H24.522C22.6627 38.227 22.6627 37.0316 22.6627 37.0316L22.2636 31.0538C22.2636 31.0538 22.1305 37.0316 22.1305 37.6957C22.1305 38.227 22.5298 38.626 23.9911 38.8907C24.9211 39.157 26.1161 39.4229 26.1161 39.4229H22.6627C20.9352 39.2901 20.6689 38.0935 20.6689 38.0935L17.747 23.216L26.647 20.4263ZM26.7798 13.1204C26.7798 16.8401 23.7245 19.7623 20.138 19.7623C16.5517 19.7623 13.4961 16.707 13.4961 13.1204C13.4961 9.53414 16.5517 6.47852 20.138 6.47852C23.7245 6.47852 26.7798 9.40102 26.7798 13.1204Z" fill="#EE794B"/>
<mask id="mask0_6078_5589" style="mask-type:luminance" maskUnits="userSpaceOnUse" x="13" y="12" width="14" height="17">
<path d="M13.125 12.8125H26.875V28.75H13.125V12.8125Z" fill="white"/>
</mask>
<g mask="url(#mask0_6078_5589)">
<mask id="mask1_6078_5589" style="mask-type:luminance" maskUnits="userSpaceOnUse" x="13" y="12" width="14" height="20">
<path d="M26.7798 12.8545L25.983 31.0539H14.0273L13.3633 12.8545" fill="white"/>
</mask>
<g mask="url(#mask1_6078_5589)">
<path d="M31.9614 16.707C31.9614 23.2366 26.6686 28.5298 20.1389 28.5298C13.6095 28.5298 8.31641 23.2366 8.31641 16.7073C8.31641 10.1776 13.6095 4.88477 20.1389 4.88477C26.6686 4.88477 31.9614 10.1773 31.9614 16.707Z" fill="#EE794B"/>
</g>
</g>
<mask id="mask2_6078_5589" style="mask-type:luminance" maskUnits="userSpaceOnUse" x="0" y="0" width="40" height="40">
<path d="M0 0H40V40H0V0Z" fill="black" fill-opacity="0.22"/>
</mask>
<g mask="url(#mask2_6078_5589)">
<mask id="mask3_6078_5589" style="mask-type:luminance" maskUnits="userSpaceOnUse" x="0" y="0" width="40" height="40">
<path d="M0 0H40V40H0V0Z" fill="white"/>
</mask>
<g mask="url(#mask3_6078_5589)">
<path d="M26.3808 20.4261C26.3808 20.4261 27.1777 13.3852 26.1145 10.7289C24.1223 6.07923 19.4727 6.47829 19.4727 6.47829C19.4727 6.47829 22.1289 7.54048 22.262 11.5261C22.3952 14.3155 22.262 18.4339 22.262 18.4339L26.3808 20.4261Z" fill="#E34E3B"/>
</g>
</g>
<mask id="mask4_6078_5589" style="mask-type:luminance" maskUnits="userSpaceOnUse" x="0" y="0" width="40" height="40">
<path d="M0 0H40V40H0V0Z" fill="black" fill-opacity="0.502"/>
</mask>
<g mask="url(#mask4_6078_5589)">
<mask id="mask5_6078_5589" style="mask-type:luminance" maskUnits="userSpaceOnUse" x="0" y="0" width="40" height="40">
<path d="M0 0H40V40H0V0Z" fill="white"/>
</mask>
<g mask="url(#mask5_6078_5589)">
<path d="M18.2767 9.53336C18.2767 9.65541 18.2526 9.77625 18.2058 9.88898C18.159 10.0017 18.0905 10.1041 18.0042 10.1904C17.9178 10.2766 17.8153 10.3451 17.7026 10.3917C17.5898 10.4383 17.4689 10.4623 17.3469 10.4623C17.2248 10.4622 17.104 10.4381 16.9913 10.3913C16.8785 10.3446 16.7761 10.2761 16.6898 10.1897C16.6036 10.1034 16.5352 10.0009 16.4885 9.88811C16.4419 9.77533 16.4179 9.65447 16.418 9.53242C16.4181 9.28594 16.5161 9.0496 16.6905 8.87539C16.8649 8.70119 17.1013 8.60339 17.3478 8.60352C17.5943 8.60364 17.8306 8.70168 18.0048 8.87606C18.179 9.05043 18.2768 9.28687 18.2767 9.53336Z" fill="#FBDFC3"/>
</g>
</g>
<path d="M22.3961 23.0822C22.3961 25.3406 21.333 26.8031 20.0048 26.8031C18.6767 26.8031 17.6133 25.0756 17.6133 22.8175C17.6133 22.8175 18.6767 24.9425 20.1377 24.9425C21.5989 24.9425 22.3961 23.0822 22.3961 23.0822Z" fill="#010101"/>
<path d="M22.3958 23.0821C22.3958 24.5446 21.3327 25.3405 20.0045 25.3405C18.6764 25.3405 17.7461 24.2783 17.7461 22.9502C17.7461 22.9502 18.8092 24.2783 20.2705 24.2783C21.7317 24.2783 22.3958 23.0821 22.3958 23.0821Z" fill="white"/>
<path d="M28.7723 16.8395C28.7723 19.1135 26.9292 20.9566 24.6552 20.9566C22.3808 20.9566 20.5364 19.1135 20.5364 16.8395C20.5364 14.5651 22.3808 12.7207 24.6552 12.7207C26.9292 12.7207 28.7723 14.5651 28.7723 16.8395ZM19.4742 16.8395C19.4742 19.1135 17.6298 20.9566 15.3555 20.9566C13.0814 20.9566 11.2383 19.1135 11.2383 16.8395C11.2383 14.5651 13.0814 12.7207 15.3558 12.7207C17.6298 12.7207 19.4742 14.5651 19.4742 16.8395Z" fill="#E9654B"/>
<path d="M27.8436 16.8398C27.8436 18.6001 26.4155 20.0282 24.6552 20.0282C22.8948 20.0282 21.4664 18.6001 21.4664 16.8398C21.4664 15.0782 22.8945 13.6514 24.6552 13.6514C26.4152 13.6514 27.8436 15.0782 27.8436 16.8398ZM18.278 16.8398C18.278 18.6001 16.8511 20.0282 15.0908 20.0282C13.3292 20.0282 11.9023 18.6001 11.9023 16.8398C11.9023 16.4211 11.9847 16.0064 12.1449 15.6195C12.3051 15.2327 12.5399 14.8811 12.836 14.5851C13.1321 14.289 13.4836 14.0541 13.8705 13.8939C14.2574 13.7337 14.672 13.6513 15.0908 13.6514C16.8511 13.6514 18.278 15.0782 18.278 16.8398Z" fill="white"/>
<path d="M16.0195 16.4411C16.0196 16.5632 15.9956 16.6841 15.9489 16.7969C15.9023 16.9097 15.8338 17.0122 15.7476 17.0986C15.6613 17.185 15.5588 17.2535 15.4461 17.3003C15.3333 17.3471 15.2124 17.3712 15.0903 17.3712C14.9682 17.3713 14.8473 17.3473 14.7345 17.3007C14.6217 17.254 14.5192 17.1856 14.4328 17.0993C14.3464 17.013 14.2779 16.9105 14.2311 16.7978C14.1843 16.685 14.1602 16.5641 14.1602 16.442C14.16 16.1955 14.2578 15.9589 14.432 15.7845C14.6062 15.61 14.8427 15.5119 15.0892 15.5117C15.3358 15.5116 15.5723 15.6093 15.7468 15.7836C15.9213 15.9578 16.0194 16.1945 16.0195 16.4411ZM25.5848 16.4411C25.5871 16.5646 25.5648 16.6874 25.5191 16.8022C25.4734 16.917 25.4053 17.0216 25.3187 17.1097C25.2322 17.1979 25.1289 17.268 25.015 17.3158C24.901 17.3636 24.7787 17.3883 24.6552 17.3883C24.5316 17.3883 24.4093 17.3637 24.2953 17.3159C24.1814 17.2681 24.0781 17.1981 23.9915 17.11C23.9049 17.0218 23.8368 16.9173 23.791 16.8025C23.7453 16.6877 23.7229 16.5649 23.7252 16.4414C23.7295 16.1977 23.8294 15.9655 24.0032 15.7947C24.1771 15.624 24.411 15.5282 24.6547 15.5281C24.8984 15.5281 25.1324 15.6236 25.3063 15.7943C25.4803 15.965 25.5803 16.1974 25.5848 16.4411Z" fill="#010101"/>
<path d="M5.39185 18.4338C5.30322 18.4393 5.21443 18.4259 5.13138 18.3944C5.04832 18.363 4.9729 18.3143 4.91011 18.2515C4.84731 18.1887 4.79859 18.1133 4.76715 18.0302C4.73572 17.9472 4.7223 17.8584 4.72779 17.7697V12.4563C4.72224 12.3676 4.73559 12.2788 4.76694 12.1957C4.79829 12.1126 4.84694 12.037 4.90966 11.9741C4.97258 11.9114 5.0481 11.8627 5.13122 11.8314C5.21435 11.8 5.30318 11.7867 5.39185 11.7922C5.48048 11.7868 5.56927 11.8002 5.65232 11.8316C5.73537 11.863 5.8108 11.9118 5.87359 11.9746C5.93638 12.0374 5.98511 12.1128 6.01654 12.1958C6.04798 12.2789 6.0614 12.3677 6.05591 12.4563V17.7701C6.06685 17.9482 5.99966 18.1241 5.87279 18.2513C5.81006 18.3141 5.73473 18.3628 5.65177 18.3943C5.56882 18.4258 5.48012 18.4394 5.39154 18.4341L5.39185 18.4338ZM34.3506 18.4338C34.262 18.4392 34.1732 18.4256 34.0903 18.394C34.0073 18.3624 33.932 18.3136 33.8694 18.2507C33.8066 18.188 33.7579 18.1127 33.7264 18.0298C33.6949 17.9469 33.6813 17.8583 33.6865 17.7697V12.4563C33.6812 12.3675 33.6948 12.2787 33.7264 12.1956C33.7579 12.1124 33.8068 12.037 33.8697 11.9741C33.9323 11.9114 34.0076 11.8628 34.0906 11.8314C34.1735 11.8001 34.2621 11.7867 34.3506 11.7922C34.4391 11.7867 34.5277 11.8001 34.6106 11.8314C34.6936 11.8628 34.7689 11.9114 34.8315 11.9741C34.9597 12.1013 35.0253 12.2772 35.0147 12.4563V17.7701C35.0202 17.8587 35.0067 17.9475 34.9751 18.0305C34.9436 18.1135 34.8946 18.1888 34.8315 18.2513C34.7689 18.3142 34.6935 18.363 34.6106 18.3945C34.5276 18.426 34.4389 18.4395 34.3503 18.4341L34.3506 18.4338Z" fill="#B6CFEA"/>
<path d="M16.1543 4.21973C16.1543 4.39585 16.0843 4.56475 15.9598 4.68929C15.8353 4.81383 15.6663 4.88379 15.4902 4.88379C15.3141 4.88379 15.1452 4.81383 15.0207 4.68929C14.8961 4.56475 14.8262 4.39585 14.8262 4.21973C14.8262 4.04361 14.8961 3.8747 15.0207 3.75016C15.1452 3.62563 15.3141 3.55566 15.4902 3.55566C15.6663 3.55566 15.8353 3.62563 15.9598 3.75016C16.0843 3.8747 16.1543 4.04361 16.1543 4.21973ZM10.7087 22.1529C10.6364 22.162 10.563 22.1548 10.4939 22.1318C10.4248 22.1088 10.3617 22.0706 10.3093 22.02C8.71522 20.0279 7.91804 17.5035 7.91804 14.9791C7.91092 12.8804 8.46112 10.8174 9.51241 9.00098C10.5781 7.27203 12.0337 5.81654 13.7627 4.75098C13.8737 4.7012 13.9975 4.68725 14.1168 4.71105C14.236 4.73485 14.345 4.79523 14.4283 4.88379C14.4776 4.99466 14.4913 5.11811 14.4674 5.23707C14.4435 5.35603 14.3832 5.46463 14.2949 5.54785C12.647 6.4789 11.275 7.82964 10.3183 9.46278C9.36157 11.0959 8.8543 12.9533 8.84804 14.846C8.84434 17.2087 9.64033 19.5032 11.1065 21.356C11.2396 21.4891 11.2396 21.8872 10.9733 22.02C10.8405 22.1532 10.8405 22.1529 10.7087 22.1529Z" fill="white"/>
<mask id="mask6_6078_5589" style="mask-type:luminance" maskUnits="userSpaceOnUse" x="0" y="0" width="40" height="40">
<path d="M0 0H40V40H0V0Z" fill="black" fill-opacity="0.251"/>
</mask>
<g mask="url(#mask6_6078_5589)">
<mask id="mask7_6078_5589" style="mask-type:luminance" maskUnits="userSpaceOnUse" x="0" y="0" width="40" height="48">
<path d="M0 0H40V48H0V0Z" fill="white"/>
</mask>
<g mask="url(#mask7_6078_5589)">
<path d="M25.9827 28.3955V27.334C24.1233 28.3959 22.1298 29.459 19.7398 29.459C17.0823 29.459 15.3552 28.264 13.6289 27.334L13.7608 28.3959C13.7608 28.3959 15.7545 30.5224 19.8717 30.5224C23.7242 30.3893 25.9827 28.3955 25.9827 28.3955Z" fill="#E9654B"/>
</g>
</g>
</g>
<defs>
<clipPath id="clip0_6078_5589">
<rect width="40" height="40" fill="white"/>
</clipPath>
</defs>
</svg>
