<svg width="78" height="48" viewBox="0 0 78 48" fill="none" xmlns="http://www.w3.org/2000/svg">
<path d="M19.002 36.5836V32.7021H24.1891V14.706H19.002V10.8245H33.8222V14.706H28.6351V32.7021H33.8222V36.5836H19.002Z" fill="#30343B"/>
<path d="M39.6307 36.5836V10.8245H47.2879C49.0287 10.8245 50.5342 11.1539 51.8045 11.8125C53.0984 12.4712 54.0981 13.4004 54.8039 14.6002C55.5096 15.7999 55.8625 17.2231 55.8625 18.8698V28.503C55.8625 30.1262 55.5096 31.5494 54.8039 32.7727C54.0981 33.9724 53.0984 34.9134 51.8045 35.5956C50.5342 36.2543 49.0287 36.5836 47.2879 36.5836H39.6307ZM44.0415 32.5257H47.2879C48.5582 32.5257 49.5697 32.1728 50.3225 31.4671C51.0753 30.7378 51.4517 29.7498 51.4517 28.503V18.8698C51.4517 17.6466 51.0753 16.6821 50.3225 15.9763C49.5697 15.2471 48.5582 14.8825 47.2879 14.8825H44.0415V32.5257Z" fill="#30343B"/>
<path d="M60.8593 36.5836V10.8245H69.4339C71.1512 10.8245 72.645 11.1539 73.9153 11.8125C75.2091 12.4712 76.2089 13.4004 76.9146 14.6002C77.6204 15.7764 77.9732 17.1643 77.9732 18.764C77.9732 20.3401 77.6086 21.728 76.8794 22.9278C76.1736 24.1275 75.1856 25.0567 73.9153 25.7154C72.645 26.3741 71.1512 26.7034 69.4339 26.7034H65.2701V36.5836H60.8593ZM65.2701 22.716H69.4339C70.6572 22.716 71.6335 22.3632 72.3627 21.6574C73.1155 20.9282 73.4919 19.9637 73.4919 18.764C73.4919 17.5407 73.1155 16.5762 72.3627 15.8705C71.6335 15.1648 70.6572 14.8119 69.4339 14.8119H65.2701V22.716Z" fill="#30343B"/>
<path d="M3.68047 0C2.59667 0 1.71433 0.351016 1.02739 1.05305C0.342463 1.75508 0 2.64876 0 3.73206V10.6273H3.7268V4.87992C3.7268 3.92169 4.1579 3.44358 5.01607 3.44358H10.985V0H3.68047Z" fill="#16181C"/>
<path d="M3.68047 48C2.59667 48 1.71433 47.649 1.02739 46.9469C0.342463 46.2449 0 45.3512 0 44.2659V37.3707H3.7268V43.118C3.7268 44.0763 4.1579 44.5544 5.01607 44.5544H10.985V48H3.68047Z" fill="#16181C"/>
</svg>
