<svg width="37" height="48" viewBox="0 0 37 48" fill="none" xmlns="http://www.w3.org/2000/svg">
<g clip-path="url(#clip0_5815_12885)">
<path d="M21.6328 12.8391C21.6328 12.8391 23.0114 10.6376 24.0362 10.9336C25.061 11.2296 26.2166 11.081 27.0222 12.9951C27.5858 14.3344 28.0122 14.116 27.8572 15.3668C27.6507 17.0322 26.4496 17.4886 26.4496 17.4886L23.5948 17.8627L21.6328 12.8391Z" fill="url(#paint0_linear_5815_12885)"/>
<path d="M18.3867 3.89715C18.3867 3.89715 19.6493 1.9617 20.4061 2.1803C21.1629 2.3989 21.9605 2.14508 22.5554 3.55865C22.9717 4.54778 23.2866 4.38649 23.172 5.31018C23.0196 6.54006 21.764 6.84208 21.764 6.84208L20.5533 7.26594L19.9121 7.79148L18.3867 3.89715Z" fill="url(#paint1_linear_5815_12885)"/>
<path d="M16.3321 9.83851C16.3308 10.0278 16.3457 10.0408 16.5328 10.0029C16.5647 9.99647 16.5956 9.98656 16.6273 9.97937L16.7044 9.17383C16.5941 9.248 16.5028 9.34681 16.4382 9.46227C16.3735 9.57773 16.3372 9.70661 16.3321 9.83851Z" fill="black"/>
<path d="M22.7032 3.64992C22.5498 3.46031 22.4251 3.24965 22.333 3.02455C22.2971 2.93045 22.2427 2.8443 22.173 2.77105C21.8087 2.39153 21.3166 2.15698 20.7894 2.11164C20.2623 2.0663 19.7367 2.21329 19.3116 2.5249C18.9149 2.82574 18.664 3.23938 18.4572 3.67789C18.2936 4.00535 18.2058 4.36475 18.2001 4.72998C18.1944 5.09521 18.2709 5.45712 18.4243 5.78942C18.4862 5.92931 18.5603 6.06388 18.625 6.20259C18.671 6.29287 18.6981 6.39134 18.7049 6.49218C18.7117 6.59302 18.6979 6.69419 18.6645 6.78968C18.631 6.88342 18.5743 6.89551 18.519 6.82346C18.4083 6.69102 18.3223 6.5402 18.2649 6.37803C18.0763 5.79134 17.8283 5.22496 17.5248 4.6875C17.4263 4.51146 17.3113 4.34505 17.1811 4.19049L17.1532 4.48192C17.3774 4.7882 17.5741 5.11337 17.7408 5.45369C17.7549 5.47482 17.7646 5.4985 17.7695 5.52337C17.7743 5.54824 17.7741 5.57381 17.7689 5.59861C17.7637 5.62341 17.7536 5.64695 17.7392 5.66788C17.7248 5.6888 17.7063 5.7067 17.6849 5.72055C17.3675 5.95911 17.334 6.26364 17.4642 6.61001C17.5666 6.88267 17.6784 7.1515 17.7911 7.42015C17.8814 7.63513 18.0213 7.74372 18.2623 7.70693C18.3004 7.70112 18.3543 7.68381 18.3785 7.72195C18.4031 7.76067 18.3608 7.7983 18.3407 7.83182C18.2666 7.96185 18.2069 8.09941 18.1626 8.2421C18.1058 8.4016 18.1016 8.57481 18.1506 8.73683C18.1941 8.86019 18.2199 8.98902 18.2271 9.1195C18.2274 9.14761 18.2385 9.18593 18.2047 9.19989C18.1702 9.21418 18.1525 9.17801 18.1329 9.15779C18.0095 9.02096 17.8605 8.90909 17.6941 8.82834C17.5599 8.77171 17.4145 8.7459 17.2688 8.75284C17.123 8.75978 16.9808 8.7993 16.8527 8.86842C16.8097 8.88846 16.7678 8.90955 16.7271 8.93172L16.7039 9.1741C16.8429 9.07469 17.0072 9.01553 17.1783 9.00324C17.401 8.97691 17.6261 9.02573 17.8172 9.14179C17.8643 9.1726 17.9074 9.20898 17.9455 9.25013C18.0296 9.34138 18.0212 9.40034 17.9134 9.46607C17.7051 9.59365 17.4854 9.70209 17.2571 9.79004C17.0519 9.86814 16.8412 9.9315 16.6267 9.97964L16.4688 11.6297C16.6276 11.5848 16.6448 11.5939 16.6803 11.7581C16.7148 11.93 16.7596 12.0997 16.8145 12.2664C16.9508 12.6612 17.1433 12.7977 17.5616 12.8311C18.049 12.8606 18.5362 12.7697 18.9792 12.5666C19.4309 12.3745 19.6132 11.8663 19.4201 11.3738C19.3523 11.2241 19.2736 11.0794 19.1848 10.9408C19.1331 10.854 19.0932 10.7608 19.0661 10.6637C19.037 10.5804 19.0335 10.4905 19.0562 10.4053C19.0788 10.3201 19.1265 10.2435 19.1932 10.1852C19.4881 9.91477 19.6256 9.55285 19.7548 9.18925C19.8774 8.85987 19.9624 8.51796 20.0082 8.16989C20.0702 7.63647 20.4055 7.37583 20.8838 7.23876C21.1336 7.16718 21.3856 7.10336 21.6323 7.02123C21.9352 6.92832 22.2231 6.79293 22.4871 6.61919C22.8825 6.36147 23.1606 5.96146 23.2626 5.50412C23.2723 5.46065 23.2864 5.41815 23.2985 5.3752V4.81574C23.2193 4.36753 22.9741 4.00247 22.7032 3.64992ZM18.004 7.39688C17.8708 7.24391 17.777 7.06131 17.7306 6.86467C17.6734 6.66423 17.6232 6.46181 17.5701 6.26023C17.5663 6.24591 17.5636 6.23131 17.5617 6.22267C17.5822 6.15224 17.6176 6.08691 17.6654 6.03097C17.7133 5.97503 17.7726 5.92976 17.8395 5.89814C17.9192 5.88149 17.9345 5.9427 17.9536 5.99378C18.0516 6.25556 18.1521 6.51633 18.2732 6.76862C18.3409 6.90974 18.4104 7.0502 18.4846 7.18802C18.5092 7.22347 18.5188 7.26706 18.5112 7.30941C18.5036 7.35175 18.4795 7.38945 18.4441 7.41438C18.2259 7.61173 18.2072 7.6126 18.004 7.39688ZM18.3511 8.21246C18.4215 8.04682 18.5294 7.8994 18.6665 7.78157C18.7446 7.70737 18.8071 7.73148 18.8329 7.83853C18.8357 7.84936 18.8373 7.86048 18.8375 7.87166C18.838 7.92745 18.8378 7.98327 18.8378 8.03908C18.8412 8.33265 18.7309 8.61638 18.5295 8.83203C18.4627 8.91199 18.3951 8.90394 18.3514 8.80096C18.2744 8.61221 18.2743 8.40128 18.3511 8.21246ZM22.8445 6.01168C22.6676 6.32794 22.3862 6.57442 22.0474 6.7098C21.8968 6.75257 21.7371 6.75299 21.5863 6.71102C21.4355 6.66904 21.2994 6.58634 21.1935 6.47217C21.0964 6.34824 21.1121 6.25492 21.2453 6.16356C21.3162 6.12686 21.3723 6.0672 21.4041 5.99455C21.4358 5.9219 21.4415 5.84066 21.42 5.7644C21.4009 5.68403 21.3587 5.61086 21.2985 5.55373C21.2382 5.49659 21.1625 5.45796 21.0806 5.44249C20.9999 5.42936 20.9135 5.42794 20.8704 5.51113C20.8338 5.57452 20.7817 5.62776 20.7188 5.66591C20.6559 5.70406 20.5843 5.7259 20.5107 5.7294C20.4856 5.73352 20.4533 5.72884 20.4443 5.76036C20.4387 5.7801 20.4585 5.79299 20.4741 5.80325C20.7459 5.98298 20.9132 6.24918 21.0804 6.51627C21.1477 6.62391 21.2189 6.7297 21.2958 6.83087C21.3511 6.90376 21.3354 6.92868 21.2494 6.94535C21.0609 6.98194 20.8746 7.03 20.686 7.06586C20.498 7.09589 20.3236 7.18123 20.1855 7.31074C20.0473 7.44026 19.9518 7.60794 19.9113 7.79194C19.7998 8.18677 19.7026 8.58559 19.6018 8.98334C19.5194 9.34106 19.3581 9.67638 19.1296 9.96537C19.0172 10.1286 18.9239 10.304 18.8517 10.4881C18.8402 10.5199 18.8365 10.554 18.8409 10.5875C18.8453 10.6209 18.8576 10.6529 18.8768 10.6808C19.0075 10.9498 19.128 11.2232 19.2359 11.5018C19.3868 11.8914 19.2495 12.2379 18.863 12.4095C18.4349 12.5919 17.9664 12.6621 17.5029 12.6133C17.4767 12.6111 17.4507 12.6056 17.4245 12.6032C17.3136 12.6051 17.2057 12.568 17.1201 12.4984C17.0344 12.4288 16.9766 12.3313 16.957 12.2234C16.9074 12.0439 16.8753 11.8597 16.834 11.6779C16.7859 11.4665 16.7176 11.4218 16.5067 11.4723L17.8518 9.72909C18.1703 9.56773 18.4459 9.3343 18.6561 9.04778C18.8663 8.76126 19.0052 8.42972 19.0616 8.08011C19.0781 8.01655 19.0799 7.9501 19.0667 7.88578C19.0535 7.82145 19.0257 7.76093 18.9854 7.70879C18.8922 7.59287 18.828 7.4569 18.7978 7.31186C18.7677 7.16683 18.7725 7.01681 18.8119 6.87395C18.8538 6.69744 18.8598 6.51444 18.8295 6.33561C18.7993 6.15677 18.7333 5.98568 18.6356 5.83229C18.1604 5.0632 18.2675 4.30223 18.6749 3.54843C18.9165 3.10121 19.2344 2.72023 19.7134 2.51041C20.3293 2.24067 20.9526 2.20016 21.5635 2.53015C21.8788 2.70579 22.1271 2.97894 22.2702 3.30766C22.3903 3.55671 22.5383 3.79165 22.7113 4.00805C22.8987 4.22401 23.035 4.47854 23.1105 4.75313C23.2122 5.21121 23.0836 5.62308 22.8445 6.01168Z" fill="#326CE5"/>
<path d="M21.4204 4.01077C21.3883 4.01366 21.3578 4.02626 21.3332 4.04685C21.3086 4.06745 21.291 4.09503 21.2828 4.12587C21.2638 4.18246 21.2559 4.24209 21.2593 4.30161C21.2545 4.35732 21.2615 4.4134 21.2798 4.46629C21.2917 4.49589 21.3121 4.52141 21.3385 4.53973C21.3648 4.55804 21.396 4.56836 21.4282 4.56941C21.4602 4.57533 21.4932 4.57087 21.5223 4.5567C21.5515 4.54254 21.5753 4.51943 21.5901 4.49082C21.6212 4.42897 21.6367 4.36058 21.6353 4.29151C21.6339 4.22243 21.6155 4.15472 21.5819 4.09418C21.5664 4.06596 21.5428 4.04294 21.514 4.02808C21.4852 4.01322 21.4526 4.00719 21.4204 4.01077Z" fill="#326CE5"/>
<path d="M16.9533 6.58799C17.0773 6.54111 17.1234 6.57152 17.1811 6.70703C17.2954 6.97567 17.4539 7.22204 17.5804 7.48461C17.6433 7.60776 17.6962 7.73569 17.7386 7.86719C17.7734 7.94156 17.7775 8.02647 17.7498 8.10374C17.7222 8.18102 17.6651 8.24452 17.5907 8.28067C17.3991 8.4071 17.1902 8.50574 16.9703 8.57359L16.9258 6.87546L16.9533 6.58799Z" fill="black"/>
<path d="M18.0725 11.7554C18.6474 12.1773 19.2103 12.5767 19.5973 13.1687C20.1936 14.081 20.5132 15.0924 20.7463 16.1386C20.7913 16.4076 20.8802 16.6676 21.0094 16.9084C21.0631 16.9974 21.1011 17.1388 21.2304 17.1202C21.3814 17.0985 21.3956 16.9464 21.4147 16.8247C21.4739 16.4487 21.3508 16.1055 21.1993 15.7719C20.9908 15.3126 20.8791 14.8477 21.0697 14.3529C21.1905 14.8255 21.1439 15.3456 21.4162 15.7745C21.5298 15.9518 21.6011 16.1524 21.6248 16.361C21.6485 16.5696 21.6239 16.7808 21.5529 16.9787C21.4011 17.4652 21.3427 17.9271 21.624 18.3954C21.7531 18.6103 21.684 18.8735 21.5991 19.0873C21.2922 19.8598 20.7833 20.5277 20.0121 20.8271C16.6049 22.15 13.2929 21.9927 10.1504 20.0228C9.75143 19.7727 9.38992 19.4641 8.89016 19.0928C9.53508 20.2651 10.2131 21.2103 11.1594 21.9342C11.4324 22.1431 11.5036 22.3106 11.4001 22.6583C11.0676 23.7747 11.996 24.6766 13.1565 24.4023C13.3118 24.346 13.4726 24.3055 13.6362 24.2814C14.0645 24.2714 14.1843 24.0339 14.2249 23.6552C14.312 22.842 14.4838 22.733 15.303 22.9588C16.0178 23.1558 16.738 23.289 17.4771 23.1691C17.9832 23.087 18.1453 23.3029 18.1103 23.763C18.0688 24.3083 18.3175 24.6677 18.8452 24.8279C19.5193 25.0318 20.244 24.9976 20.8954 24.7313C21.3595 24.5484 21.6064 24.1638 21.4457 23.6263C21.3624 23.3477 21.3286 23.0458 21.1982 22.7917C20.9362 22.2808 21.1192 21.8841 21.4641 21.5241C21.8681 21.0985 22.1743 20.5916 22.3617 20.038C22.5245 19.5746 22.7021 19.1163 22.8788 18.6578C23.0938 18.0998 23.4875 17.7756 24.1037 17.7064C24.3869 17.6747 24.6927 17.7519 24.9787 17.5712C24.8721 17.3715 24.7707 17.1816 24.6693 16.9917L24.6593 17.0008C24.9309 16.8786 25.0046 17.1462 25.1375 17.2603C25.2375 17.3536 25.3597 17.4204 25.4927 17.4547C25.6256 17.489 25.7652 17.4896 25.8985 17.4565C27.0316 17.2193 28.2112 15.5513 27.584 14.3454C27.2587 13.72 26.9058 13.109 26.6645 12.4394C26.5306 12.098 26.2858 11.8102 25.9687 11.6212C24.6544 10.7845 23.0252 11.0555 22.0272 12.2723C21.5179 12.8933 21.2334 13.6047 21.0596 14.3714C21.1512 12.9054 21.8626 11.8268 23.1651 11.1412C24.6224 10.3742 26.6766 11.288 27.0498 12.8694C27.1341 13.2269 27.405 13.4511 27.5676 13.7512C28.5272 15.522 27.6358 17.1602 25.7044 17.7007C25.2646 17.8238 24.799 17.8547 24.3472 17.9379C23.6544 18.0656 23.1587 18.3657 22.9397 19.1163C22.646 20.1233 22.3178 21.131 21.4404 21.8544C21.0764 22.1544 21.3159 22.5882 21.4564 22.9251C22.0123 24.2585 21.6548 24.9258 20.236 25.1349C20.056 25.1615 19.8776 25.1999 19.5302 25.2637C20.0856 25.6639 20.585 26.135 21.0155 26.6648C21.4142 27.1243 21.6698 27.6579 21.961 28.184C22.5301 29.2402 22.997 30.3473 23.3554 31.4904C23.4478 31.7674 23.5972 32.0224 23.794 32.2395C23.8813 32.3379 23.924 32.5656 24.0995 32.4794C24.2006 32.4298 24.255 32.2422 24.2864 32.1067C24.4041 31.5981 24.2509 31.1278 24.0084 30.6913C22.6129 28.1797 23.1866 25.8917 24.837 23.7498C26.6537 21.392 30.4298 21.56 32.0882 23.7608C32.0992 23.7754 32.1184 23.7866 32.1232 23.8025C32.4987 25.0375 33.5665 25.8703 34.0497 27.0402C34.394 27.8691 34.4462 28.7885 34.1979 29.6503C33.9497 30.5121 33.4154 31.2662 32.6812 31.7911C31.7323 32.4714 30.6931 32.775 29.6194 33.0775C29.3544 33.1522 29.0822 33.207 28.824 33.2999C27.9741 33.6055 27.3334 34.0687 27.1709 35.057C26.9763 36.24 26.684 37.4068 26.1717 38.5081C25.9738 38.9589 25.6867 39.3661 25.3274 39.7055C24.9638 40.037 24.9434 40.3904 25.0862 40.8388C25.2958 41.4969 25.8346 41.9839 25.9516 42.6983C26.1264 43.7646 25.7477 44.5649 24.7274 44.9578C23.78 45.3226 22.8134 45.5641 21.7711 45.4544C20.8441 45.3568 20.4821 45.1318 20.1788 44.2277C20.0507 43.83 19.9465 43.4251 19.8669 43.0152C19.8255 42.815 19.776 42.717 19.5483 42.7909C18.1582 43.2421 16.7411 42.9505 15.334 42.9326C15.2053 42.931 15.076 42.9313 14.9482 42.9191C14.5703 42.883 14.4164 43.0334 14.4466 43.4203C14.4815 43.7564 14.4456 44.0961 14.3411 44.4177C14.2365 44.7394 14.0655 45.0361 13.8391 45.289C13.6584 45.4939 13.4602 45.6563 13.199 45.6693C12.1133 45.7232 11.0217 45.7708 10.0154 45.2474C9.49616 44.9773 9.16277 44.559 9.12166 43.962C9.08796 43.4727 9.0338 42.973 9.18851 42.4995C9.26703 42.2592 9.17411 42.1603 9.00334 42.0648C7.02483 40.9589 5.62135 39.2947 4.42602 37.4336C4.24332 37.1491 3.75857 36.8302 4.3998 36.5028C4.42186 36.4916 4.43087 36.436 4.42945 36.4018C4.39019 35.4558 5.00182 34.8494 5.53765 34.1692C5.95068 33.6449 6.04667 32.9326 6.22379 32.2948C7.11809 29.0747 8.59816 26.3119 11.8696 24.8691C11.9689 24.8219 12.0654 24.7691 12.1587 24.7111C12.1946 24.6847 12.2283 24.6554 12.2593 24.6235C12.208 24.5768 12.1523 24.5349 12.0931 24.4984C11.0917 24.0053 10.9284 23.7149 11.1849 22.6416C11.2541 22.3519 11.1946 22.213 10.977 22.0553C9.86057 21.246 9.16704 20.1095 8.56207 18.9174C8.31428 18.4291 8.65515 17.9306 8.93042 17.6731C9.81713 16.8436 10.0819 15.7052 10.6067 14.7048C11.2023 13.5692 11.9858 12.6429 13.1061 12.02C13.4103 11.8509 13.4532 11.7404 13.2272 11.5062L13.2268 11.5081C13.6627 11.7199 14.0655 11.6039 14.4582 11.3868L14.4448 11.3685C15.2604 11.4145 16.0746 11.2369 16.8922 11.3559C16.9986 11.3714 17.005 11.2387 17.0039 11.1471L16.9865 11.1682C17.4208 11.6314 17.958 11.7183 18.6893 11.3903M28.0337 30.0002C28.555 29.9462 28.8684 29.8634 29.039 29.4993C29.1227 29.3206 29.3526 29.2782 29.5727 29.3635C29.8998 29.4902 30.148 29.6784 30.2212 30.0414C30.2949 30.4064 30.1812 30.6854 29.8519 30.8718C29.6387 30.9925 29.5014 31.1546 29.6096 31.4063C29.8281 31.9147 30.8897 32.3564 31.4577 32.1756C32.368 31.8859 32.9923 31.2469 33.4497 30.4589C34.1425 29.2655 34.3125 28.0496 33.5277 26.7988C33.1123 26.1367 32.5476 25.5792 32.2256 24.8516C31.4514 23.1022 29.9337 22.2449 28.0478 22.4528C25.9974 22.6789 24.7595 23.9221 23.9548 25.6815C23.2708 27.1768 23.2179 28.7019 24.088 30.124C24.5311 30.8483 24.7056 31.5359 24.5281 32.3404C24.3732 33.0423 24.4019 33.7122 24.8993 34.2979C25.1231 34.5615 25.0932 34.8894 25.034 35.1869C24.7376 36.6775 23.9196 37.8417 22.5922 38.5807C20.2416 39.8894 17.6928 40.4802 14.9942 40.536C12.2465 40.5928 9.62015 40.193 7.1629 38.8994C6.38912 38.492 5.68553 37.9872 4.90097 37.4535C5.62634 38.8608 7.5781 40.8563 9.13791 41.7481C9.53195 41.9734 9.63891 42.1822 9.50973 42.6089C9.04687 44.1376 9.99957 44.9857 10.9797 45.2668C11.4784 45.4098 11.9952 45.3854 12.5125 45.3383C13.8564 45.2159 14.0976 44.97 14.113 43.6487C14.1251 42.6147 14.387 42.3794 15.4183 42.562C16.8073 42.8079 18.1896 42.872 19.5669 42.5155C19.9559 42.4148 20.1071 42.5929 20.176 42.9289C20.2635 43.3554 20.3307 43.7886 20.4571 44.2039C20.579 44.6043 20.8697 44.94 21.2853 44.9951C22.4297 45.147 23.5631 45.0548 24.6387 44.5977C25.4682 44.2451 25.8174 43.4579 25.5025 42.6186C25.2792 42.0235 25.009 41.4454 24.7488 40.8645C24.6743 40.698 24.5345 40.5323 24.6399 40.3562C24.836 40.0283 24.9126 39.6447 25.1642 39.3424C25.7218 38.662 26.11 37.8615 26.2976 37.0055C26.4842 36.209 26.7082 35.421 26.9137 34.6287C27.1451 33.7371 27.632 33.0956 28.5998 32.906C29.1089 32.8062 29.6144 32.6879 30.1661 32.5684C29.417 31.742 29.1447 30.6466 28.0337 30.0002ZM23.7218 34.2135C22.6467 34.3243 22.6388 34.3278 22.1893 33.3294C21.9803 32.8652 21.8007 32.3875 21.6218 31.9108C21.3528 31.1943 21.3368 30.531 22.0255 30C22.2048 29.8618 22.3893 29.6834 22.2443 29.394C21.4524 27.8131 20.5149 26.3495 18.9833 25.3531C18.7049 25.172 18.4902 25.1035 18.175 25.3794C16.9124 26.4848 14.6639 26.3678 13.3646 25.5561C13.174 25.4419 13.0347 25.2599 12.9752 25.0474C12.9495 24.9598 12.9452 24.7924 12.7929 24.8271C12.5926 24.8673 12.4119 24.9733 12.2801 25.1278C12.176 25.2566 12.2842 25.3496 12.3713 25.4526C12.7799 25.9465 13.3285 26.308 13.9466 26.4907C14.6688 26.7066 14.7603 26.8554 14.6508 27.5905C14.484 28.7112 14.1317 29.783 13.7656 30.8507C13.4966 31.6356 13.0911 31.9764 12.2821 31.8726C10.6283 31.6604 9.10071 31.1333 7.96701 29.822C7.8826 29.7243 7.82385 29.5141 7.63581 29.6521C7.47499 29.7701 7.31465 29.928 7.41947 30.1587C7.48013 30.2705 7.55928 30.3715 7.65364 30.4574C8.15367 30.9718 8.83407 31.1765 9.46802 31.4443C10.0558 31.6927 10.3515 32.1069 10.4785 32.7015C10.7226 33.8442 10.3504 34.8544 9.8038 35.8203C9.62605 36.1344 9.34339 36.2597 8.92238 36.2046C8.41701 36.1386 7.96574 35.9109 7.39789 35.7837C8.10448 36.6558 8.42528 37.5193 7.90826 38.514C7.76692 38.7859 8.00992 38.823 8.14968 38.9006C8.36053 39.0178 8.39213 38.8403 8.42859 38.6971C8.63281 37.8946 9.12115 37.3069 9.96807 37.2838C11.4296 37.2439 13.0816 37.8006 13.2372 39.7127C13.2484 39.8506 13.151 40.0908 13.4089 40.0994C13.6231 40.1066 13.5629 39.8883 13.5913 39.7612C13.9513 38.1517 15.2654 37.8273 16.4228 37.9416C17.3741 38.0355 18.2105 38.3787 18.5585 39.3897C18.5936 39.4919 18.6255 39.6508 18.8249 39.5842C18.6422 38.5582 18.8256 37.6622 19.7997 37.0855C20.3577 36.7551 20.9437 36.4978 21.6264 36.6163C22.2874 36.731 22.7486 37.1555 23.2354 37.6966C23.4111 36.9954 22.9533 36.4657 23.0412 35.8662C23.1304 35.2577 23.4094 34.7431 23.7218 34.2135ZM12.2613 31.4416C12.9554 31.3749 13.3147 31.2577 13.4795 30.5801C13.6937 29.6996 13.9208 28.8222 14.1608 27.9479C14.3817 27.1424 14.3876 27.1549 13.6285 26.8039C13.005 26.5157 12.2926 26.3306 11.9841 25.6203C11.8103 25.2202 11.5615 25.2295 11.2454 25.4339C9.93093 26.2723 8.83196 27.4021 8.03553 28.7336C7.86794 29.0138 7.87073 29.2604 8.11463 29.5206C9.23682 30.7174 10.6945 31.1916 12.2613 31.4416ZM10.1637 32.8001C10.2656 32.4677 9.98426 32.2314 9.54467 32.0421C8.8866 31.7626 8.26527 31.4051 7.69429 30.9775C7.14894 30.5649 7.05862 30.5632 6.85017 31.2026C6.56919 32.0644 6.34169 32.9432 6.08368 33.8125C6.02827 33.9992 6.11299 34.116 6.22099 34.2503C6.90082 35.0954 7.84954 35.5214 8.82821 35.9016C9.05723 35.9905 9.18173 35.8698 9.32934 35.6968C10.0049 34.905 10.0564 33.9427 10.1637 32.8001ZM10.5767 37.6741C9.74169 37.6453 9.23944 37.8485 8.94572 38.4157C8.69032 38.9089 8.8025 39.1989 9.33077 39.3779C10.2873 39.7022 11.278 39.8939 12.2679 40.0872C12.671 40.1659 12.8106 39.9651 12.8035 39.6112C12.8021 39.3195 12.7165 39.0344 12.5567 38.7892C12.3441 38.4573 12.0524 38.1821 11.7072 37.9876C11.362 37.7932 10.9738 37.6855 10.5767 37.6741ZM7.83522 37.5609C7.82493 36.6467 6.621 35.4225 5.69442 35.3842C4.87822 35.3505 4.50603 35.9529 4.87589 36.6849C5.28284 37.4903 6.05713 37.8411 6.79769 38.2303C7.4211 38.558 7.84329 38.277 7.83522 37.5609ZM19.0705 38.9025C19.1098 39.094 18.9356 39.4442 19.4202 39.3495C20.559 39.1357 21.6484 38.717 22.6345 38.1142C22.8533 37.9792 22.8554 37.8759 22.707 37.6923C22.2486 37.1251 21.2794 36.9117 20.4224 37.2024C19.6529 37.4633 19.0855 38.1687 19.0705 38.9025ZM15.055 40.1349C15.8113 40.0936 16.7231 40.0339 17.634 39.9029C18.1782 39.8246 18.1273 39.6163 17.9174 39.2839C17.1767 38.1113 15.1136 38.0394 14.3011 39.16C14.1177 39.4131 13.9389 39.7346 14.0728 40.0157C14.1913 40.2647 14.5409 40.0969 14.7853 40.1342C14.8211 40.1396 14.8586 40.1349 15.055 40.1349ZM15.5177 24.4052C14.863 24.389 14.1988 24.4146 13.5543 24.6957C13.2981 24.8075 13.2742 24.8757 13.4212 25.0606C13.5072 25.1784 13.6097 25.2834 13.7258 25.3724C14.5913 25.975 16.9618 25.8387 17.7872 25.1672C18.0853 24.9247 18.0191 24.7852 17.7028 24.703C16.9953 24.5192 16.297 24.2526 15.5177 24.4052ZM21.7578 31.0206C21.9996 31.7606 22.087 32.5138 22.4293 33.1838C22.57 33.4174 22.7409 33.6318 22.9377 33.8216C23.1055 34.0057 23.3141 34.0728 23.5037 33.8553C23.6759 33.6577 24.0708 33.5612 23.8557 33.1658C23.3977 32.3154 23.0052 31.4321 22.6815 30.5233C22.6357 30.3964 22.5549 30.1814 22.3907 30.2759C22.0938 30.438 21.8683 30.7034 21.7578 31.0206ZM15.6376 24.0384C16.277 24.0863 16.9122 24.1794 17.5382 24.3169C17.6743 24.3442 17.8713 24.4905 17.9357 24.3698C18.0789 24.1011 17.8857 23.8115 17.8789 23.5258C17.8747 23.3501 17.7388 23.3342 17.603 23.3522C16.8089 23.4571 16.0385 23.2832 15.2607 23.1741C14.4692 23.063 14.4464 23.1017 14.3712 23.8948C14.3513 24.1053 14.418 24.15 14.6037 24.1313C14.9488 24.0967 15.2947 24.0688 15.6376 24.0384ZM23.3917 36.0004C23.3931 36.2539 23.3756 36.5078 23.5275 36.7376C23.6365 36.9024 23.7297 36.9902 23.8985 36.7961C24.4523 36.1592 24.7372 35.4394 24.6096 34.5909C24.563 34.281 24.3942 34.2089 24.1729 34.4414C23.7555 34.8799 23.3564 35.3363 23.3917 36.0004ZM5.4564 34.8209L6.38314 35.0385C5.86173 34.4097 5.80404 34.3961 5.4564 34.8209Z" fill="#326CE5"/>
<path d="M13.9437 3.07031C13.8079 3.52266 14.0844 3.75625 14.4464 3.86982C14.8035 3.98185 14.8521 4.20795 14.7803 4.49333C14.6761 4.93432 14.5456 5.3688 14.3893 5.79447C14.2727 6.09805 13.9824 6.11733 13.6903 6.06522C13.0992 5.95979 12.566 5.74209 12.1466 5.29929C12.0858 5.2351 12.0185 5.13462 11.9273 5.20796C11.8198 5.29448 11.8842 5.39948 11.9539 5.49307C12.1056 5.69708 12.3471 5.77009 12.5613 5.84882C12.9585 5.99471 13.0928 6.29508 13.0925 6.65292C13.0921 7.07431 12.9985 7.49285 12.6585 7.79027C12.4312 7.98915 12.2127 7.70553 11.9258 7.74019C12.105 8.11404 12.1165 8.50459 12.055 8.96027C12.329 8.40228 12.7171 8.1744 13.3019 8.34603C13.8217 8.49857 14.1506 8.80331 14.1575 9.43303C14.8715 8.39467 15.5794 8.32167 16.3959 9.16129C16.4734 8.79703 16.5214 8.43147 16.8878 8.24321C16.9477 8.21243 16.994 8.12681 16.8593 8.12355C16.8061 8.1327 16.755 8.15131 16.7086 8.17848C17.3287 7.56738 17.7307 8.35084 18.265 8.41592C18.2833 8.12787 18.0578 7.81748 18.3279 7.55355L18.3142 7.54075C18.3596 7.74315 18.2081 7.99509 18.4123 8.14685C18.5671 8.26185 18.6207 7.98541 18.7684 7.98647L18.758 7.97927C18.7074 8.37292 18.4286 8.61502 18.1321 8.81328C16.3792 9.98507 12.9449 9.89907 11.2443 8.65379C11.159 8.59131 11.053 8.54341 11.0367 8.41921C11.2165 8.50415 11.3996 8.58351 11.5757 8.67617C11.7448 8.76519 11.8726 8.72074 11.9219 8.55234C12.0545 8.09879 11.7588 7.8416 11.4411 7.60755C11.2337 7.45474 10.992 7.37293 10.8006 7.60065C10.5272 7.92592 10.8622 8.11576 11.0143 8.34186C11.0316 8.37314 11.046 8.40591 11.0573 8.43977C10.5949 8.48987 10.4802 8.32964 10.5646 7.89668C10.6897 7.25555 11.2466 6.84606 11.4171 6.23723C11.3826 6.49887 11.1904 6.77934 11.3512 7.01782C11.6009 7.38794 11.9926 7.71227 12.4308 7.66896C12.85 7.62754 12.8465 7.13945 12.9135 6.78984C12.977 6.45865 12.9225 6.19697 12.5519 6.05312C12.3351 5.9561 12.1334 5.82898 11.9529 5.67563C11.793 5.55193 11.689 5.61711 11.5768 5.72664C11.7015 5.29258 11.7767 4.83236 12.206 4.5589C11.9456 4.9135 12.1224 5.12913 12.4161 5.36616C12.7879 5.66617 13.2238 5.785 13.6638 5.89588C14.014 5.98413 14.2696 5.85115 14.3646 5.47661C14.4533 5.12662 14.5513 4.77882 14.6532 4.43232C14.6801 4.34089 14.7148 4.21063 14.6388 4.1837C14.179 4.02065 13.9048 3.58062 13.4473 3.42091C13.6124 3.30438 13.7776 3.18784 13.9428 3.07312C13.9429 3.07493 13.9437 3.07031 13.9437 3.07031ZM12.9616 8.42584C12.6959 8.44994 12.4512 8.54705 12.3925 8.83317C12.3289 9.14342 12.6138 9.15202 12.8125 9.21591C12.9822 9.28159 13.1583 9.32972 13.3381 9.35953C13.5381 9.38029 13.8083 9.5769 13.9314 9.33345C14.0726 9.05434 13.8564 8.8191 13.6337 8.64707C13.4389 8.50505 13.2037 8.42761 12.9616 8.42584ZM15.0133 9.50893C15.1612 9.50927 15.3085 9.49091 15.4518 9.45429C15.6612 9.37228 16.068 9.55768 16.0565 9.2194C16.0464 8.91743 15.6804 8.81323 15.377 8.76851C15.2121 8.74143 15.0428 8.76711 14.8936 8.84183C14.6905 8.9454 14.4812 9.0952 14.5145 9.33038C14.5565 9.62624 14.8444 9.44525 15.0133 9.50893ZM17.3546 8.28233C17.0884 8.26889 16.8375 8.42318 16.6342 8.67744C16.5854 8.73154 16.5529 8.79807 16.5403 8.8695C16.5278 8.94093 16.5357 9.01442 16.5631 9.08164C16.6435 9.26334 16.8172 9.17925 16.9441 9.14557C17.261 9.06832 17.5673 8.95328 17.8562 8.80299C18.1592 8.63806 18.0397 8.52089 17.8415 8.3889C17.6941 8.30487 17.5241 8.26767 17.3546 8.28233Z" fill="#326CE5"/>
<path d="M18.328 7.5542C18.3749 7.30989 18.4381 7.10809 18.033 7.08447C17.5304 7.05515 17.5853 6.54945 17.4297 6.22899C17.493 6.19235 17.6664 6.26999 17.6189 6.14271C17.5104 5.85258 17.7062 5.69143 17.83 5.49512C17.5582 5.84655 17.8074 6.18237 17.8731 6.51608C17.9208 6.75825 18.0495 7.06074 18.3488 6.97711C18.6882 6.88226 18.4506 6.59515 18.4239 6.38677C18.4172 6.33372 18.4163 6.27993 18.4127 6.22647C18.4955 6.39405 18.667 6.3933 18.8162 6.43479L18.8159 6.43321C18.7242 6.67438 18.7958 6.88622 18.9015 7.11088C19.0467 7.41972 19.0833 7.73547 18.7581 7.97991L18.7685 7.98712C18.7834 7.88132 18.7958 7.77509 18.8139 7.6698C18.8381 7.52852 18.9071 7.34977 18.775 7.2647C18.5954 7.14892 18.5528 7.38193 18.4472 7.4592C18.4054 7.48987 18.3587 7.51419 18.3143 7.5414L18.328 7.5542Z" fill="#326CE5"/>
<path d="M16.7707 3.50884C16.5864 3.51186 16.4394 3.38557 16.2105 3.51351C15.3189 4.01183 14.6208 3.85508 13.9427 3.07195C13.9423 3.07021 13.9415 3.07483 13.9414 3.07303C14.0386 3.16663 14.1798 3.03594 14.2886 3.15619C14.484 3.38357 14.7498 3.54085 15.0447 3.60368C15.3397 3.66651 15.6473 3.63138 15.9201 3.50372C16.0165 3.45764 16.1431 3.42283 16.1331 3.29395C16.122 3.15108 15.9755 3.17599 15.8786 3.14087C15.4648 2.99092 15.02 3.14451 14.608 3.00597C15.391 2.90651 16.1548 2.89808 16.7777 3.50139L16.7707 3.50884Z" fill="#326CE5"/>
<path d="M15.0418 4.74414C15.0072 4.94024 14.9839 5.13907 14.936 5.33192C14.7953 5.898 14.8774 6.014 15.4523 6.05071C15.9962 6.08545 16.4961 5.9211 17.0413 5.67901C16.6207 6.11307 15.428 6.33867 14.9964 6.11152C14.9359 6.08837 14.8844 6.04677 14.8493 5.99275C14.8142 5.93873 14.7974 5.87507 14.8013 5.81099C14.8418 5.45013 14.74 5.05376 15.0508 4.755L15.0418 4.74414Z" fill="#326CE5"/>
<path d="M13.2241 11.5061C12.7108 11.5817 12.4404 11.4195 12.4783 10.9452C12.5202 10.421 12.3226 10.1123 11.8912 9.84766C11.5424 9.6344 11.2661 9.32288 11.0977 8.95312C11.5596 9.36394 11.9891 9.81017 12.5 10.1654C12.6963 10.3019 12.5636 10.5402 12.5664 10.7305C12.5731 11.1719 12.7567 11.4522 13.2222 11.5094C13.2232 11.5085 13.2238 11.5073 13.2241 11.5061Z" fill="#326CE5"/>
<path d="M17.4455 6.24779C16.8832 6.0297 16.0464 6.52023 16.0238 7.0836C16.0145 7.31729 16.0288 7.55269 16.0066 7.78492C15.9741 8.12588 16.1281 8.24533 16.4519 8.1982C16.0871 8.43427 15.9094 8.30458 15.8955 7.90552C15.8771 7.56381 15.8787 7.22134 15.9004 6.87983C15.9535 6.23843 16.6202 6.31628 16.9807 6.03345C17.1492 5.90131 17.3664 6.01028 17.4455 6.24779Z" fill="#326CE5"/>
<path d="M14.4587 11.3868C14.4639 11.3148 14.4716 11.2429 14.4741 11.1708C14.4981 10.4765 14.5472 10.4298 15.2443 10.5108C15.6038 10.5526 15.9508 10.6447 16.3259 10.5695C16.9436 10.4457 16.9918 10.5064 16.9869 11.1681L17.0044 11.1471C16.8927 10.7 16.6618 10.4898 16.1696 10.6824C16.0292 10.7373 15.8453 10.6913 15.6821 10.6805C14.7477 10.6186 14.7478 10.6175 14.4453 11.3685L14.4587 11.3868Z" fill="#326CE5"/>
<path d="M15.0512 4.75525C14.9244 4.28449 15.0663 4.02727 15.5989 4.01226C15.8486 4.00522 16.1149 3.97683 16.3275 3.80536C16.4676 3.6924 16.5905 3.71079 16.7263 3.87216C16.2618 3.956 15.8735 4.20519 15.3925 4.19514C15.0859 4.18873 15.1505 4.5504 15.0408 4.74285C15.0423 4.74439 15.0512 4.75525 15.0512 4.75525Z" fill="#326CE5"/>
<path d="M16.7765 3.50195C17.3352 3.74864 17.5877 4.24048 17.7779 4.78263C17.4962 4.31401 17.0985 3.93957 16.7695 3.50936L16.7765 3.50195Z" fill="#326CE5"/>
<path d="M14.2945 8.41332C13.3835 8.34162 13.1292 8.10793 13.1825 7.4707C13.2019 8.11083 13.7397 8.19898 14.2945 8.41332Z" fill="#326CE5"/>
<path d="M18.8161 6.43449C18.7977 6.1663 18.7284 5.90394 18.612 5.66104C18.496 5.42502 18.3178 5.20299 18.38 4.90527C18.5347 5.41111 18.9847 5.82884 18.8161 6.43206C18.816 6.43287 18.816 6.43369 18.8161 6.43449Z" fill="#326CE5"/>
<path d="M16.9661 35.3995C16.9487 35.7626 16.9513 36.1263 16.9736 36.4891C17.0329 37.0261 16.7677 37.3607 16.2977 37.4663C14.5812 37.8521 12.8834 37.9174 11.283 36.9995C10.6525 36.6378 10.465 36.089 10.6323 35.4301C10.8511 34.5683 11.1086 33.7155 11.3725 32.8659C11.483 32.5103 11.8029 32.4312 12.1334 32.473C13.1336 32.5996 14.1337 32.7313 15.1286 32.8924C15.307 32.9113 15.4875 32.891 15.6571 32.833C16.3005 32.6753 16.8397 33.0103 16.9627 33.6576C17.0723 34.2346 17.0146 34.8181 16.9661 35.3995ZM16.6916 35.2384C16.6916 34.7469 16.6582 34.3812 16.6988 34.0238C16.7732 33.3702 16.5166 33.1045 15.8672 33.2647C15.5838 33.3385 15.2875 33.3492 14.9994 33.2959C14.0643 33.1203 13.1302 32.9392 12.1943 32.7677C11.9159 32.7166 11.6519 32.6853 11.555 33.0719C11.3526 33.8788 11.1336 34.6816 10.8979 35.4802C10.7795 35.8833 10.8803 36.1766 11.2111 36.432C12.7521 37.6217 14.4487 37.7518 16.25 37.1682C16.6974 37.0233 16.7763 36.6541 16.7556 36.2479C16.7363 35.8684 16.7078 35.4895 16.6916 35.2384Z" fill="#326CE5"/>
<path d="M16.6918 17.8403C16.6189 18.3171 16.5366 18.8542 16.4546 19.3914C16.4093 19.6883 16.1609 19.7765 15.933 19.7891C14.9425 19.8437 13.96 19.8325 13.076 19.2722C12.5812 18.9586 12.45 18.5442 12.6564 18.0168C12.8214 17.5949 13.0145 17.1835 13.1715 16.7589C13.2972 16.419 13.5184 16.3252 13.8568 16.4083C14.6146 16.5943 15.3596 16.8149 16.1543 16.8573C16.6836 16.8855 16.6861 17.3683 16.6918 17.8403Z" fill="#326CE5"/>
<path d="M20.3865 8.65661L20.3865 8.65685L19.4204 4.50601C19.3944 4.39863 19.3447 4.29829 19.2747 4.21224C19.2048 4.12618 19.1165 4.05655 19.016 4.00837L15.1056 2.16154C15.0043 2.1137 14.8934 2.08887 14.7811 2.08887C14.6688 2.08887 14.558 2.1137 14.4566 2.16154L10.5471 4.00933C10.4466 4.05748 10.3582 4.1271 10.2883 4.21316C10.2183 4.29922 10.1685 4.39957 10.1426 4.50697L9.17806 8.65768C9.15427 8.76258 9.15419 8.87138 9.17782 8.97631C9.18479 9.0083 9.1939 9.03979 9.20508 9.07058C9.22395 9.12312 9.24893 9.1733 9.27952 9.22012C9.29279 9.24016 9.30678 9.25962 9.32198 9.27847L12.0281 12.6067C12.04 12.6212 12.053 12.6344 12.0659 12.6479C12.1084 12.6926 12.1563 12.7319 12.2086 12.7649C12.2748 12.8061 12.3469 12.8371 12.4225 12.8569C12.4845 12.8737 12.5484 12.8824 12.6126 12.8828H12.6548L16.9524 12.8818C16.9785 12.8817 17.0046 12.8802 17.0306 12.8773C17.0678 12.8731 17.1046 12.8662 17.1408 12.8565C17.1668 12.8498 17.1923 12.8417 17.2174 12.8323C17.237 12.8249 17.2565 12.8175 17.2753 12.8085C17.3036 12.7952 17.331 12.7801 17.3574 12.7634C17.4255 12.7211 17.4861 12.668 17.5369 12.6063L17.6194 12.5048L20.2421 9.2774C20.2924 9.21503 20.3319 9.14487 20.359 9.06975C20.3703 9.03889 20.3796 9.00731 20.3867 8.97524C20.4104 8.87032 20.4103 8.7615 20.3865 8.65661ZM10.6706 8.63276C10.6514 8.57514 10.6559 8.51237 10.683 8.45797C10.6916 8.54353 10.703 8.62816 10.7162 8.71221C10.6958 8.68899 10.6803 8.66198 10.6706 8.63276ZM14.7335 3.50938C14.7615 3.5016 14.7911 3.50082 14.8195 3.5071C14.7908 3.50781 14.762 3.50808 14.7335 3.50938Z" fill="#326CE5"/>
<path d="M18.5367 8.16017C18.5171 8.15574 18.4892 8.14815 18.4701 8.14465C18.3974 8.1347 18.3241 8.12885 18.2507 8.12715C18.112 8.11817 17.9745 8.09585 17.8402 8.06051C17.7988 8.03742 17.7646 8.0034 17.7415 7.96225L17.6491 7.93564C17.7479 7.22167 17.5783 6.49668 17.1725 5.89822C17.1961 5.87698 17.2409 5.83777 17.2535 5.82622C17.2504 5.77956 17.2658 5.73352 17.2965 5.69796C17.4019 5.60837 17.5159 5.52914 17.6368 5.4614C17.7023 5.4285 17.7658 5.39187 17.827 5.3517C17.8418 5.34085 17.8619 5.32369 17.8774 5.31144C17.9046 5.29433 17.928 5.27173 17.9458 5.24512C17.9637 5.2185 17.9756 5.18847 17.981 5.15698C17.9863 5.12548 17.9849 5.09322 17.9768 5.0623C17.9687 5.03138 17.9542 5.00249 17.9341 4.97751C17.9139 4.95253 17.8887 4.93202 17.8601 4.91731C17.8314 4.9026 17.8 4.89402 17.7677 4.89213C17.7355 4.89024 17.7032 4.89508 17.673 4.90634C17.6428 4.9176 17.6153 4.93502 17.5924 4.95748C17.5768 4.96961 17.5556 4.9856 17.5416 4.99751C17.4882 5.04732 17.4377 5.10016 17.3904 5.15576C17.2968 5.25747 17.1935 5.34995 17.0819 5.43188C17.0379 5.44958 16.9898 5.45475 16.943 5.44682L16.8559 5.50832C16.3548 4.98807 15.6798 4.66544 14.9563 4.60036C14.9541 4.57026 14.9515 4.51575 14.9507 4.49929C14.9119 4.47264 14.8851 4.43202 14.876 4.38609C14.8712 4.24869 14.8799 4.11115 14.902 3.97541C14.9166 3.90433 14.927 3.83248 14.9331 3.76021C14.9338 3.74201 14.9328 3.71551 14.9328 3.69579C14.936 3.66412 14.9325 3.63214 14.9225 3.6019C14.9124 3.57166 14.8961 3.54384 14.8745 3.52023C14.8529 3.49663 14.8266 3.47777 14.7972 3.46486C14.7678 3.45196 14.736 3.4453 14.7038 3.44531C14.6716 3.44533 14.6398 3.45202 14.6104 3.46496C14.581 3.47789 14.5547 3.49678 14.5331 3.52041C14.5116 3.54404 14.4952 3.57187 14.4852 3.60212C14.4752 3.63237 14.4718 3.66436 14.475 3.69602C14.475 3.69812 14.4755 3.70022 14.4756 3.70232C14.4754 3.72111 14.4744 3.74387 14.475 3.76033C14.4813 3.83263 14.4917 3.90452 14.5063 3.97564C14.5282 4.11136 14.5368 4.24886 14.5318 4.38621C14.5188 4.43143 14.493 4.47204 14.4574 4.50326L14.452 4.59907C14.3128 4.61044 14.1745 4.63146 14.0383 4.66198C13.4658 4.78994 12.9451 5.08421 12.543 5.50703C12.5152 5.48804 12.4876 5.46871 12.4603 5.44903C12.415 5.46242 12.3662 5.45772 12.3244 5.43596C12.2127 5.35418 12.1094 5.26182 12.0159 5.16018C11.9688 5.10462 11.9185 5.05178 11.8652 5.00193C11.8513 4.99015 11.83 4.97405 11.8144 4.96179C11.769 4.9256 11.7131 4.90474 11.6549 4.90227C11.6203 4.90046 11.5857 4.90675 11.554 4.92062C11.5223 4.93449 11.4944 4.95555 11.4725 4.9821C11.4354 5.0338 11.4205 5.09792 11.431 5.16047C11.4416 5.22301 11.4767 5.27888 11.5288 5.31587L11.5323 5.31832C11.5473 5.33046 11.5657 5.34598 11.5796 5.35602C11.6407 5.39619 11.704 5.43286 11.7693 5.46583C11.8903 5.53358 12.0043 5.61285 12.1097 5.70251C12.1371 5.74094 12.153 5.78618 12.1557 5.83311L12.229 5.89787C11.8243 6.49849 11.658 7.22576 11.762 7.94019L11.6662 7.96773C11.6412 8.00725 11.6076 8.04074 11.5678 8.06576C11.4336 8.10119 11.2962 8.12359 11.1576 8.13263C11.0841 8.13429 11.0108 8.14013 10.938 8.15014C10.9205 8.15329 10.896 8.15947 10.8769 8.16414L10.8749 8.1646L10.8716 8.16554C10.8399 8.16966 10.8094 8.18029 10.7821 8.19673C10.7548 8.21318 10.7313 8.23508 10.713 8.26104C10.6948 8.287 10.6822 8.31645 10.6761 8.34749C10.67 8.37854 10.6705 8.4105 10.6776 8.44134C10.6847 8.47217 10.6983 8.5012 10.7174 8.52656C10.7365 8.55192 10.7607 8.57306 10.7885 8.58863C10.8164 8.60419 10.8472 8.61383 10.879 8.61694C10.9108 8.62005 10.9429 8.61655 10.9733 8.60668L10.9767 8.60621C10.9783 8.60586 10.9796 8.60504 10.9811 8.60481C11 8.60061 11.0237 8.59606 11.0403 8.59162C11.1102 8.56956 11.1787 8.54357 11.2456 8.51378C11.3745 8.46237 11.5081 8.42348 11.6446 8.39766C11.6919 8.40053 11.7375 8.41646 11.7762 8.44365L11.876 8.42673C12.0999 9.11125 12.5694 9.69104 13.1958 10.0567L13.1541 10.1555C13.1735 10.1952 13.1806 10.2397 13.1745 10.2835C13.1175 10.4125 13.0481 10.5358 12.9674 10.6517C12.923 10.7096 12.882 10.77 12.8447 10.8326C12.8356 10.8496 12.824 10.8758 12.8153 10.8936C12.7988 10.9208 12.7882 10.9511 12.7842 10.9826C12.7803 11.0141 12.783 11.0461 12.7923 11.0764C12.8016 11.1068 12.8172 11.1349 12.8381 11.159C12.859 11.183 12.8848 11.2025 12.9138 11.2161C12.9428 11.2297 12.9743 11.2371 13.0064 11.238C13.0384 11.2388 13.0703 11.2329 13.1 11.2208C13.1296 11.2087 13.1564 11.1906 13.1785 11.1677C13.2007 11.1447 13.2177 11.1174 13.2286 11.0876L13.2289 11.0871V11.0866C13.2377 11.0689 13.2499 11.0457 13.2572 11.0291C13.2833 10.9613 13.3054 10.892 13.3233 10.8216C13.3628 10.6785 13.4225 10.5416 13.5005 10.4149C13.5278 10.3896 13.5622 10.373 13.5991 10.3673L13.6511 10.2745C14.3305 10.5329 15.0823 10.5348 15.763 10.2797C15.7775 10.3054 15.8046 10.3544 15.8118 10.3668C15.8586 10.3742 15.9005 10.3994 15.9286 10.437C15.9934 10.5586 16.0461 10.6861 16.0858 10.8177C16.1039 10.8881 16.126 10.9574 16.1522 11.0252C16.1596 11.0419 16.1718 11.0655 16.1805 11.0832C16.1913 11.1131 16.2083 11.1405 16.2305 11.1635C16.2526 11.1865 16.2793 11.2046 16.309 11.2168C16.3386 11.229 16.3705 11.2348 16.4026 11.2341C16.4347 11.2333 16.4663 11.2259 16.4953 11.2123C16.5243 11.1987 16.5502 11.1793 16.5711 11.1553C16.5921 11.1312 16.6077 11.1031 16.6171 11.0727C16.6264 11.0423 16.6292 11.0104 16.6252 10.9788C16.6213 10.9473 16.6108 10.917 16.5943 10.8897C16.5855 10.8719 16.5735 10.8457 16.5644 10.8288C16.5271 10.7664 16.4861 10.7062 16.4417 10.6484C16.3624 10.5354 16.2944 10.415 16.2388 10.289C16.2267 10.2439 16.2331 10.196 16.2564 10.1555C16.2417 10.1258 16.229 10.0953 16.2183 10.0641C16.8467 9.69545 17.3162 9.11118 17.5375 8.42241C17.5671 8.42708 17.6187 8.43594 17.6354 8.43933C17.6702 8.40772 17.7162 8.39084 17.7634 8.3923C17.9 8.41809 18.0336 8.45698 18.1625 8.50842C18.2294 8.53845 18.298 8.56464 18.3679 8.58684C18.3845 8.59116 18.4081 8.59524 18.427 8.59933C18.4286 8.5998 18.43 8.6005 18.4315 8.60085L18.4348 8.60131C18.4652 8.61117 18.4973 8.61466 18.5291 8.61154C18.5609 8.60843 18.5917 8.59878 18.6195 8.58322C18.6473 8.56766 18.6716 8.54653 18.6907 8.52118C18.7098 8.49583 18.7233 8.46682 18.7304 8.436C18.7375 8.40518 18.7381 8.37323 18.732 8.3422C18.7259 8.31116 18.7133 8.28172 18.6951 8.25576C18.6769 8.2298 18.6534 8.20789 18.6261 8.19143C18.5988 8.17497 18.5683 8.16432 18.5367 8.16017ZM16.3621 5.85434L15.384 6.54021L15.3806 6.53869C15.3511 6.55996 15.3164 6.57292 15.28 6.57621C15.2437 6.5795 15.2072 6.57299 15.1743 6.55736C15.1414 6.54174 15.1134 6.5176 15.0932 6.48749C15.0731 6.45739 15.0616 6.42245 15.06 6.38639L15.0589 6.38593L14.9909 5.20021C15.5081 5.26374 15.9898 5.49356 16.3621 5.85434ZM14.5196 7.15395H14.8877L15.1166 7.43696L15.0345 7.78998L14.7039 7.9473L14.3724 7.78964L14.2901 7.43649L14.5196 7.15395ZM14.1732 5.24176C14.2539 5.2238 14.3354 5.20993 14.4175 5.20021L14.3494 6.38768L14.3444 6.39001C14.3429 6.42607 14.3315 6.46105 14.3114 6.49121C14.2914 6.52137 14.2635 6.54559 14.2306 6.56129C14.1978 6.57699 14.1612 6.58358 14.1249 6.58036C14.0885 6.57714 14.0537 6.56423 14.0242 6.54301L14.0223 6.54406L13.0379 5.85364C13.3513 5.549 13.7446 5.33707 14.1732 5.24176ZM12.6809 6.29746L13.5797 7.09256L13.5787 7.09746C13.6063 7.12118 13.6268 7.15184 13.6381 7.18618C13.6494 7.22051 13.6511 7.25724 13.6429 7.29244C13.6348 7.32764 13.6171 7.36 13.5919 7.38607C13.5666 7.41214 13.5347 7.43093 13.4995 7.44046L13.4985 7.44431L12.3465 7.77318C12.2891 7.25817 12.4067 6.73892 12.6809 6.29746ZM13.8843 8.4098L13.4266 9.5039C12.9872 9.2257 12.653 8.81186 12.4757 8.32659L13.6568 8.1282L13.6589 8.13077C13.6719 8.12829 13.6852 8.12711 13.6985 8.12727C13.7316 8.12776 13.7641 8.13632 13.7931 8.15218C13.8221 8.16803 13.8467 8.19071 13.8647 8.21819C13.8827 8.24568 13.8936 8.27713 13.8964 8.30978C13.8993 8.34242 13.8939 8.37525 13.8809 8.40537L13.8843 8.4098ZM15.2354 9.81689C14.8071 9.91402 14.3599 9.89127 13.944 9.75119L14.5249 8.71206H14.5259C14.5431 8.6803 14.5688 8.65375 14.6001 8.63524C14.6313 8.61672 14.6671 8.60693 14.7036 8.60689C14.74 8.60685 14.7758 8.61658 14.8071 8.63503C14.8384 8.65348 14.8641 8.67998 14.8815 8.71171H14.8858L15.4682 9.75259C15.3926 9.77756 15.315 9.799 15.2354 9.81689ZM15.986 9.50833L15.5235 8.40303L15.5249 8.40104C15.5044 8.35376 15.5031 8.30046 15.5213 8.25227C15.5395 8.20407 15.5759 8.16468 15.6227 8.14231C15.6469 8.13063 15.6731 8.12388 15.7 8.12247C15.7155 8.12177 15.7311 8.1229 15.7463 8.12586L15.7484 8.12341L16.9401 8.32263C16.7641 8.8118 16.4284 9.22901 15.986 9.50833ZM17.0652 7.76933L15.9074 7.43941L15.9063 7.43462C15.8712 7.42503 15.8393 7.40619 15.814 7.3801C15.7888 7.35401 15.7712 7.32166 15.7631 7.28647C15.755 7.25128 15.7567 7.21457 15.7679 7.18024C15.7792 7.14592 15.7997 7.11525 15.8272 7.09151L15.8267 7.08918L16.7205 6.29794C16.9942 6.73823 17.1152 7.25483 17.0652 7.76933Z" fill="white"/>
<path d="M28.1305 30.0241C28.1708 29.9999 28.2144 29.9815 28.2599 29.9696C28.6016 29.9268 28.8815 29.8039 29.0679 29.4885C29.1831 29.2937 29.4018 29.3039 29.5955 29.3673C29.961 29.4868 30.211 29.7165 30.2839 30.1109C30.3527 30.4828 30.1825 30.7287 29.8925 30.9351C29.5931 31.1482 29.5806 31.3714 29.8307 31.6465C30.2997 32.1622 31.1773 32.3507 31.8074 32.0405C33.0755 31.4162 33.7089 30.3305 33.9937 29.0098C34.0414 28.7812 34.0556 28.5471 34.0361 28.3145C33.9759 27.5291 33.599 26.8873 33.1354 26.2816C32.7351 25.7674 32.3861 25.2161 32.0935 24.6352C31.5662 23.5704 30.7342 22.8233 29.5324 22.5865C28.0126 22.2871 26.6358 22.6232 25.4689 23.6521C24.6201 24.4004 24.0963 25.3614 23.7452 26.4188C23.3143 27.7162 23.4334 28.9592 24.1464 30.1366C24.5852 30.8613 24.7587 31.6196 24.5759 32.4679C24.4332 33.13 24.4925 33.7807 24.9697 34.3367C25.0437 34.4289 25.0962 34.5361 25.1235 34.6506C25.1509 34.7652 25.1523 34.8843 25.1278 34.9995C24.8748 36.5758 24.0949 37.813 22.6793 38.6069C19.3907 40.451 15.8381 40.879 12.1422 40.4638C9.72091 40.2063 7.41249 39.3161 5.45381 37.8846C5.36624 37.8002 5.25711 37.741 5.13811 37.7133C5.14923 37.8206 5.19644 37.9212 5.27218 37.9988C6.28148 39.4866 7.59132 40.7514 9.11919 41.7137C9.61391 42.0233 9.68233 42.1777 9.54108 42.7449C9.22882 43.9986 9.84359 45.0042 11.1184 45.2853C11.8096 45.4377 12.5074 45.3753 13.1948 45.2371C13.7769 45.1202 13.9761 44.8794 14.0657 44.2896C14.1148 43.9663 14.0972 43.6413 14.1254 43.3184C14.18 42.6931 14.5087 42.4343 15.1365 42.5137C15.289 42.533 15.4403 42.561 15.5921 42.5852C16.8985 42.794 18.2023 42.8405 19.5029 42.5377C19.9689 42.4292 20.1342 42.5395 20.2429 43.0105C20.3364 43.4157 20.4085 43.8267 20.5225 44.2261C20.6311 44.6065 20.8574 44.9126 21.2844 44.9776C22.4221 45.1507 23.537 45.0636 24.604 44.6139C25.5085 44.2327 25.8236 43.4856 25.4614 42.5742C25.2289 41.9893 24.9617 41.4179 24.7096 40.8406C24.6485 40.7007 24.5646 40.5581 24.6374 40.4046C24.8111 40.0384 24.9282 39.6428 25.1911 39.3218C25.731 38.6405 26.1102 37.8485 26.3012 37.0037C26.5104 36.1668 26.7297 35.3324 26.9594 34.5005C27.2126 33.5768 27.8145 33.0263 28.7781 32.8658C29.1215 32.8086 29.4586 32.7154 29.801 32.6514C30.0376 32.6072 30.1003 32.5357 29.9357 32.3198C29.7325 32.0533 29.5587 31.7643 29.3798 31.4804C29.063 30.9777 28.7118 30.5061 28.2144 30.1598C28.1891 30.1471 28.1679 30.1277 28.1531 30.1037C28.1382 30.0798 28.1304 30.0522 28.1305 30.0241ZM7.62098 35.9222C7.62098 35.962 7.61279 35.9873 7.62215 36.0005C8.1886 36.7965 8.44203 37.6316 7.97039 38.5673C7.88984 38.727 8.00032 38.8115 8.1401 38.8627C8.28912 38.9173 8.37519 38.8514 8.4208 38.7139C8.44318 38.6465 8.46222 38.5779 8.48548 38.5108C8.80533 37.5878 9.43763 37.1864 10.4191 37.2826C10.5313 37.2937 10.6438 37.3028 10.7557 37.3163C12.2732 37.4996 13.2801 38.4481 13.283 39.8156C13.2832 39.9176 13.2908 40.0414 13.4202 40.0547C13.5663 40.0697 13.5556 39.9327 13.5786 39.8389C13.8595 38.6929 14.4785 38.1041 15.5834 37.9458C15.8991 37.904 16.219 37.9036 16.5348 37.9445C17.4945 38.0582 18.2639 38.442 18.6211 39.402C18.6384 39.4486 18.661 39.4966 18.7354 39.4934C18.8383 39.3903 18.7624 39.2682 18.757 39.1552C18.7287 38.5575 18.8468 38.0049 19.2528 37.5382C20.2824 36.3546 21.8435 36.2838 22.964 37.3697C22.9933 37.3981 23.0214 37.4278 23.0519 37.4549C23.0963 37.4946 23.139 37.557 23.2063 37.5306C23.2892 37.4981 23.285 37.4133 23.2725 37.3454C23.2353 37.105 23.1855 36.8667 23.1235 36.6314C23.0018 36.2193 23.015 35.7797 23.1613 35.3755C23.2593 35.0976 23.3793 34.8278 23.5202 34.5686C23.5567 34.5001 23.6329 34.4278 23.5795 34.3463C23.5262 34.2648 23.4309 34.3048 23.3518 34.3104C22.7864 34.3501 22.6021 34.2493 22.3586 33.7447C22.0977 33.2041 21.8915 32.641 21.6654 32.086C21.3302 31.2633 21.3266 30.5246 22.108 29.9298C22.3076 29.7778 22.3228 29.5793 22.2 29.36C22.061 29.1117 21.9429 28.8518 21.8028 28.6041C21.1101 27.3789 20.285 26.2652 19.0861 25.4684C18.704 25.2144 18.5173 25.1939 18.1976 25.458C16.9148 26.5172 14.7935 26.4393 13.4373 25.6475C13.2393 25.537 13.085 25.3634 12.9996 25.1549C12.8895 24.8892 12.7712 24.8585 12.5333 25.0107C12.292 25.1651 12.2708 25.2789 12.4577 25.5C12.9002 26.0238 13.4781 26.3316 14.1273 26.5364C14.6329 26.6959 14.7955 26.9014 14.7408 27.3448C14.5621 28.6841 14.2007 29.9933 13.6666 31.2366C13.4367 31.7876 12.99 32.0089 12.3996 31.9397C10.6599 31.7357 9.07905 31.1988 7.9204 29.8025C7.80495 29.6633 7.70145 29.6817 7.58445 29.7887C7.39879 29.9583 7.4114 30.1284 7.6236 30.3706C8.09396 30.9076 8.74582 31.1443 9.38486 31.3891C10.0929 31.6602 10.4461 32.1739 10.5676 32.8905C10.7342 33.8732 10.4436 34.7592 9.99349 35.6089C9.63651 36.2829 9.37174 36.3873 8.61958 36.1965C8.44101 36.1512 8.2665 36.0904 8.08937 36.0393C7.94062 35.9756 7.78246 35.9361 7.62098 35.9222ZM12.21 31.4158C12.9456 31.4103 13.3063 31.1934 13.4429 30.6919C13.7226 29.6648 13.975 28.6305 14.2487 27.6019C14.3261 27.3114 14.2222 27.134 13.9626 27.0157C13.5905 26.8462 13.2171 26.6791 12.849 26.5014C12.4996 26.3477 12.2105 26.0852 12.0257 25.754C11.7766 25.287 11.6476 25.2517 11.1924 25.553C9.94546 26.3632 8.90031 27.4423 8.13537 28.7093C7.916 29.0751 7.92537 29.283 8.21884 29.5836C9.34318 30.735 10.7771 31.2145 12.21 31.4158ZM10.1708 32.7241C10.1822 32.3998 9.88956 32.2496 9.59871 32.1217C8.89637 31.813 8.2314 31.4271 7.61636 30.9712C7.195 30.6593 7.07648 30.6975 6.91896 31.211C6.66338 32.0443 6.42949 32.8841 6.17822 33.7187C6.14508 33.8196 6.14001 33.9276 6.16355 34.0312C6.18708 34.1348 6.23835 34.2302 6.31198 34.3074C6.81873 34.9216 7.48515 35.3087 8.20114 35.6261C9.14015 36.0424 9.32989 35.9661 9.7488 35.0232C10.0648 34.3119 10.071 33.5446 10.1708 32.7241ZM10.4595 37.7427C9.72921 37.7436 9.31154 37.9298 9.05014 38.3725C8.75412 38.8738 8.86454 39.194 9.41138 39.3855C10.3618 39.7184 11.3506 39.8988 12.3369 40.0864C12.6044 40.1373 12.7444 40.0196 12.7695 39.748C12.8081 39.4327 12.7343 39.114 12.561 38.8467C12.064 38.0977 11.3542 37.7483 10.4595 37.7427ZM5.71121 35.4469C4.98135 35.449 4.63874 35.93 4.86674 36.5506C4.94015 36.7402 5.04353 36.917 5.173 37.0745C5.62486 37.6458 6.26966 37.9437 6.90288 38.2512C7.41067 38.4978 7.77192 38.2837 7.82281 37.7258C7.83498 37.615 7.82729 37.503 7.80012 37.3949C7.53103 36.4327 6.89935 35.8077 5.9541 35.4843C5.87485 35.4627 5.79335 35.4501 5.71121 35.4469ZM19.129 38.9371C19.1184 39.3257 19.1896 39.3936 19.5735 39.3161C20.6097 39.1132 21.6024 38.7338 22.5073 38.1949C22.8412 37.9944 22.8564 37.8783 22.5805 37.6188C22.1114 37.1776 21.5332 37.0975 20.923 37.1575C19.9544 37.2528 19.1533 38.0536 19.129 38.9371ZM15.0328 40.1259L15.0344 40.1411C15.6866 40.0894 16.339 40.0399 16.9909 39.9849C17.1946 39.9677 17.3981 39.9426 17.5997 39.9091C18.0875 39.8282 18.1539 39.6636 17.8678 39.263C17.2488 38.3964 15.8059 38.1512 14.8502 38.751C14.5133 38.9513 14.2581 39.262 14.1288 39.6291C14.0179 39.9507 14.1401 40.1177 14.4803 40.1251C14.6644 40.1292 14.8486 40.1259 15.0328 40.1259ZM15.4564 25.7422C15.964 25.7563 16.4708 25.6942 16.9596 25.5581C17.2601 25.4897 17.5418 25.357 17.7849 25.1693C17.9869 25.0018 17.966 24.8564 17.7246 24.769C16.4505 24.3078 15.1587 24.3655 13.8609 24.6522C13.7917 24.6707 13.7245 24.6958 13.6602 24.7272C13.3772 24.8511 13.3612 24.9306 13.5628 25.1751C13.7461 25.3826 13.9898 25.5287 14.2606 25.5936C14.648 25.7087 15.0522 25.7589 15.4564 25.7422ZM23.8935 33.4367C23.8917 33.3098 23.8547 33.1858 23.7865 33.0784C23.4498 32.4397 23.149 31.7832 22.8853 31.1118C22.8085 30.9128 22.7361 30.712 22.652 30.5162C22.6059 30.4089 22.536 30.3261 22.3903 30.3713C22.0834 30.4666 21.8026 30.9369 21.8812 31.2459C21.9888 31.6687 22.0989 32.091 22.2157 32.5115C22.3346 32.9979 22.5916 33.4407 22.9563 33.7875C23.0819 33.9023 23.2206 34.0285 23.3873 33.926C23.5983 33.7964 23.8347 33.6708 23.8935 33.4367ZM15.6967 24.0325C16.3497 24.082 16.9976 24.1836 17.634 24.3363C17.7512 24.364 17.8992 24.4392 17.9497 24.274C18.0308 24.0082 17.9154 23.7507 17.8238 23.51C17.7607 23.3442 17.571 23.4336 17.4343 23.4387C17.1373 23.4569 16.8392 23.4481 16.5438 23.4124C16.0568 23.3426 15.5704 23.2657 15.0815 23.2126C14.5941 23.1597 14.4599 23.298 14.4437 23.7857C14.4358 24.0252 14.5354 24.1236 14.7714 24.1041C15.0676 24.0795 15.364 24.0581 15.6967 24.0325ZM24.6401 34.9563C24.6326 34.8486 24.6181 34.7416 24.5968 34.6358C24.5302 34.3586 24.412 34.3256 24.1993 34.5276C23.9423 34.7609 23.7343 35.0419 23.5871 35.3547C23.4111 35.7476 23.387 36.1906 23.5192 36.6C23.6086 36.8965 23.7862 36.9397 23.9713 36.7168C24.3967 36.2261 24.6336 35.6027 24.6401 34.9563Z" fill="url(#paint2_linear_5815_12885)"/>
<path d="M29.8991 26.8599C29.9019 26.4938 29.9782 26.1903 30.2745 26.2056C30.5729 26.221 30.6883 26.5271 30.6837 26.8197C30.6792 27.1073 30.597 27.4207 30.2562 27.3975C29.9175 27.3744 29.8933 27.0497 29.8991 26.8599Z" fill="#326CE5"/>
<path d="M24.6695 16.9916C24.5421 16.6123 24.3261 16.2681 24.0391 15.9868C24.1177 15.8026 24.3407 15.8751 24.4419 15.7349C24.6777 15.4081 24.9283 15.5361 25.1156 15.7726C25.3068 16.0141 25.3203 16.3044 25.0238 16.4789C24.8065 16.6067 24.746 16.7988 24.6618 16.9984C24.6595 17.0006 24.6695 16.9916 24.6695 16.9916Z" fill="#326CE5"/>
<path d="M25.5013 13.6445C25.5734 13.6602 25.637 13.7018 25.6798 13.7613C25.7226 13.8208 25.7415 13.8939 25.7328 13.9664C25.736 14.1599 25.6785 14.3624 25.4544 14.3643C25.2784 14.3659 25.259 14.1776 25.2671 14.0283C25.276 13.864 25.2935 13.6982 25.5013 13.6445Z" fill="#326CE5"/>
<path d="M16.6218 32.0377C16.1432 32.1035 15.6557 32.0552 15.1998 31.8969C14.6596 31.7154 14.4462 31.3908 14.5352 30.8652C14.7138 29.8106 14.8959 28.7565 15.0882 27.7042C15.2277 26.9409 15.3546 26.8589 16.11 26.7508C16.972 26.6276 17.8856 26.6331 18.5619 25.9429C18.6909 25.8112 18.8292 25.8738 18.9588 25.9612C19.171 26.1042 19.4316 26.2067 19.5894 26.3942C20.312 27.2529 21.0738 28.0901 21.4106 29.1993C21.4575 29.3257 21.471 29.462 21.4499 29.595C21.4287 29.7281 21.3735 29.8536 21.2895 29.9597C20.3373 31.2614 18.9752 31.7946 17.4333 31.9951C17.2157 32.0233 16.9938 32.0193 16.6218 32.0377ZM14.8383 30.8764C14.6799 31.3226 15.0869 31.5698 15.6848 31.6588C17.3507 31.907 18.8341 31.3798 20.2581 30.5991C21.0358 30.1727 21.2592 29.5423 20.8767 28.7485C20.4827 27.9673 19.9623 27.2551 19.3361 26.6401C19.1408 26.4408 18.8972 26.2422 18.5661 26.4602C17.8433 26.941 16.9786 27.1687 16.1098 27.1068C15.736 27.0839 15.6037 27.2484 15.5122 27.5763C15.2186 28.628 15.0485 29.7019 14.8383 30.8764Z" fill="#326CE5"/>
<path d="M17.43 34.8033C17.43 34.3129 17.4227 33.8223 17.4325 33.332C17.4393 32.9913 17.6103 32.7024 17.9276 32.6072C18.6452 32.3919 19.2257 31.9342 19.8791 31.608C20.496 31.3001 21.0032 31.4073 21.3367 32.0057C21.7258 32.7036 22.136 33.3958 22.3771 34.1673C22.6519 35.0467 22.4417 35.5649 21.6292 36.0323C21.0177 36.3841 20.3464 36.5733 19.6806 36.7777C19.2574 36.8991 18.8413 37.0436 18.4343 37.2106C17.8876 37.4465 17.6102 37.2771 17.4931 36.7067C17.3635 36.0754 17.4026 35.439 17.43 34.8033ZM17.8082 34.8787C17.8278 35.492 17.6997 36.1103 17.8473 36.7228C17.9171 37.0119 18.0182 37.0672 18.3011 36.9335C18.6544 36.7834 19.0163 36.6541 19.385 36.5462C20.2508 36.2557 21.1541 36.0693 21.9191 35.5181C22.2574 35.2745 22.3341 35.0452 22.2131 34.6493C21.9173 33.6811 21.3031 32.8681 20.923 31.9427C20.8069 31.66 20.5363 31.7698 20.3452 31.8432C19.9874 31.9855 19.6381 32.1477 19.2988 32.329C18.797 32.5897 18.0988 32.7545 17.8643 33.17C17.6148 33.6121 17.8082 34.2988 17.8082 34.8787Z" fill="#326CE5"/>
<path d="M20.9928 19.1749C20.96 19.1675 20.9133 19.1548 20.8813 19.1489C20.7594 19.1322 20.6366 19.1224 20.5135 19.1196C20.2811 19.1045 20.0508 19.0671 19.8257 19.0079C19.7562 18.9692 19.6989 18.9122 19.6602 18.8432L19.5054 18.7986C19.6709 17.6021 19.3867 16.3871 18.7066 15.3842C18.7462 15.3486 18.8213 15.2829 18.8424 15.2635C18.8371 15.1853 18.863 15.1082 18.9144 15.0486C19.0911 14.8984 19.2821 14.7657 19.4848 14.6521C19.5945 14.597 19.701 14.5356 19.8035 14.4683C19.8282 14.4501 19.8621 14.4213 19.888 14.4008C19.9336 14.3721 19.9727 14.3343 20.0026 14.2897C20.0325 14.2451 20.0526 14.1947 20.0616 14.142C20.0705 14.0892 20.0682 14.0351 20.0546 13.9833C20.0411 13.9315 20.0166 13.8831 19.9829 13.8412C19.9492 13.7993 19.907 13.7649 19.8589 13.7403C19.8109 13.7156 19.7582 13.7013 19.7042 13.6981C19.6502 13.6949 19.5961 13.703 19.5454 13.7219C19.4948 13.7408 19.4488 13.77 19.4103 13.8076C19.3842 13.828 19.3486 13.8548 19.3253 13.8747C19.2357 13.9582 19.151 14.0467 19.0718 14.1399C18.915 14.3104 18.7419 14.4653 18.5548 14.6026C18.4811 14.6323 18.4005 14.641 18.3221 14.6277L18.1762 14.7308C17.3363 13.8589 16.205 13.3182 14.9925 13.2091C14.989 13.1587 14.9846 13.0673 14.9832 13.0398C14.9181 12.9951 14.8732 12.927 14.8581 12.8501C14.85 12.6198 14.8646 12.3893 14.9016 12.1618C14.926 12.0427 14.9434 11.9223 14.9538 11.8012C14.955 11.7707 14.9532 11.7263 14.9532 11.6932C14.9586 11.6401 14.9527 11.5865 14.9359 11.5359C14.9191 11.4852 14.8917 11.4386 14.8556 11.399C14.8194 11.3594 14.7752 11.3278 14.7259 11.3062C14.6767 11.2846 14.6233 11.2734 14.5694 11.2734C14.5155 11.2735 14.4622 11.2847 14.4129 11.3064C14.3636 11.328 14.3195 11.3597 14.2834 11.3993C14.2473 11.4389 14.2199 11.4855 14.2032 11.5362C14.1864 11.5869 14.1806 11.6405 14.1861 11.6936C14.1861 11.6971 14.1868 11.7006 14.187 11.7042C14.1867 11.7356 14.1851 11.7738 14.1861 11.8014C14.1966 11.9225 14.214 12.043 14.2385 12.1622C14.2752 12.3896 14.2895 12.6201 14.2812 12.8503C14.2594 12.926 14.2162 12.9941 14.1566 13.0464L14.1475 13.207C13.9142 13.226 13.6825 13.2613 13.4541 13.3124C12.4948 13.5268 11.6222 14.02 10.9483 14.7286C10.9016 14.6968 10.8554 14.6644 10.8097 14.6314C10.7338 14.6538 10.652 14.646 10.5819 14.6095C10.3948 14.4724 10.2216 14.3177 10.0649 14.1473C9.98591 14.0542 9.90161 13.9657 9.81238 13.8821C9.78905 13.8624 9.75327 13.8354 9.72717 13.8149C9.65112 13.7542 9.55744 13.7192 9.45985 13.7151C9.40185 13.7121 9.34395 13.7226 9.29085 13.7459C9.23774 13.7691 9.19092 13.8044 9.15418 13.8489C9.09199 13.9355 9.06701 14.043 9.08468 14.1478C9.10235 14.2526 9.16124 14.3463 9.24849 14.4083L9.25442 14.4124C9.27953 14.4327 9.31037 14.4587 9.3337 14.4755C9.43602 14.5429 9.54218 14.6043 9.65163 14.6596C9.85437 14.7731 10.0454 14.9059 10.222 15.0562C10.2679 15.1206 10.2946 15.1964 10.2992 15.2751L10.4219 15.3836C9.74373 16.3902 9.46507 17.609 9.63938 18.8063L9.47884 18.8524C9.43693 18.9186 9.38059 18.9748 9.31394 19.0167C9.08902 19.0761 8.85877 19.1136 8.62648 19.1288C8.50336 19.1315 8.38051 19.1413 8.25853 19.1581C8.22907 19.1634 8.18815 19.1737 8.15612 19.1816L8.15276 19.1823L8.14722 19.1839C8.0941 19.1908 8.04303 19.2086 7.99726 19.2362C7.9515 19.2637 7.91206 19.3005 7.88146 19.344C7.85086 19.3875 7.82978 19.4368 7.81956 19.4888C7.80935 19.5409 7.81022 19.5944 7.82214 19.6461C7.83405 19.6978 7.85673 19.7464 7.88874 19.7889C7.92075 19.8314 7.96137 19.8668 8.00801 19.8929C8.05465 19.919 8.10629 19.9352 8.15961 19.9404C8.21292 19.9456 8.26675 19.9397 8.31765 19.9232L8.32339 19.9224C8.32596 19.9218 8.32814 19.9205 8.3307 19.9201C8.36234 19.913 8.40208 19.9054 8.42996 19.898C8.54705 19.861 8.66191 19.8174 8.77398 19.7675C8.98997 19.6814 9.21392 19.6162 9.44266 19.5729C9.52198 19.5777 9.59835 19.6044 9.66311 19.65L9.83038 19.6216C10.2057 20.7688 10.9925 21.7404 12.0422 22.3533L11.9724 22.5187C12.0049 22.5854 12.0168 22.66 12.0066 22.7333C11.911 22.9494 11.7948 23.1561 11.6594 23.3503C11.5851 23.4474 11.5164 23.5486 11.4538 23.6535C11.4386 23.682 11.4192 23.7259 11.4046 23.7558C11.3769 23.8014 11.3592 23.8522 11.3525 23.9049C11.3459 23.9577 11.3505 24.0113 11.366 24.0622C11.3816 24.1131 11.4077 24.1602 11.4428 24.2005C11.4778 24.2408 11.521 24.2734 11.5696 24.2962C11.6182 24.319 11.671 24.3315 11.7248 24.3329C11.7785 24.3343 11.832 24.3245 11.8817 24.3042C11.9313 24.2839 11.9762 24.2535 12.0133 24.2151C12.0504 24.1766 12.079 24.1309 12.0972 24.0808L12.0978 24.0801V24.0793C12.1124 24.0495 12.133 24.0106 12.1452 23.9828C12.1889 23.8691 12.2259 23.753 12.2559 23.6351C12.3222 23.3953 12.4221 23.1658 12.5529 22.9535C12.5986 22.9111 12.6562 22.8832 12.7182 22.8737L12.8052 22.7182C13.9438 23.1513 15.2037 23.1544 16.3445 22.727C16.3688 22.77 16.4143 22.8522 16.4264 22.8729C16.5047 22.8853 16.5749 22.9276 16.6221 22.9907C16.7307 23.1943 16.8189 23.408 16.8855 23.6286C16.9158 23.7466 16.9529 23.8627 16.9968 23.9764C17.0092 24.0043 17.0296 24.0438 17.0442 24.0736C17.0623 24.1237 17.0908 24.1695 17.1279 24.208C17.165 24.2466 17.2098 24.277 17.2595 24.2974C17.3092 24.3178 17.3627 24.3276 17.4165 24.3263C17.4702 24.325 17.5231 24.3126 17.5718 24.2899C17.6204 24.2671 17.6637 24.2346 17.6988 24.1943C17.734 24.154 17.7602 24.1069 17.7758 24.056C17.7914 24.005 17.7961 23.9514 17.7895 23.8986C17.7829 23.8458 17.7653 23.7949 17.7376 23.7493C17.723 23.7194 17.7028 23.6756 17.6876 23.6472C17.625 23.5426 17.5563 23.4416 17.482 23.3448C17.349 23.1555 17.2352 22.9537 17.1419 22.7425C17.1217 22.667 17.1323 22.5866 17.1714 22.5187C17.1468 22.4691 17.1255 22.4179 17.1075 22.3656C18.1607 21.7478 18.9475 20.7687 19.3184 19.6144C19.368 19.6222 19.4544 19.6371 19.4825 19.6427C19.5408 19.5898 19.6178 19.5615 19.697 19.5639C19.9258 19.6071 20.1498 19.6723 20.3658 19.7585C20.4779 19.8089 20.5929 19.8527 20.7101 19.89C20.7377 19.8972 20.7773 19.904 20.8091 19.9109C20.8117 19.9117 20.8141 19.9128 20.8166 19.9134L20.8222 19.9142C20.8731 19.9307 20.9269 19.9366 20.9802 19.9314C21.0335 19.9261 21.0851 19.91 21.1317 19.8839C21.1783 19.8578 21.2189 19.8224 21.2509 19.7799C21.2829 19.7374 21.3056 19.6888 21.3175 19.6372C21.3295 19.5855 21.3304 19.532 21.3202 19.48C21.31 19.428 21.2889 19.3786 21.2584 19.3351C21.2278 19.2916 21.1884 19.2549 21.1427 19.2273C21.0969 19.1997 21.0459 19.1819 20.9928 19.1749ZM17.3485 15.3106L15.7094 16.4601L15.7037 16.4575C15.6543 16.4932 15.596 16.5149 15.5351 16.5204C15.4743 16.5259 15.413 16.515 15.3579 16.4888C15.3027 16.4626 15.2558 16.4222 15.2221 16.3717C15.1884 16.3213 15.1691 16.2627 15.1663 16.2023L15.1645 16.2015L15.0506 14.2144C15.9173 14.3209 16.7247 14.706 17.3485 15.3106ZM14.2608 17.4886H14.8777L15.2612 17.9629L15.1236 18.5545L14.5696 18.8182L14.014 18.5539L13.8762 17.9621L14.2608 17.4886ZM13.6803 14.284C13.8154 14.2539 13.952 14.2307 14.0896 14.2144L13.9755 16.2044L13.9672 16.2084C13.9646 16.2688 13.9455 16.3274 13.9119 16.378C13.8783 16.4285 13.8315 16.4691 13.7764 16.4954C13.7214 16.5217 13.6601 16.5328 13.5992 16.5274C13.5383 16.522 13.48 16.5003 13.4306 16.4648L13.4274 16.4665L11.7777 15.3095C12.3029 14.7989 12.9619 14.4438 13.6803 14.284ZM11.1794 16.0533L12.6856 17.3858L12.684 17.394C12.7301 17.4337 12.7645 17.4851 12.7834 17.5426C12.8024 17.6002 12.8052 17.6617 12.7915 17.7207C12.7779 17.7797 12.7483 17.8339 12.706 17.8776C12.6637 17.9213 12.6101 17.9528 12.5511 17.9688L12.5496 17.9752L10.6189 18.5264C10.5226 17.6633 10.7199 16.7931 11.1794 16.0533ZM13.1961 19.5933L12.4289 21.4268C11.6927 20.9606 11.1325 20.2671 10.8354 19.4538L12.8149 19.1213L12.8182 19.1256C12.8401 19.1215 12.8624 19.1195 12.8847 19.1198C12.9402 19.1206 12.9946 19.1349 13.0432 19.1615C13.0918 19.1881 13.133 19.2261 13.1632 19.2722C13.1934 19.3182 13.2117 19.3709 13.2164 19.4256C13.2212 19.4804 13.2122 19.5354 13.1903 19.5858L13.1961 19.5933ZM15.4603 21.9514C14.7426 22.1141 13.9932 22.076 13.2961 21.8413L14.2697 20.0998H14.2713C14.3002 20.0466 14.3432 20.0021 14.3956 19.9711C14.448 19.94 14.5079 19.9236 14.569 19.9236C14.6301 19.9235 14.6901 19.9398 14.7426 19.9707C14.7951 20.0017 14.8381 20.0461 14.8672 20.0992H14.8745L15.8504 21.8436C15.7237 21.8855 15.5937 21.9214 15.4603 21.9514ZM16.7182 21.4343L15.9431 19.5819L15.9455 19.5786C15.9111 19.4993 15.909 19.41 15.9395 19.3293C15.97 19.2485 16.0309 19.1825 16.1094 19.145C16.1499 19.1254 16.1939 19.1141 16.2389 19.1117C16.265 19.1106 16.291 19.1125 16.3166 19.1174L16.32 19.1133L18.3171 19.4472C18.0223 20.267 17.4597 20.9662 16.7182 21.4343ZM18.5269 18.5199L16.5865 17.967L16.5847 17.959C16.5258 17.9429 16.4723 17.9113 16.4301 17.8676C16.3878 17.8239 16.3583 17.7697 16.3447 17.7107C16.3311 17.6517 16.3339 17.5902 16.3528 17.5327C16.3717 17.4752 16.406 17.4238 16.4521 17.384L16.4513 17.3801L17.9492 16.0541C18.4078 16.7919 18.6107 17.6577 18.5269 18.5199Z" fill="white"/>
<path d="M26.6427 33.9046L26.6427 33.9051L24.5452 24.8933C24.4888 24.6602 24.3808 24.4423 24.229 24.2555C24.0772 24.0687 23.8853 23.9175 23.6673 23.8129L15.1776 19.8033C14.9576 19.6994 14.7168 19.6455 14.473 19.6455C14.2292 19.6455 13.9885 19.6994 13.7685 19.8033L5.2806 23.815C5.06249 23.9195 4.87058 24.0707 4.71871 24.2575C4.56683 24.4443 4.4588 24.6622 4.4024 24.8954L2.3084 33.9069C2.25675 34.1346 2.25657 34.3708 2.30787 34.5986C2.32301 34.6681 2.34279 34.7365 2.36707 34.8033C2.40802 34.9174 2.46225 35.0263 2.52867 35.128C2.55748 35.1715 2.58786 35.2137 2.62086 35.2546L8.49614 42.4806C8.5218 42.5119 8.55009 42.5407 8.57812 42.57C8.67031 42.667 8.7744 42.7523 8.88797 42.8239C9.03164 42.9133 9.18822 42.9807 9.35235 43.0236C9.48687 43.0601 9.62564 43.079 9.76512 43.0798H9.85652L19.187 43.0778C19.2437 43.0775 19.3004 43.0742 19.3567 43.0679C19.4375 43.0589 19.5176 43.0438 19.5961 43.0228C19.6524 43.0082 19.708 42.9906 19.7624 42.9702C19.8049 42.9542 19.8473 42.9381 19.8881 42.9187C19.9495 42.8896 20.0089 42.8569 20.0662 42.8207C20.2141 42.7288 20.3457 42.6135 20.456 42.4795L20.6351 42.2593L26.3292 35.2523C26.4383 35.1169 26.5241 34.9646 26.583 34.8015C26.6076 34.7345 26.6277 34.666 26.6432 34.5963C26.6946 34.3685 26.6945 34.1323 26.6427 33.9046ZM14.3696 22.7295C14.4305 22.7126 14.4947 22.7109 14.5564 22.7246C14.4941 22.7261 14.4316 22.7267 14.3696 22.7295Z" fill="#326CE5"/>
<path d="M22.6218 32.8261C22.5793 32.8165 22.5189 32.8 22.4774 32.7924C22.3194 32.7708 22.1604 32.7581 22.001 32.7544C21.6999 32.7349 21.4014 32.6865 21.1099 32.6098C21.0198 32.5596 20.9456 32.4858 20.8955 32.3964L20.6949 32.3386C20.9094 30.7886 20.5411 29.2146 19.6601 27.9153C19.7113 27.8692 19.8087 27.784 19.8361 27.7589C19.8292 27.6576 19.8626 27.5577 19.9293 27.4805C20.1582 27.286 20.4057 27.114 20.6683 26.9669C20.8104 26.8955 20.9483 26.8159 21.0812 26.7287C21.1132 26.7052 21.157 26.6679 21.1905 26.6413C21.2497 26.6042 21.3003 26.5551 21.3391 26.4973C21.3778 26.4396 21.4039 26.3744 21.4155 26.306C21.4271 26.2376 21.424 26.1676 21.4064 26.1004C21.3889 26.0333 21.3572 25.9706 21.3136 25.9163C21.2699 25.8621 21.2152 25.8176 21.153 25.7856C21.0907 25.7537 21.0224 25.7351 20.9524 25.731C20.8825 25.7269 20.8124 25.7374 20.7468 25.7618C20.6812 25.7863 20.6216 25.8241 20.5717 25.8728C20.5379 25.8992 20.4918 25.9339 20.4616 25.9598C20.3455 26.0679 20.2358 26.1826 20.1332 26.3033C19.9301 26.5242 19.7058 26.7249 19.4634 26.9028C19.3679 26.9412 19.2635 26.9525 19.1619 26.9352L18.9729 27.0688C17.8848 25.9393 16.4193 25.2388 14.8486 25.0975C14.844 25.0322 14.8383 24.9138 14.8365 24.8781C14.7521 24.8202 14.694 24.732 14.6744 24.6323C14.6639 24.334 14.6828 24.0354 14.7307 23.7407C14.7624 23.5864 14.7849 23.4304 14.7984 23.2735C14.7999 23.234 14.7976 23.1765 14.7976 23.1336C14.8046 23.0649 14.797 22.9955 14.7752 22.9298C14.7534 22.8642 14.718 22.8038 14.6711 22.7525C14.6242 22.7013 14.567 22.6603 14.5032 22.6323C14.4393 22.6043 14.3703 22.5898 14.3004 22.5898C14.2305 22.5899 14.1615 22.6044 14.0977 22.6325C14.0338 22.6606 13.9767 22.7016 13.9299 22.7529C13.8831 22.8042 13.8477 22.8646 13.8259 22.9303C13.8042 22.996 13.7967 23.0654 13.8038 23.1342C13.8038 23.1387 13.8048 23.1433 13.8051 23.1478C13.8045 23.1886 13.8025 23.238 13.8038 23.2738C13.8174 23.4307 13.84 23.5868 13.8716 23.7412C13.9193 24.0359 13.9378 24.3344 13.927 24.6326C13.8988 24.7308 13.8428 24.8189 13.7656 24.8867L13.7538 25.0947C13.4515 25.1194 13.1514 25.1651 12.8555 25.2313C11.6128 25.5091 10.4823 26.148 9.60924 27.066C9.54879 27.0248 9.48894 26.9828 9.42969 26.94C9.33136 26.9691 9.22544 26.9589 9.13462 26.9117C8.89219 26.7341 8.66787 26.5336 8.46482 26.313C8.36254 26.1923 8.25333 26.0776 8.13773 25.9694C8.1075 25.9438 8.06115 25.9088 8.02733 25.8822C7.92882 25.8037 7.80745 25.7584 7.68102 25.753C7.60589 25.7491 7.53089 25.7627 7.46209 25.7928C7.39329 25.8229 7.33263 25.8687 7.28503 25.9263C7.20447 26.0386 7.17211 26.1778 7.195 26.3136C7.21789 26.4493 7.29418 26.5706 7.40721 26.651L7.41489 26.6563C7.44742 26.6826 7.48738 26.7163 7.5176 26.7381C7.65016 26.8253 7.78768 26.9049 7.92948 26.9765C8.19213 27.1236 8.43962 27.2957 8.66844 27.4904C8.72787 27.5738 8.76248 27.672 8.76834 27.7739L8.9274 27.9145C8.04879 29.2185 7.68778 30.7974 7.9136 32.3485L7.70562 32.4083C7.65132 32.4941 7.57834 32.5668 7.492 32.6212C7.20061 32.6981 6.90233 32.7467 6.6014 32.7663C6.44191 32.7699 6.28275 32.7826 6.12473 32.8043C6.08656 32.8112 6.03355 32.8246 5.99205 32.8347L5.98769 32.8357L5.98052 32.8378C5.91171 32.8467 5.84554 32.8698 5.78625 32.9055C5.72696 32.9412 5.67586 32.9888 5.63621 33.0451C5.59657 33.1015 5.56926 33.1654 5.55602 33.2328C5.54279 33.3002 5.54392 33.3696 5.55936 33.4366C5.57479 33.5035 5.60418 33.5665 5.64565 33.6216C5.68711 33.6766 5.73974 33.7225 5.80017 33.7563C5.86059 33.7901 5.92749 33.8111 5.99656 33.8178C6.06564 33.8245 6.13538 33.817 6.20132 33.7955L6.20875 33.7945C6.21208 33.7937 6.2149 33.792 6.21823 33.7915C6.25922 33.7823 6.31069 33.7725 6.34681 33.7628C6.4985 33.7149 6.6473 33.6585 6.79249 33.5938C7.0723 33.4822 7.36242 33.3978 7.65875 33.3417C7.76151 33.348 7.86044 33.3825 7.94434 33.4416L8.16104 33.4048C8.64728 34.891 9.66651 36.1497 11.0264 36.9437L10.936 37.158C10.9781 37.2444 10.9935 37.341 10.9803 37.436C10.8565 37.716 10.7059 37.9837 10.5306 38.2354C10.4342 38.3611 10.3453 38.4922 10.2642 38.6281C10.2445 38.6651 10.2194 38.7218 10.2004 38.7606C10.1645 38.8197 10.1416 38.8855 10.133 38.9538C10.1244 39.0222 10.1303 39.0916 10.1504 39.1575C10.1706 39.2235 10.2045 39.2845 10.2499 39.3368C10.2953 39.389 10.3513 39.4312 10.4142 39.4607C10.4771 39.4903 10.5456 39.5064 10.6152 39.5082C10.6848 39.51 10.7541 39.4973 10.8184 39.4711C10.8828 39.4448 10.9409 39.4055 10.989 39.3556C11.0371 39.3058 11.0741 39.2465 11.0977 39.1817L11.0984 39.1807V39.1797C11.1174 39.1412 11.144 39.0907 11.1599 39.0548C11.2165 38.9075 11.2644 38.7571 11.3033 38.6043C11.3891 38.2935 11.5186 37.9963 11.688 37.7213C11.7473 37.6663 11.8219 37.6302 11.9022 37.6179L12.0149 37.4164C13.4899 37.9775 15.1221 37.9815 16.6 37.4278C16.6315 37.4836 16.6904 37.59 16.706 37.6169C16.8075 37.6329 16.8985 37.6877 16.9596 37.7694C17.1003 38.0332 17.2146 38.31 17.3008 38.5959C17.3401 38.7487 17.3882 38.8991 17.445 39.0464C17.4611 39.0826 17.4875 39.1338 17.5065 39.1723C17.5299 39.2372 17.5669 39.2966 17.6149 39.3465C17.663 39.3964 17.721 39.4359 17.7854 39.4623C17.8498 39.4887 17.919 39.5014 17.9887 39.4998C18.0584 39.4981 18.1269 39.482 18.1899 39.4525C18.2529 39.4231 18.309 39.3809 18.3545 39.3287C18.4001 39.2765 18.434 39.2154 18.4543 39.1495C18.4745 39.0835 18.4806 39.0141 18.472 38.9457C18.4635 38.8772 18.4406 38.8113 18.4048 38.7522C18.3858 38.7134 18.3597 38.6567 18.34 38.62C18.2589 38.4844 18.1699 38.3536 18.0736 38.2282C17.9014 37.9829 17.7538 37.7216 17.633 37.4479C17.6068 37.3501 17.6205 37.246 17.6712 37.158C17.6394 37.0937 17.6118 37.0274 17.5885 36.9596C18.9528 36.1593 19.9722 34.8908 20.4526 33.3955C20.5169 33.4056 20.6288 33.4248 20.6652 33.4322C20.7408 33.3636 20.8405 33.3269 20.9431 33.3301C21.2395 33.3861 21.5297 33.4705 21.8096 33.5822C21.9548 33.6474 22.1037 33.7043 22.2556 33.7525C22.2914 33.7618 22.3426 33.7707 22.3839 33.7796C22.3872 33.7806 22.3903 33.7821 22.3936 33.7829L22.4008 33.7839C22.4667 33.8053 22.5364 33.8129 22.6055 33.8061C22.6745 33.7993 22.7414 33.7784 22.8018 33.7446C22.8622 33.7108 22.9148 33.665 22.9562 33.6099C22.9977 33.5549 23.0271 33.4919 23.0425 33.425C23.058 33.3581 23.0591 33.2887 23.0459 33.2213C23.0327 33.1539 23.0055 33.09 22.9659 33.0337C22.9263 32.9773 22.8752 32.9297 22.816 32.894C22.7568 32.8583 22.6906 32.8351 22.6218 32.8261ZM17.9007 27.82L15.7773 29.3091L15.7699 29.3058C15.7059 29.352 15.6304 29.3801 15.5515 29.3872C15.4726 29.3944 15.3933 29.3802 15.3218 29.3463C15.2504 29.3124 15.1896 29.26 15.146 29.1946C15.1023 29.1293 15.0773 29.0534 15.0737 28.9751L15.0714 28.9741L14.9238 26.3999C16.0466 26.5378 17.0925 27.0367 17.9007 27.82ZM13.9006 30.6416H14.6997L15.1966 31.256L15.0184 32.0224L14.3007 32.364L13.5809 32.0217L13.4024 31.255L13.9006 30.6416ZM13.1486 26.4901C13.3236 26.4511 13.5006 26.421 13.6788 26.3998L13.531 28.9779L13.5202 28.983C13.5169 29.0613 13.4921 29.1372 13.4486 29.2027C13.4051 29.2682 13.3445 29.3208 13.2731 29.3548C13.2018 29.3889 13.1224 29.4032 13.0435 29.3963C12.9646 29.3893 12.8891 29.3612 12.8251 29.3152L12.821 29.3174L10.6837 27.8185C11.3641 27.1571 12.2178 26.697 13.1486 26.4901ZM9.90866 28.7821L11.8599 30.5083L11.8579 30.5189C11.9176 30.5704 11.9622 30.637 11.9867 30.7115C12.0112 30.7861 12.0149 30.8658 11.9972 30.9422C11.9795 31.0187 11.9412 31.0889 11.8864 31.1455C11.8315 31.2021 11.7622 31.2429 11.6858 31.2636L11.6837 31.2719L9.1825 31.9859C9.05785 30.8678 9.31336 29.7405 9.90866 28.7821ZM12.5213 33.3681L11.5275 35.7434C10.5736 35.1395 9.84795 34.241 9.46298 33.1874L12.0274 32.7567L12.0318 32.7623C12.0601 32.7569 12.089 32.7544 12.1179 32.7547C12.1898 32.7558 12.2603 32.7743 12.3232 32.8088C12.3861 32.8432 12.4395 32.8924 12.4787 32.9521C12.5178 33.0118 12.5415 33.0801 12.5476 33.1509C12.5538 33.2218 12.5422 33.2931 12.5138 33.3585L12.5213 33.3681ZM15.4546 36.423C14.5247 36.6339 13.5539 36.5845 12.6509 36.2803L13.9121 34.0243H13.9142C13.9516 33.9554 14.0073 33.8977 14.0752 33.8575C14.1431 33.8173 14.2208 33.7961 14.2999 33.796C14.3791 33.7959 14.4568 33.817 14.5248 33.8571C14.5928 33.8972 14.6485 33.9547 14.6862 34.0236H14.6956L15.9599 36.2834C15.7958 36.3376 15.6274 36.3841 15.4546 36.423ZM17.0841 35.7531L16.0801 33.3534L16.0831 33.3491C16.0386 33.2464 16.0358 33.1307 16.0754 33.0261C16.1149 32.9214 16.1938 32.8359 16.2955 32.7874C16.3479 32.762 16.405 32.7473 16.4632 32.7443C16.497 32.7428 16.5308 32.7452 16.5639 32.7516L16.5683 32.7463L19.1555 33.1788C18.7736 34.2409 18.0447 35.1467 17.0841 35.7531ZM19.4273 31.9776L16.9135 31.2613L16.9112 31.2509C16.8349 31.2301 16.7656 31.1892 16.7109 31.1326C16.6561 31.0759 16.6179 31.0057 16.6003 30.9293C16.5826 30.8529 16.5863 30.7732 16.6108 30.6986C16.6352 30.6241 16.6797 30.5575 16.7394 30.506L16.7383 30.5009L18.6788 28.7831C19.2731 29.739 19.5358 30.8606 19.4273 31.9776Z" fill="white"/>
</g>
<defs>
<linearGradient id="paint0_linear_5815_12885" x1="21.6328" y1="14.3845" x2="27.8893" y2="14.3845" gradientUnits="userSpaceOnUse">
<stop stop-color="#326DE6"/>
<stop offset="1" stop-color="#10FFC6"/>
</linearGradient>
<linearGradient id="paint1_linear_5815_12885" x1="18.3867" y1="4.97728" x2="23.1958" y2="4.97728" gradientUnits="userSpaceOnUse">
<stop stop-color="#326DE6"/>
<stop offset="1" stop-color="#10FFC6"/>
</linearGradient>
<linearGradient id="paint2_linear_5815_12885" x1="4.79687" y1="33.9277" x2="34.0441" y2="33.9277" gradientUnits="userSpaceOnUse">
<stop stop-color="#326DE6"/>
<stop offset="1" stop-color="#10FFC6"/>
</linearGradient>
<clipPath id="clip0_5815_12885">
<rect width="37" height="48" fill="white"/>
</clipPath>
</defs>
</svg>
