<svg width="23" height="48" viewBox="0 0 23 48" fill="none" xmlns="http://www.w3.org/2000/svg">
<g clip-path="url(#clip0_5815_12860)">
<path d="M11.386 15.4453C9.79685 15.448 8.51037 16.7248 8.51172 18.298V45.1471C8.51075 45.9027 8.81303 46.6278 9.35207 47.1628C9.89111 47.6977 10.6228 47.9988 11.386 47.9998C12.9743 47.9998 14.2616 46.723 14.2616 45.1471V18.298C14.2629 16.7248 12.9765 15.448 11.3873 15.4453" fill="#F7D186"/>
<path d="M22.9263 11.9264C22.943 11.5691 22.943 11.2112 22.9263 10.8539C22.6511 4.81289 17.6272 0 11.4708 0C5.31432 0 0.290402 4.81289 0.012797 10.8539C-0.00466596 11.2234 -0.00425604 11.5935 0.0140253 11.9629C0.0103403 12.0578 0.000513568 12.1514 0.000513568 12.2475V30.9287C0.000513568 34.5013 2.94608 37.4245 6.54634 37.4245H16.3976C19.9967 37.4245 22.9422 34.5013 22.9422 30.9287V12.2475C22.9422 12.138 22.9312 12.0334 22.9263 11.9264Z" fill="#FF9234"/>
<mask id="mask0_5815_12860" style="mask-type:luminance" maskUnits="userSpaceOnUse" x="0" y="0" width="24" height="38">
<path d="M0.0708772 10.8537C0.0546743 11.2232 0.0554941 11.5932 0.0733338 11.9627C0.0684205 12.0575 0.0585938 12.1512 0.0585938 12.2472V30.9285C0.0585938 34.5011 3.00416 37.4243 6.60442 37.4243H16.4557C20.0548 37.4243 23.0016 34.5011 23.0016 30.9285V12.2472C23.0016 12.1378 22.9893 12.0332 22.9844 11.9262C23.0022 11.5689 23.0026 11.211 22.9856 10.8537C22.708 4.81265 17.6841 0.000976562 11.5288 0.000976562C5.3724 0.000976562 0.348482 4.81265 0.0708772 10.8525V10.8537Z" fill="white"/>
</mask>
<g mask="url(#mask0_5815_12860)">
<path d="M29.8707 11.21L1.41861 39.4429L-7.00781 31.0805L21.443 2.84766L29.8707 11.21Z" fill="#FFCD3C"/>
</g>
<mask id="mask1_5815_12860" style="mask-type:luminance" maskUnits="userSpaceOnUse" x="0" y="0" width="24" height="38">
<path d="M0.0708772 10.8537C0.0546743 11.2232 0.0554941 11.5932 0.0733338 11.9627C0.0684205 12.0575 0.0585938 12.1512 0.0585938 12.2472V30.9285C0.0585938 34.5011 3.00416 37.4243 6.60442 37.4243H16.4557C20.0548 37.4243 23.0016 34.5011 23.0016 30.9285V12.2472C23.0016 12.1378 22.9893 12.0332 22.9844 11.9262C23.0022 11.5689 23.0026 11.211 22.9856 10.8537C22.708 4.81265 17.6841 0.000976562 11.5288 0.000976562C5.3724 0.000976562 0.348482 4.81265 0.0708772 10.8525V10.8537Z" fill="white"/>
</mask>
<g mask="url(#mask1_5815_12860)">
<path d="M21.4242 2.82027L-7.0266 31.0531L-17.5117 20.6479L10.9367 -7.58496L21.4242 2.82027Z" fill="#F3807B"/>
</g>
<mask id="mask2_5815_12860" style="mask-type:luminance" maskUnits="userSpaceOnUse" x="0" y="0" width="24" height="38">
<path d="M0.0708772 10.8537C0.0546743 11.2232 0.0554941 11.5932 0.0733338 11.9627C0.0684205 12.0575 0.0585938 12.1512 0.0585938 12.2472V30.9285C0.0585938 34.5011 3.00416 37.4243 6.60442 37.4243H16.4557C20.0548 37.4243 23.0016 34.5011 23.0016 30.9285V12.2472C23.0016 12.1378 22.9893 12.0332 22.9844 11.9262C23.0022 11.5689 23.0026 11.211 22.9856 10.8537C22.708 4.81265 17.6841 0.000976562 11.5288 0.000976562C5.3724 0.000976562 0.348482 4.81265 0.0708772 10.8525V10.8537Z" fill="white"/>
</mask>
<g mask="url(#mask2_5815_12860)">
<path d="M38.3265 19.5997L9.87564 47.8313L1.44922 39.469L29.9001 11.2373L38.3265 19.5997Z" fill="#35D0BA"/>
</g>
<path d="M9.29688 37.4554L14.2839 42.4045V37.4141L9.29688 37.4554Z" fill="#D8AE64"/>
</g>
<defs>
<clipPath id="clip0_5815_12860">
<rect width="23" height="48" fill="white"/>
</clipPath>
</defs>
</svg>
