<svg width="308" height="304" viewBox="0 0 308 304" fill="none" xmlns="http://www.w3.org/2000/svg">
<path d="M86 103.2L92.8 272.7L215.2 116.4C219.1 111.5 226.2 110.6 231.1 114.6L307.5 175.9L282.6 67L86 103.2Z" fill="#4279F4"/>
<path d="M97 303.8H205.6L139 250.3L97 303.8Z" fill="#0028AA"/>
<path d="M225.9 139.3L152.9 232.5L230.7 294.9L304.5 202.3L225.9 139.3Z" fill="#014BD1"/>
<path d="M65.5 86.8L129.7 6.20001L26.1 56.1L0.5 168.2L65.5 86.8Z" fill="#BEDCFF"/>
<path d="M2 202.6L70.8 288.9L64.2 124.6L2 202.6Z" fill="#6CA1FF"/>
<path d="M262.7 47.7L163.7 0L102 77.3L262.7 47.7Z" fill="#A1C3FF"/>
</svg>
