<svg width="94" height="64" viewBox="0 0 94 64" fill="none" xmlns="http://www.w3.org/2000/svg">
<path d="M21.2996 9.53244C33.6316 -2.7766 53.6286 -2.7766 65.9604 9.53244C78.312 21.8412 78.312 41.7978 65.9604 54.0867C53.6286 66.3754 33.6316 66.3754 21.2996 54.0663L1.14361 33.9483C-0.0478706 32.7577 -0.0478706 30.841 1.14361 29.6504L21.2996 9.53244ZM61.1745 15.4448C52.1193 6.40471 37.4243 6.40471 28.369 15.4448L13.5549 30.2155C12.6811 31.1033 12.6811 32.5156 13.5549 33.3835L28.3887 48.1744C37.4442 57.2142 52.139 57.2142 61.1945 48.1744C70.2497 39.1343 70.2497 24.4846 61.1745 15.4448ZM44.8901 16.03C53.4778 16.03 60.4391 23.1038 60.4391 31.8297C60.4391 40.5556 53.4778 47.6294 44.8901 47.6294C36.3028 47.6294 29.3415 40.5556 29.3415 31.8297C29.3415 23.1038 36.3028 16.03 44.8901 16.03ZM92.3713 29.6703L83.4948 20.6506C82.9585 20.1056 82.0647 20.6103 82.2436 21.3569C83.7728 28.2375 83.7728 35.4213 82.2436 42.3023C82.0847 43.0488 82.9782 43.5328 83.4948 43.0083L92.3713 33.9886C93.474 32.8491 93.5388 31.084 92.5658 29.8876L92.3713 29.6703Z" fill="#4FC4F9"/>
</svg>
