<svg width="382" height="380" viewBox="0 0 382 380" fill="none" xmlns="http://www.w3.org/2000/svg">
<g clip-path="url(#clip0_18_189)">
<path d="M368.07 223.97C366.8 225.38 362.01 229.48 360.34 230.74C343.4 243.47 321.27 244.91 302.74 234.48L300.9 235.24L235.87 300.36C235.01 302.27 240.32 312.39 241.14 316.11C254.67 377.47 168.63 404.77 143.24 350.01C121.6 303.35 173.29 258.06 217.44 282.86L283.95 216.35L278.28 202.47H240.55C227.23 253.94 153.69 254.2 140.31 202.45L103.1 202.29C96.92 219.37 86.26 233.23 68.39 238.79C13.26 255.92 -24.18 186.23 18.42 149.82C42.21 129.49 81.11 135.28 96.63 162.64C98.25 165.5 101.07 174.32 101.92 175.35C102.56 176.12 103.02 176.17 103.92 176.35C113.78 178.25 129.75 175.03 140.29 176.2C154.04 124.97 227.13 125.23 240.53 176.24C246.53 175.3 275.28 178.01 278.47 175.88C279.26 175.36 282.89 164.38 283.96 162.32L217.44 95.79C181.18 116.5 136.29 90.19 138.44 47.85C142.09 -23.95 256.37 -11.55 241.15 62.57C239.98 68.26 236.88 73.18 235.87 78.32L300.91 143.44C303.34 145.03 311.36 140.35 314.99 139.41C365.27 126.34 401.81 186.66 368.08 224L368.07 223.97ZM209.07 69.97C233.28 45.77 196.75 8.11999 171.89 32.29C147.06 56.42 184.68 94.37 209.07 69.97ZM33.04 206.69C55.86 231.97 92.85 199.79 72.42 172.82C52.38 146.37 7.67 178.58 33.04 206.69ZM186.18 163.59C151.84 168.49 160.66 223.21 196.65 215.05C228.23 207.89 219.85 158.79 186.18 163.59ZM324.18 163.58C313.56 165.12 303.88 175.56 302.71 186.1C299.69 213.25 334.32 226.31 349.85 205.25C364.01 186.05 348.05 160.11 324.18 163.58ZM188.21 301.59C149.58 305.14 161.89 365.25 199.34 352.74C227.24 343.42 218.97 298.77 188.21 301.59Z" fill="#05A3EB"/>
</g>
<defs>
<clipPath id="clip0_18_189">
<rect width="381.14" height="379.52" fill="white"/>
</clipPath>
</defs>
</svg>
