<svg width="109" height="66" viewBox="0 0 109 66" fill="none" xmlns="http://www.w3.org/2000/svg">
<path d="M105.297 12.1243L86.5612 1.25016C83.4018 -0.586694 79.4342 1.691 79.4342 5.3647V32.9175L66.1354 25.2762C59.0084 21.1616 50.1916 21.1616 43.0646 25.2762L29.7658 32.9175V5.29123C29.7658 1.61753 25.7982 -0.586695 22.6388 1.17668L3.90292 12.1243C1.6987 13.3734 0.376167 15.7245 0.376167 18.2227V44.159C0.376167 45.9958 0.817011 47.6857 1.6987 49.2287C2.58039 50.7717 3.75597 52.0942 5.29893 53.1228L14.9975 59.2946L22.4184 63.997C26.9003 66.8625 32.5578 66.5686 36.8193 63.4092L37.4071 62.9683C37.4071 62.9683 37.4806 62.8949 37.554 62.8214L48.7221 54.2984C51.9549 51.8003 57.3185 51.8003 60.6249 54.2984L71.7194 62.7479L72.3807 63.2622C76.5687 66.4216 82.2997 66.642 86.7816 63.85L94.2025 59.1477L103.901 52.9759C105.444 52.0207 106.693 50.6247 107.501 49.0817C108.31 47.5388 108.824 45.8489 108.824 44.012V18.1492C108.824 15.6511 107.501 13.2999 105.297 12.0508V12.1243Z" fill="url(#paint0_linear_16_118)"/>
<path d="M79.5812 49.6695V59.0007C79.5812 61.8662 77.5239 64.2174 75.0258 64.2174C72.5277 64.2174 72.8216 63.7031 71.646 62.8214L60.5514 54.2984C57.3185 51.8003 51.9549 51.8003 48.6486 54.2984L37.4806 62.8214C36.3784 63.6296 35.6437 63.9235 34.6151 63.9235C32.0435 63.9235 29.6923 62.0132 29.6923 58.9273V49.6695L45.6362 39.3832C51.0733 35.8564 58.1268 35.8564 63.5638 39.3832L79.5812 49.4491V49.6695Z" fill="url(#paint1_linear_16_118)"/>
<path d="M79.4342 32.844V49.8165L63.6373 39.6771C58.2002 36.1503 51.2202 36.1503 45.7096 39.6771L29.7658 49.8165V32.844L43.0646 25.2027C50.1915 21.0881 58.935 21.0881 66.1354 25.2027L79.4342 32.844Z" fill="url(#paint2_linear_16_118)"/>
<path d="M108.824 18.2227V44.0855C108.824 45.9224 108.383 47.6123 107.501 49.1552L79.4342 32.844V5.29123C79.4342 1.61753 83.4018 -0.586695 86.5612 1.17668L105.297 12.0508C107.501 13.2999 108.824 15.6511 108.824 18.1492V18.2227Z" fill="url(#paint3_linear_16_118)"/>
<path d="M29.7658 5.29123V32.9175L1.6987 49.2287C0.817011 47.6857 0.376167 45.9958 0.376167 44.159V18.2227C0.376167 15.7245 1.6987 13.3734 3.90292 12.1243L22.6388 1.25016C25.7982 -0.586695 29.7658 1.691 29.7658 5.3647V5.29123Z" fill="url(#paint4_linear_16_118)"/>
<path d="M74.6584 63.85C77.1565 63.85 79.5077 61.8662 79.5077 59.0742V49.743L94.3495 59.2212L86.8551 63.997C82.3732 66.8625 76.6422 66.642 72.4542 63.4092L71.7195 62.8214C72.7481 63.5561 73.6298 63.85 74.6584 63.85Z" fill="url(#paint5_linear_16_118)"/>
<path d="M107.501 49.2287C106.693 50.7717 105.444 52.0942 103.901 53.1228L94.2025 59.2946L79.4342 49.89V32.9175L107.501 49.3022V49.2287Z" fill="url(#paint6_linear_16_118)"/>
<path d="M29.7658 59.0742C29.7658 61.9397 32.1169 64.1439 34.6151 63.85C35.7172 63.7031 36.5989 63.5561 37.4805 62.8949L36.8193 63.4092C32.6313 66.5686 26.9003 66.789 22.4184 63.997L14.9975 59.2946L29.7658 49.8165V59.0742Z" fill="url(#paint7_linear_16_118)"/>
<path d="M29.7658 32.844V49.8165L14.9975 59.2946L5.29892 53.1228C3.75597 52.1677 2.50691 50.7717 1.69869 49.2287L29.7658 32.9175V32.844Z" fill="url(#paint8_linear_16_118)"/>
<defs>
<linearGradient id="paint0_linear_16_118" x1="58.7145" y1="71.6383" x2="50.1916" y2="-12.0486" gradientUnits="userSpaceOnUse">
<stop stop-color="#75BE2C"/>
<stop offset="0.9" stop-color="#9DC03B"/>
</linearGradient>
<linearGradient id="paint1_linear_16_118" x1="54.6735" y1="36.7381" x2="54.6735" y2="64.1439" gradientUnits="userSpaceOnUse">
<stop stop-color="#238D37"/>
<stop offset="0.9" stop-color="#35537F"/>
</linearGradient>
<linearGradient id="paint2_linear_16_118" x1="51.7345" y1="22.5576" x2="55.996" y2="50.4778" gradientUnits="userSpaceOnUse">
<stop stop-color="#67D84D"/>
<stop offset="1" stop-color="#348522"/>
</linearGradient>
<linearGradient id="paint3_linear_16_118" x1="94.129" y1="0.515416" x2="94.129" y2="49.1552" gradientUnits="userSpaceOnUse">
<stop stop-color="#E4D00A"/>
<stop offset="0.6" stop-color="#C4D132"/>
</linearGradient>
<linearGradient id="paint4_linear_16_118" x1="15.071" y1="0.515416" x2="15.071" y2="49.1552" gradientUnits="userSpaceOnUse">
<stop stop-color="#E4D00A"/>
<stop offset="0.6" stop-color="#C4D132"/>
</linearGradient>
<linearGradient id="paint5_linear_16_118" x1="83.0345" y1="49.743" x2="83.0345" y2="65.9808" gradientUnits="userSpaceOnUse">
<stop stop-color="#8AB11B"/>
<stop offset="1" stop-color="#6EAF02"/>
</linearGradient>
<linearGradient id="paint6_linear_16_118" x1="94.7903" y1="30.1254" x2="91.4105" y2="57.4578" gradientUnits="userSpaceOnUse">
<stop stop-color="#75BE2C"/>
<stop offset="0.9" stop-color="#9DC03B"/>
</linearGradient>
<linearGradient id="paint7_linear_16_118" x1="26.239" y1="49.8165" x2="26.239" y2="65.9073" gradientUnits="userSpaceOnUse">
<stop stop-color="#8AB11B"/>
<stop offset="1" stop-color="#6EAF02"/>
</linearGradient>
<linearGradient id="paint8_linear_16_118" x1="17.716" y1="30.2724" x2="14.3362" y2="63.1153" gradientUnits="userSpaceOnUse">
<stop stop-color="#75BE2C"/>
<stop offset="0.9" stop-color="#9DC03B"/>
</linearGradient>
</defs>
</svg>
