<svg width="407" height="164" viewBox="0 0 407 164" fill="none" xmlns="http://www.w3.org/2000/svg">
<path d="M93.4893 46.0848C86.521 42.2824 78.6486 40.5507 70.7386 41.0401C62.8286 41.5671 55.22 44.3154 48.8166 48.9836C42.3003 53.6895 37.2906 60.1648 34.3903 67.6565C32.8836 71.5342 31.942 75.6001 31.6406 79.7412H42.0366C42.7523 72.0236 46.293 64.833 51.9806 59.5624C57.6683 54.2918 65.0886 51.2801 72.848 51.1671C80.7956 51.0165 88.5173 53.8777 94.4686 59.1859C100.382 64.4942 104.111 71.8354 104.865 79.7412H115.223C114.545 68.4095 108.179 54.1412 93.4893 46.0848ZM76.3886 72.513C75.7106 73.3412 74.8066 73.9059 73.752 74.2071C72.735 74.5083 71.6426 74.4707 70.6256 74.0942C69.8723 73.9059 69.1943 73.5295 68.6293 72.9648C68.0643 72.4377 67.65 71.7601 67.424 71.0448C67.198 70.3295 67.1603 69.5389 67.311 68.7859C67.4616 68.033 67.8006 67.3177 68.2903 66.753C69.1943 65.7742 70.4373 65.1342 71.7933 65.0212C73.1493 64.9083 74.4676 65.2848 75.5223 66.113C75.8613 66.3765 76.1626 66.6777 76.464 66.9789C76.8406 66.7154 77.2173 66.4142 77.6693 66.113C77.1796 65.3977 76.5393 64.7954 75.786 64.3812C74.3923 63.6283 72.8103 63.3271 71.2283 63.553C70.3996 63.6283 69.571 63.8918 68.8176 64.2683C68.0643 64.6824 67.424 65.2095 66.8966 65.8495C66.3693 66.4895 65.9926 67.2048 65.7666 67.9954C65.5406 68.7859 65.503 69.6142 65.616 70.4048C65.729 71.4212 66.1056 72.4377 66.7083 73.2659C67.311 74.0942 68.1396 74.7718 69.0813 75.1859C70.2113 75.713 71.492 75.9012 72.735 75.7883C74.2416 75.7507 75.7106 75.1483 76.8783 74.1695C77.1796 73.9059 77.4056 73.6048 77.707 73.3412L76.4263 72.4377C76.4263 72.4377 76.4263 72.4754 76.3886 72.513ZM85.9183 75.6001H87.7263L89.6096 71.8354H94.6193L96.5403 75.6001H98.3106C96.239 71.4212 94.205 67.2801 92.1333 63.1389C90.0616 67.2801 87.99 71.4212 85.9183 75.6001ZM90.4006 70.2918C90.9656 69.1248 91.5683 67.9954 92.1333 66.8283C92.736 67.9954 93.301 69.1624 93.866 70.2918H90.4006ZM48.7036 75.6001H50.5116C51.152 74.3577 51.7923 73.0777 52.395 71.8354H57.4046C58.045 73.0777 58.6853 74.3577 59.3256 75.6001H61.096L54.9186 63.1012C52.847 67.2801 50.7753 71.4212 48.7036 75.6001ZM53.1483 70.2918C53.7133 69.1248 54.316 67.9954 54.9186 66.7907C55.5213 67.9954 56.0863 69.1248 56.6513 70.2918H53.1483ZM87.3873 68.7107C87.651 68.2965 87.8393 67.8071 87.877 67.3177C87.9146 66.8283 87.8393 66.3012 87.651 65.8495C87.4626 65.3977 87.1613 64.9836 86.7846 64.6448C86.408 64.3059 85.956 64.0801 85.4663 63.9671C84.9013 63.8165 84.2986 63.7412 83.696 63.7789C82.4906 63.7412 81.2853 63.7789 80.0423 63.7789C79.967 63.7789 79.8916 63.7789 79.854 63.7789V75.6001H81.436V70.2918C81.8503 70.2918 82.227 70.2918 82.6036 70.2918C83.357 70.2542 84.148 70.2542 84.9013 70.1789C85.391 70.1412 85.8806 69.9907 86.3326 69.7648C86.747 69.4636 87.1236 69.1248 87.3873 68.7107ZM86.1066 67.5812C85.9936 67.9201 85.7676 68.1836 85.4663 68.3718C85.165 68.5601 84.826 68.673 84.487 68.673C83.5076 68.7107 82.4906 68.673 81.4736 68.673V65.2095C82.5283 65.2471 83.5453 65.2471 84.5623 65.2848C84.826 65.2848 85.0896 65.3601 85.3156 65.473C85.5416 65.586 85.7676 65.7742 85.9183 66.0001C86.069 66.2259 86.1443 66.4895 86.182 66.753C86.2196 67.0542 86.182 67.3554 86.1066 67.5812ZM62.0376 75.5624H63.6573V63.7412H62.0376V75.5624ZM169.011 106.433H171.798V115.205H174.925V106.433H177.712V103.986H169.049V106.433H169.011ZM178.578 115.167H181.705V103.948H178.578V115.167ZM193.231 115.167H196.357V103.948H193.231V115.167ZM183.663 106.169V108.428V110.725V115.167H186.79V110.725H190.632V108.428H186.79V106.169H191.799V103.948H183.701L183.663 106.169ZM198.316 106.169V108.165V110.461V112.984V115.205H206.414V112.984H201.404V110.461H205.246V108.165H201.404V106.169H206.414V103.948H198.316V106.169ZM148.972 115.205H157.071V112.984H152.061V110.461H155.903V108.165H152.061V106.169H157.071V103.948H148.972V115.205ZM212.742 103.948H208.109V115.167H212.742C214.06 115.167 215.341 114.64 216.283 113.699C217.224 112.758 217.752 111.478 217.752 110.16V108.918C217.752 107.6 217.224 106.32 216.283 105.379C215.341 104.475 214.06 103.948 212.742 103.948ZM211.198 112.984V106.207C212.29 106.207 214.588 105.718 214.588 109.595C214.625 113.435 212.328 112.984 211.198 112.984ZM168.145 107.449C168.145 106.998 168.069 106.546 167.881 106.094C167.693 105.68 167.429 105.304 167.128 104.965C166.789 104.626 166.412 104.4 165.998 104.212C165.583 104.024 165.131 103.948 164.642 103.948H158.803V115.167H161.93V110.951H163.06L164.792 115.167H168.295L166.374 110.499C166.902 110.198 167.354 109.746 167.693 109.219C167.994 108.692 168.145 108.089 168.145 107.449ZM163.775 108.729H161.93V106.169H163.775C164.114 106.169 164.453 106.32 164.679 106.546C164.905 106.772 165.056 107.111 165.056 107.449C165.056 107.788 164.905 108.127 164.679 108.353C164.453 108.617 164.114 108.729 163.775 108.729ZM143.247 92.353H147.503V80.3436H151.308V79.4024L154.961 85.9907V92.3907H159.218V85.9907L164.227 76.993H159.67L157.108 81.8118L154.547 76.993H139.443V80.3812H143.247V92.353ZM189.878 80.0048V76.9554H178.729V92.353H189.878V89.3412H183.023V85.8777H188.296V82.7154H183.023V80.0048H189.878ZM143.059 103.647H142.644C141.326 103.647 140.083 104.174 139.141 105.078C138.2 106.019 137.672 107.261 137.672 108.579V110.499C137.672 111.139 137.785 111.779 138.049 112.381C138.313 112.984 138.652 113.511 139.104 114C139.556 114.452 140.121 114.828 140.723 115.054C141.326 115.318 141.966 115.431 142.607 115.431H143.021C144.226 115.431 145.356 114.941 146.223 114.113C147.089 113.285 147.541 112.118 147.541 110.913H144.565C144.339 112.569 143.586 113.134 142.682 113.134C141.59 113.134 140.723 112.344 140.723 109.708C140.723 107.111 141.59 105.944 142.682 105.944C143.548 105.944 144.302 106.734 144.565 108.391H147.541V108.165C147.541 106.96 147.051 105.793 146.223 104.965C145.432 104.137 144.264 103.647 143.059 103.647ZM179.708 66.6777H180.273C181.893 66.6777 183.437 66.0377 184.567 64.9083C185.697 63.7789 186.375 62.2354 186.375 60.6165H182.383C182.081 62.8377 181.064 63.5907 179.859 63.5907C178.39 63.5907 177.222 62.4989 177.222 58.9977C177.222 55.4965 178.39 53.9154 179.859 53.9154C181.027 53.9154 182.044 54.9695 182.383 57.1907H186.375V56.8518C186.375 55.233 185.735 53.6895 184.605 52.5224C183.475 51.393 181.893 50.753 180.273 50.753H179.708C177.938 50.753 176.243 51.4683 175 52.7107C173.757 53.953 173.041 55.6471 173.041 57.4165V60.0142C173.041 60.8801 173.23 61.7459 173.531 62.5742C173.87 63.3648 174.36 64.1177 174.962 64.7201C175.565 65.3224 176.318 65.8118 177.109 66.1507C177.938 66.5271 178.804 66.6777 179.708 66.6777ZM175.339 85.6142C175.49 85.5012 175.64 85.3883 175.753 85.2754C175.791 85.2377 175.829 85.2377 175.829 85.2001C175.942 85.0871 176.017 85.0118 176.092 84.8989C176.13 84.8612 176.205 84.7859 176.243 84.7107C176.318 84.6354 176.356 84.5601 176.394 84.4848C176.469 84.4095 176.544 84.2965 176.582 84.1836C176.996 83.4683 177.222 82.6024 177.222 81.7742C177.222 81.1342 177.109 80.5318 176.846 79.9295C176.62 79.3648 176.243 78.8001 175.791 78.3859C175.339 77.9342 174.812 77.5954 174.247 77.3318C173.682 77.106 173.041 76.9554 172.401 76.9554H164.378V92.353H168.634V86.593H172.363C173.493 86.593 174.51 86.2542 175.339 85.6142ZM168.747 83.506V80.0048H171.271C171.723 80.0048 172.175 80.193 172.514 80.5318C172.853 80.8707 173.041 81.3224 173.041 81.7742C173.041 82.2259 172.853 82.6777 172.514 83.0165C172.175 83.3554 171.723 83.5436 171.271 83.5436H168.747V83.506ZM202.534 76.9554H198.278V92.353H202.534V76.9554ZM205.284 92.353H209.54V76.9554H205.284V92.353ZM164.491 66.6777H165.32C166.261 66.6777 167.165 66.4518 168.032 66.0377C168.86 65.6236 169.614 65.0212 170.179 64.2683C171.196 63.0636 171.723 61.5577 171.723 60.0142V57.4165C171.723 55.873 171.196 54.3671 170.179 53.1624C169.614 52.4095 168.86 51.8071 168.032 51.393C167.203 50.9789 166.261 50.753 165.32 50.753H164.491C163.549 50.753 162.608 50.9789 161.779 51.393C160.95 51.8071 160.197 52.4095 159.632 53.1624C158.653 54.3671 158.088 55.873 158.088 57.4165V60.0142C158.088 61.5577 158.615 63.0636 159.632 64.2683C160.197 65.0212 160.95 65.6236 161.779 66.0377C162.608 66.4518 163.549 66.6777 164.491 66.6777ZM162.721 55.8354C162.796 55.5718 162.909 55.3459 163.022 55.1577C163.06 55.1201 163.06 55.0824 163.097 55.0448C163.135 55.0071 163.173 54.9318 163.21 54.8942C163.248 54.8565 163.248 54.8189 163.286 54.7812C163.323 54.7436 163.361 54.7059 163.399 54.6683C163.436 54.6307 163.474 54.593 163.474 54.5554C163.512 54.5177 163.549 54.4801 163.587 54.4424C163.625 54.4048 163.625 54.4048 163.662 54.3671C163.738 54.3295 163.813 54.2542 163.851 54.2165L163.888 54.1789C163.964 54.1412 164.001 54.1036 164.077 54.1036C164.114 54.1036 164.114 54.0659 164.152 54.0659C164.227 54.0283 164.265 54.0283 164.34 53.9907C164.378 53.9907 164.378 53.9907 164.416 53.9907C164.491 53.9907 164.566 53.953 164.642 53.953H164.679C164.755 53.953 164.83 53.953 164.943 53.953C165.018 53.953 165.131 53.953 165.207 53.953H165.244C165.32 53.953 165.395 53.9907 165.47 53.9907C165.47 53.9907 165.508 53.9907 165.546 53.9907C165.621 53.9907 165.659 54.0283 165.734 54.0659C165.772 54.0659 165.772 54.0659 165.809 54.1036C165.885 54.1412 165.922 54.1789 165.998 54.1789L166.035 54.2165C166.111 54.2542 166.186 54.3295 166.224 54.3671C166.261 54.4048 166.261 54.4048 166.299 54.4424C166.337 54.4801 166.374 54.5177 166.412 54.5554C166.45 54.593 166.487 54.6307 166.487 54.6683C166.525 54.7059 166.563 54.7436 166.6 54.7812C166.638 54.8189 166.676 54.8565 166.676 54.8942C166.713 54.9318 166.751 55.0071 166.789 55.0448C166.826 55.0824 166.826 55.1201 166.864 55.1577C166.977 55.3836 167.09 55.6095 167.165 55.8354C167.504 56.8518 167.655 57.9059 167.617 58.9977C167.655 59.8636 167.542 60.7295 167.316 61.5954C167.316 61.633 167.316 61.633 167.316 61.6707C167.278 61.7836 167.241 61.8589 167.203 61.9342C167.128 62.1224 167.015 62.3483 166.939 62.4989C166.939 62.4989 166.939 62.5365 166.902 62.5365C166.864 62.6118 166.826 62.6871 166.751 62.7248C166.751 62.7248 166.751 62.7248 166.751 62.7624C166.713 62.8377 166.638 62.8754 166.6 62.9507C166.45 63.1012 166.261 63.2518 166.073 63.3648C166.035 63.4024 165.998 63.4024 165.922 63.4401C165.885 63.4401 165.847 63.4777 165.847 63.4777C165.809 63.4777 165.772 63.5154 165.734 63.5154C165.696 63.5154 165.659 63.553 165.583 63.553C165.546 63.553 165.508 63.553 165.508 63.5907C165.433 63.5907 165.395 63.6283 165.32 63.6283H165.282C165.207 63.6283 165.131 63.6283 165.018 63.6283C164.943 63.6283 164.83 63.6283 164.755 63.6283H164.717C164.642 63.6283 164.604 63.6283 164.529 63.5907C164.491 63.5907 164.453 63.5907 164.453 63.553C164.416 63.553 164.378 63.5154 164.303 63.5154C164.265 63.5154 164.227 63.4777 164.19 63.4777C164.152 63.4777 164.114 63.4401 164.077 63.4401C164.039 63.4401 164.001 63.4024 163.926 63.3648C163.738 63.2518 163.549 63.1389 163.399 62.9507C163.361 62.913 163.286 62.8377 163.248 62.7624C163.248 62.7624 163.248 62.7624 163.248 62.7248C163.21 62.6495 163.173 62.6118 163.097 62.5365C163.097 62.5365 163.097 62.4989 163.06 62.4989C162.947 62.3107 162.871 62.1224 162.796 61.9342C162.758 61.8589 162.721 61.7459 162.683 61.6707C162.683 61.6707 162.683 61.633 162.683 61.5954C162.457 60.7671 162.344 59.8636 162.382 58.9977C162.231 57.9436 162.382 56.8518 162.721 55.8354ZM149.989 63.666C147.88 63.666 147.24 61.5954 147.164 61.2565L145.055 61.7459L143.285 62.0848C143.661 64.0801 145.281 66.9036 149.876 66.9036C155.79 66.9036 156.355 62.9883 156.355 61.7459C156.355 58.5459 153.718 57.7177 150.818 56.7389C149.01 56.1365 148.52 55.9107 148.52 55.1201C148.52 54.3295 149.274 53.8777 150.215 53.8777C151.458 53.8777 152.174 54.5554 152.701 55.6848L156.129 54.4801C155.451 52.5224 154.133 50.6777 150.065 50.6777C145.997 50.6777 144.226 53.2754 144.226 55.233C144.226 57.9436 145.507 59.1107 148.709 60.2024C151.082 61.0307 152.099 61.2565 152.099 62.3107C152.061 63.1012 151.383 63.666 149.989 63.666ZM200.463 54.1789C201.63 54.5177 201.781 55.7224 201.404 56.5507C201.028 57.4165 199.408 58.8095 198.617 59.4118C197.374 60.353 193.758 63.1389 193.758 63.1389V66.5271H205.849V63.1389H199.182C199.182 63.1389 200.161 62.4612 202.421 60.8424C204.681 59.2236 205.585 57.3412 205.585 56.0612C205.585 54.7812 205.548 50.753 199.785 50.753C194.022 50.753 193.532 55.9107 193.532 55.9107L197.299 57.0024C197.713 54.1412 199.596 53.9154 200.463 54.1789Z" fill="#F9F9F9"/>
<path d="M74.0525 114.15C67.3478 114.339 60.7185 112.306 55.2945 108.39C48.1378 103.27 43.8438 96.3434 42.2995 87.6846H31.8281C34.0128 108.315 52.4318 126.122 76.0865 124.654C97.8955 123.336 113.301 105.868 115.071 87.6846H104.6C103.432 94.9881 99.7035 101.614 94.1288 106.433C88.5541 111.289 81.4351 114 74.0525 114.15ZM70.0975 102.593C70.9261 102.932 71.8301 103.12 72.7341 103.082C73.6381 103.082 74.5421 102.856 75.3708 102.48C76.1241 102.179 76.8021 101.652 77.3671 101.049C77.8945 100.409 78.3088 99.6563 78.4971 98.8657C78.8361 97.5857 78.8361 96.2681 78.4218 94.9881C78.2335 94.3105 77.8945 93.6705 77.4425 93.1057C76.9905 92.541 76.4255 92.0893 75.7851 91.7881C74.8435 91.2987 73.7888 91.0728 72.7341 91.1104C72.5081 91.1104 72.2821 91.1104 72.0561 91.1104C71.9055 91.1104 71.7925 91.1481 71.6418 91.1481C70.7755 91.2234 69.9091 91.5622 69.1558 92.0516C68.4025 92.541 67.7998 93.2187 67.3855 93.9716C66.7828 95.0634 66.5568 96.3057 66.6321 97.5105C66.7828 99.8822 67.8751 101.652 70.0975 102.593ZM71.1145 93.2187C71.8678 92.9175 72.7341 92.8422 73.5251 92.9928C74.3161 93.181 75.0695 93.5952 75.5968 94.2352C76.2748 95.1387 76.6138 96.2304 76.5385 97.3599C76.4631 98.4893 75.9735 99.5434 75.1448 100.334C73.3745 101.915 69.6455 101.576 68.8545 98.1881C68.7791 97.8493 68.7415 97.5104 68.7415 97.3599C68.6661 95.4399 69.5701 93.8587 71.1145 93.2187ZM61.2081 101.2C60.7561 101.2 60.2665 101.125 59.8521 100.899C59.4378 100.673 59.0988 100.372 58.8351 99.9952C58.3455 100.522 57.8558 101.049 57.3661 101.576C57.7428 102.028 58.2325 102.367 58.7598 102.593C59.8145 103.045 60.9445 103.158 62.0745 102.969C63.9201 102.668 65.1255 101.463 65.2385 99.694C65.3138 99.0916 65.2008 98.4516 64.8995 97.9246C64.5981 97.3975 64.1461 96.9457 63.5811 96.6822C63.0915 96.4563 62.5641 96.2681 62.0745 96.0799C61.5095 95.8916 60.9445 95.6281 60.3795 95.3646C60.1158 95.214 59.9275 94.9881 59.8521 94.7246C59.7768 94.461 59.7768 94.1599 59.8898 93.8963C59.9651 93.7081 60.0781 93.5199 60.2288 93.3693C60.3795 93.2187 60.5678 93.1434 60.7561 93.0681C61.2458 92.8799 61.8108 92.8422 62.3381 92.9928C62.8655 93.1434 63.3175 93.4069 63.6565 93.821C64.1461 93.294 64.6358 92.8046 65.1255 92.2775C65.0125 92.1646 64.9371 92.0893 64.8241 92.0516C63.9201 91.4116 62.8278 91.0728 61.7355 91.1104C60.7938 91.1104 59.8521 91.374 59.0235 91.8634C57.1778 92.9928 56.9895 96.2681 59.3248 97.3222C59.8898 97.5857 60.4925 97.7363 61.0575 97.9622C61.5471 98.1504 62.0368 98.3763 62.4888 98.6399C62.6395 98.7528 62.7901 98.9034 62.8655 99.0916C62.9785 99.2799 63.0161 99.4681 63.0161 99.6563C63.0161 99.8446 62.9785 100.07 62.9031 100.259C62.8278 100.447 62.6771 100.598 62.5265 100.748C62.2628 101.049 61.7355 101.2 61.2081 101.2ZM81.4351 101.275C83.3185 103.12 85.5408 103.459 87.9891 102.706C88.8931 102.405 89.6465 101.802 90.1738 101.049L88.4788 99.8446C88.4035 99.9199 88.3658 99.9575 88.3281 100.033C86.6708 102.028 84.0341 101.275 82.9418 99.8822C82.5651 99.3928 82.3015 98.8281 82.1508 98.1881C82.0001 97.5857 81.9625 96.9457 82.0755 96.3057C82.1885 95.3646 82.6405 94.4987 83.3561 93.8587C84.4861 92.8422 86.7461 92.3528 88.2151 93.9716C88.2528 94.0093 88.2905 94.0469 88.3281 94.0469L89.9101 92.8799C89.4958 92.3528 88.9685 91.9387 88.3658 91.6375C87.2735 91.1105 86.0305 90.9599 84.8628 91.1481C84.1095 91.2234 83.3938 91.4869 82.7535 91.8634C82.1131 92.2399 81.5481 92.7293 81.0961 93.3316C80.2298 94.5363 79.8155 96.0046 79.9285 97.4728C79.8908 98.9034 80.4558 100.259 81.4351 101.275ZM77.1788 105.492C76.9151 105.718 76.7645 106.056 76.7268 106.395C76.6891 106.734 76.7645 107.073 76.9905 107.374C77.1035 107.525 77.2541 107.638 77.4425 107.75C77.6308 107.826 77.8191 107.901 78.0075 107.901C78.1958 107.939 78.3841 107.901 78.5725 107.826C78.7608 107.75 78.9115 107.638 79.0245 107.487C79.0621 108.165 78.9491 108.541 78.5725 108.692C78.3088 108.805 78.0451 108.842 77.7815 108.767C77.5178 108.692 77.2541 108.541 77.1035 108.353C76.9905 108.466 76.8775 108.579 76.8021 108.729C77.0281 108.955 77.2918 109.106 77.5931 109.181C77.8945 109.256 78.1958 109.256 78.4971 109.181C78.7231 109.143 78.9491 109.03 79.0998 108.88C79.2881 108.729 79.4011 108.503 79.4388 108.278C79.4765 108.089 79.5141 107.901 79.5141 107.713C79.5141 106.96 79.5141 106.245 79.5141 105.492C79.5141 105.416 79.5141 105.341 79.5141 105.303H79.0998C79.0998 105.416 79.0998 105.529 79.0621 105.68C78.8361 105.416 78.5348 105.266 78.1581 105.228C77.7815 105.19 77.4425 105.303 77.1788 105.492ZM79.0245 106.546C79.0245 106.659 79.0245 106.809 78.9491 106.922C78.9115 107.035 78.8361 107.148 78.7608 107.223C78.6855 107.299 78.5725 107.374 78.4595 107.449C78.3465 107.487 78.2335 107.525 78.0828 107.525C77.8568 107.525 77.6308 107.412 77.4425 107.261C77.2918 107.073 77.1788 106.847 77.1788 106.621C77.1788 106.508 77.1788 106.395 77.2165 106.282C77.2541 106.169 77.3295 106.056 77.4048 105.981C77.4801 105.906 77.5931 105.83 77.7061 105.793C77.8191 105.755 77.9321 105.718 78.0451 105.718C78.1581 105.718 78.2711 105.755 78.3841 105.793C78.4971 105.83 78.6101 105.906 78.6855 105.981C78.7608 106.056 78.8361 106.169 78.8738 106.282C78.9868 106.282 79.0245 106.395 79.0245 106.546ZM64.6358 105.266H64.2215V109.106H64.6358V107.487C65.3138 108.052 65.9918 108.089 66.5191 107.6C66.7451 107.374 66.8958 107.035 66.9335 106.696C66.9711 106.358 66.8581 106.019 66.6698 105.755C66.4815 105.492 66.2178 105.341 65.9165 105.266C65.6905 105.19 65.4645 105.228 65.2385 105.266C65.0125 105.303 64.8241 105.454 64.6358 105.642C64.6358 105.492 64.6358 105.379 64.6358 105.266ZM65.5775 105.605C65.6905 105.605 65.8411 105.642 65.9541 105.68C66.0671 105.718 66.1801 105.793 66.2555 105.906C66.3308 105.981 66.4061 106.094 66.4438 106.207C66.4815 106.32 66.5191 106.433 66.4815 106.583C66.4815 106.696 66.4815 106.809 66.4438 106.922C66.4061 107.035 66.3308 107.148 66.2555 107.223C66.1801 107.299 66.0671 107.374 65.9541 107.449C65.8411 107.487 65.7281 107.525 65.6151 107.525C65.5021 107.525 65.3515 107.487 65.2385 107.449C65.1255 107.412 65.0125 107.336 64.9371 107.261C64.8618 107.186 64.7865 107.073 64.7488 106.96C64.7111 106.847 64.6735 106.734 64.6735 106.583C64.6735 106.47 64.6735 106.32 64.7488 106.207C64.7865 106.094 64.8618 105.981 64.9371 105.906C65.0125 105.83 65.1255 105.755 65.2385 105.68C65.3138 105.642 65.4268 105.605 65.5775 105.605ZM71.6795 106.546C71.6795 106.734 71.7171 106.922 71.7548 107.073C71.8301 107.261 71.9431 107.412 72.0561 107.525C72.2068 107.638 72.3575 107.75 72.5081 107.826C72.6965 107.901 72.8471 107.901 73.0355 107.901C73.2238 107.901 73.4121 107.901 73.5628 107.826C73.7511 107.75 73.9018 107.675 74.0148 107.525C74.1278 107.374 74.2408 107.261 74.3161 107.073C74.3915 106.885 74.4291 106.734 74.3915 106.546C74.3915 106.358 74.3915 106.169 74.3161 106.019C74.2408 105.83 74.1655 105.68 74.0148 105.567C73.9018 105.454 73.7135 105.341 73.5628 105.266C73.3745 105.19 73.2238 105.19 73.0355 105.19C72.8471 105.19 72.6588 105.19 72.5081 105.266C72.3198 105.341 72.1691 105.416 72.0561 105.567C71.9055 105.68 71.8301 105.83 71.7548 106.019C71.7171 106.169 71.6795 106.358 71.6795 106.546ZM73.9771 106.546C73.9771 106.659 73.9771 106.809 73.9395 106.922C73.9018 107.035 73.8265 107.148 73.7511 107.223C73.6758 107.299 73.5628 107.374 73.4498 107.449C73.3368 107.487 73.2238 107.525 73.0731 107.525C72.9601 107.525 72.8471 107.487 72.7341 107.449C72.6211 107.412 72.5081 107.336 72.4328 107.261C72.3575 107.186 72.2821 107.073 72.2445 106.96C72.2068 106.847 72.1691 106.734 72.1691 106.621C72.1691 106.508 72.1691 106.358 72.2068 106.245C72.2445 106.132 72.3198 106.019 72.3951 105.943C72.4705 105.868 72.5835 105.793 72.6965 105.718C72.8095 105.68 72.9225 105.642 73.0731 105.642C73.1861 105.642 73.3368 105.68 73.4498 105.718C73.5628 105.755 73.6758 105.83 73.7511 105.943C73.8265 106.019 73.9018 106.132 73.9395 106.245C73.9771 106.32 73.9771 106.433 73.9771 106.546ZM84.3355 106.546C84.3355 106.734 84.3731 106.922 84.4485 107.073C84.5238 107.261 84.6368 107.412 84.7498 107.525C84.9005 107.638 85.0511 107.75 85.2018 107.826C85.3901 107.901 85.5408 107.901 85.7291 107.901C85.9175 107.901 86.1058 107.863 86.2565 107.826C86.4448 107.75 86.5955 107.675 86.7085 107.525C86.8215 107.412 86.9345 107.223 87.0098 107.073C87.0851 106.885 87.0851 106.734 87.0851 106.546C87.0851 106.358 87.0475 106.169 87.0098 106.019C86.9345 105.868 86.8591 105.68 86.7085 105.567C86.5578 105.454 86.4071 105.341 86.2565 105.266C86.0681 105.19 85.9175 105.19 85.7291 105.19C85.5408 105.19 85.3525 105.19 85.2018 105.266C85.0135 105.341 84.8628 105.416 84.7498 105.567C84.5991 105.68 84.5238 105.83 84.4485 106.019C84.3731 106.207 84.3355 106.358 84.3355 106.546ZM86.6331 106.583C86.6331 106.696 86.6331 106.809 86.5955 106.922C86.5578 107.035 86.4825 107.148 86.4071 107.223C86.3318 107.299 86.2188 107.374 86.1058 107.412C85.9928 107.449 85.8798 107.487 85.7668 107.487C85.6538 107.487 85.5031 107.449 85.3901 107.412C85.2771 107.374 85.1641 107.299 85.0888 107.186C85.0135 107.11 84.9381 106.998 84.9005 106.885C84.8628 106.772 84.8251 106.659 84.8251 106.508C84.8251 106.395 84.8251 106.245 84.9005 106.132C84.9758 106.019 85.0135 105.906 85.0888 105.83C85.1641 105.755 85.2771 105.68 85.3901 105.605C85.5031 105.567 85.6161 105.529 85.7668 105.529C85.8798 105.529 86.0305 105.567 86.1435 105.605C86.2565 105.642 86.3695 105.718 86.4448 105.83C86.5201 105.906 86.5955 106.019 86.6331 106.132C86.5955 106.32 86.6331 106.433 86.6331 106.583ZM57.9688 107.863C58.1948 107.939 58.4208 107.939 58.6468 107.863C58.8728 107.788 59.0611 107.675 59.2118 107.487C59.2118 107.638 59.2495 107.713 59.2495 107.788H59.6261C59.6261 107.261 59.6261 106.734 59.6261 106.207C59.6261 105.642 59.4378 105.341 59.0611 105.228C58.5715 105.078 57.7805 105.19 57.5545 105.605C57.6298 105.68 57.7051 105.755 57.7805 105.83C58.6468 105.379 59.1741 105.529 59.1741 106.207C59.0611 106.207 58.9105 106.207 58.7975 106.207C58.4961 106.245 58.1571 106.282 57.8558 106.395C57.7051 106.433 57.5545 106.546 57.4791 106.696C57.4038 106.847 57.3661 107.035 57.4038 107.186C57.4038 107.336 57.4791 107.487 57.5921 107.6C57.6675 107.75 57.8181 107.826 57.9688 107.863ZM58.1948 106.696C58.4961 106.659 58.8351 106.621 59.1365 106.583C59.1741 107.223 58.8728 107.6 58.3078 107.562C58.1948 107.562 58.0818 107.525 58.0065 107.487C57.9311 107.412 57.8558 107.336 57.8558 107.223C57.8558 107.186 57.8558 107.11 57.8558 107.073C57.8558 107.035 57.8935 106.96 57.9311 106.922C57.9688 106.885 58.0065 106.847 58.0441 106.809C58.0818 106.734 58.1571 106.696 58.1948 106.696ZM68.8168 106.245C68.5155 106.282 68.1765 106.32 67.8751 106.433C67.7245 106.47 67.5738 106.583 67.4985 106.734C67.4231 106.885 67.3855 107.035 67.4231 107.223C67.4231 107.374 67.4985 107.525 67.6115 107.638C67.7245 107.75 67.8375 107.826 68.0258 107.863C68.2518 107.939 68.4778 107.939 68.7038 107.901C68.9298 107.826 69.1181 107.713 69.2688 107.525C69.3065 107.638 69.3065 107.75 69.3441 107.826H69.7208C69.7208 107.261 69.7208 106.734 69.7208 106.169C69.7208 105.981 69.7208 105.83 69.6078 105.642C69.4948 105.454 69.3818 105.341 69.2311 105.266C68.9675 105.153 68.6661 105.115 68.4025 105.19C68.1011 105.228 67.8375 105.379 67.6491 105.567L67.8751 105.868C68.0258 105.718 68.2141 105.642 68.4401 105.605C68.6661 105.567 68.8545 105.605 69.0428 105.68C69.1181 105.718 69.1935 105.83 69.2688 105.906C69.3065 106.019 69.3065 106.094 69.3065 106.207C69.0428 106.245 68.9298 106.245 68.8168 106.245ZM68.2895 107.525C68.1765 107.525 68.1011 107.487 68.0258 107.412C67.9505 107.336 67.9128 107.261 67.8751 107.148C67.8375 107.035 67.8751 106.96 67.9128 106.885C67.9505 106.809 68.0635 106.734 68.1388 106.734C68.4778 106.659 68.8168 106.659 69.1558 106.583C69.2311 107.261 68.8545 107.6 68.2895 107.525ZM83.1301 107.487C82.9795 107.525 82.7911 107.525 82.6405 107.487C82.4898 107.449 82.3391 107.336 82.2638 107.186C82.1508 107.299 82.0378 107.374 81.9248 107.449C82.0755 107.675 82.3015 107.826 82.5275 107.901C82.7911 107.976 83.0548 107.976 83.2808 107.901C83.4691 107.863 83.6575 107.788 83.7705 107.638C83.8835 107.487 83.9588 107.299 83.9588 107.11C83.9588 106.734 83.7328 106.508 83.3185 106.395C83.1301 106.358 82.9418 106.32 82.7535 106.245C82.6405 106.207 82.4898 106.056 82.5275 105.981C82.5651 105.906 82.6028 105.868 82.6405 105.793C82.6781 105.755 82.7535 105.718 82.8288 105.68C82.9795 105.642 83.1301 105.642 83.2431 105.68C83.3938 105.718 83.5068 105.83 83.5821 105.943C83.6951 105.868 83.8081 105.793 83.9211 105.718C83.6575 105.115 82.6781 105.115 82.3015 105.492C82.2261 105.567 82.1508 105.68 82.1131 105.793C82.0755 105.906 82.0755 106.019 82.1131 106.132C82.1508 106.245 82.1885 106.358 82.2638 106.433C82.3391 106.508 82.4521 106.583 82.5275 106.621C82.7535 106.696 83.0171 106.772 83.2431 106.809C83.4315 106.847 83.5821 106.96 83.5445 107.148C83.5068 107.223 83.4691 107.299 83.4315 107.336C83.2808 107.412 83.2055 107.449 83.1301 107.487ZM89.5711 105.906C89.6841 105.793 89.7971 105.718 89.9101 105.605C89.6465 105.341 89.2698 105.19 88.8931 105.19C88.5165 105.19 88.1398 105.341 87.8761 105.605C87.6501 105.906 87.5371 106.282 87.5371 106.659C87.5748 107.035 87.7255 107.374 88.0268 107.638C88.2905 107.826 88.6295 107.939 88.9685 107.901C89.3075 107.863 89.6088 107.713 89.8348 107.449C89.7595 107.374 89.6465 107.261 89.5335 107.186C89.4581 107.261 89.3828 107.336 89.2698 107.412C89.1568 107.449 89.0438 107.487 88.9308 107.487C88.8178 107.487 88.7048 107.487 88.5918 107.449C88.4788 107.412 88.3658 107.336 88.2905 107.261C88.1021 107.073 88.0268 106.847 87.9891 106.583C87.9891 106.32 88.0268 106.094 88.1775 105.868C88.2528 105.755 88.3658 105.68 88.4788 105.642C88.5918 105.605 88.7048 105.567 88.8555 105.567C88.9685 105.567 89.1191 105.605 89.2321 105.642C89.3828 105.755 89.4958 105.83 89.5711 105.906ZM62.6018 105.642C62.7525 105.605 62.9031 105.605 63.0538 105.642C63.2045 105.68 63.3175 105.793 63.4305 105.906C63.5435 105.793 63.6565 105.68 63.7695 105.605C63.5058 105.341 63.1668 105.19 62.8278 105.19C62.4511 105.19 62.1121 105.303 61.8485 105.567C61.5848 105.83 61.4718 106.207 61.4718 106.583C61.4718 106.96 61.6225 107.299 61.8861 107.6C62.1498 107.826 62.4888 107.939 62.8278 107.939C63.1668 107.939 63.5058 107.788 63.7695 107.562L63.5058 107.223C63.0161 107.6 62.5641 107.638 62.2251 107.299C62.0745 107.11 61.9615 106.885 61.9615 106.659C61.9615 106.433 61.9991 106.169 62.1498 105.981C62.2628 105.793 62.4511 105.68 62.6018 105.642ZM81.8118 103.835C81.6611 103.798 81.5858 103.76 81.4351 103.685C80.8701 105.115 80.3428 106.508 79.7778 107.901L80.1545 108.052C80.7195 106.659 81.2468 105.266 81.8118 103.835ZM75.5591 106.207C75.5591 106.132 75.5968 106.019 75.6345 105.943C75.6721 105.868 75.7475 105.793 75.8228 105.755C75.8981 105.718 75.9735 105.68 76.0865 105.642C76.1618 105.605 76.2748 105.605 76.3501 105.642C76.3878 105.642 76.4631 105.642 76.5008 105.642V105.228C76.3125 105.19 76.1241 105.228 75.9358 105.266C75.7475 105.341 75.5968 105.454 75.4838 105.605C75.4461 105.454 75.4461 105.379 75.4461 105.303H75.0695V107.863H75.4838C75.4838 107.675 75.4838 107.487 75.4838 107.336C75.5215 106.96 75.5215 106.583 75.5591 106.207ZM60.4171 107.826H60.8315V105.266H60.4171V107.826ZM70.3988 107.525C70.3988 107.562 70.3988 107.6 70.3988 107.675C70.3988 107.713 70.4365 107.75 70.4741 107.788C70.5118 107.826 70.5495 107.863 70.5871 107.863C70.6248 107.863 70.6625 107.901 70.7001 107.863C70.8885 107.863 71.0015 107.75 71.0391 107.525C71.0391 107.487 71.0391 107.449 71.0015 107.412C71.0015 107.374 70.9638 107.336 70.9261 107.299C70.8885 107.261 70.8508 107.261 70.8131 107.223C70.7755 107.223 70.7378 107.186 70.7001 107.223C70.6625 107.223 70.6248 107.223 70.5871 107.223C70.5495 107.223 70.5118 107.261 70.4741 107.299C70.4365 107.336 70.4365 107.374 70.3988 107.412C70.3988 107.449 70.3988 107.487 70.3988 107.525ZM60.9068 104.287C60.9068 104.061 60.7938 103.948 60.6055 103.948C60.5678 103.948 60.5301 103.948 60.4925 103.948C60.4548 103.948 60.4171 103.986 60.3795 104.023C60.3418 104.061 60.3418 104.099 60.3041 104.136C60.2665 104.174 60.2665 104.212 60.2665 104.249C60.2665 104.287 60.2665 104.325 60.2665 104.362C60.2665 104.4 60.3041 104.438 60.3418 104.475C60.3795 104.513 60.4171 104.513 60.4548 104.55C60.4925 104.55 60.5301 104.588 60.5678 104.588C60.6055 104.588 60.6431 104.588 60.6808 104.588C60.7185 104.588 60.7561 104.55 60.7938 104.513C60.8315 104.475 60.8315 104.438 60.8691 104.4C60.9068 104.362 60.9068 104.325 60.9068 104.287ZM127.953 97.1716V98.0375H227.431V97.1716H127.953ZM127.953 122.508H227.431V121.642H127.953V122.508Z" fill="#F9F9F9"/>
<path d="M119.551 87.158V80.2686H27.5312V87.158H119.551Z" fill="#F9F9F9"/>
<path d="M347.95 51.6904C364.88 51.7064 378.591 65.3829 378.575 82.238C378.558 99.0931 364.821 112.743 347.891 112.727C330.982 112.711 317.278 99.0664 317.266 82.2309C317.25 65.3793 330.957 51.7064 347.883 51.6904C347.905 51.6904 347.926 51.6904 347.95 51.6904ZM337.644 97.8789C344.291 95.5269 351.55 95.5251 358.198 97.8753L359.153 94.2966C359.594 94.2966 359.998 94.286 360.405 94.3002C360.825 94.2664 361.246 94.2895 361.658 94.3731C361.371 95.8575 361.008 97.3278 360.569 98.7749C361.701 99.3971 362.826 99.9606 363.896 100.615C364.966 101.267 365.978 102.003 367.012 102.702C379.441 91.3633 378.666 72.078 366.964 61.6887C364.989 63.2353 362.837 64.5455 360.553 65.5891C360.987 67.1198 361.401 68.5864 361.675 70.0993H359.13C358.975 69.4895 358.833 68.9064 358.678 68.3287C358.544 67.7242 358.367 67.1322 358.146 66.5544C351.514 68.894 344.275 68.8904 337.644 66.5438L336.685 70.1331C336.244 70.1331 335.837 70.1349 335.432 70.1331C335.017 70.1295 334.603 70.1224 334.11 70.1153L335.266 65.5766C332.987 64.5366 330.842 63.23 328.876 61.6798C316.526 72.8922 317.046 92.1758 328.876 102.727C330.857 101.178 333.012 99.8664 335.298 98.8193C334.839 97.3384 334.458 95.8326 334.16 94.3126H336.698L337.644 97.8789ZM357.317 64.1722C357.303 64.0727 357.282 63.9749 357.255 63.8771C356.476 61.7882 355.408 59.8184 354.085 58.0229C353.233 56.8442 352.158 55.8415 350.921 55.0718C349.194 53.9571 346.989 53.8967 345.203 54.9153C344.055 55.5571 343.042 56.414 342.223 57.4398C340.905 59.0611 339.832 60.8655 339.033 62.7944C338.846 63.2264 338.675 63.6655 338.475 64.1527C344.566 66.3287 351.225 66.3358 357.317 64.1722ZM338.505 100.245C338.548 100.391 338.566 100.476 338.596 100.554C339.323 102.492 340.294 104.329 341.487 106.023C342.267 107.141 343.223 108.13 344.317 108.947C346.616 110.617 349.108 110.638 351.43 109.011C352.225 108.446 352.942 107.779 353.566 107.031C355.151 105.077 356.401 102.874 357.264 100.514C357.289 100.423 357.305 100.33 357.314 100.238C351.23 98.0833 344.587 98.0869 338.505 100.245ZM355.091 109.223C358.692 108.32 362.069 106.686 365.005 104.421C363.392 103.173 361.642 102.112 359.791 101.257C359.087 102.684 358.441 104.076 357.723 105.431C356.982 106.782 356.1 108.053 355.091 109.223ZM340.778 109.234C339.76 108.078 338.873 106.812 338.133 105.461C337.401 104.096 336.757 102.686 336.053 101.255C334.2 102.112 332.448 103.173 330.835 104.421C333.782 106.688 337.166 108.327 340.778 109.234ZM359.698 63.15C361.053 62.6949 364.453 60.5971 364.926 59.9287C362.003 57.6887 358.648 56.0727 355.069 55.1802C357.135 57.5358 358.551 60.2469 359.698 63.15ZM340.728 55.1998C337.146 56.0958 333.787 57.7207 330.864 59.9695C331.914 60.942 335.164 62.8833 336.157 63.1287C337.221 60.2487 338.766 57.5678 340.728 55.1998Z" fill="#F9F9F9"/>
<path d="M364.254 121.204C364.26 122.128 364.061 123.042 363.674 123.883C362.944 125.506 361.354 126.576 359.57 126.647C358.933 126.706 358.29 126.655 357.672 126.493C356.086 126.1 354.824 124.907 354.344 123.351C353.861 121.952 353.854 120.434 354.322 119.031C354.903 117.129 356.611 115.789 358.604 115.673C359.67 115.558 360.747 115.771 361.688 116.283C362.945 116.989 363.819 118.217 364.069 119.632C364.172 120.146 364.195 120.679 364.254 121.204ZM357.608 121.145L357.697 121.152C357.697 121.558 357.67 121.965 357.703 122.368C357.708 123.076 357.86 123.773 358.147 124.42C358.311 124.784 358.672 125.023 359.072 125.033C359.494 125.062 359.888 124.822 360.056 124.436C360.199 124.153 360.303 123.853 360.363 123.542C360.604 122.132 360.631 120.694 360.442 119.277C360.379 118.825 360.26 118.381 360.088 117.958C359.956 117.558 359.578 117.289 359.154 117.296C358.715 117.28 358.313 117.535 358.14 117.935C358.02 118.151 357.938 118.386 357.897 118.63C357.783 119.467 357.701 120.306 357.608 121.145Z" fill="#F9F9F9"/>
<path d="M353.005 121.2C353.063 122.138 352.878 123.075 352.467 123.921C351.706 125.573 350.055 126.636 348.231 126.654C347.415 126.714 346.596 126.585 345.837 126.277C344.551 125.751 343.569 124.682 343.156 123.361C342.681 121.98 342.667 120.483 343.114 119.091C343.689 117.105 345.49 115.721 347.565 115.667C349.189 115.587 350.613 116.03 351.721 117.278C352.48 118.154 352.928 119.253 352.997 120.409C353.022 120.668 353.005 120.935 353.005 121.2ZM349.405 121.296C349.356 120.549 349.355 119.98 349.274 119.425C349.206 118.938 349.089 118.458 348.922 117.996C348.796 117.573 348.401 117.285 347.958 117.289C347.497 117.269 347.078 117.555 346.93 117.991C346.767 118.343 346.662 118.72 346.619 119.104C346.553 120.245 346.513 121.392 346.53 122.535C346.517 123.191 346.667 123.841 346.964 124.428C347.196 124.951 347.81 125.187 348.337 124.956C348.556 124.858 348.737 124.689 348.846 124.474C349.015 124.185 349.128 123.866 349.176 123.534C349.285 122.73 349.342 121.923 349.401 121.296H349.405Z" fill="#F9F9F9"/>
<path d="M322.812 118.144C322.871 118.169 322.933 118.186 322.996 118.201C323.614 118.192 324.123 118.684 324.132 119.299C324.132 119.337 324.132 119.374 324.128 119.409C324.18 120.129 323.687 120.775 322.978 120.919C322.733 120.96 322.483 120.972 322.235 120.956C321.453 120.938 320.812 120.334 320.75 119.557C320.605 118.556 320.976 117.552 321.737 116.881C322.541 116.17 323.562 115.751 324.635 115.69C325.93 115.513 327.248 115.772 328.378 116.426C329.626 117.137 330.237 118.597 329.864 119.98C329.682 120.693 329.212 121.299 328.566 121.655C327.828 122.081 327.039 122.41 326.217 122.638C325.625 122.819 325.023 122.979 324.442 123.196C323.898 123.349 323.43 123.701 323.132 124.181C323.248 124.153 323.362 124.119 323.475 124.078C324.43 123.63 325.514 123.532 326.535 123.802C326.86 123.891 327.191 123.962 327.523 124.017C328.242 124.124 328.53 123.888 328.616 123.152C328.628 123.047 328.633 122.942 328.65 122.769C329.201 122.732 329.755 122.734 330.307 122.777C330.371 123.738 330.371 124.661 329.898 125.518C329.457 126.32 328.696 126.577 327.851 126.65C327.035 126.704 326.216 126.606 325.435 126.361C324.925 126.215 324.416 126.051 323.896 125.945C323.383 125.84 322.853 125.774 322.533 126.336H320.771C320.694 125.536 320.844 124.729 321.208 124.01C321.666 123.185 322.326 122.49 323.128 121.991C323.726 121.58 324.355 121.212 324.966 120.821C325.192 120.682 325.412 120.531 325.621 120.368C326.078 120.014 326.333 119.461 326.307 118.885C326.317 118.357 326.003 117.875 325.514 117.669C324.605 117.248 323.525 117.436 322.812 118.144Z" fill="#F9F9F9"/>
<path d="M334.242 115.959C334.264 116.299 334.28 116.569 334.3 116.907C334.369 116.851 334.437 116.789 334.498 116.723C335.155 115.829 336.073 115.619 337.098 115.797C337.616 115.911 338.126 116.059 338.626 116.236C338.93 116.329 339.232 116.434 339.532 116.539C339.78 116.638 340.062 116.579 340.251 116.393L340.43 115.98H341.773C341.867 116.272 341.853 116.587 341.732 116.867C341.419 117.577 341.11 118.29 340.746 118.972C340.28 119.843 339.744 120.679 339.267 121.545C338.589 122.853 338.23 124.3 338.216 125.772C338.208 125.945 338.198 126.117 338.187 126.32H334.753C334.669 125.923 334.657 125.515 334.716 125.113C334.817 123.598 335.476 122.174 336.569 121.115C337.291 120.409 338.041 119.733 338.775 119.042C338.939 118.885 339.091 118.716 339.339 118.46C339.128 118.508 339.039 118.519 338.955 118.547C338.221 118.766 337.444 118.798 336.694 118.643C336.294 118.567 335.891 118.512 335.485 118.482C334.928 118.414 334.423 118.809 334.355 119.363C334.355 119.369 334.353 119.374 334.353 119.378C334.303 119.637 334.271 119.899 334.257 120.163C334.241 120.334 334.241 120.508 334.23 120.707H332.391V115.98C332.696 115.973 332.991 115.963 333.285 115.957C333.582 115.957 333.885 115.959 334.242 115.959Z" fill="#F9F9F9"/>
<path d="M367.017 117.31C368.005 117.154 368.987 117.006 369.489 115.982H372.153C372.162 116.178 372.175 116.365 372.176 116.553C372.178 118.953 372.178 121.355 372.176 123.755C372.176 123.879 372.173 124.002 372.176 124.126C372.194 124.667 372.362 124.846 372.916 124.88C373.178 124.896 373.442 124.884 373.733 124.884C373.791 125.344 373.805 125.808 373.778 126.27C373.355 126.375 367.9 126.411 367.026 126.318V124.948C367.516 124.791 368.083 125.026 368.637 124.665C368.708 124.477 368.755 124.281 368.776 124.082C368.791 122.406 368.785 120.727 368.783 119.051C368.773 118.964 368.755 118.878 368.728 118.795H367.016L367.017 117.31Z" fill="#F9F9F9"/>
<path d="M347.599 38.8887L348.381 42.0656L348.495 42.0638L349.361 38.9384H351.501V44.3393H350.174V40.5153C349.692 41.7509 349.401 43.038 349.006 44.3216H347.785L346.84 40.4353L346.727 40.4389C346.722 40.7536 346.715 41.0682 346.711 41.3829C346.708 41.6976 346.706 42.0193 346.702 42.3376C346.699 42.6736 346.704 43.0096 346.69 43.3456C346.676 43.6584 346.64 43.9713 346.61 44.3322L345.429 44.2682C345.313 43.8825 345.317 39.7029 345.431 38.8887H347.599Z" fill="#F9F9F9"/>
<path d="M375.279 55.8734L374.118 54.8387L374.591 51.3241L374.498 51.2849L372.545 53.4147L371.398 52.3623L375.088 48.3125L376.232 49.3756L375.741 52.8956L375.829 52.9436L377.806 50.7961L378.97 51.8343L375.279 55.8734Z" fill="#F9F9F9"/>
<path d="M324.784 48.9565L323.095 46.6667L324.345 45.7334L327.604 50.121L326.35 51.0596L322.857 49.8525C323.454 50.7503 324.063 51.4898 324.638 52.3058L323.389 53.2338L320.125 48.8463L321.379 47.9218L324.693 49.065L324.784 48.9565Z" fill="#F9F9F9"/>
<path d="M388.11 84.3045C387.485 85.0067 386.926 85.3516 385.633 85.8209V84.0272L387.37 83.1418C387.642 83.0458 387.851 82.8236 387.931 82.5463C387.94 82.4396 387.942 82.333 387.933 82.2245H385.769C385.711 81.6698 385.71 81.1116 385.761 80.557C387.588 80.493 389.381 80.6707 391.211 80.6476C391.211 81.181 391.22 81.6538 391.21 82.1267C391.195 82.7098 391.163 83.2912 391.136 83.8725C391.131 83.9774 391.129 84.0841 391.113 84.189C390.997 84.9818 390.572 85.4423 389.892 85.5134C389.142 85.6716 388.397 85.2289 388.179 84.4983C388.16 84.4396 388.138 84.3774 388.11 84.3045ZM389.838 83.7925C390.133 83.3676 390.174 83.0583 390.036 82.3187L389.036 82.253C388.917 82.5694 388.892 82.9125 388.967 83.2432C389.079 83.8103 389.213 83.8992 389.838 83.7925Z" fill="#F9F9F9"/>
<path d="M338.508 39.8486C339.474 39.6886 340.377 39.5357 341.285 39.3935C341.581 39.3402 341.881 39.31 342.181 39.3028C342.827 39.2531 343.417 39.6708 343.583 40.2931C343.801 40.9348 343.565 41.6424 343.006 42.0282C342.91 42.0957 342.81 42.1562 342.695 42.2291C343.502 42.6877 343.86 43.0753 344.656 44.35C344.351 44.4068 344.063 44.4637 343.774 44.5135C343.477 44.5651 343.181 44.6095 342.851 44.6628C342.442 44.1402 342.027 43.614 341.617 43.086C341.433 42.7677 341.035 42.6415 340.699 42.7962L341.031 44.9562L339.399 45.2282L338.508 39.8486ZM342.024 41.1091C341.974 40.6753 341.779 40.4442 341.431 40.4673C341.052 40.4548 340.676 40.5331 340.333 40.6948L340.531 41.7491C341.136 41.6566 341.727 41.7117 342.024 41.1091Z" fill="#F9F9F9"/>
<path d="M331.938 43.5499C331.946 41.7011 333.645 40.9242 335.062 40.8886C336.829 40.8442 337.686 42.4157 337.736 43.9855C337.789 45.7277 336.273 46.5864 334.568 46.6433C332.936 46.6984 332.02 45.1659 331.938 43.5499ZM336.107 44.2148C336.084 43.6495 335.898 43.1019 335.573 42.6379C335.277 42.2415 334.75 42.0957 334.291 42.2842C333.834 42.4282 333.532 42.8602 333.554 43.3366C333.577 43.9215 333.782 44.4851 334.141 44.9473C334.43 45.3295 334.946 45.4575 335.382 45.2584C335.845 45.1286 336.148 44.6913 336.107 44.2148Z" fill="#F9F9F9"/>
<path d="M372.638 47.7994C372.576 48.9851 371.901 50.0536 370.854 50.6225C370.311 50.9069 369.674 50.9514 369.097 50.7469C368.431 50.5443 367.833 50.1656 367.365 49.6536C366.813 49.0776 366.604 48.2563 366.815 47.4865C366.986 46.7576 367.385 46.1034 367.952 45.6127C368.606 45.0047 369.551 44.8216 370.385 45.1416C371.063 45.3638 371.663 45.7745 372.115 46.3256C372.467 46.7363 372.652 47.2607 372.638 47.7994ZM371.088 47.5896C371.088 46.8216 370.192 46.0696 369.442 46.5336C368.804 46.9105 368.385 47.5665 368.313 48.3007C368.235 49.0758 369.165 49.7354 369.84 49.3798C370.504 49.0011 370.963 48.3434 371.088 47.5896Z" fill="#F9F9F9"/>
<path d="M307.651 90.1846C306.249 90.1846 305.353 89.5179 305.046 88.2255C304.928 87.765 304.889 87.2886 304.93 86.8139C305.064 85.6104 305.683 84.949 306.866 84.6521C307.362 84.517 307.88 84.4797 308.391 84.5419C309.319 84.6326 310.101 85.269 310.373 86.1579C310.576 86.7268 310.648 87.333 310.58 87.9339C310.508 88.7837 309.971 89.5232 309.185 89.8592C308.707 90.0886 308.182 90.2006 307.651 90.1846ZM308.06 86.1508C307.58 86.1384 307.103 86.2468 306.676 86.4673C306.289 86.7073 306.091 87.1624 306.178 87.6086C306.226 88.0655 306.578 88.4335 307.033 88.5028C307.596 88.6095 308.176 88.5401 308.698 88.3073C309.126 88.1401 309.391 87.7081 309.344 87.2513C309.312 86.5348 308.871 86.1544 308.06 86.1508Z" fill="#F9F9F9"/>
<path d="M391.137 78.5175C390.746 78.5833 390.403 78.6455 390.059 78.6953C389.323 78.8019 388.585 78.9139 387.848 79.0046C386.784 79.1379 385.643 78.6597 385.378 77.353C385.268 76.8357 385.212 76.3095 385.212 75.7815C385.182 74.9904 385.685 74.2757 386.444 74.0375C387.002 73.8668 387.573 73.7442 388.152 73.6713C388.868 73.5539 389.589 73.4739 390.309 73.3779C390.516 73.8899 390.602 74.4428 390.557 74.9922C389.8 75.1024 389.032 75.2108 388.262 75.3228C387.928 75.3708 387.591 75.3957 387.264 75.4686C386.75 75.5362 386.387 76.0055 386.455 76.5175C386.469 76.6313 386.505 76.7397 386.56 76.841C386.68 77.1895 387.028 77.4099 387.396 77.3673C387.855 77.3299 388.31 77.2677 388.768 77.2055C389.346 77.1273 389.925 77.0348 390.503 76.9566C390.634 76.9477 390.764 76.9477 390.896 76.9548L391.137 78.5175Z" fill="#F9F9F9"/>
<path d="M384.865 66.1916L383.679 63.8254L382.673 64.3196L383.965 66.9259L382.918 67.4574C382.868 67.397 382.823 67.3312 382.782 67.2654C382.143 65.9836 381.507 64.7019 380.836 63.3543L385.765 60.9365L387.763 64.9756L386.757 65.4823L385.472 62.9436L384.657 63.3365L385.82 65.7045L384.865 66.1916Z" fill="#F9F9F9"/>
<path d="M383.531 60.1241L382.635 58.9916C382.929 58.2912 382.854 57.8272 382.422 57.5765C382.183 57.4378 382.076 57.4769 381.792 57.8325L382.029 58.5489C382.174 58.9845 382.346 59.4129 382.456 59.8556C382.635 60.4121 382.465 61.0201 382.026 61.4076C381.563 61.8467 380.89 61.9854 380.29 61.7667C380.056 61.6867 379.838 61.5658 379.646 61.4112C379.022 60.9045 378.565 60.2254 378.331 59.4592C378.11 58.7267 378.401 57.9356 379.046 57.5161L379.974 58.6805C379.726 59.0378 379.481 59.3987 379.688 59.8467C379.803 60.1721 380.087 60.4085 380.429 60.4601C380.906 60.2769 381.028 60.0849 380.91 59.6316C380.838 59.3596 380.697 59.1054 380.631 58.8334C380.51 58.3943 380.426 57.9445 380.379 57.4912C380.315 56.5881 381.288 55.9783 382.101 56.1969C382.292 56.2396 382.472 56.3161 382.637 56.4209C383.435 56.9685 383.987 57.8058 384.172 58.7534C384.263 59.2281 384.049 59.6547 383.531 60.1241Z" fill="#F9F9F9"/>
<path d="M307.275 91.8273L307.8 93.246C307.402 93.5428 307.186 93.8966 307.412 94.3891C307.544 94.6771 307.643 94.734 308.039 94.7215C308.325 94.5028 308.246 94.1935 308.243 93.8966C308.218 93.3526 308.225 92.8068 308.259 92.2646C308.384 90.9651 309.948 90.5686 310.88 91.278C311.08 91.4255 311.25 91.6086 311.384 91.8166C311.866 92.5668 312.078 93.4593 311.986 94.3464C311.9 95.0504 311.409 95.4326 310.759 95.7348L310.219 94.318C311.082 93.5766 311.071 92.8335 310.211 92.4531C309.737 92.5917 309.646 92.6842 309.63 93.1322C309.618 93.4842 309.655 93.8397 309.639 94.1917C309.636 94.526 309.598 94.8602 309.525 95.1873C309.343 95.9286 308.593 96.3837 307.846 96.2042C307.673 96.1615 307.511 96.0868 307.364 95.9837C307.171 95.8575 307.007 95.694 306.877 95.5037C306.382 94.782 306.159 93.9091 306.245 93.038C306.321 92.4691 306.723 91.9944 307.275 91.8273Z" fill="#F9F9F9"/>
<path d="M357.938 45.5558L356.27 45.2358C356.217 44.8873 356.174 44.5975 356.127 44.2935L354.236 43.9344L353.736 44.7647L352.109 44.4447L355.15 39.4775L356.934 39.8153C357.297 41.698 357.615 43.5806 357.938 45.5558ZM356 43.1095C355.993 42.4446 355.886 41.7851 355.684 41.1504L354.783 42.8571L356 43.1095Z" fill="#F9F9F9"/>
<path d="M312.995 65.2869C312.704 65.2193 312.405 65.1749 312.121 65.0807C311.432 64.8495 310.789 64.4958 310.227 64.0371C309.489 63.5393 309.229 62.5775 309.616 61.7775C309.738 61.4664 309.902 61.1713 310.104 60.9047C310.5 60.3358 311.207 60.0673 311.884 60.2273C312.845 60.4229 313.732 60.8727 314.457 61.5304C315.157 62.0531 315.357 63.0113 314.923 63.7687C314.773 64.0869 314.586 64.3855 314.364 64.6593C314.025 65.0629 313.523 65.294 312.995 65.2869ZM313.202 63.8984C313.593 63.9127 313.807 63.8078 313.909 63.5624C314.029 63.2922 313.948 62.9758 313.713 62.7962C313.046 62.2131 312.255 61.79 311.398 61.5571C311.114 61.4647 310.805 61.5873 310.664 61.8504C310.534 62.0709 310.557 62.3482 310.723 62.542C310.773 62.6149 310.834 62.6789 310.904 62.734C311.518 63.2104 312.205 63.5873 312.938 63.8504C313.023 63.8753 313.113 63.8913 313.202 63.8984Z" fill="#F9F9F9"/>
<path d="M386.445 71.2496V72.6096C385.55 72.839 384.62 72.4034 384.225 71.5714C383.964 71.0683 383.811 70.5154 383.775 69.9501C383.693 69.0416 384.161 68.1741 384.966 67.7403C385.587 67.3545 386.311 67.159 387.045 67.1803C387.657 67.1803 388.241 67.4398 388.648 67.895C389.248 68.5616 389.561 69.4363 389.52 70.3305C389.484 71.031 389.096 71.6656 388.491 72.023L387.761 70.7661C387.828 70.6896 387.889 70.6274 387.945 70.5616C388.339 70.1296 388.307 69.463 387.875 69.0701C387.645 68.8603 387.332 68.7625 387.021 68.8034C386.518 68.8976 386.03 69.0594 385.57 69.2834C385.157 69.463 384.946 69.9216 385.08 70.3501C385.15 70.7838 385.493 71.1216 385.928 71.1892C386.08 71.2176 386.239 71.2247 386.445 71.2496Z" fill="#F9F9F9"/>
<path d="M310.574 70.1356C309.576 70.0307 308.626 69.6627 307.817 69.0707C307.274 68.6956 307.021 68.0272 307.18 67.389C307.256 67.0103 307.376 66.6423 307.537 66.2921C307.846 65.5827 308.599 65.1739 309.365 65.3001C310.305 65.3854 311.206 65.7107 311.983 66.2441C312.726 66.6636 313.053 67.5579 312.755 68.3543C312.689 68.5907 312.601 68.8236 312.498 69.0459C312.148 69.8014 311.537 70.141 310.574 70.1356ZM310.94 68.7632C311.369 68.7596 311.596 68.6174 311.694 68.3472C311.792 68.0894 311.698 67.7979 311.467 67.645C311.306 67.5063 311.128 67.3907 310.937 67.3001C310.515 67.1205 310.081 66.9623 309.648 66.8112C309.446 66.7436 309.239 66.6974 309.028 66.669C308.703 66.6085 308.378 66.781 308.248 67.0832C308.144 67.3445 308.223 67.5792 308.515 67.8174C308.635 67.9223 308.771 68.0076 308.917 68.0716C309.46 68.2832 310.006 68.4841 310.556 68.6779C310.683 68.7152 310.814 68.7419 310.946 68.7596L310.94 68.7632Z" fill="#F9F9F9"/>
<path d="M306.484 79.111L306.232 80.4959C305.152 80.2755 304.67 79.6942 304.696 78.6239C304.707 78.183 304.77 77.7457 304.884 77.319C305.079 76.4959 305.907 75.9839 306.734 76.1777C306.955 76.2293 307.162 76.3288 307.339 76.4693C307.741 76.791 308.071 77.191 308.311 77.6462C308.516 77.9715 308.721 78.2968 308.959 78.6755C309.216 78.2773 309.1 77.8986 309.157 77.5502C309.216 77.1875 309.239 76.8195 309.286 76.3857L310.475 76.4497C310.336 77.9857 310.204 79.4559 310.068 80.983C309.543 80.8746 309.062 80.6133 308.686 80.2328C308.332 79.8399 308.025 79.4044 307.711 78.9795C307.521 78.7235 307.357 78.4497 307.179 78.1884C307.12 78.1013 307.052 78.0177 306.979 77.9413C306.786 77.6995 306.466 77.5946 306.166 77.6728C305.907 77.7653 305.73 78.0035 305.721 78.2773C305.711 78.5884 305.904 78.871 306.198 78.9742C306.279 79.0062 306.355 79.047 306.484 79.111Z" fill="#F9F9F9"/>
<path d="M330.468 44.8537L330.959 45.7799L329.077 46.7932L330.102 48.7701L328.638 49.5488L326.086 44.7132L329.775 42.7861L330.322 43.7728L328.125 44.9426L328.572 45.8279L330.468 44.8537Z" fill="#F9F9F9"/>
<path d="M384.317 98.7163L382.219 97.8025L382.879 96.2949L385.004 97.1927L388.765 96.5296L388.031 98.1883L385.865 98.4834L387.121 100.258L386.396 101.934L384.317 98.7163Z" fill="#F9F9F9"/>
<path d="M360.858 46.5978L359.296 46.068L360.606 42.2067C360.117 41.8814 359.531 41.8334 358.992 41.5507L359.414 40.3418L364.28 41.9898L363.858 43.2218L362.206 42.6885L360.858 46.5978Z" fill="#F9F9F9"/>
<path d="M384.684 90.7517L388.7 91.797L389.168 90.1348L390.427 90.4637L389.132 95.397L387.856 95.0877L388.284 93.4112L384.273 92.3463L384.684 90.7517Z" fill="#F9F9F9"/>
<path d="M306.42 74.8181L305.234 74.5372L306.204 70.251L307.167 70.4608C308.054 71.9061 309.463 72.9621 311.104 73.4119L310.786 74.8216C309.302 74.3612 308.006 73.4385 307.086 72.1888C306.786 73.0848 306.699 73.9416 306.42 74.8181Z" fill="#F9F9F9"/>
<path d="M314.38 57.8117C314.275 58.338 314.187 58.786 314.092 59.2322C314.062 59.3228 314.021 59.4117 313.973 59.4953L313.026 58.8055C313.289 58.0037 313.398 57.2091 312.953 56.4286L313.691 55.4277L318.175 58.7184L317.292 59.9308L314.38 57.8117Z" fill="#F9F9F9"/>
<path d="M322.424 54.1011L321.279 55.3207L317.508 51.3722L318.663 50.1758L322.424 54.1011Z" fill="#F9F9F9"/>
<path d="M364.812 48.2966L363.312 47.5784L365.65 42.6504L367.164 43.3508L364.812 48.2966Z" fill="#F9F9F9"/>
<path d="M312.892 96.1211L313.549 97.6447L308.518 99.8082L307.859 98.2864L312.892 96.1211Z" fill="#F9F9F9"/>
<path d="M385.211 88.1633L385.448 86.5615C387.256 86.7784 389.023 87.0486 390.854 87.3224L390.631 88.9313C388.804 88.7073 387.029 88.4477 385.211 88.1633Z" fill="#F9F9F9"/>
<path d="M371.696 82.2365C371.712 83.6569 371.394 85.0631 370.771 86.3396C369.971 87.8987 368.626 89.1129 366.989 89.7529C365.8 90.2222 364.539 90.4836 363.26 90.5298C361.771 90.6471 360.273 90.4854 358.844 90.0551C355.753 89.0685 353.901 86.9938 353.43 83.7618C353.196 82.2898 353.291 80.7858 353.707 79.3547C354.333 77.1716 355.964 75.4169 358.101 74.6222C359.933 73.9289 361.908 73.6871 363.855 73.92C364.973 73.9947 366.069 74.2596 367.098 74.7005C369.535 75.7014 371.237 77.9414 371.541 80.5494C371.623 81.1076 371.646 81.6747 371.696 82.2365ZM365.625 82.2365C365.575 81.4809 365.55 80.72 365.466 79.968C365.403 79.12 365.173 78.2951 364.787 77.536C364.36 76.6916 363.478 76.1707 362.53 76.2045C361.564 76.1565 360.657 76.6738 360.21 77.5289C359.896 78.1245 359.692 78.7698 359.607 79.4365C359.357 81.0791 359.326 82.7467 359.517 84.3965C359.576 85.1538 359.758 85.8987 360.057 86.5974C360.632 87.936 362.191 88.5583 363.535 87.9858C364.126 87.7334 364.605 87.2765 364.883 86.7005C365.048 86.3485 365.176 85.9822 365.264 85.6036C365.505 84.496 365.625 83.3689 365.625 82.2365Z" fill="#F9F9F9"/>
<path d="M348.512 79.671C348.407 79.3812 348.327 79.1483 348.241 78.9172C347.659 77.3599 346.487 76.567 344.869 76.3946C344.253 76.3003 343.623 76.3341 343.021 76.4941C342.627 76.6079 342.271 76.8248 341.991 77.1252C341.414 77.7599 341.477 78.4746 342.209 78.919C342.636 79.1697 343.096 79.3599 343.575 79.4843C344.582 79.7599 345.612 79.959 346.623 80.2292C347.798 80.5119 348.919 80.9777 349.948 81.6106C351.053 82.295 351.762 83.4666 351.852 84.759C352.039 86.071 351.669 87.4008 350.83 88.4301C350.193 89.175 349.364 89.7332 348.432 90.0443C347.186 90.4621 345.866 90.6292 344.553 90.535C343.009 90.4514 341.496 90.0621 340.103 89.3901C340.043 89.3617 339.975 89.3439 339.871 89.3083L339.278 90.1386H337.186V84.3768C337.546 84.3217 337.914 84.3074 338.278 84.3323C338.632 84.3234 338.986 84.3306 339.384 84.3306C339.457 84.5208 339.521 84.6986 339.594 84.8728C340.323 86.6008 341.546 87.7581 343.434 88.119C344.061 88.263 344.712 88.2488 345.332 88.0781C345.671 87.9786 345.987 87.8186 346.268 87.6034C346.809 87.2194 346.936 86.471 346.552 85.9323C346.473 85.8221 346.377 85.7261 346.266 85.6479C345.811 85.3137 345.305 85.0506 344.769 84.8692C343.732 84.5101 342.662 84.247 341.616 83.9146C340.886 83.6959 340.168 83.4381 339.466 83.143C338.132 82.5528 337.155 81.5928 336.859 80.1332C336.386 77.8026 337.369 75.7759 339.516 74.6488C340.436 74.1812 341.448 73.9199 342.478 73.879C344.434 73.735 346.396 74.0888 348.177 74.9066C348.241 74.9368 348.309 74.9581 348.425 75.0026L348.859 74.2808H351.062V79.6586C350.653 79.6621 350.236 79.6692 349.819 79.671C349.391 79.6728 348.966 79.671 348.512 79.671Z" fill="#F9F9F9"/>
<path d="M335.317 87.879V90.0461H326.008V87.879C326.295 87.879 326.576 87.8843 326.852 87.8772C327.047 87.8772 327.242 87.8612 327.435 87.8292C327.729 87.8007 327.965 87.5696 327.999 87.2763C328.042 87.0505 328.07 86.8229 328.081 86.5954C328.086 83.6621 328.086 80.7269 328.081 77.7936C328.079 76.7554 327.831 76.5189 326.788 76.5012C326.542 76.4976 326.294 76.5012 326.008 76.5012V74.3447H335.252C335.374 75.0452 335.385 75.7616 335.283 76.4656C335.154 76.4781 335.019 76.4941 334.881 76.5029C334.744 76.5118 334.597 76.5029 334.454 76.5065C333.504 76.5403 333.279 76.7429 333.279 77.6763C333.27 80.6807 333.27 83.6852 333.279 86.6896C333.283 87.6532 333.51 87.8612 334.483 87.879C334.747 87.8825 335.01 87.879 335.317 87.879Z" fill="#F9F9F9"/>
</svg>
