<svg width="87" height="24" viewBox="0 0 87 24" fill="none" xmlns="http://www.w3.org/2000/svg">
<path d="M85.7752 16.9326H1.30469V23.0881H85.7752V16.9326Z" fill="#0086FF"/>
<path d="M25.7109 20.953L26.0634 20.5177C26.2915 20.725 26.5818 20.8493 26.8928 20.8493C27.1416 20.8493 27.2867 20.7457 27.2867 20.5799C27.2867 20.4348 27.1831 20.3519 26.7269 20.2276C26.1671 20.0825 25.8146 19.9374 25.8146 19.3778C25.8146 18.8804 26.2086 18.5488 26.7891 18.5488C27.1623 18.5488 27.5355 18.6732 27.8258 18.9012L27.5148 19.3571C27.3075 19.1913 27.0586 19.1084 26.7891 19.0877C26.561 19.0877 26.4366 19.1913 26.4366 19.3364C26.4366 19.5229 26.561 19.5851 27.0379 19.7094C27.5977 19.8545 27.9087 20.0618 27.9087 20.5385C27.9087 21.0981 27.4941 21.3882 26.8928 21.3882C26.4574 21.3882 26.0427 21.2431 25.7109 20.953Z" fill="white"/>
<path d="M28.6562 18.5908H29.2575V21.3473H28.6562V18.5908Z" fill="white"/>
<path d="M30.1484 18.5908H30.7497V20.8084H32.1389V21.368H30.1484V18.5908Z" fill="white"/>
<path d="M32.1172 18.5908H32.7807L33.5064 20.539L34.2321 18.5908H34.8956L33.7759 21.368H33.2368L32.1172 18.5908Z" fill="white"/>
<path d="M35.5207 18.5908H37.6149V19.1297H36.122V19.6893H37.4283V20.2281H36.122V20.8084H37.6149V21.3473H35.5L35.5207 18.5908Z" fill="white"/>
<path d="M38.3594 18.5905H39.6242C39.9144 18.5698 40.2047 18.6734 40.4328 18.8806C40.5987 19.0465 40.6816 19.2744 40.6609 19.5231C40.6816 19.9169 40.4328 20.2693 40.0596 20.3729L40.7438 21.3677H40.0388L39.4375 20.4765H38.9607V21.3677H38.3594V18.5905ZM39.5827 19.9376C39.873 19.9376 40.0596 19.7718 40.0596 19.5439C40.0596 19.2744 39.873 19.1501 39.5827 19.1501H38.9814V19.9376H39.5827Z" fill="white"/>
<path d="M42.7969 18.5908H43.4604L44.1861 19.7514L44.9117 18.5908H45.5752V21.3473H44.9739V19.5442L44.1861 20.7255H44.1653L43.3982 19.5649V21.368H42.7969V18.5908Z" fill="white"/>
<path d="M46.427 18.5908H48.5211V19.1297H47.0283V19.6893H48.3345V20.2281H47.0283V20.8084H48.5211V21.3473H46.4062L46.427 18.5908Z" fill="white"/>
<path d="M49.2656 18.5908H49.9291L50.6548 19.7514L51.3805 18.5908H52.044V21.3473H51.4427V19.5442L50.6548 20.7255H50.6341L49.8669 19.5649V21.368H49.2656V18.5908Z" fill="white"/>
<path d="M52.8957 18.591H54.1812C54.4508 18.5703 54.6996 18.6532 54.9069 18.8397C55.0313 18.9641 55.0935 19.1299 55.0935 19.3164C55.0935 19.5651 54.9484 19.7931 54.7203 19.9174C55.0313 20.0418 55.2387 20.2283 55.2387 20.6014C55.2387 21.0988 54.824 21.3682 54.202 21.3682H52.875L52.8957 18.591ZM54.0568 19.7102C54.3264 19.7102 54.4923 19.6273 54.4923 19.42C54.4923 19.2335 54.3471 19.1299 54.0983 19.1299H53.497V19.7102H54.0568ZM54.2227 20.8293C54.4923 20.8293 54.6581 20.7257 54.6581 20.5392C54.6581 20.3527 54.513 20.2283 54.202 20.2283H53.497V20.8293H54.2227Z" fill="white"/>
<path d="M55.9426 18.5908H58.0367V19.1297H56.5439V19.6893H57.8501V20.2281H56.5439V20.8084H58.0367V21.3473H55.9219L55.9426 18.5908Z" fill="white"/>
<path d="M58.8047 18.5905H60.0695C60.3597 18.5698 60.65 18.6734 60.8781 18.8806C61.044 19.0465 61.1269 19.2744 61.1062 19.5231C61.1269 19.9169 60.8781 20.2693 60.5049 20.3729L61.1891 21.3677H60.4841L59.8829 20.4765H59.406V21.3677H58.8047V18.5905ZM60.028 19.9376C60.3183 19.9376 60.5049 19.7718 60.5049 19.5439C60.5049 19.2744 60.3183 19.1501 60.028 19.1501H59.4267V19.9376H60.028Z" fill="white"/>
<path d="M21.3745 7.46167C21.7063 7.46167 22.0173 7.39949 22.3076 7.25441C22.5978 7.10934 22.8467 6.90208 23.054 6.65338L23.9456 7.56529C23.2406 8.35286 22.4112 8.74664 21.4575 8.74664C21.0221 8.76737 20.5866 8.68446 20.1927 8.53939C19.778 8.39431 19.4255 8.14561 19.0938 7.85545C18.7828 7.56529 18.5547 7.21296 18.3888 6.81918C18.223 6.4254 18.1608 6.01089 18.1815 5.57566C18.1608 5.14042 18.2437 4.72592 18.4096 4.33213C18.5754 3.93835 18.8243 3.58602 19.1145 3.27514C19.4463 2.96426 19.8402 2.71555 20.2756 2.57048C20.7111 2.40467 21.1672 2.3425 21.6233 2.36322C22.0795 2.38395 22.5149 2.5083 22.9296 2.69483C23.3443 2.90208 23.6968 3.17151 24.0078 3.52384L23.1577 4.49794C22.9711 4.24923 22.7223 4.04198 22.432 3.8969C22.1417 3.75182 21.8307 3.68965 21.5197 3.68965C21.0221 3.68965 20.5452 3.85545 20.172 4.18706C19.9854 4.35286 19.8402 4.58084 19.7365 4.80882C19.6329 5.0368 19.5914 5.30623 19.6121 5.55493C19.5914 5.80364 19.6329 6.07307 19.7365 6.30105C19.8195 6.54975 19.9646 6.757 20.1512 6.94353C20.4622 7.29586 20.9184 7.46167 21.3745 7.46167ZM25.0445 8.68447V2.48757H26.4336V7.46167H29.0876V8.68447H25.0445ZM35.1419 7.83472C34.5199 8.41503 33.6906 8.74664 32.8197 8.74664C31.9489 8.74664 31.1195 8.41503 30.4975 7.83472C30.1865 7.54457 29.9584 7.19224 29.7926 6.79845C29.6267 6.40467 29.5438 5.99016 29.5645 5.55493C29.5438 5.14042 29.6267 4.70519 29.7926 4.31141C29.9584 3.91763 30.2072 3.56529 30.4975 3.27514C31.1195 2.69483 31.9489 2.36322 32.8197 2.36322C33.6906 2.36322 34.5199 2.69483 35.1419 3.27514C35.453 3.56529 35.681 3.91763 35.8469 4.31141C36.0128 4.70519 36.0957 5.1197 36.075 5.55493C36.0957 5.96944 36.0128 6.40467 35.8469 6.79845C35.681 7.17151 35.453 7.52384 35.1419 7.83472ZM34.6651 5.55493C34.6651 5.0368 34.4785 4.51866 34.126 4.12488C33.9601 3.93835 33.7528 3.79327 33.5247 3.68965C33.2966 3.58602 33.0478 3.54457 32.799 3.54457C32.5502 3.54457 32.3014 3.60674 32.0733 3.68965C31.8452 3.79327 31.6379 3.93835 31.472 4.12488C31.1195 4.51866 30.9122 5.01607 30.9329 5.55493C30.9329 6.07307 31.1195 6.5912 31.472 6.98498C31.6379 7.17151 31.8452 7.31659 32.0733 7.42022C32.3014 7.52384 32.5502 7.56529 32.799 7.56529C33.0478 7.56529 33.2966 7.50312 33.5247 7.42022C33.7528 7.31659 33.9601 7.17151 34.126 6.98498C34.3126 6.79845 34.4577 6.57048 34.5407 6.32177C34.6236 6.07307 34.6651 5.80364 34.6651 5.55493ZM38.8948 7.08861C38.9985 7.23369 39.1436 7.33731 39.3095 7.42022C39.4754 7.50312 39.662 7.52384 39.8278 7.52384C40.0144 7.52384 40.1803 7.50312 40.3462 7.42022C40.5121 7.33731 40.6365 7.23369 40.7401 7.08861C40.9889 6.757 41.0926 6.3425 41.0719 5.92799V2.5083H42.4611V5.96944C42.4611 6.86063 42.2122 7.56529 41.7146 8.04198C41.4658 8.29068 41.1548 8.47721 40.8438 8.60156C40.5121 8.72592 40.1596 8.78809 39.8278 8.76737C39.4754 8.78809 39.1229 8.72592 38.7911 8.60156C38.4594 8.47721 38.1691 8.29068 37.8996 8.04198C37.402 7.56529 37.1531 6.88136 37.1531 5.96944V2.5083H38.5423V5.92799C38.5216 6.3425 38.646 6.757 38.8948 7.08861ZM48.6605 3.29586C49.2411 3.83472 49.5521 4.58084 49.5521 5.55493C49.5521 6.52902 49.2618 7.29586 48.702 7.85545C48.1422 8.41504 47.2299 8.68447 46.0688 8.68447H43.9124V2.48757H46.1102C47.2299 2.48757 48.08 2.757 48.6605 3.29586ZM47.6653 6.98498C47.997 6.6741 48.1629 6.19742 48.1629 5.57566C48.1629 4.97462 47.997 4.49794 47.6653 4.16633C47.3336 3.85545 46.8152 3.66892 46.0895 3.66892H45.3224V7.46167H46.1932C46.7323 7.50312 47.2506 7.33732 47.6653 6.98498ZM57.4518 2.48757H58.8409V8.68447H57.4518L54.4868 4.80882V8.68447H53.0976V2.48757H54.4039L57.4518 6.46685V2.48757ZM64.7916 8.68447L64.2111 7.35804H61.5778L60.9973 8.68447H59.5044L62.1999 2.48757H63.5476L66.2223 8.68447H64.7916ZM62.9256 4.33213L62.1584 6.13524H63.7134L62.9256 4.33213ZM69.1665 3.68965V8.70519H67.7981V3.68965H66.0357V2.5083H70.9496V3.68965H69.1665ZM71.9449 2.48757H73.334V8.68447H71.9449V2.48757ZM77.1491 6.4254L78.7456 2.48757H80.2592L77.7711 8.68447H76.61L74.1219 2.48757H75.6355L77.1491 6.4254ZM85.4427 2.48757V3.71037H82.3534V4.97462H85.1317V6.15597H82.3534V7.46167H85.5464V8.70519H80.9642V2.5083H85.4427V2.48757ZM19.7988 13.9694C19.9854 13.9694 20.1512 13.928 20.3171 13.8451C20.483 13.7622 20.6281 13.6378 20.7318 13.4928L21.2294 14.0109C21.0635 14.2181 20.8355 14.3839 20.6074 14.5083C20.3586 14.6327 20.1098 14.6948 19.8402 14.6948C19.5914 14.6948 19.3633 14.6741 19.1353 14.5705C18.9072 14.4876 18.6998 14.3425 18.534 14.1767C18.3681 14.0109 18.223 13.8244 18.14 13.5964C18.0571 13.3684 18.0156 13.1404 18.0156 12.9124C18.0156 12.6637 18.0571 12.4358 18.14 12.2078C18.223 11.9798 18.3681 11.7933 18.534 11.6067C18.6998 11.4409 18.9072 11.2959 19.1353 11.213C19.3633 11.1301 19.5914 11.0886 19.8402 11.0886C20.1098 11.0886 20.3793 11.1301 20.6281 11.2544C20.8769 11.358 21.105 11.5238 21.2709 11.7311L20.794 12.27C20.6903 12.1249 20.5452 12.0005 20.4 11.9176C20.2342 11.8347 20.0683 11.7933 19.8817 11.7933C19.6121 11.7933 19.3426 11.8969 19.1353 12.0834C19.0316 12.1871 18.9487 12.3114 18.8865 12.4358C18.8243 12.5601 18.8035 12.7052 18.8243 12.8503C18.8243 12.9953 18.845 13.1404 18.8865 13.2648C18.9279 13.3891 19.0109 13.5135 19.1145 13.6171C19.1975 13.7207 19.3219 13.7829 19.4463 13.8451C19.5707 13.9073 19.6536 13.9694 19.7988 13.9694ZM24.692 14.1767C24.3395 14.5083 23.8834 14.6948 23.3857 14.6948C23.1369 14.6948 22.9089 14.6534 22.6808 14.5705C22.4527 14.4876 22.2454 14.3425 22.0795 14.1767C21.7478 13.8451 21.5611 13.3891 21.5611 12.9124C21.5611 12.4358 21.7478 11.9798 22.0795 11.6482C22.432 11.3166 22.8881 11.1301 23.3857 11.1301C23.6346 11.1301 23.8626 11.1715 24.0907 11.2544C24.3188 11.3373 24.5261 11.4824 24.692 11.6482C25.0237 11.9798 25.2103 12.4358 25.2103 12.9124C25.2103 13.3684 25.0237 13.8244 24.692 14.1767ZM24.4224 12.8917C24.4224 12.6016 24.3188 12.3114 24.1322 12.1042C24.0492 12.0005 23.9248 11.9176 23.8004 11.8554C23.676 11.7933 23.5309 11.7725 23.4065 11.7725C23.2613 11.7725 23.1369 11.7933 22.9918 11.8554C22.8674 11.9176 22.743 12.0005 22.66 12.1042C22.5564 12.2078 22.4734 12.3321 22.432 12.4772C22.3905 12.6223 22.3698 12.7674 22.3698 12.9124C22.3698 13.2026 22.4734 13.4928 22.66 13.7C22.743 13.8036 22.8674 13.8865 22.9918 13.9487C23.1162 14.0109 23.2613 14.0316 23.3857 14.0316C23.5309 14.0316 23.6553 14.0109 23.8004 13.9487C23.9248 13.8865 24.0492 13.8036 24.1322 13.7C24.3395 13.472 24.4432 13.1819 24.4224 12.8917ZM28.9839 12.4565L28.0509 14.3632H27.5948L26.6617 12.4565V14.6534H25.8946V11.1715H26.9313L27.8228 13.0782L28.7144 11.1715H29.7511V14.6534H28.9839V12.4565ZM33.0271 11.5031C33.1515 11.6275 33.2551 11.7725 33.3173 11.9384C33.3795 12.1042 33.4003 12.2907 33.4003 12.4565C33.4003 12.8917 33.2759 13.2026 33.0271 13.3891C32.7783 13.5964 32.405 13.6793 31.8867 13.6793H31.4305V14.6327H30.6634V11.1715H31.9074C32.405 11.1922 32.7783 11.2959 33.0271 11.5031ZM32.4673 12.8503C32.5709 12.7259 32.6124 12.5601 32.6124 12.3943C32.6124 12.3114 32.6124 12.2285 32.5709 12.1663C32.5295 12.0834 32.488 12.0213 32.4258 11.9798C32.2599 11.8762 32.0526 11.8347 31.866 11.8554H31.4305V13.0161H31.9489C32.0526 13.0161 32.1355 13.0161 32.2184 12.9953C32.3014 12.9746 32.3843 12.9124 32.4673 12.8503ZM34.9346 13.7622C34.9968 13.8451 35.0797 13.9073 35.1627 13.9487C35.2456 13.9902 35.3493 14.0109 35.453 14.0109C35.5566 14.0109 35.6603 13.9902 35.7432 13.9487C35.8262 13.9073 35.9091 13.8451 35.9713 13.7622C36.1164 13.5757 36.1786 13.327 36.1579 13.099V11.1715H36.9251V13.1197C36.9458 13.327 36.9043 13.5549 36.8421 13.7415C36.7799 13.9487 36.6555 14.1352 36.5104 14.2803C36.2201 14.5498 35.8262 14.6741 35.4322 14.6741C35.0383 14.6741 34.6651 14.529 34.3748 14.2596C34.2296 14.0938 34.126 13.928 34.043 13.7207C33.9808 13.5135 33.9394 13.3062 33.9601 13.099V11.1508H34.7273V13.0575C34.7273 13.3062 34.7895 13.5549 34.9346 13.7622ZM39.2058 11.8554V14.6534H38.4387V11.8554H37.4642V11.1922H40.2218V11.8554H39.2058ZM40.7816 11.1922H41.5488V14.6741H40.7816V11.1922ZM44.8455 11.1922H45.6126V14.6741H44.8455L43.1867 12.4979V14.6741H42.4196V11.1922H43.1453L44.8662 13.4306V11.1922H44.8455ZM48.7435 12.8917H49.5106V14.1145C49.324 14.301 49.096 14.4668 48.8471 14.5705C48.5983 14.6741 48.3288 14.7156 48.0592 14.7156C47.5824 14.7156 47.1055 14.5498 46.753 14.2181C46.5871 14.0523 46.442 13.8658 46.3591 13.6378C46.2761 13.4099 46.2347 13.1819 46.2347 12.9539C46.2347 12.7259 46.2761 12.4772 46.3591 12.2492C46.442 12.0213 46.5871 11.8347 46.753 11.6482C46.9189 11.4617 47.1262 11.3373 47.3336 11.2544C47.5616 11.1715 47.7897 11.1093 48.0385 11.1093C48.5154 11.1093 48.9923 11.2751 49.3448 11.6067L48.9508 12.1871C48.8264 12.0627 48.6813 11.9591 48.5154 11.9176C48.391 11.8762 48.2459 11.8347 48.1007 11.8347C47.8312 11.8347 47.5616 11.9384 47.3543 12.1249C47.2506 12.2285 47.1677 12.3529 47.1055 12.4979C47.0433 12.643 47.0225 12.7881 47.0433 12.9332C47.0433 13.2233 47.1469 13.5135 47.3336 13.7207C47.4165 13.8036 47.5202 13.8865 47.6446 13.928C47.769 13.9694 47.8934 14.0109 48.0178 14.0109C48.2459 14.0316 48.4739 13.9694 48.6813 13.8658V12.8917H48.7435ZM53.9062 11.1922V11.8762H52.289V12.6223H53.8233V13.3062H52.289V14.6534H51.5218V11.1922H53.9062ZM57.514 14.1767C57.1615 14.5083 56.7053 14.6948 56.2077 14.6948C55.9589 14.6948 55.7308 14.6534 55.5028 14.5705C55.2747 14.4876 55.0674 14.3425 54.9015 14.1767C54.5697 13.8451 54.3831 13.3891 54.3831 12.9124C54.3831 12.4358 54.5697 11.9798 54.9015 11.6482C55.254 11.3166 55.7101 11.1301 56.2077 11.1301C56.4565 11.1301 56.6846 11.1715 56.9127 11.2544C57.1408 11.3373 57.3481 11.4824 57.514 11.6482C57.8457 11.9798 58.0323 12.4358 58.0323 12.9124C58.0323 13.3684 57.8457 13.8244 57.514 14.1767ZM57.2444 12.8917C57.2444 12.6016 57.1408 12.3114 56.9542 12.1042C56.8712 12.0005 56.7468 11.9176 56.6224 11.8554C56.498 11.7933 56.3529 11.7725 56.2285 11.7725C56.0833 11.7725 55.9589 11.7933 55.8138 11.8554C55.6686 11.9176 55.565 12.0005 55.482 12.1042C55.3784 12.2078 55.2954 12.3321 55.254 12.4772C55.2125 12.6223 55.1918 12.7674 55.1918 12.9124C55.1918 13.2026 55.2954 13.4928 55.482 13.7C55.565 13.8036 55.6894 13.8865 55.8138 13.9487C55.9382 14.0109 56.0833 14.0316 56.2077 14.0316C56.3529 14.0316 56.4773 14.0109 56.6224 13.9487C56.7468 13.8865 56.8712 13.8036 56.9542 13.7C57.0578 13.5964 57.1408 13.472 57.1822 13.327C57.2237 13.1819 57.2444 13.0368 57.2444 12.8917ZM59.6288 13.7622C59.691 13.8451 59.774 13.9073 59.8569 13.9487C59.9399 13.9902 60.0435 14.0109 60.1472 14.0109C60.2509 14.0109 60.3545 13.9902 60.4375 13.9487C60.5204 13.9073 60.6033 13.8451 60.6655 13.7622C60.8107 13.5757 60.8729 13.327 60.8521 13.099V11.1715H61.6193V13.1197C61.64 13.327 61.5986 13.5549 61.5364 13.7415C61.4742 13.9487 61.3498 14.1352 61.2046 14.2803C60.9144 14.5498 60.5204 14.6741 60.1265 14.6741C59.7325 14.6741 59.3593 14.529 59.069 14.2596C58.9239 14.0938 58.8202 13.928 58.7373 13.7207C58.6751 13.5135 58.6336 13.3062 58.6543 13.099V11.1508H59.4215V13.0575C59.4008 13.3062 59.463 13.5549 59.6288 13.7622ZM64.8746 11.1922H65.6417V14.6741H64.8746L63.2158 12.4979V14.6741H62.4487V11.1922H63.1744L64.8953 13.4306L64.8746 11.1922ZM69.1665 11.6482C69.3324 11.814 69.4775 12.0213 69.5604 12.2285C69.6434 12.4565 69.6849 12.6845 69.6641 12.9124C69.6849 13.1404 69.6434 13.3891 69.5604 13.5964C69.4775 13.8244 69.3531 14.0109 69.1872 14.1767C68.8762 14.4876 68.3786 14.6534 67.6944 14.6534H66.5125V11.1922H67.7359C68.3579 11.1922 68.8348 11.3373 69.1665 11.6482ZM68.5859 13.7207C68.6896 13.6171 68.7518 13.4928 68.814 13.3684C68.8555 13.2441 68.897 13.099 68.8762 12.9539C68.8762 12.8088 68.8555 12.6637 68.814 12.5187C68.7726 12.3736 68.6896 12.2492 68.5859 12.1456C68.4615 12.042 68.3164 11.9591 68.1713 11.9176C68.0261 11.8762 67.8603 11.8554 67.7151 11.8762H67.2797V13.9902H67.7773C68.0676 13.9902 68.3579 13.8865 68.5859 13.7207ZM72.712 14.6534L72.401 13.9073H70.9289L70.6179 14.6534H69.7885L71.3021 11.1715H72.0485L73.5621 14.6534H72.712ZM71.6753 12.2078L71.2399 13.2026H72.1107L71.6753 12.2078ZM75.1794 11.8554V14.6534H74.4122V11.8554H73.3962V11.1922H76.1539V11.8554H75.1794ZM76.7344 11.1922H77.5016V14.6741H76.7344V11.1922ZM81.2752 14.1767C80.9227 14.5083 80.4666 14.6948 79.9689 14.6948C79.7201 14.6948 79.4921 14.6534 79.264 14.5705C79.0359 14.4876 78.8286 14.3425 78.6627 14.1767C78.3309 13.8451 78.1443 13.3891 78.1443 12.9124C78.1443 12.4358 78.3309 11.9798 78.6627 11.6482C79.0152 11.3166 79.4713 11.1301 79.9689 11.1301C80.2177 11.1301 80.4458 11.1715 80.6739 11.2544C80.902 11.3373 81.1093 11.4824 81.2752 11.6482C81.6069 11.9798 81.7935 12.4358 81.7935 12.9124C81.8143 13.3684 81.6277 13.8244 81.2752 14.1767ZM81.0264 12.8917C81.0264 12.6016 80.9227 12.3114 80.7361 12.1042C80.6532 12.0005 80.5288 11.9176 80.4043 11.8554C80.2799 11.7933 80.1348 11.7725 80.0104 11.7725C79.8653 11.7725 79.7409 11.7933 79.5957 11.8554C79.4713 11.9176 79.3469 12.0005 79.264 12.1042C79.1603 12.2078 79.0774 12.3321 79.0359 12.4772C78.9944 12.6223 78.9737 12.7674 78.9737 12.9124C78.9737 13.2026 79.0774 13.4928 79.264 13.7C79.3469 13.8036 79.4713 13.8865 79.5957 13.9487C79.7201 14.0109 79.8653 14.0316 79.9897 14.0316C80.1348 14.0316 80.2592 14.0109 80.4043 13.9487C80.5288 13.8865 80.6532 13.8036 80.7361 13.7C80.9434 13.472 81.0471 13.1819 81.0264 12.8917ZM84.9036 11.1922H85.6708V14.6741H84.9036L83.2449 12.4979V14.6741H82.4778V11.1922H83.2034L84.9244 13.4306L84.9036 11.1922Z" fill="white"/>
<path d="M3.25909 10.5283H1.35156V15.005H5.80938V13.0775H3.25909V10.5283Z" fill="#0086FF"/>
<path d="M12.8601 10.549V13.0775H10.2891V15.005H14.7469V10.5283H12.8186L12.8601 10.549Z" fill="#0086FF"/>
<path d="M1.35156 6.07239H3.27983L3.25909 6.05166V3.52316H5.80938V1.5957H1.35156V6.07239Z" fill="#0086FF"/>
<path d="M10.2891 1.5957V3.52316H12.8601V6.07239H14.7676V1.5957H10.2891Z" fill="#0086FF"/>
<path d="M10.0422 6.07239L7.49196 3.52316H10.2911V1.5957H5.8125V3.52316L8.36279 6.07239H10.0422Z" fill="#93EAFF"/>
<path d="M7.74077 10.5283H6.06131L8.17618 12.6423L8.59086 13.0775H5.8125V15.005H10.2911V13.0568L9.00554 11.7926L7.74077 10.5283Z" fill="#93EAFF"/>
<path d="M12.8601 6.07227V8.84947L12.4247 8.41423L10.2891 6.30024V7.99973L11.5538 9.26398L12.8393 10.549H14.7676V6.07227H12.8601Z" fill="#93EAFF"/>
<path d="M5.80938 8.60076L3.27983 6.07227H1.35156V10.5282H3.25909V7.75102L5.80938 10.3002V8.60076Z" fill="#93EAFF"/>
</svg>
