<svg width="257" height="403" viewBox="0 0 257 403" fill="none" xmlns="http://www.w3.org/2000/svg">
<path d="M36 152C36 82.9644 91.9644 27 161 27H849C918.036 27 974 82.9644 974 152V251C974 320.036 918.036 376 849 376H161C91.9644 376 36 320.036 36 251V152Z" fill="url(#paint0_linear_4447_77164)"/>
<path d="M19.6 215.6H17.86L14.82 209.4C14.7 209.147 14.6 208.907 14.52 208.68C14.4267 208.467 14.3667 208.307 14.34 208.2C14.3133 208.32 14.26 208.493 14.18 208.72C14.0867 208.947 13.98 209.173 13.86 209.4L10.8 215.6H9L13.3 207H15.3L19.6 215.6ZM19.6 205.6H17.86L14.82 199.4C14.7 199.147 14.6 198.907 14.52 198.68C14.4267 198.467 14.3667 198.307 14.34 198.2C14.3133 198.32 14.26 198.493 14.18 198.72C14.0867 198.947 13.98 199.173 13.86 199.4L10.8 205.6H9L13.3 197H15.3L19.6 205.6ZM19.6 195.6H17.86L14.82 189.4C14.7 189.147 14.6 188.913 14.52 188.7C14.4267 188.473 14.3667 188.307 14.34 188.2C14.3133 188.32 14.26 188.493 14.18 188.72C14.0867 188.947 13.98 189.173 13.86 189.4L10.8 195.6H9L13.3 187H15.3L19.6 195.6Z" fill="#2563EB"/>
<path d="M172 10.6V8.86L178.2 5.82C178.453 5.7 178.693 5.6 178.92 5.52C179.133 5.42667 179.293 5.36667 179.4 5.34C179.28 5.31333 179.107 5.26 178.88 5.18C178.653 5.08667 178.427 4.98 178.2 4.86L172 1.8V0L180.6 4.3V6.3L172 10.6ZM182 10.6V8.86L188.2 5.82C188.453 5.7 188.693 5.6 188.92 5.52C189.133 5.42667 189.293 5.36667 189.4 5.34C189.28 5.31333 189.107 5.26 188.88 5.18C188.653 5.08667 188.427 4.98 188.2 4.86L182 1.8V0L190.6 4.3V6.3L182 10.6ZM192 10.6V8.86L198.2 5.82C198.453 5.7 198.687 5.6 198.9 5.52C199.127 5.42667 199.293 5.36667 199.4 5.34C199.28 5.31333 199.107 5.26 198.88 5.18C198.653 5.08667 198.427 4.98 198.2 4.86L192 1.8V0L200.6 4.3V6.3L192 10.6Z" fill="#2563EB"/>
<path d="M200.602 402.6V400.86L194.402 397.82C194.148 397.7 193.908 397.6 193.682 397.52C193.468 397.427 193.308 397.367 193.202 397.34C193.322 397.313 193.495 397.26 193.722 397.18C193.948 397.087 194.175 396.98 194.402 396.86L200.602 393.8V392L192.002 396.3V398.3L200.602 402.6ZM190.602 402.6V400.86L184.402 397.82C184.148 397.7 183.908 397.6 183.682 397.52C183.468 397.427 183.308 397.367 183.202 397.34C183.322 397.313 183.495 397.26 183.722 397.18C183.948 397.087 184.175 396.98 184.402 396.86L190.602 393.8V392L182.002 396.3V398.3L190.602 402.6ZM180.602 402.6V400.86L174.402 397.82C174.148 397.7 173.915 397.6 173.702 397.52C173.475 397.427 173.308 397.367 173.202 397.34C173.322 397.313 173.495 397.26 173.722 397.18C173.948 397.087 174.175 396.98 174.402 396.86L180.602 393.8V392L172.002 396.3V398.3L180.602 402.6Z" fill="#2563EB"/>
<g clip-path="url(#clip0_4447_77164)">
<path d="M1 26.9441C1 23.109 4.10896 20 7.94406 20H368.097C371.932 20 375.041 23.109 375.041 26.9441V250.056C375.041 253.891 371.932 257 368.097 257H7.94407C4.10897 257 1 253.891 1 250.056V26.9441Z" fill="#24272D"/>
<path d="M44.5318 60.8436L49.9059 55.4695L44.5318 50.0953M28.4093 50.0953L23.0352 55.4695L28.4093 60.8436M39.8294 44.7212L33.1117 66.2178" stroke="white" stroke-width="1.61224" stroke-linecap="round" stroke-linejoin="round"/>
<path d="M21.9952 99.4897V85.1717H26.6829C27.6113 85.1717 28.4155 85.3482 29.0954 85.7012C29.7884 86.0543 30.318 86.5577 30.6841 87.2115C31.0633 87.8522 31.2529 88.6106 31.2529 89.4867C31.2529 90.3497 31.0633 91.1081 30.6841 91.7619C30.3049 92.4157 29.7754 92.9191 29.0954 93.2722C28.4155 93.6252 27.6113 93.8017 26.6829 93.8017H24.1135V99.4897H21.9952ZM24.1135 91.8992H26.6829C27.4152 91.8992 27.997 91.6835 28.4285 91.252C28.8731 90.8074 29.0954 90.219 29.0954 89.4867C29.0954 88.7414 28.8731 88.153 28.4285 87.7215C27.997 87.29 27.4152 87.0742 26.6829 87.0742H24.1135V91.8992ZM33.7558 99.4897V85.1717H38.2474C39.1496 85.1717 39.9342 85.3482 40.601 85.7012C41.2679 86.0412 41.7844 86.525 42.1505 87.1527C42.5297 87.7803 42.7193 88.5191 42.7193 89.369C42.7193 90.3236 42.4709 91.1539 41.974 91.86C41.4902 92.553 40.8299 93.0433 39.993 93.331L42.9155 99.4897H40.503L37.8943 93.6056H35.8741V99.4897H33.7558ZM35.8741 91.7423H38.2474C38.9535 91.7423 39.5157 91.5331 39.9342 91.1147C40.3526 90.6832 40.5618 90.1144 40.5618 89.4083C40.5618 88.676 40.3526 88.1007 39.9342 87.6822C39.5157 87.2638 38.9535 87.0546 38.2474 87.0546H35.8741V91.7423ZM49.753 99.6859C48.8639 99.6859 48.0924 99.5224 47.4386 99.1955C46.7979 98.8556 46.301 98.3718 45.9479 97.7441C45.608 97.1034 45.438 96.3581 45.438 95.5081V89.1533C45.438 88.2903 45.608 87.5449 45.9479 86.9173C46.301 86.2897 46.7979 85.8124 47.4386 85.4855C48.0924 85.1455 48.8639 84.9755 49.753 84.9755C50.6422 84.9755 51.4071 85.1455 52.0478 85.4855C52.7016 85.8124 53.1985 86.2897 53.5385 86.9173C53.8915 87.5449 54.0681 88.2837 54.0681 89.1337V95.5081C54.0681 96.3581 53.8915 97.1034 53.5385 97.7441C53.1985 98.3718 52.7016 98.8556 52.0478 99.1955C51.4071 99.5224 50.6422 99.6859 49.753 99.6859ZM49.753 97.803C50.4722 97.803 51.0148 97.6068 51.381 97.2145C51.7602 96.8092 51.9498 96.2404 51.9498 95.5081V89.1533C51.9498 88.408 51.7602 87.8392 51.381 87.4469C51.0148 87.0546 50.4722 86.8585 49.753 86.8585C49.0469 86.8585 48.5043 87.0546 48.1251 87.4469C47.7459 87.8392 47.5563 88.408 47.5563 89.1533V95.5081C47.5563 96.2404 47.7459 96.8092 48.1251 97.2145C48.5043 97.6068 49.0469 97.803 49.753 97.803ZM57.2574 99.4897V85.1717H61.2587C62.2001 85.1717 63.0174 85.3547 63.7104 85.7209C64.4034 86.0739 64.9395 86.5773 65.3187 87.2311C65.711 87.8849 65.9071 88.6564 65.9071 89.5456V95.0963C65.9071 95.9723 65.711 96.7438 65.3187 97.4107C64.9395 98.0776 64.4034 98.594 63.7104 98.9602C63.0174 99.3132 62.2001 99.4897 61.2587 99.4897H57.2574ZM59.3757 97.5676H61.2587C62.0432 97.5676 62.6578 97.3518 63.1024 96.9203C63.56 96.4758 63.7888 95.8677 63.7888 95.0963V89.5456C63.7888 88.7872 63.56 88.1922 63.1024 87.7607C62.6578 87.3161 62.0432 87.0938 61.2587 87.0938H59.3757V97.5676Z" fill="white"/>
<path d="M21.3659 118.327V110.26H24.581C25.4429 110.26 26.1065 110.463 26.5718 110.867C27.037 111.271 27.2697 111.843 27.2697 112.583C27.2697 113.056 27.1667 113.464 26.9608 113.807C26.7548 114.151 26.4574 114.414 26.0683 114.597C25.6793 114.772 25.2141 114.864 24.6725 114.871L24.7755 114.734L24.9814 114.746C25.2713 114.746 25.5192 114.822 25.7251 114.974C25.9387 115.119 26.1332 115.356 26.3086 115.684L27.7388 118.327H26.6862L25.3018 115.752C25.1797 115.531 25.0501 115.363 24.9128 115.249C24.7755 115.127 24.6153 115.043 24.4322 114.997C24.2568 114.951 24.0432 114.929 23.7915 114.929H22.327V118.327H21.3659ZM22.327 114.162H24.4437C25.0768 114.162 25.5497 114.032 25.8624 113.773C26.1751 113.514 26.3315 113.125 26.3315 112.606C26.3315 112.087 26.1713 111.698 25.851 111.439C25.5382 111.18 25.0691 111.05 24.4437 111.05H22.327V114.162ZM31.389 118.43C30.7941 118.43 30.2792 118.315 29.8444 118.086C29.4173 117.85 29.0855 117.518 28.849 117.091C28.6202 116.656 28.5058 116.141 28.5058 115.546C28.5058 114.974 28.6202 114.471 28.849 114.036C29.0779 113.601 29.3944 113.262 29.7987 113.018C30.2029 112.774 30.6682 112.652 31.1945 112.652C31.7056 112.652 32.1404 112.762 32.4988 112.984C32.865 113.205 33.1434 113.521 33.3341 113.933C33.5324 114.337 33.6315 114.826 33.6315 115.398V115.752H29.2152V115.123H33.0137L32.8306 115.283C32.8306 114.673 32.6934 114.2 32.4188 113.865C32.1442 113.521 31.7437 113.35 31.2174 113.35C30.836 113.35 30.508 113.441 30.2335 113.624C29.9665 113.8 29.7605 114.044 29.6156 114.357C29.4783 114.669 29.4097 115.035 29.4097 115.455V115.535C29.4097 115.993 29.486 116.382 29.6385 116.702C29.7911 117.022 30.0161 117.266 30.3135 117.434C30.611 117.594 30.9695 117.675 31.389 117.675C31.717 117.675 32.0336 117.625 32.3387 117.526C32.6514 117.419 32.9451 117.247 33.2197 117.011L33.54 117.686C33.2807 117.915 32.9565 118.098 32.5675 118.235C32.1785 118.365 31.7857 118.43 31.389 118.43ZM37.4877 120.489C37.0072 120.489 36.5534 120.424 36.1262 120.295C35.7067 120.173 35.3329 119.986 35.005 119.734L35.3139 119.047C35.5427 119.2 35.7677 119.326 35.9889 119.425C36.2177 119.532 36.4504 119.608 36.6868 119.654C36.9309 119.7 37.1826 119.723 37.442 119.723C37.9912 119.723 38.4069 119.578 38.6891 119.288C38.9789 118.998 39.1239 118.578 39.1239 118.029V116.782H39.2154C39.101 117.209 38.8569 117.552 38.4831 117.812C38.117 118.064 37.6899 118.189 37.2017 118.189C36.6907 118.189 36.2444 118.075 35.8631 117.846C35.4893 117.61 35.1995 117.285 34.9935 116.874C34.7876 116.454 34.6846 115.966 34.6846 115.409C34.6846 114.86 34.7876 114.379 34.9935 113.967C35.1995 113.548 35.4893 113.224 35.8631 112.995C36.2444 112.766 36.6907 112.652 37.2017 112.652C37.6975 112.652 38.1285 112.778 38.4946 113.029C38.8607 113.281 39.101 113.624 39.2154 114.059H39.1239V112.755H40.0392V117.915C40.0392 118.472 39.94 118.941 39.7417 119.322C39.551 119.711 39.265 120.001 38.8836 120.192C38.5098 120.39 38.0446 120.489 37.4877 120.489ZM37.3733 117.434C37.9073 117.434 38.3306 117.251 38.6433 116.885C38.956 116.519 39.1124 116.027 39.1124 115.409C39.1124 114.799 38.956 114.315 38.6433 113.956C38.3306 113.59 37.9073 113.407 37.3733 113.407C36.8394 113.407 36.4161 113.59 36.1033 113.956C35.7906 114.315 35.6342 114.799 35.6342 115.409C35.6342 116.027 35.7906 116.519 36.1033 116.885C36.4161 117.251 36.8394 117.434 37.3733 117.434ZM41.6956 111.37V110.318H42.8512V111.37H41.6956ZM41.7985 118.327V112.755H42.7482V118.327H41.7985ZM46.8591 118.43C46.3099 118.43 45.8332 118.311 45.4289 118.075C45.0323 117.838 44.7234 117.503 44.5022 117.068C44.2886 116.633 44.1818 116.122 44.1818 115.535C44.1818 114.948 44.2886 114.44 44.5022 114.013C44.7234 113.578 45.0323 113.243 45.4289 113.006C45.8332 112.77 46.3099 112.652 46.8591 112.652C47.4007 112.652 47.8698 112.77 48.2664 113.006C48.6707 113.243 48.9796 113.578 49.1932 114.013C49.4144 114.44 49.525 114.948 49.525 115.535C49.525 116.122 49.4144 116.633 49.1932 117.068C48.9796 117.503 48.6707 117.838 48.2664 118.075C47.8698 118.311 47.4007 118.43 46.8591 118.43ZM46.8477 117.663C47.3816 117.663 47.8011 117.48 48.1062 117.114C48.419 116.74 48.5753 116.214 48.5753 115.535C48.5753 114.848 48.419 114.322 48.1062 113.956C47.8011 113.59 47.3816 113.407 46.8477 113.407C46.329 113.407 45.9133 113.59 45.6006 113.956C45.2878 114.322 45.1315 114.848 45.1315 115.535C45.1315 116.214 45.2878 116.74 45.6006 117.114C45.9133 117.48 46.329 117.663 46.8477 117.663ZM50.9606 118.327V112.755H51.8759V113.99H51.7729C51.9331 113.548 52.1963 113.216 52.5624 112.995C52.9285 112.766 53.3442 112.652 53.8095 112.652C54.2595 112.652 54.6295 112.732 54.9193 112.892C55.2168 113.052 55.438 113.296 55.5829 113.624C55.7355 113.952 55.8117 114.364 55.8117 114.86V118.327H54.8735V114.906C54.8735 114.57 54.8278 114.295 54.7362 114.082C54.6447 113.861 54.5036 113.697 54.3129 113.59C54.1298 113.483 53.8896 113.43 53.5921 113.43C53.2565 113.43 52.959 113.502 52.6997 113.647C52.448 113.784 52.2535 113.987 52.1162 114.254C51.9789 114.513 51.9102 114.814 51.9102 115.157V118.327H50.9606ZM57.4041 113.922V112.755H58.594V113.922H57.4041ZM57.4041 118.327V117.148H58.594V118.327H57.4041ZM66.5133 118.43C65.453 118.43 64.6483 118.151 64.0991 117.594C63.5499 117.038 63.2754 116.218 63.2754 115.135V110.26H64.225V115.1C64.225 115.932 64.4195 116.553 64.8085 116.965C65.1975 117.369 65.7658 117.572 66.5133 117.572C67.2608 117.572 67.8252 117.369 68.2066 116.965C68.588 116.553 68.7787 115.932 68.7787 115.1V110.26H69.7283V115.135C69.7283 116.218 69.4537 117.038 68.9045 117.594C68.363 118.151 67.5659 118.43 66.5133 118.43ZM74.3326 118.43C73.913 118.43 73.5164 118.395 73.1427 118.327C72.7689 118.25 72.4257 118.14 72.1129 117.995C71.8002 117.85 71.5218 117.678 71.2777 117.48L71.6095 116.702C71.8688 116.9 72.1358 117.068 72.4104 117.205C72.685 117.335 72.9787 117.43 73.2914 117.491C73.6117 117.552 73.9588 117.583 74.3326 117.583C75.0114 117.583 75.5186 117.457 75.8543 117.205C76.1899 116.946 76.3577 116.607 76.3577 116.187C76.3577 115.958 76.3043 115.768 76.1975 115.615C76.0907 115.455 75.9229 115.318 75.6941 115.203C75.4653 115.089 75.164 114.997 74.7902 114.929L73.5774 114.677C72.8528 114.532 72.3151 114.284 71.9642 113.933C71.6209 113.582 71.4493 113.117 71.4493 112.537C71.4493 112.057 71.5752 111.641 71.8269 111.29C72.0786 110.932 72.4257 110.653 72.8681 110.455C73.3181 110.257 73.8291 110.158 74.4012 110.158C74.775 110.158 75.1258 110.196 75.4538 110.272C75.7818 110.348 76.0831 110.459 76.3577 110.604C76.6399 110.749 76.8878 110.928 77.1014 111.141L76.7696 111.897C76.4263 111.584 76.064 111.359 75.6826 111.222C75.3013 111.077 74.8741 111.004 74.4012 111.004C73.9969 111.004 73.6461 111.065 73.3486 111.187C73.0511 111.309 72.8185 111.485 72.6507 111.714C72.4905 111.935 72.4104 112.202 72.4104 112.514C72.4104 112.873 72.521 113.159 72.7422 113.373C72.9634 113.578 73.3295 113.735 73.8406 113.842L75.0534 114.082C75.8161 114.242 76.3844 114.486 76.7581 114.814C77.1319 115.142 77.3188 115.585 77.3188 116.141C77.3188 116.591 77.1967 116.988 76.9526 117.331C76.7085 117.675 76.3615 117.945 75.9115 118.144C75.4691 118.334 74.9428 118.43 74.3326 118.43ZM77.8948 118.944V118.327H83.1808V118.944H77.8948ZM84.4164 118.327V110.26H89.5422V111.061H85.3546V113.83H89.3019V114.631H85.3546V117.526H89.5422V118.327H84.4164ZM92.7118 118.43C92.3304 118.43 91.9872 118.357 91.6821 118.212C91.377 118.06 91.1367 117.854 90.9613 117.594C90.7858 117.335 90.6981 117.045 90.6981 116.725C90.6981 116.313 90.8049 115.989 91.0185 115.752C91.232 115.508 91.5829 115.337 92.0711 115.237C92.5592 115.138 93.219 115.089 94.0504 115.089H94.6111V115.707H94.0733C93.608 115.707 93.219 115.722 92.9063 115.752C92.5936 115.783 92.3457 115.836 92.1626 115.913C91.9795 115.981 91.8461 116.08 91.7622 116.21C91.6859 116.332 91.6477 116.485 91.6477 116.668C91.6477 116.98 91.7583 117.236 91.9795 117.434C92.2007 117.625 92.4982 117.72 92.872 117.72C93.1847 117.72 93.4593 117.648 93.6957 117.503C93.9322 117.358 94.1191 117.16 94.2564 116.908C94.3937 116.649 94.4623 116.359 94.4623 116.038V114.734C94.4623 114.269 94.3593 113.929 94.1534 113.716C93.9551 113.502 93.6347 113.395 93.1923 113.395C92.8643 113.395 92.5402 113.445 92.2198 113.544C91.9071 113.643 91.5829 113.796 91.2473 114.002L90.9269 113.327C91.1329 113.182 91.3617 113.06 91.6134 112.961C91.8651 112.861 92.1283 112.785 92.4029 112.732C92.6851 112.678 92.9559 112.652 93.2152 112.652C93.6957 112.652 94.0962 112.728 94.4166 112.881C94.7369 113.033 94.9734 113.27 95.1259 113.59C95.2861 113.91 95.3662 114.318 95.3662 114.814V118.327H94.4852V117.045H94.5882C94.5119 117.32 94.386 117.564 94.2106 117.777C94.0428 117.983 93.8292 118.144 93.5699 118.258C93.3182 118.372 93.0321 118.43 92.7118 118.43ZM99.0167 118.43C98.7269 118.43 98.4446 118.399 98.17 118.338C97.8954 118.285 97.6399 118.208 97.4035 118.109C97.167 118.002 96.9649 117.877 96.7971 117.732L97.0946 117.068C97.2776 117.213 97.4759 117.335 97.6895 117.434C97.9107 117.526 98.1319 117.594 98.3531 117.64C98.5819 117.686 98.8108 117.709 99.0396 117.709C99.4744 117.709 99.8062 117.629 100.035 117.469C100.264 117.308 100.378 117.095 100.378 116.828C100.378 116.607 100.306 116.435 100.161 116.313C100.016 116.191 99.7833 116.096 99.4629 116.027L98.3989 115.798C97.9183 115.699 97.556 115.527 97.3119 115.283C97.0755 115.032 96.9573 114.711 96.9573 114.322C96.9573 113.979 97.0488 113.685 97.2318 113.441C97.4149 113.189 97.6704 112.995 97.9984 112.858C98.334 112.72 98.7192 112.652 99.154 112.652C99.4133 112.652 99.665 112.678 99.9091 112.732C100.161 112.785 100.393 112.865 100.607 112.972C100.821 113.071 101 113.197 101.145 113.35L100.836 114.013C100.691 113.868 100.523 113.75 100.332 113.659C100.149 113.567 99.9549 113.498 99.749 113.453C99.5506 113.399 99.3523 113.373 99.154 113.373C98.7269 113.373 98.3989 113.456 98.17 113.624C97.9488 113.784 97.8382 114.002 97.8382 114.276C97.8382 114.49 97.9069 114.665 98.0442 114.803C98.1815 114.932 98.3989 115.028 98.6963 115.089L99.749 115.318C100.252 115.424 100.63 115.596 100.882 115.832C101.141 116.061 101.271 116.374 101.271 116.771C101.271 117.114 101.175 117.411 100.985 117.663C100.802 117.907 100.542 118.098 100.207 118.235C99.871 118.365 99.4744 118.43 99.0167 118.43ZM104.913 118.43C104.25 118.43 103.754 118.254 103.426 117.903C103.098 117.552 102.934 117.049 102.934 116.393V113.487H101.836V112.755H102.934V111.05H103.872V112.755H105.668V113.487H103.872V116.302C103.872 116.736 103.964 117.068 104.147 117.297C104.33 117.518 104.627 117.629 105.039 117.629C105.169 117.629 105.295 117.613 105.417 117.583C105.539 117.552 105.653 117.518 105.76 117.48L105.932 118.201C105.817 118.262 105.661 118.315 105.462 118.361C105.272 118.407 105.089 118.43 104.913 118.43Z" fill="#E4E4E7"/>
<path d="M20.3477 140.763C20.3477 138.055 22.543 135.859 25.2511 135.859H48.1339C50.842 135.859 53.0373 138.055 53.0373 140.763V163.646C53.0373 166.354 50.842 168.549 48.1339 168.549H25.2511C22.543 168.549 20.3477 166.354 20.3477 163.646V140.763Z" fill="#22C55E"/>
<g clip-path="url(#clip1_4447_77164)">
<path d="M40.4525 148.443L42.0647 146.831M31.3164 157.579L32.9287 155.967M34.2722 153.011L35.6157 151.667M35.8844 154.623L37.228 153.28M33.6273 156.665C33.7471 156.786 33.8895 156.881 34.0463 156.946C34.2031 157.011 34.3712 157.045 34.5409 157.045C34.7107 157.045 34.8788 157.011 35.0355 156.946C35.1923 156.881 35.3347 156.786 35.4545 156.665L36.6906 155.429L33.4661 152.205L32.23 153.441C32.1098 153.561 32.0144 153.703 31.9493 153.86C31.8842 154.017 31.8507 154.185 31.8507 154.354C31.8507 154.524 31.8842 154.692 31.9493 154.849C32.0144 155.006 32.1098 155.148 32.23 155.268L33.6273 156.665ZM36.6906 148.98L39.915 152.205L41.1511 150.969C41.2713 150.849 41.3667 150.706 41.4318 150.55C41.4969 150.393 41.5305 150.225 41.5305 150.055C41.5305 149.885 41.4969 149.717 41.4318 149.56C41.3667 149.404 41.2713 149.261 41.1511 149.141L39.7538 147.744C39.634 147.624 39.4916 147.529 39.3348 147.463C39.1781 147.398 39.01 147.365 38.8402 147.365C38.6705 147.365 38.5024 147.398 38.3456 147.463C38.1888 147.529 38.0464 147.624 37.9266 147.744L36.6906 148.98Z" stroke="#18181B" stroke-width="1.07214" stroke-linecap="round" stroke-linejoin="round"/>
</g>
<path d="M65.9336 140.763C65.9336 138.055 68.1289 135.859 70.837 135.859H93.7198C96.4279 135.859 98.6232 138.055 98.6232 140.763V163.646C98.6232 166.354 96.4279 168.549 93.7198 168.549H70.837C68.1289 168.549 65.9336 166.354 65.9336 163.646V140.763Z" fill="#22C55E"/>
<path d="M84.9663 147.905H83.8914C83.5946 147.905 83.354 148.145 83.354 148.442V155.966C83.354 156.263 83.5946 156.503 83.8914 156.503H84.9663C85.2631 156.503 85.5037 156.263 85.5037 155.966V148.442C85.5037 148.145 85.2631 147.905 84.9663 147.905Z" stroke="#18181B" stroke-width="1.07214" stroke-linecap="round" stroke-linejoin="round"/>
<path d="M80.6669 147.905H79.5921C79.2953 147.905 79.0547 148.145 79.0547 148.442V155.966C79.0547 156.263 79.2953 156.503 79.5921 156.503H80.6669C80.9637 156.503 81.2043 156.263 81.2043 155.966V148.442C81.2043 148.145 80.9637 147.905 80.6669 147.905Z" stroke="#18181B" stroke-width="1.07214" stroke-linecap="round" stroke-linejoin="round"/>
<g clip-path="url(#clip2_4447_77164)">
<path d="M35.5295 195.868H34.1968C33.9619 195.868 33.7333 195.944 33.546 196.086C33.3587 196.228 33.223 196.427 33.1595 196.653L31.8966 201.146C31.8885 201.174 31.8715 201.198 31.8483 201.216C31.825 201.233 31.7967 201.242 31.7676 201.242C31.7386 201.242 31.7103 201.233 31.687 201.216C31.6638 201.198 31.6468 201.174 31.6387 201.146L28.6721 190.591C28.664 190.563 28.647 190.538 28.6238 190.521C28.6005 190.504 28.5722 190.494 28.5432 190.494C28.5141 190.494 28.4858 190.504 28.4625 190.521C28.4393 190.538 28.4223 190.563 28.4142 190.591L27.1512 195.084C27.0881 195.309 26.9531 195.507 26.7669 195.649C26.5807 195.791 26.3534 195.868 26.1194 195.868H24.7812" stroke="white" stroke-width="1.07214" stroke-linecap="round" stroke-linejoin="round"/>
</g>
<path d="M46.4523 197.941C45.9095 197.941 45.4366 197.825 45.0335 197.594C44.6358 197.358 44.3295 197.022 44.1145 196.586C43.8996 196.146 43.7921 195.624 43.7921 195.023C43.7921 194.421 43.8996 193.902 44.1145 193.467C44.3295 193.031 44.6358 192.698 45.0335 192.467C45.4312 192.231 45.9041 192.112 46.4523 192.112C46.85 192.112 47.2127 192.174 47.5406 192.298C47.8684 192.416 48.1478 192.593 48.3789 192.83L48.1048 193.386C47.8576 193.166 47.6024 193.007 47.339 192.911C47.0811 192.814 46.7909 192.765 46.4684 192.765C45.8611 192.765 45.3882 192.959 45.0496 193.346C44.7111 193.727 44.5418 194.286 44.5418 195.023C44.5418 195.753 44.7111 196.315 45.0496 196.707C45.3882 197.094 45.8611 197.288 46.4684 197.288C46.7909 197.288 47.0811 197.239 47.339 197.143C47.6024 197.046 47.8576 196.887 48.1048 196.667L48.3789 197.223C48.1478 197.46 47.8684 197.64 47.5406 197.763C47.2127 197.882 46.85 197.941 46.4523 197.941ZM51.0385 197.941C50.6354 197.941 50.2861 197.855 49.9905 197.683C49.695 197.511 49.4666 197.272 49.3053 196.965C49.1441 196.654 49.0635 196.288 49.0635 195.869C49.0635 195.455 49.1441 195.095 49.3053 194.789C49.4666 194.482 49.695 194.243 49.9905 194.071C50.2861 193.899 50.6354 193.813 51.0385 193.813C51.4416 193.813 51.7882 193.899 52.0784 194.071C52.374 194.243 52.6024 194.482 52.7636 194.789C52.9248 195.095 53.0054 195.455 53.0054 195.869C53.0054 196.288 52.9248 196.654 52.7636 196.965C52.6024 197.272 52.374 197.511 52.0784 197.683C51.7882 197.855 51.4416 197.941 51.0385 197.941ZM51.0304 197.336C51.4228 197.336 51.7318 197.204 51.9575 196.941C52.1832 196.678 52.2961 196.32 52.2961 195.869C52.2961 195.418 52.1832 195.063 51.9575 194.805C51.7318 194.547 51.4254 194.418 51.0385 194.418C50.6462 194.418 50.3372 194.547 50.1115 194.805C49.8857 195.063 49.7729 195.418 49.7729 195.869C49.7729 196.32 49.8857 196.678 50.1115 196.941C50.3372 197.204 50.6435 197.336 51.0304 197.336ZM54.2019 197.868V193.886H54.871V194.748H54.8629C54.9919 194.453 55.1854 194.224 55.4433 194.063C55.7013 193.897 55.9942 193.813 56.322 193.813C56.6498 193.813 56.9239 193.872 57.1443 193.991C57.3646 194.104 57.5285 194.281 57.636 194.523C57.7435 194.759 57.7972 195.055 57.7972 195.409V197.868H57.0878V195.45C57.0878 195.235 57.0556 195.052 56.9911 194.902C56.932 194.746 56.8352 194.628 56.7009 194.547C56.5665 194.466 56.3865 194.426 56.1608 194.426C55.9189 194.426 55.704 194.48 55.5159 194.587C55.3278 194.695 55.18 194.84 55.0725 195.023C54.9704 195.205 54.9194 195.409 54.9194 195.635V197.868H54.2019ZM59.2166 197.868V193.886H59.8856V194.748H59.8776C60.0066 194.453 60.2 194.224 60.458 194.063C60.7159 193.897 61.0088 193.813 61.3367 193.813C61.6645 193.813 61.9386 193.872 62.1589 193.991C62.3792 194.104 62.5431 194.281 62.6506 194.523C62.7581 194.759 62.8119 195.055 62.8119 195.409V197.868H62.1025V195.45C62.1025 195.235 62.0702 195.052 62.0057 194.902C61.9466 194.746 61.8499 194.628 61.7155 194.547C61.5812 194.466 61.4011 194.426 61.1754 194.426C60.9336 194.426 60.7186 194.48 60.5305 194.587C60.3424 194.695 60.1946 194.84 60.0872 195.023C59.9851 195.205 59.934 195.409 59.934 195.635V197.868H59.2166ZM66.1417 197.941C65.6957 197.941 65.3114 197.86 64.989 197.699C64.6665 197.532 64.4193 197.296 64.2473 196.989C64.0753 196.678 63.9894 196.307 63.9894 195.877C63.9894 195.474 64.07 195.119 64.2312 194.813C64.3924 194.501 64.6208 194.257 64.9164 194.079C65.212 193.902 65.5613 193.813 65.9644 193.813C66.3567 193.813 66.6872 193.897 66.9559 194.063C67.23 194.23 67.4369 194.464 67.5766 194.765C67.7163 195.066 67.7862 195.423 67.7862 195.837V196.071H64.5214V195.571H67.3267L67.1735 195.732C67.1735 195.291 67.0688 194.953 66.8592 194.716C66.6549 194.48 66.3594 194.362 65.9724 194.362C65.7145 194.362 65.4887 194.421 65.2953 194.539C65.1018 194.652 64.9513 194.816 64.8439 195.031C64.7364 195.24 64.6826 195.493 64.6826 195.788V195.869C64.6826 196.191 64.7391 196.463 64.8519 196.683C64.9701 196.904 65.1394 197.07 65.3598 197.183C65.5801 197.296 65.8434 197.352 66.1498 197.352C66.3701 197.352 66.5931 197.323 66.8189 197.264C67.0499 197.199 67.2649 197.089 67.4637 196.933L67.7056 197.441C67.5067 197.613 67.2649 197.739 66.9801 197.82C66.6952 197.9 66.4158 197.941 66.1417 197.941ZM70.7438 197.941C70.3354 197.941 69.9807 197.855 69.6797 197.683C69.3788 197.511 69.145 197.272 68.9784 196.965C68.8118 196.654 68.7285 196.288 68.7285 195.869C68.7285 195.45 68.8118 195.087 68.9784 194.781C69.145 194.469 69.3788 194.23 69.6797 194.063C69.9807 193.897 70.3354 193.813 70.7438 193.813C71.0179 193.813 71.2785 193.859 71.5257 193.95C71.7729 194.042 71.9772 194.165 72.1384 194.321L71.8885 194.853C71.7326 194.714 71.558 194.609 71.3645 194.539C71.1764 194.464 70.991 194.426 70.8083 194.426C70.3837 194.426 70.0505 194.552 69.8087 194.805C69.5722 195.057 69.454 195.415 69.454 195.877C69.454 196.334 69.5722 196.691 69.8087 196.949C70.0505 197.202 70.381 197.328 70.8002 197.328C70.9829 197.328 71.1683 197.293 71.3564 197.223C71.5499 197.148 71.7219 197.043 71.8724 196.909L72.1223 197.441C71.9664 197.597 71.7649 197.72 71.5177 197.812C71.2758 197.898 71.0179 197.941 70.7438 197.941ZM74.7328 197.941C74.2545 197.941 73.8917 197.814 73.6445 197.562C73.3973 197.309 73.2737 196.949 73.2737 196.482V194.474H72.4756V193.886H73.3059V192.701H73.9911V193.886H75.418V194.474H73.9911V196.417C73.9911 196.723 74.061 196.952 74.2007 197.102C74.3405 197.247 74.55 197.32 74.8295 197.32C74.9424 197.32 75.0498 197.309 75.152 197.288C75.2594 197.266 75.3615 197.234 75.4583 197.191L75.5711 197.755C75.469 197.814 75.34 197.86 75.1842 197.892C75.0337 197.925 74.8832 197.941 74.7328 197.941ZM78.2808 197.941C77.8347 197.941 77.4505 197.86 77.128 197.699C76.8056 197.532 76.5584 197.296 76.3864 196.989C76.2144 196.678 76.1284 196.307 76.1284 195.877C76.1284 195.474 76.209 195.119 76.3703 194.813C76.5315 194.501 76.7599 194.257 77.0555 194.079C77.3511 193.902 77.7004 193.813 78.1034 193.813C78.4957 193.813 78.8263 193.897 79.095 194.063C79.369 194.23 79.5759 194.464 79.7157 194.765C79.8554 195.066 79.9253 195.423 79.9253 195.837V196.071H76.6605V195.571H79.4658L79.3126 195.732C79.3126 195.291 79.2078 194.953 78.9982 194.716C78.794 194.48 78.4984 194.362 78.1115 194.362C77.8535 194.362 77.6278 194.421 77.4344 194.539C77.2409 194.652 77.0904 194.816 76.9829 195.031C76.8754 195.24 76.8217 195.493 76.8217 195.788V195.869C76.8217 196.191 76.8781 196.463 76.991 196.683C77.1092 196.904 77.2785 197.07 77.4988 197.183C77.7192 197.296 77.9825 197.352 78.2888 197.352C78.5092 197.352 78.7322 197.323 78.9579 197.264C79.189 197.199 79.404 197.089 79.6028 196.933L79.8447 197.441C79.6458 197.613 79.404 197.739 79.1191 197.82C78.8343 197.9 78.5549 197.941 78.2808 197.941ZM82.6974 197.941C82.3266 197.941 82.0042 197.855 81.7301 197.683C81.456 197.511 81.2437 197.269 81.0933 196.957C80.9428 196.646 80.8675 196.285 80.8675 195.877C80.8675 195.463 80.9428 195.103 81.0933 194.797C81.2437 194.485 81.4533 194.243 81.722 194.071C81.9961 193.899 82.3186 193.813 82.6894 193.813C83.028 193.813 83.3208 193.894 83.5681 194.055C83.8153 194.216 83.9926 194.437 84.1001 194.716V192.185H84.8095V197.868H84.1565V196.989H84.1485C84.0356 197.29 83.8502 197.524 83.5922 197.691C83.3397 197.857 83.0414 197.941 82.6974 197.941ZM82.8506 197.352C83.2375 197.352 83.5439 197.221 83.7696 196.957C83.9953 196.694 84.1082 196.334 84.1082 195.877C84.1082 195.42 83.9953 195.06 83.7696 194.797C83.5439 194.534 83.2375 194.402 82.8506 194.402C82.4583 194.402 82.1493 194.534 81.9236 194.797C81.6979 195.06 81.585 195.42 81.585 195.877C81.585 196.334 81.6979 196.694 81.9236 196.957C82.1493 197.221 82.4583 197.352 82.8506 197.352Z" fill="#E4E4E7"/>
<circle cx="92.6346" cy="195.868" r="3.22449" fill="#22C55E"/>
<path d="M107.281 193.181V192.106C107.281 191.515 107.765 191.031 108.356 191.031H109.431M114.805 191.031H115.88C116.471 191.031 116.955 191.515 116.955 192.106V193.181M116.955 198.555V199.63C116.955 200.221 116.471 200.705 115.88 200.705H114.805M109.431 200.705H108.356C107.765 200.705 107.281 200.221 107.281 199.63V198.555M109.968 193.181H112.655C112.952 193.181 113.193 193.422 113.193 193.718V195.331C113.193 195.627 112.952 195.868 112.655 195.868H109.968C109.672 195.868 109.431 195.627 109.431 195.331V193.718C109.431 193.422 109.672 193.181 109.968 193.181ZM111.581 195.868H114.268C114.564 195.868 114.805 196.109 114.805 196.405V198.018C114.805 198.314 114.564 198.555 114.268 198.555H111.581C111.284 198.555 111.043 198.314 111.043 198.018V196.405C111.043 196.109 111.284 195.868 111.581 195.868Z" stroke="white" stroke-width="1.07214" stroke-linecap="round" stroke-linejoin="round"/>
<path d="M128.413 197.941C127.87 197.941 127.398 197.825 126.994 197.594C126.597 197.358 126.29 197.022 126.075 196.586C125.861 196.146 125.753 195.624 125.753 195.023C125.753 194.421 125.861 193.902 126.075 193.467C126.29 193.031 126.597 192.698 126.994 192.467C127.392 192.231 127.865 192.112 128.413 192.112C128.811 192.112 129.174 192.174 129.501 192.298C129.829 192.416 130.109 192.593 130.34 192.83L130.066 193.386C129.819 193.166 129.563 193.007 129.3 192.911C129.042 192.814 128.752 192.765 128.429 192.765C127.822 192.765 127.349 192.959 127.011 193.346C126.672 193.727 126.503 194.286 126.503 195.023C126.503 195.753 126.672 196.315 127.011 196.707C127.349 197.094 127.822 197.288 128.429 197.288C128.752 197.288 129.042 197.239 129.3 197.143C129.563 197.046 129.819 196.887 130.066 196.667L130.34 197.223C130.109 197.46 129.829 197.64 129.501 197.763C129.174 197.882 128.811 197.941 128.413 197.941ZM132.751 197.941C132.369 197.941 132.074 197.828 131.864 197.602C131.654 197.376 131.55 197.059 131.55 196.651V192.185H132.267V196.578C132.267 196.74 132.291 196.879 132.34 196.998C132.388 197.11 132.458 197.196 132.549 197.256C132.641 197.315 132.751 197.344 132.88 197.344C132.96 197.344 133.036 197.341 133.105 197.336C133.175 197.325 133.251 197.309 133.331 197.288L133.339 197.852C133.248 197.884 133.157 197.906 133.065 197.917C132.974 197.933 132.869 197.941 132.751 197.941ZM135.639 197.941C135.311 197.941 135.034 197.882 134.808 197.763C134.588 197.645 134.421 197.468 134.309 197.231C134.196 196.995 134.139 196.702 134.139 196.353V193.886H134.857V196.32C134.857 196.525 134.886 196.705 134.945 196.861C135.01 197.011 135.109 197.127 135.244 197.207C135.383 197.288 135.563 197.328 135.784 197.328C136.015 197.328 136.219 197.274 136.396 197.167C136.579 197.059 136.722 196.914 136.824 196.732C136.931 196.549 136.985 196.347 136.985 196.127V193.886H137.702V197.868H137.033V196.989H137.041C136.907 197.285 136.722 197.519 136.485 197.691C136.254 197.857 135.972 197.941 135.639 197.941ZM140.59 197.941C140.369 197.941 140.154 197.919 139.945 197.876C139.735 197.839 139.539 197.785 139.356 197.715C139.179 197.64 139.026 197.548 138.897 197.441L139.123 196.933C139.262 197.035 139.413 197.118 139.574 197.183C139.741 197.247 139.91 197.296 140.082 197.328C140.254 197.355 140.423 197.368 140.59 197.368C140.918 197.368 141.173 197.317 141.356 197.215C141.538 197.113 141.63 196.971 141.63 196.788C141.63 196.632 141.576 196.514 141.468 196.433C141.361 196.347 141.186 196.283 140.944 196.24L140.114 196.095C139.743 196.025 139.467 195.899 139.284 195.716C139.101 195.533 139.01 195.294 139.01 194.998C139.01 194.762 139.074 194.555 139.203 194.378C139.332 194.2 139.52 194.063 139.768 193.967C140.02 193.864 140.316 193.813 140.654 193.813C140.848 193.813 141.041 193.832 141.235 193.87C141.428 193.907 141.611 193.964 141.783 194.039C141.955 194.109 142.092 194.198 142.194 194.305L141.96 194.813C141.847 194.711 141.716 194.63 141.565 194.571C141.42 194.507 141.27 194.461 141.114 194.434C140.958 194.402 140.805 194.386 140.654 194.386C140.343 194.386 140.101 194.439 139.929 194.547C139.757 194.649 139.671 194.794 139.671 194.982C139.671 195.133 139.719 195.251 139.816 195.337C139.918 195.423 140.079 195.487 140.3 195.53L141.114 195.676C141.511 195.751 141.807 195.877 142 196.054C142.194 196.226 142.291 196.466 142.291 196.772C142.291 197.008 142.221 197.215 142.081 197.393C141.941 197.565 141.743 197.699 141.485 197.796C141.232 197.892 140.934 197.941 140.59 197.941ZM145.106 197.941C144.627 197.941 144.265 197.814 144.017 197.562C143.77 197.309 143.647 196.949 143.647 196.482V194.474H142.849V193.886H143.679V192.701H144.364V193.886H145.791V194.474H144.364V196.417C144.364 196.723 144.434 196.952 144.574 197.102C144.713 197.247 144.923 197.32 145.202 197.32C145.315 197.32 145.423 197.309 145.525 197.288C145.632 197.266 145.734 197.234 145.831 197.191L145.944 197.755C145.842 197.814 145.713 197.86 145.557 197.892C145.407 197.925 145.256 197.941 145.106 197.941ZM148.654 197.941C148.208 197.941 147.823 197.86 147.501 197.699C147.179 197.532 146.931 197.296 146.759 196.989C146.587 196.678 146.501 196.307 146.501 195.877C146.501 195.474 146.582 195.119 146.743 194.813C146.904 194.501 147.133 194.257 147.428 194.079C147.724 193.902 148.073 193.813 148.476 193.813C148.869 193.813 149.199 193.897 149.468 194.063C149.742 194.23 149.949 194.464 150.089 194.765C150.228 195.066 150.298 195.423 150.298 195.837V196.071H147.033V195.571H149.839L149.686 195.732C149.686 195.291 149.581 194.953 149.371 194.716C149.167 194.48 148.871 194.362 148.484 194.362C148.226 194.362 148.001 194.421 147.807 194.539C147.614 194.652 147.463 194.816 147.356 195.031C147.248 195.24 147.195 195.493 147.195 195.788V195.869C147.195 196.191 147.251 196.463 147.364 196.683C147.482 196.904 147.651 197.07 147.872 197.183C148.092 197.296 148.355 197.352 148.662 197.352C148.882 197.352 149.105 197.323 149.331 197.264C149.562 197.199 149.777 197.089 149.976 196.933L150.218 197.441C150.019 197.613 149.777 197.739 149.492 197.82C149.207 197.9 148.928 197.941 148.654 197.941ZM151.482 197.868V193.886H152.135V194.805C152.237 194.509 152.407 194.278 152.643 194.112C152.885 193.94 153.181 193.843 153.53 193.821L153.893 193.805L153.957 194.458L153.385 194.507C153.009 194.539 152.716 194.662 152.506 194.877C152.302 195.087 152.2 195.35 152.2 195.667V197.868H151.482ZM156.264 197.941C156.043 197.941 155.828 197.919 155.619 197.876C155.409 197.839 155.213 197.785 155.03 197.715C154.853 197.64 154.7 197.548 154.571 197.441L154.796 196.933C154.936 197.035 155.087 197.118 155.248 197.183C155.414 197.247 155.584 197.296 155.756 197.328C155.928 197.355 156.097 197.368 156.264 197.368C156.591 197.368 156.847 197.317 157.029 197.215C157.212 197.113 157.303 196.971 157.303 196.788C157.303 196.632 157.25 196.514 157.142 196.433C157.035 196.347 156.86 196.283 156.618 196.24L155.788 196.095C155.417 196.025 155.14 195.899 154.958 195.716C154.775 195.533 154.684 195.294 154.684 194.998C154.684 194.762 154.748 194.555 154.877 194.378C155.006 194.2 155.194 194.063 155.441 193.967C155.694 193.864 155.989 193.813 156.328 193.813C156.521 193.813 156.715 193.832 156.908 193.87C157.102 193.907 157.285 193.964 157.457 194.039C157.629 194.109 157.766 194.198 157.868 194.305L157.634 194.813C157.521 194.711 157.389 194.63 157.239 194.571C157.094 194.507 156.943 194.461 156.787 194.434C156.632 194.402 156.478 194.386 156.328 194.386C156.016 194.386 155.774 194.439 155.602 194.547C155.431 194.649 155.345 194.794 155.345 194.982C155.345 195.133 155.393 195.251 155.49 195.337C155.592 195.423 155.753 195.487 155.973 195.53L156.787 195.676C157.185 195.751 157.481 195.877 157.674 196.054C157.868 196.226 157.964 196.466 157.964 196.772C157.964 197.008 157.895 197.215 157.755 197.393C157.615 197.565 157.416 197.699 157.158 197.796C156.906 197.892 156.607 197.941 156.264 197.941ZM159.005 194.748V193.886H159.924V194.748H159.005ZM159.005 197.868V197.006H159.924V197.868H159.005ZM163.496 197.868V197.256H165.052V192.757L165.431 192.806L163.778 193.87L163.464 193.322L165.237 192.185H165.761V197.256H167.188V197.868H163.496Z" fill="#E4E4E7"/>
<path d="M21.186 230.246V224.563H23.5238C23.9268 224.563 24.2708 224.63 24.5556 224.764C24.8458 224.899 25.0662 225.095 25.2166 225.353C25.3671 225.606 25.4424 225.912 25.4424 226.272C25.4424 226.632 25.3644 226.941 25.2086 227.199C25.0581 227.457 24.8404 227.656 24.5556 227.795C24.2708 227.935 23.9268 228.005 23.5238 228.005H21.9035V230.246H21.186ZM21.9035 227.392H23.419C23.8489 227.392 24.1741 227.301 24.3944 227.118C24.6147 226.93 24.7249 226.651 24.7249 226.28C24.7249 225.904 24.6147 225.627 24.3944 225.45C24.1741 225.267 23.8489 225.176 23.419 225.176H21.9035V227.392ZM26.5127 230.246V226.264H27.1657V227.183C27.2678 226.887 27.4371 226.656 27.6735 226.49C27.9154 226.318 28.211 226.221 28.5603 226.199L28.923 226.183L28.9875 226.836L28.4152 226.885C28.039 226.917 27.7461 227.04 27.5365 227.255C27.3323 227.465 27.2302 227.728 27.2302 228.045V230.246H26.5127ZM31.5601 230.319C31.1571 230.319 30.8077 230.233 30.5122 230.061C30.2166 229.889 29.9882 229.65 29.827 229.343C29.6657 229.032 29.5851 228.666 29.5851 228.247C29.5851 227.833 29.6657 227.473 29.827 227.167C29.9882 226.86 30.2166 226.621 30.5122 226.449C30.8077 226.277 31.1571 226.191 31.5601 226.191C31.9632 226.191 32.3098 226.277 32.6 226.449C32.8956 226.621 33.124 226.86 33.2852 227.167C33.4465 227.473 33.5271 227.833 33.5271 228.247C33.5271 228.666 33.4465 229.032 33.2852 229.343C33.124 229.65 32.8956 229.889 32.6 230.061C32.3098 230.233 31.9632 230.319 31.5601 230.319ZM31.5521 229.714C31.9444 229.714 32.2534 229.582 32.4791 229.319C32.7048 229.056 32.8177 228.698 32.8177 228.247C32.8177 227.795 32.7048 227.441 32.4791 227.183C32.2534 226.925 31.9471 226.796 31.5601 226.796C31.1678 226.796 30.8588 226.925 30.6331 227.183C30.4074 227.441 30.2945 227.795 30.2945 228.247C30.2945 228.698 30.4074 229.056 30.6331 229.319C30.8588 229.582 31.1651 229.714 31.5521 229.714ZM35.7889 230.246L34.1203 226.264H34.8861L36.1759 229.545H36.1356L37.4415 226.264H38.1831L36.5064 230.246H35.7889ZM38.9805 225.305V224.507H39.8512V225.305H38.9805ZM39.0612 230.246V226.264H39.7786V230.246H39.0612ZM42.6615 230.319C42.4412 230.319 42.2262 230.297 42.0166 230.254C41.807 230.217 41.6109 230.163 41.4281 230.093C41.2508 230.018 41.0976 229.926 40.9686 229.819L41.1944 229.311C41.3341 229.413 41.4846 229.496 41.6458 229.561C41.8124 229.625 41.9817 229.674 42.1536 229.706C42.3256 229.733 42.4949 229.746 42.6615 229.746C42.9893 229.746 43.2446 229.695 43.4273 229.593C43.61 229.491 43.7014 229.349 43.7014 229.166C43.7014 229.01 43.6477 228.892 43.5402 228.811C43.4327 228.725 43.258 228.661 43.0162 228.618L42.1859 228.473C41.8151 228.403 41.5383 228.276 41.3556 228.094C41.1729 227.911 41.0815 227.672 41.0815 227.376C41.0815 227.14 41.146 226.933 41.275 226.756C41.404 226.578 41.592 226.441 41.8393 226.344C42.0918 226.242 42.3874 226.191 42.726 226.191C42.9195 226.191 43.1129 226.21 43.3064 226.248C43.4999 226.285 43.6826 226.342 43.8546 226.417C44.0265 226.487 44.1636 226.576 44.2657 226.683L44.0319 227.191C43.9191 227.089 43.7874 227.008 43.6369 226.949C43.4918 226.885 43.3413 226.839 43.1855 226.812C43.0296 226.78 42.8765 226.764 42.726 226.764C42.4143 226.764 42.1725 226.817 42.0005 226.925C41.8285 227.027 41.7425 227.172 41.7425 227.36C41.7425 227.511 41.7909 227.629 41.8876 227.715C41.9897 227.801 42.151 227.865 42.3713 227.908L43.1855 228.053C43.5832 228.129 43.8787 228.255 44.0722 228.432C44.2657 228.604 44.3624 228.843 44.3624 229.15C44.3624 229.386 44.2926 229.593 44.1528 229.77C44.0131 229.942 43.8143 230.077 43.5563 230.174C43.3037 230.27 43.0054 230.319 42.6615 230.319ZM45.4594 225.305V224.507H46.3301V225.305H45.4594ZM45.5401 230.246V226.264H46.2575V230.246H45.5401ZM49.4145 230.319C49.0114 230.319 48.6621 230.233 48.3665 230.061C48.0709 229.889 47.8425 229.65 47.6813 229.343C47.5201 229.032 47.4395 228.666 47.4395 228.247C47.4395 227.833 47.5201 227.473 47.6813 227.167C47.8425 226.86 48.0709 226.621 48.3665 226.449C48.6621 226.277 49.0114 226.191 49.4145 226.191C49.8175 226.191 50.1642 226.277 50.4544 226.449C50.75 226.621 50.9784 226.86 51.1396 227.167C51.3008 227.473 51.3814 227.833 51.3814 228.247C51.3814 228.666 51.3008 229.032 51.1396 229.343C50.9784 229.65 50.75 229.889 50.4544 230.061C50.1642 230.233 49.8175 230.319 49.4145 230.319ZM49.4064 229.714C49.7987 229.714 50.1077 229.582 50.3335 229.319C50.5592 229.056 50.672 228.698 50.672 228.247C50.672 227.795 50.5592 227.441 50.3335 227.183C50.1077 226.925 49.8014 226.796 49.4145 226.796C49.0222 226.796 48.7132 226.925 48.4874 227.183C48.2617 227.441 48.1489 227.795 48.1489 228.247C48.1489 228.698 48.2617 229.056 48.4874 229.319C48.7132 229.582 49.0195 229.714 49.4064 229.714ZM52.5779 230.246V226.264H53.247V227.126H53.2389C53.3679 226.831 53.5613 226.602 53.8193 226.441C54.0773 226.275 54.3702 226.191 54.698 226.191C55.0258 226.191 55.2999 226.25 55.5202 226.369C55.7406 226.482 55.9045 226.659 56.012 226.901C56.1194 227.137 56.1732 227.433 56.1732 227.787V230.246H55.4638V227.828C55.4638 227.613 55.4316 227.43 55.3671 227.28C55.3079 227.124 55.2112 227.005 55.0769 226.925C54.9425 226.844 54.7625 226.804 54.5368 226.804C54.2949 226.804 54.08 226.858 53.8919 226.965C53.7038 227.073 53.556 227.218 53.4485 227.4C53.3464 227.583 53.2953 227.787 53.2953 228.013V230.246H52.5779ZM59.503 230.319C59.057 230.319 58.6727 230.238 58.3503 230.077C58.0278 229.91 57.7806 229.674 57.6086 229.367C57.4367 229.056 57.3507 228.685 57.3507 228.255C57.3507 227.852 57.4313 227.497 57.5925 227.191C57.7537 226.879 57.9822 226.635 58.2777 226.457C58.5733 226.28 58.9226 226.191 59.3257 226.191C59.718 226.191 60.0485 226.275 60.3172 226.441C60.5913 226.608 60.7982 226.842 60.9379 227.143C61.0777 227.443 61.1475 227.801 61.1475 228.215V228.448H57.8827V227.949H60.688L60.5349 228.11C60.5349 227.669 60.4301 227.331 60.2205 227.094C60.0163 226.858 59.7207 226.739 59.3337 226.739C59.0758 226.739 58.8501 226.799 58.6566 226.917C58.4631 227.03 58.3127 227.194 58.2052 227.409C58.0977 227.618 58.044 227.871 58.044 228.166V228.247C58.044 228.569 58.1004 228.841 58.2132 229.061C58.3315 229.281 58.5008 229.448 58.7211 229.561C58.9414 229.674 59.2048 229.73 59.5111 229.73C59.7314 229.73 59.9545 229.701 60.1802 229.642C60.4113 229.577 60.6262 229.467 60.8251 229.311L61.0669 229.819C60.8681 229.991 60.6262 230.117 60.3414 230.198C60.0566 230.278 59.7771 230.319 59.503 230.319ZM63.9197 230.319C63.5489 230.319 63.2264 230.233 62.9524 230.061C62.6783 229.889 62.466 229.647 62.3155 229.335C62.165 229.023 62.0898 228.663 62.0898 228.255C62.0898 227.841 62.165 227.481 62.3155 227.175C62.466 226.863 62.6756 226.621 62.9443 226.449C63.2184 226.277 63.5408 226.191 63.9116 226.191C64.2502 226.191 64.5431 226.272 64.7903 226.433C65.0375 226.594 65.2149 226.815 65.3224 227.094V224.563H66.0317V230.246H65.3788V229.367H65.3707C65.2579 229.668 65.0725 229.902 64.8145 230.069C64.5619 230.235 64.2637 230.319 63.9197 230.319ZM64.0729 229.73C64.4598 229.73 64.7661 229.599 64.9918 229.335C65.2176 229.072 65.3304 228.712 65.3304 228.255C65.3304 227.798 65.2176 227.438 64.9918 227.175C64.7661 226.911 64.4598 226.78 64.0729 226.78C63.6806 226.78 63.3715 226.911 63.1458 227.175C62.9201 227.438 62.8073 227.798 62.8073 228.255C62.8073 228.712 62.9201 229.072 63.1458 229.335C63.3715 229.599 63.6806 229.73 64.0729 229.73ZM67.3273 227.126V226.264H68.2463V227.126H67.3273ZM67.3273 230.246V229.384H68.2463V230.246H67.3273ZM73.4144 230.319C73.178 230.319 72.9442 230.294 72.7131 230.246C72.482 230.198 72.2617 230.122 72.0521 230.02C71.8479 229.918 71.6598 229.792 71.4878 229.642L71.7619 229.077C72.0199 229.298 72.2886 229.456 72.568 229.553C72.8475 229.644 73.1296 229.69 73.4144 229.69C73.6509 229.69 73.8632 229.655 74.0513 229.585C74.2447 229.51 74.3952 229.4 74.5027 229.255C74.6156 229.104 74.672 228.911 74.672 228.674C74.672 228.346 74.5618 228.099 74.3415 227.933C74.1211 227.761 73.8014 227.675 73.3822 227.675H72.5277V227.054H73.2774C73.5192 227.054 73.7342 227.016 73.9223 226.941C74.1158 226.86 74.2662 226.742 74.3737 226.586C74.4812 226.43 74.535 226.237 74.535 226.006C74.535 225.71 74.4328 225.49 74.2286 225.345C74.0244 225.194 73.7611 225.119 73.4386 225.119C73.1538 225.119 72.8743 225.168 72.6003 225.264C72.3316 225.361 72.0843 225.528 71.8586 225.764L71.5926 225.208C71.8183 224.966 72.0978 224.786 72.431 224.668C72.7642 224.549 73.1108 224.49 73.4709 224.49C73.8309 224.49 74.14 224.549 74.3979 224.668C74.6612 224.781 74.8655 224.947 75.0106 225.168C75.1557 225.382 75.2282 225.643 75.2282 225.949C75.2282 226.272 75.1369 226.557 74.9541 226.804C74.7714 227.051 74.5215 227.226 74.2044 227.328V227.32C74.4355 227.363 74.6371 227.446 74.809 227.57C74.981 227.688 75.1154 227.844 75.2121 228.037C75.3142 228.225 75.3653 228.448 75.3653 228.706C75.3653 229.045 75.2846 229.335 75.1234 229.577C74.9622 229.819 74.7338 230.004 74.4382 230.133C74.148 230.257 73.8068 230.319 73.4144 230.319ZM78.3286 230.319C77.8933 230.319 77.5252 230.208 77.2243 229.988C76.9233 229.762 76.6949 229.435 76.539 229.005C76.3886 228.569 76.3133 228.035 76.3133 227.4C76.3133 226.766 76.3886 226.234 76.539 225.804C76.6949 225.374 76.9233 225.049 77.2243 224.829C77.5252 224.603 77.8933 224.49 78.3286 224.49C78.7747 224.49 79.1455 224.601 79.4411 224.821C79.7367 225.041 79.9597 225.366 80.1102 225.796C80.266 226.226 80.3439 226.758 80.3439 227.392C80.3439 228.027 80.266 228.561 80.1102 228.997C79.9597 229.432 79.734 229.762 79.433 229.988C79.1321 230.208 78.7639 230.319 78.3286 230.319ZM78.3286 229.69C78.7693 229.69 79.0971 229.504 79.3121 229.134C79.5271 228.763 79.6346 228.182 79.6346 227.392C79.6346 226.608 79.5271 226.033 79.3121 225.667C79.1025 225.302 78.7774 225.119 78.3367 225.119C77.8906 225.119 77.5601 225.305 77.3452 225.675C77.1302 226.041 77.0227 226.616 77.0227 227.4C77.0227 228.18 77.1302 228.757 77.3452 229.134C77.5601 229.504 77.888 229.69 78.3286 229.69ZM85.1719 230.319C84.9515 230.319 84.7366 230.297 84.527 230.254C84.3174 230.217 84.1212 230.163 83.9385 230.093C83.7611 230.018 83.608 229.926 83.479 229.819L83.7047 229.311C83.8444 229.413 83.9949 229.496 84.1561 229.561C84.3227 229.625 84.492 229.674 84.664 229.706C84.836 229.733 85.0053 229.746 85.1719 229.746C85.4997 229.746 85.755 229.695 85.9377 229.593C86.1204 229.491 86.2118 229.349 86.2118 229.166C86.2118 229.01 86.158 228.892 86.0505 228.811C85.9431 228.725 85.7684 228.661 85.5266 228.618L84.6962 228.473C84.3254 228.403 84.0487 228.276 83.8659 228.094C83.6832 227.911 83.5919 227.672 83.5919 227.376C83.5919 227.14 83.6564 226.933 83.7853 226.756C83.9143 226.578 84.1024 226.441 84.3496 226.344C84.6022 226.242 84.8978 226.191 85.2364 226.191C85.4298 226.191 85.6233 226.21 85.8168 226.248C86.0102 226.285 86.1929 226.342 86.3649 226.417C86.5369 226.487 86.6739 226.576 86.776 226.683L86.5423 227.191C86.4294 227.089 86.2977 227.008 86.1473 226.949C86.0022 226.885 85.8517 226.839 85.6958 226.812C85.54 226.78 85.3868 226.764 85.2364 226.764C84.9247 226.764 84.6828 226.817 84.5108 226.925C84.3389 227.027 84.2529 227.172 84.2529 227.36C84.2529 227.511 84.3012 227.629 84.398 227.715C84.5001 227.801 84.6613 227.865 84.8817 227.908L85.6958 228.053C86.0935 228.129 86.3891 228.255 86.5826 228.432C86.776 228.604 86.8728 228.843 86.8728 229.15C86.8728 229.386 86.8029 229.593 86.6632 229.77C86.5235 229.942 86.3246 230.077 86.0667 230.174C85.8141 230.27 85.5158 230.319 85.1719 230.319ZM89.9609 230.319C89.5149 230.319 89.1306 230.238 88.8082 230.077C88.4857 229.91 88.2385 229.674 88.0665 229.367C87.8946 229.056 87.8086 228.685 87.8086 228.255C87.8086 227.852 87.8892 227.497 88.0504 227.191C88.2116 226.879 88.44 226.635 88.7356 226.457C89.0312 226.28 89.3805 226.191 89.7836 226.191C90.1759 226.191 90.5064 226.275 90.7751 226.441C91.0492 226.608 91.2561 226.842 91.3958 227.143C91.5355 227.443 91.6054 227.801 91.6054 228.215V228.448H88.3406V227.949H91.1459L90.9928 228.11C90.9928 227.669 90.888 227.331 90.6784 227.094C90.4742 226.858 90.1786 226.739 89.7916 226.739C89.5337 226.739 89.308 226.799 89.1145 226.917C88.921 227.03 88.7705 227.194 88.6631 227.409C88.5556 227.618 88.5018 227.871 88.5018 228.166V228.247C88.5018 228.569 88.5583 228.841 88.6711 229.061C88.7894 229.281 88.9586 229.448 89.179 229.561C89.3993 229.674 89.6627 229.73 89.969 229.73C90.1893 229.73 90.4123 229.701 90.6381 229.642C90.8692 229.577 91.0841 229.467 91.283 229.311L91.5248 229.819C91.326 229.991 91.0841 230.117 90.7993 230.198C90.5145 230.278 90.235 230.319 89.9609 230.319ZM94.563 230.319C94.1546 230.319 93.7999 230.233 93.4989 230.061C93.198 229.889 92.9642 229.65 92.7976 229.343C92.631 229.032 92.5477 228.666 92.5477 228.247C92.5477 227.828 92.631 227.465 92.7976 227.159C92.9642 226.847 93.198 226.608 93.4989 226.441C93.7999 226.275 94.1546 226.191 94.563 226.191C94.8371 226.191 95.0977 226.237 95.3449 226.328C95.5922 226.42 95.7964 226.543 95.9576 226.699L95.7077 227.231C95.5518 227.091 95.3772 226.987 95.1837 226.917C94.9956 226.842 94.8102 226.804 94.6275 226.804C94.2029 226.804 93.8697 226.93 93.6279 227.183C93.3914 227.435 93.2732 227.793 93.2732 228.255C93.2732 228.712 93.3914 229.069 93.6279 229.327C93.8697 229.58 94.2002 229.706 94.6194 229.706C94.8022 229.706 94.9876 229.671 95.1757 229.601C95.3691 229.526 95.5411 229.421 95.6916 229.287L95.9415 229.819C95.7856 229.975 95.5841 230.098 95.3369 230.19C95.095 230.276 94.8371 230.319 94.563 230.319ZM98.5297 230.319C98.1266 230.319 97.7773 230.233 97.4817 230.061C97.1862 229.889 96.9578 229.65 96.7965 229.343C96.6353 229.032 96.5547 228.666 96.5547 228.247C96.5547 227.833 96.6353 227.473 96.7965 227.167C96.9578 226.86 97.1862 226.621 97.4817 226.449C97.7773 226.277 98.1266 226.191 98.5297 226.191C98.9328 226.191 99.2794 226.277 99.5696 226.449C99.8652 226.621 100.094 226.86 100.255 227.167C100.416 227.473 100.497 227.833 100.497 228.247C100.497 228.666 100.416 229.032 100.255 229.343C100.094 229.65 99.8652 229.889 99.5696 230.061C99.2794 230.233 98.9328 230.319 98.5297 230.319ZM98.5216 229.714C98.9139 229.714 99.223 229.582 99.4487 229.319C99.6744 229.056 99.7872 228.698 99.7872 228.247C99.7872 227.795 99.6744 227.441 99.4487 227.183C99.223 226.925 98.9166 226.796 98.5297 226.796C98.1374 226.796 97.8284 226.925 97.6027 227.183C97.3769 227.441 97.2641 227.795 97.2641 228.247C97.2641 228.698 97.3769 229.056 97.6027 229.319C97.8284 229.582 98.1347 229.714 98.5216 229.714ZM101.693 230.246V226.264H102.362V227.126H102.354C102.483 226.831 102.677 226.602 102.935 226.441C103.192 226.275 103.485 226.191 103.813 226.191C104.141 226.191 104.415 226.25 104.635 226.369C104.856 226.482 105.02 226.659 105.127 226.901C105.235 227.137 105.288 227.433 105.288 227.787V230.246H104.579V227.828C104.579 227.613 104.547 227.43 104.482 227.28C104.423 227.124 104.326 227.005 104.192 226.925C104.058 226.844 103.878 226.804 103.652 226.804C103.41 226.804 103.195 226.858 103.007 226.965C102.819 227.073 102.671 227.218 102.564 227.4C102.462 227.583 102.411 227.787 102.411 228.013V230.246H101.693ZM108.296 230.319C107.925 230.319 107.603 230.233 107.328 230.061C107.054 229.889 106.842 229.647 106.692 229.335C106.541 229.023 106.466 228.663 106.466 228.255C106.466 227.841 106.541 227.481 106.692 227.175C106.842 226.863 107.052 226.621 107.32 226.449C107.594 226.277 107.917 226.191 108.288 226.191C108.626 226.191 108.919 226.272 109.166 226.433C109.414 226.594 109.591 226.815 109.698 227.094V224.563H110.408V230.246H109.755V229.367H109.747C109.634 229.668 109.449 229.902 109.191 230.069C108.938 230.235 108.64 230.319 108.296 230.319ZM108.449 229.73C108.836 229.73 109.142 229.599 109.368 229.335C109.594 229.072 109.707 228.712 109.707 228.255C109.707 227.798 109.594 227.438 109.368 227.175C109.142 226.911 108.836 226.78 108.449 226.78C108.057 226.78 107.748 226.911 107.522 227.175C107.296 227.438 107.183 227.798 107.183 228.255C107.183 228.712 107.296 229.072 107.522 229.335C107.748 229.599 108.057 229.73 108.449 229.73ZM113.3 230.319C113.079 230.319 112.864 230.297 112.655 230.254C112.445 230.217 112.249 230.163 112.066 230.093C111.889 230.018 111.736 229.926 111.607 229.819L111.832 229.311C111.972 229.413 112.123 229.496 112.284 229.561C112.45 229.625 112.62 229.674 112.792 229.706C112.964 229.733 113.133 229.746 113.3 229.746C113.627 229.746 113.883 229.695 114.065 229.593C114.248 229.491 114.339 229.349 114.339 229.166C114.339 229.01 114.286 228.892 114.178 228.811C114.071 228.725 113.896 228.661 113.654 228.618L112.824 228.473C112.453 228.403 112.176 228.276 111.994 228.094C111.811 227.911 111.72 227.672 111.72 227.376C111.72 227.14 111.784 226.933 111.913 226.756C112.042 226.578 112.23 226.441 112.477 226.344C112.73 226.242 113.025 226.191 113.364 226.191C113.558 226.191 113.751 226.21 113.944 226.248C114.138 226.285 114.321 226.342 114.493 226.417C114.665 226.487 114.802 226.576 114.904 226.683L114.67 227.191C114.557 227.089 114.425 227.008 114.275 226.949C114.13 226.885 113.979 226.839 113.824 226.812C113.668 226.78 113.515 226.764 113.364 226.764C113.052 226.764 112.811 226.817 112.639 226.925C112.467 227.027 112.381 227.172 112.381 227.36C112.381 227.511 112.429 227.629 112.526 227.715C112.628 227.801 112.789 227.865 113.009 227.908L113.824 228.053C114.221 228.129 114.517 228.255 114.71 228.432C114.904 228.604 115 228.843 115 229.15C115 229.386 114.931 229.593 114.791 229.77C114.651 229.942 114.452 230.077 114.194 230.174C113.942 230.27 113.644 230.319 113.3 230.319ZM119.752 230.319C119.472 230.319 119.22 230.268 118.994 230.165C118.768 230.058 118.591 229.913 118.462 229.73C118.333 229.547 118.268 229.343 118.268 229.118C118.268 228.811 118.354 228.572 118.526 228.4C118.698 228.223 118.962 228.096 119.316 228.021C119.676 227.946 120.136 227.908 120.695 227.908H121.259V228.4H120.727C120.415 228.4 120.149 228.411 119.929 228.432C119.709 228.448 119.529 228.483 119.389 228.537C119.249 228.585 119.147 228.653 119.083 228.739C119.018 228.825 118.986 228.937 118.986 229.077C118.986 229.292 119.069 229.461 119.236 229.585C119.408 229.703 119.625 229.762 119.889 229.762C120.12 229.762 120.329 229.709 120.517 229.601C120.706 229.494 120.856 229.351 120.969 229.174C121.087 228.997 121.146 228.8 121.146 228.585V227.675C121.146 227.357 121.058 227.129 120.88 226.989C120.703 226.844 120.442 226.772 120.098 226.772C119.856 226.772 119.62 226.804 119.389 226.868C119.158 226.933 118.916 227.04 118.663 227.191L118.438 226.667C118.599 226.565 118.774 226.479 118.962 226.409C119.155 226.339 119.354 226.285 119.558 226.248C119.762 226.21 119.964 226.191 120.163 226.191C120.507 226.191 120.805 226.245 121.058 226.353C121.31 226.46 121.504 226.629 121.638 226.86C121.778 227.086 121.848 227.379 121.848 227.739V230.246H121.219V229.367H121.211C121.141 229.539 121.039 229.698 120.904 229.843C120.77 229.988 120.606 230.104 120.413 230.19C120.219 230.276 119.999 230.319 119.752 230.319ZM124.98 231.77C124.663 231.77 124.349 231.721 124.037 231.625C123.726 231.533 123.457 231.407 123.231 231.246L123.465 230.689C123.615 230.786 123.774 230.869 123.94 230.939C124.107 231.015 124.276 231.071 124.448 231.109C124.626 231.146 124.798 231.165 124.964 231.165C125.383 231.165 125.709 231.058 125.94 230.843C126.171 230.633 126.286 230.335 126.286 229.948V229.214H126.27C126.173 229.488 125.999 229.711 125.746 229.883C125.499 230.05 125.209 230.133 124.876 230.133C124.499 230.133 124.172 230.053 123.892 229.891C123.613 229.725 123.395 229.494 123.239 229.198C123.089 228.903 123.013 228.556 123.013 228.158C123.013 227.766 123.089 227.422 123.239 227.126C123.395 226.831 123.613 226.602 123.892 226.441C124.172 226.275 124.499 226.191 124.876 226.191C125.209 226.191 125.502 226.277 125.754 226.449C126.007 226.621 126.184 226.852 126.286 227.143V226.264H126.963V229.883C126.963 230.276 126.883 230.612 126.722 230.891C126.566 231.17 126.34 231.385 126.044 231.536C125.749 231.692 125.394 231.77 124.98 231.77ZM124.997 229.545C125.383 229.545 125.69 229.418 125.915 229.166C126.147 228.913 126.262 228.577 126.262 228.158C126.262 227.739 126.147 227.406 125.915 227.159C125.69 226.906 125.383 226.78 124.997 226.78C124.61 226.78 124.301 226.906 124.069 227.159C123.844 227.406 123.731 227.739 123.731 228.158C123.731 228.577 123.844 228.913 124.069 229.166C124.301 229.418 124.61 229.545 124.997 229.545ZM130.129 230.319C129.726 230.319 129.377 230.233 129.081 230.061C128.786 229.889 128.557 229.65 128.396 229.343C128.235 229.032 128.154 228.666 128.154 228.247C128.154 227.833 128.235 227.473 128.396 227.167C128.557 226.86 128.786 226.621 129.081 226.449C129.377 226.277 129.726 226.191 130.129 226.191C130.532 226.191 130.879 226.277 131.169 226.449C131.465 226.621 131.693 226.86 131.854 227.167C132.015 227.473 132.096 227.833 132.096 228.247C132.096 228.666 132.015 229.032 131.854 229.343C131.693 229.65 131.465 229.889 131.169 230.061C130.879 230.233 130.532 230.319 130.129 230.319ZM130.121 229.714C130.513 229.714 130.822 229.582 131.048 229.319C131.274 229.056 131.387 228.698 131.387 228.247C131.387 227.795 131.274 227.441 131.048 227.183C130.822 226.925 130.516 226.796 130.129 226.796C129.737 226.796 129.428 226.925 129.202 227.183C128.976 227.441 128.863 227.795 128.863 228.247C128.863 228.698 128.976 229.056 129.202 229.319C129.428 229.582 129.734 229.714 130.121 229.714Z" fill="#E4E4E7"/>
</g>
<path d="M1 26.9441C1 23.109 4.10896 20 7.94406 20H368.097C371.932 20 375.041 23.109 375.041 26.9441V250.056C375.041 253.891 371.932 257 368.097 257H7.94407C4.10897 257 1 253.891 1 250.056V26.9441Z" stroke="#38373E" stroke-width="0.868007"/>
<g filter="url(#filter0_dd_4447_77164)">
<circle cx="43.5" cy="302.5" r="28.5" fill="white"/>
<circle cx="43.5" cy="302.5" r="28.066" stroke="#2563EB" stroke-width="0.868007"/>
</g>
<path d="M40.998 303C41.4275 303.574 41.9754 304.049 42.6046 304.393C43.2338 304.737 43.9296 304.941 44.6447 304.992C45.3598 305.044 46.0776 304.94 46.7494 304.69C47.4212 304.439 48.0312 304.047 48.538 303.54L51.538 300.54C52.4488 299.597 52.9528 298.334 52.9414 297.023C52.93 295.712 52.4042 294.458 51.4771 293.531C50.5501 292.604 49.296 292.078 47.9851 292.067C46.6741 292.055 45.4111 292.559 44.468 293.47L42.748 295.18M44.9982 301C44.5688 300.426 44.0209 299.951 43.3917 299.607C42.7625 299.263 42.0667 299.059 41.3516 299.008C40.6365 298.956 39.9187 299.06 39.2469 299.31C38.5751 299.561 37.9651 299.953 37.4582 300.46L34.4582 303.46C33.5475 304.403 33.0435 305.666 33.0549 306.977C33.0663 308.288 33.5921 309.542 34.5192 310.469C35.4462 311.396 36.7003 311.922 38.0112 311.933C39.3222 311.945 40.5852 311.441 41.5282 310.53L43.2382 308.82" stroke="#2563EB" stroke-width="1.5" stroke-linecap="round" stroke-linejoin="round"/>
<g filter="url(#filter1_dd_4447_77164)">
<circle cx="116.5" cy="302.5" r="28.5" fill="white"/>
<circle cx="116.5" cy="302.5" r="28.066" stroke="#2563EB" stroke-width="0.868007"/>
</g>
<path d="M106 303C106 303 109 296 116 296C123 296 126 303 126 303C126 303 123 310 116 310C109 310 106 303 106 303Z" stroke="#2563EB" stroke-width="1.5" stroke-linecap="round" stroke-linejoin="round"/>
<path d="M116 306C117.657 306 119 304.657 119 303C119 301.343 117.657 300 116 300C114.343 300 113 301.343 113 303C113 304.657 114.343 306 116 306Z" stroke="#2563EB" stroke-width="1.5" stroke-linecap="round" stroke-linejoin="round"/>
<g filter="url(#filter2_dd_4447_77164)">
<circle cx="189.5" cy="302.5" r="28.5" fill="white"/>
<circle cx="189.5" cy="302.5" r="28.066" stroke="#2563EB" stroke-width="0.868007"/>
</g>
<path d="M191 292V296C191 296.53 191.211 297.039 191.586 297.414C191.961 297.789 192.47 298 193 298H197M187 299H185M193 303H185M193 307H185M192 292H183C182.47 292 181.961 292.211 181.586 292.586C181.211 292.961 181 293.47 181 294V310C181 310.53 181.211 311.039 181.586 311.414C181.961 311.789 182.47 312 183 312H195C195.53 312 196.039 311.789 196.414 311.414C196.789 311.039 197 310.53 197 310V297L192 292Z" stroke="#2563EB" stroke-width="1.5" stroke-linecap="round" stroke-linejoin="round"/>
<g filter="url(#filter3_dd_4447_77164)">
<circle cx="263.5" cy="301.5" r="28.5" fill="white"/>
<circle cx="263.5" cy="301.5" r="28.066" stroke="#2563EB" stroke-width="0.868007"/>
</g>
<path d="M263.222 292H262.782C262.252 292 261.743 292.211 261.368 292.586C260.993 292.961 260.782 293.47 260.782 294V294.18C260.782 294.531 260.689 294.875 260.513 295.179C260.338 295.482 260.086 295.735 259.782 295.91L259.352 296.16C259.048 296.336 258.703 296.428 258.352 296.428C258.001 296.428 257.656 296.336 257.352 296.16L257.202 296.08C256.743 295.815 256.198 295.743 255.686 295.88C255.174 296.017 254.738 296.352 254.472 296.81L254.252 297.19C253.987 297.649 253.915 298.194 254.052 298.706C254.189 299.218 254.523 299.654 254.982 299.92L255.132 300.02C255.434 300.195 255.686 300.445 255.861 300.747C256.036 301.049 256.13 301.391 256.132 301.74V302.25C256.133 302.602 256.042 302.949 255.866 303.255C255.69 303.56 255.437 303.814 255.132 303.99L254.982 304.08C254.523 304.346 254.189 304.782 254.052 305.294C253.915 305.806 253.987 306.351 254.252 306.81L254.472 307.19C254.738 307.648 255.174 307.983 255.686 308.12C256.198 308.257 256.743 308.185 257.202 307.92L257.352 307.84C257.656 307.664 258.001 307.572 258.352 307.572C258.703 307.572 259.048 307.664 259.352 307.84L259.782 308.09C260.086 308.265 260.338 308.518 260.513 308.821C260.689 309.125 260.782 309.469 260.782 309.82V310C260.782 310.53 260.993 311.039 261.368 311.414C261.743 311.789 262.252 312 262.782 312H263.222C263.752 312 264.261 311.789 264.636 311.414C265.011 311.039 265.222 310.53 265.222 310V309.82C265.222 309.469 265.315 309.125 265.49 308.821C265.666 308.518 265.918 308.265 266.222 308.09L266.652 307.84C266.956 307.664 267.301 307.572 267.652 307.572C268.003 307.572 268.348 307.664 268.652 307.84L268.802 307.92C269.261 308.185 269.806 308.257 270.318 308.12C270.83 307.983 271.266 307.648 271.532 307.19L271.752 306.8C272.017 306.341 272.089 305.796 271.952 305.284C271.815 304.772 271.48 304.336 271.022 304.07L270.872 303.99C270.567 303.814 270.314 303.56 270.138 303.255C269.962 302.949 269.871 302.602 269.872 302.25V301.75C269.871 301.398 269.962 301.051 270.138 300.745C270.314 300.44 270.567 300.186 270.872 300.01L271.022 299.92C271.48 299.654 271.815 299.218 271.952 298.706C272.089 298.194 272.017 297.649 271.752 297.19L271.532 296.81C271.266 296.352 270.83 296.017 270.318 295.88C269.806 295.743 269.261 295.815 268.802 296.08L268.652 296.16C268.348 296.336 268.003 296.428 267.652 296.428C267.301 296.428 266.956 296.336 266.652 296.16L266.222 295.91C265.918 295.735 265.666 295.482 265.49 295.179C265.315 294.875 265.222 294.531 265.222 294.18V294C265.222 293.47 265.011 292.961 264.636 292.586C264.261 292.211 263.752 292 263.222 292Z" stroke="#2563EB" stroke-width="1.5" stroke-linecap="round" stroke-linejoin="round"/>
<path d="M263.002 305C264.659 305 266.002 303.657 266.002 302C266.002 300.343 264.659 299 263.002 299C261.345 299 260.002 300.343 260.002 302C260.002 303.657 261.345 305 263.002 305Z" stroke="#2563EB" stroke-width="1.5" stroke-linecap="round" stroke-linejoin="round"/>
<defs>
<filter id="filter0_dd_4447_77164" x="10" y="273" width="67" height="67" filterUnits="userSpaceOnUse" color-interpolation-filters="sRGB">
<feFlood flood-opacity="0" result="BackgroundImageFix"/>
<feColorMatrix in="SourceAlpha" type="matrix" values="0 0 0 0 0 0 0 0 0 0 0 0 0 0 0 0 0 0 127 0" result="hardAlpha"/>
<feMorphology radius="1" operator="erode" in="SourceAlpha" result="effect1_dropShadow_4447_77164"/>
<feOffset dy="2"/>
<feGaussianBlur stdDeviation="2"/>
<feColorMatrix type="matrix" values="0 0 0 0 0 0 0 0 0 0 0 0 0 0 0 0 0 0 0.06 0"/>
<feBlend mode="normal" in2="BackgroundImageFix" result="effect1_dropShadow_4447_77164"/>
<feColorMatrix in="SourceAlpha" type="matrix" values="0 0 0 0 0 0 0 0 0 0 0 0 0 0 0 0 0 0 127 0" result="hardAlpha"/>
<feMorphology radius="1" operator="erode" in="SourceAlpha" result="effect2_dropShadow_4447_77164"/>
<feOffset dy="4"/>
<feGaussianBlur stdDeviation="3"/>
<feColorMatrix type="matrix" values="0 0 0 0 0 0 0 0 0 0 0 0 0 0 0 0 0 0 0.1 0"/>
<feBlend mode="normal" in2="effect1_dropShadow_4447_77164" result="effect2_dropShadow_4447_77164"/>
<feBlend mode="normal" in="SourceGraphic" in2="effect2_dropShadow_4447_77164" result="shape"/>
</filter>
<filter id="filter1_dd_4447_77164" x="83" y="273" width="67" height="67" filterUnits="userSpaceOnUse" color-interpolation-filters="sRGB">
<feFlood flood-opacity="0" result="BackgroundImageFix"/>
<feColorMatrix in="SourceAlpha" type="matrix" values="0 0 0 0 0 0 0 0 0 0 0 0 0 0 0 0 0 0 127 0" result="hardAlpha"/>
<feMorphology radius="1" operator="erode" in="SourceAlpha" result="effect1_dropShadow_4447_77164"/>
<feOffset dy="2"/>
<feGaussianBlur stdDeviation="2"/>
<feColorMatrix type="matrix" values="0 0 0 0 0 0 0 0 0 0 0 0 0 0 0 0 0 0 0.06 0"/>
<feBlend mode="normal" in2="BackgroundImageFix" result="effect1_dropShadow_4447_77164"/>
<feColorMatrix in="SourceAlpha" type="matrix" values="0 0 0 0 0 0 0 0 0 0 0 0 0 0 0 0 0 0 127 0" result="hardAlpha"/>
<feMorphology radius="1" operator="erode" in="SourceAlpha" result="effect2_dropShadow_4447_77164"/>
<feOffset dy="4"/>
<feGaussianBlur stdDeviation="3"/>
<feColorMatrix type="matrix" values="0 0 0 0 0 0 0 0 0 0 0 0 0 0 0 0 0 0 0.1 0"/>
<feBlend mode="normal" in2="effect1_dropShadow_4447_77164" result="effect2_dropShadow_4447_77164"/>
<feBlend mode="normal" in="SourceGraphic" in2="effect2_dropShadow_4447_77164" result="shape"/>
</filter>
<filter id="filter2_dd_4447_77164" x="156" y="273" width="67" height="67" filterUnits="userSpaceOnUse" color-interpolation-filters="sRGB">
<feFlood flood-opacity="0" result="BackgroundImageFix"/>
<feColorMatrix in="SourceAlpha" type="matrix" values="0 0 0 0 0 0 0 0 0 0 0 0 0 0 0 0 0 0 127 0" result="hardAlpha"/>
<feMorphology radius="1" operator="erode" in="SourceAlpha" result="effect1_dropShadow_4447_77164"/>
<feOffset dy="2"/>
<feGaussianBlur stdDeviation="2"/>
<feColorMatrix type="matrix" values="0 0 0 0 0 0 0 0 0 0 0 0 0 0 0 0 0 0 0.06 0"/>
<feBlend mode="normal" in2="BackgroundImageFix" result="effect1_dropShadow_4447_77164"/>
<feColorMatrix in="SourceAlpha" type="matrix" values="0 0 0 0 0 0 0 0 0 0 0 0 0 0 0 0 0 0 127 0" result="hardAlpha"/>
<feMorphology radius="1" operator="erode" in="SourceAlpha" result="effect2_dropShadow_4447_77164"/>
<feOffset dy="4"/>
<feGaussianBlur stdDeviation="3"/>
<feColorMatrix type="matrix" values="0 0 0 0 0 0 0 0 0 0 0 0 0 0 0 0 0 0 0.1 0"/>
<feBlend mode="normal" in2="effect1_dropShadow_4447_77164" result="effect2_dropShadow_4447_77164"/>
<feBlend mode="normal" in="SourceGraphic" in2="effect2_dropShadow_4447_77164" result="shape"/>
</filter>
<filter id="filter3_dd_4447_77164" x="230" y="272" width="67" height="67" filterUnits="userSpaceOnUse" color-interpolation-filters="sRGB">
<feFlood flood-opacity="0" result="BackgroundImageFix"/>
<feColorMatrix in="SourceAlpha" type="matrix" values="0 0 0 0 0 0 0 0 0 0 0 0 0 0 0 0 0 0 127 0" result="hardAlpha"/>
<feMorphology radius="1" operator="erode" in="SourceAlpha" result="effect1_dropShadow_4447_77164"/>
<feOffset dy="2"/>
<feGaussianBlur stdDeviation="2"/>
<feColorMatrix type="matrix" values="0 0 0 0 0 0 0 0 0 0 0 0 0 0 0 0 0 0 0.06 0"/>
<feBlend mode="normal" in2="BackgroundImageFix" result="effect1_dropShadow_4447_77164"/>
<feColorMatrix in="SourceAlpha" type="matrix" values="0 0 0 0 0 0 0 0 0 0 0 0 0 0 0 0 0 0 127 0" result="hardAlpha"/>
<feMorphology radius="1" operator="erode" in="SourceAlpha" result="effect2_dropShadow_4447_77164"/>
<feOffset dy="4"/>
<feGaussianBlur stdDeviation="3"/>
<feColorMatrix type="matrix" values="0 0 0 0 0 0 0 0 0 0 0 0 0 0 0 0 0 0 0.1 0"/>
<feBlend mode="normal" in2="effect1_dropShadow_4447_77164" result="effect2_dropShadow_4447_77164"/>
<feBlend mode="normal" in="SourceGraphic" in2="effect2_dropShadow_4447_77164" result="shape"/>
</filter>
<linearGradient id="paint0_linear_4447_77164" x1="505" y1="27" x2="505" y2="376" gradientUnits="userSpaceOnUse">
<stop stop-color="#2563EB"/>
<stop offset="1" stop-color="#1A44A0"/>
</linearGradient>
<clipPath id="clip0_4447_77164">
<path d="M1 26.9441C1 23.109 4.10896 20 7.94406 20H368.097C371.932 20 375.041 23.109 375.041 26.9441V250.056C375.041 253.891 371.932 257 368.097 257H7.94407C4.10897 257 1 253.891 1 250.056V26.9441Z" fill="white"/>
</clipPath>
<clipPath id="clip1_4447_77164">
<rect width="12.898" height="12.898" fill="white" transform="translate(30.2422 145.755)"/>
</clipPath>
<clipPath id="clip2_4447_77164">
<rect width="12.898" height="12.898" fill="white" transform="translate(23.707 189.419)"/>
</clipPath>
</defs>
</svg>
