<svg width="397" height="403" viewBox="0 0 397 403" fill="none" xmlns="http://www.w3.org/2000/svg">
<g clip-path="url(#clip0_5273_9397)">
<path d="M35 170C35 100.964 90.9644 45 160 45H399C468.036 45 524 100.964 524 170V251C524 320.036 468.036 376 399 376H160C90.9644 376 35 320.036 35 251V170Z" fill="url(#paint0_linear_5273_9397)"/>
<path d="M18.6 215.6H16.86L13.82 209.4C13.7 209.147 13.6 208.907 13.52 208.68C13.4267 208.467 13.3667 208.307 13.34 208.2C13.3133 208.32 13.26 208.493 13.18 208.72C13.0867 208.947 12.98 209.173 12.86 209.4L9.8 215.6H8L12.3 207H14.3L18.6 215.6ZM18.6 205.6H16.86L13.82 199.4C13.7 199.147 13.6 198.907 13.52 198.68C13.4267 198.467 13.3667 198.307 13.34 198.2C13.3133 198.32 13.26 198.493 13.18 198.72C13.0867 198.947 12.98 199.173 12.86 199.4L9.8 205.6H8L12.3 197H14.3L18.6 205.6ZM18.6 195.6H16.86L13.82 189.4C13.7 189.147 13.6 188.913 13.52 188.7C13.4267 188.473 13.3667 188.307 13.34 188.2C13.3133 188.32 13.26 188.493 13.18 188.72C13.0867 188.947 12.98 189.173 12.86 189.4L9.8 195.6H8L12.3 187H14.3L18.6 195.6Z" fill="#2563EB"/>
<g clip-path="url(#clip1_5273_9397)">
<path d="M0 26.9441C0 23.109 3.10896 20 6.94406 20H367.097C370.932 20 374.041 23.109 374.041 26.9441V250.056C374.041 253.891 370.932 257 367.097 257H6.94407C3.10897 257 0 253.891 0 250.056V26.9441Z" fill="#24272D"/>
<path d="M43.5318 60.8436L48.9059 55.4695L43.5318 50.0953M27.4093 50.0953L22.0352 55.4695L27.4093 60.8436M38.8294 44.7212L32.1117 66.2178" stroke="white" stroke-width="1.61224" stroke-linecap="round" stroke-linejoin="round"/>
<path d="M335.348 55.4694C335.348 50.1269 339.679 45.7959 345.021 45.7959C350.364 45.7959 354.695 50.1269 354.695 55.4694C354.695 60.8119 350.364 65.1428 345.021 65.1428C339.679 65.1428 335.348 60.8119 335.348 55.4694Z"/>
<path d="M20.9952 99.4897V85.1717H25.6829C26.6113 85.1717 27.4155 85.3482 28.0954 85.7012C28.7884 86.0543 29.318 86.5577 29.6841 87.2115C30.0633 87.8522 30.2529 88.6106 30.2529 89.4867C30.2529 90.3497 30.0633 91.1081 29.6841 91.7619C29.3049 92.4157 28.7754 92.9191 28.0954 93.2722C27.4155 93.6252 26.6113 93.8017 25.6829 93.8017H23.1135V99.4897H20.9952ZM23.1135 91.8992H25.6829C26.4152 91.8992 26.997 91.6835 27.4285 91.252C27.8731 90.8074 28.0954 90.219 28.0954 89.4867C28.0954 88.7414 27.8731 88.153 27.4285 87.7215C26.997 87.29 26.4152 87.0742 25.6829 87.0742H23.1135V91.8992ZM32.7558 99.4897V85.1717H37.2474C38.1496 85.1717 38.9342 85.3482 39.601 85.7012C40.2679 86.0412 40.7844 86.525 41.1505 87.1527C41.5297 87.7803 41.7193 88.5191 41.7193 89.369C41.7193 90.3236 41.4709 91.1539 40.974 91.86C40.4902 92.553 39.8299 93.0433 38.993 93.331L41.9155 99.4897H39.503L36.8943 93.6056H34.8741V99.4897H32.7558ZM34.8741 91.7423H37.2474C37.9535 91.7423 38.5157 91.5331 38.9342 91.1147C39.3526 90.6832 39.5618 90.1144 39.5618 89.4083C39.5618 88.676 39.3526 88.1007 38.9342 87.6822C38.5157 87.2638 37.9535 87.0546 37.2474 87.0546H34.8741V91.7423ZM48.753 99.6859C47.8639 99.6859 47.0924 99.5224 46.4386 99.1955C45.7979 98.8556 45.301 98.3718 44.9479 97.7441C44.608 97.1034 44.438 96.3581 44.438 95.5081V89.1533C44.438 88.2903 44.608 87.5449 44.9479 86.9173C45.301 86.2897 45.7979 85.8124 46.4386 85.4855C47.0924 85.1455 47.8639 84.9755 48.753 84.9755C49.6422 84.9755 50.4071 85.1455 51.0478 85.4855C51.7016 85.8124 52.1985 86.2897 52.5385 86.9173C52.8915 87.5449 53.0681 88.2837 53.0681 89.1337V95.5081C53.0681 96.3581 52.8915 97.1034 52.5385 97.7441C52.1985 98.3718 51.7016 98.8556 51.0478 99.1955C50.4071 99.5224 49.6422 99.6859 48.753 99.6859ZM48.753 97.803C49.4722 97.803 50.0148 97.6068 50.381 97.2145C50.7602 96.8092 50.9498 96.2404 50.9498 95.5081V89.1533C50.9498 88.408 50.7602 87.8392 50.381 87.4469C50.0148 87.0546 49.4722 86.8585 48.753 86.8585C48.0469 86.8585 47.5043 87.0546 47.1251 87.4469C46.7459 87.8392 46.5563 88.408 46.5563 89.1533V95.5081C46.5563 96.2404 46.7459 96.8092 47.1251 97.2145C47.5043 97.6068 48.0469 97.803 48.753 97.803ZM56.2574 99.4897V85.1717H60.2587C61.2001 85.1717 62.0174 85.3547 62.7104 85.7209C63.4034 86.0739 63.9395 86.5773 64.3187 87.2311C64.711 87.8849 64.9071 88.6564 64.9071 89.5456V95.0963C64.9071 95.9723 64.711 96.7438 64.3187 97.4107C63.9395 98.0776 63.4034 98.594 62.7104 98.9602C62.0174 99.3132 61.2001 99.4897 60.2587 99.4897H56.2574ZM58.3757 97.5676H60.2587C61.0432 97.5676 61.6578 97.3518 62.1024 96.9203C62.56 96.4758 62.7888 95.8677 62.7888 95.0963V89.5456C62.7888 88.7872 62.56 88.1922 62.1024 87.7607C61.6578 87.3161 61.0432 87.0938 60.2587 87.0938H58.3757V97.5676Z" fill="white"/>
<path d="M20.3659 118.326V110.26H23.581C24.4429 110.26 25.1065 110.462 25.5718 110.867C26.037 111.271 26.2697 111.843 26.2697 112.583C26.2697 113.056 26.1667 113.464 25.9608 113.807C25.7548 114.15 25.4574 114.413 25.0683 114.597C24.6793 114.772 24.2141 114.863 23.6725 114.871L23.7755 114.734L23.9814 114.745C24.2713 114.745 24.5192 114.822 24.7251 114.974C24.9387 115.119 25.1332 115.355 25.3086 115.683L26.7388 118.326H25.6862L24.3018 115.752C24.1797 115.531 24.0501 115.363 23.9128 115.249C23.7755 115.127 23.6153 115.043 23.4322 114.997C23.2568 114.951 23.0432 114.928 22.7915 114.928H21.327V118.326H20.3659ZM21.327 114.162H23.4437C24.0768 114.162 24.5497 114.032 24.8624 113.773C25.1751 113.513 25.3315 113.124 25.3315 112.606C25.3315 112.087 25.1713 111.698 24.851 111.439C24.5382 111.179 24.0691 111.05 23.4437 111.05H21.327V114.162ZM30.389 118.429C29.7941 118.429 29.2792 118.315 28.8444 118.086C28.4173 117.85 28.0855 117.518 27.849 117.091C27.6202 116.656 27.5058 116.141 27.5058 115.546C27.5058 114.974 27.6202 114.471 27.849 114.036C28.0779 113.601 28.3944 113.262 28.7987 113.018C29.2029 112.774 29.6682 112.651 30.1945 112.651C30.7056 112.651 31.1404 112.762 31.4988 112.983C31.865 113.204 32.1434 113.521 32.3341 113.933C32.5324 114.337 32.6315 114.825 32.6315 115.397V115.752H28.2152V115.123H32.0137L31.8306 115.283C31.8306 114.673 31.6934 114.2 31.4188 113.864C31.1442 113.521 30.7437 113.349 30.2174 113.349C29.836 113.349 29.508 113.441 29.2335 113.624C28.9665 113.799 28.7605 114.044 28.6156 114.356C28.4783 114.669 28.4097 115.035 28.4097 115.455V115.535C28.4097 115.992 28.486 116.381 28.6385 116.702C28.7911 117.022 29.0161 117.266 29.3135 117.434C29.611 117.594 29.9695 117.674 30.389 117.674C30.717 117.674 31.0336 117.625 31.3387 117.526C31.6514 117.419 31.9451 117.247 32.2197 117.011L32.54 117.686C32.2807 117.915 31.9565 118.098 31.5675 118.235C31.1785 118.365 30.7857 118.429 30.389 118.429ZM36.4877 120.489C36.0072 120.489 35.5534 120.424 35.1262 120.294C34.7067 120.172 34.3329 119.985 34.005 119.734L34.3139 119.047C34.5427 119.2 34.7677 119.326 34.9889 119.425C35.2177 119.532 35.4504 119.608 35.6868 119.654C35.9309 119.699 36.1826 119.722 36.442 119.722C36.9912 119.722 37.4069 119.577 37.6891 119.287C37.9789 118.998 38.1239 118.578 38.1239 118.029V116.782H38.2154C38.101 117.209 37.8569 117.552 37.4831 117.812C37.117 118.063 36.6899 118.189 36.2017 118.189C35.6907 118.189 35.2444 118.075 34.8631 117.846C34.4893 117.609 34.1995 117.285 33.9935 116.873C33.7876 116.454 33.6846 115.966 33.6846 115.409C33.6846 114.86 33.7876 114.379 33.9935 113.967C34.1995 113.548 34.4893 113.224 34.8631 112.995C35.2444 112.766 35.6907 112.651 36.2017 112.651C36.6975 112.651 37.1285 112.777 37.4946 113.029C37.8607 113.281 38.101 113.624 38.2154 114.059H38.1239V112.754H39.0392V117.915C39.0392 118.471 38.94 118.94 38.7417 119.322C38.551 119.711 38.265 120.001 37.8836 120.191C37.5098 120.39 37.0446 120.489 36.4877 120.489ZM36.3733 117.434C36.9073 117.434 37.3306 117.251 37.6433 116.885C37.956 116.519 38.1124 116.027 38.1124 115.409C38.1124 114.799 37.956 114.314 37.6433 113.956C37.3306 113.59 36.9073 113.407 36.3733 113.407C35.8394 113.407 35.4161 113.59 35.1033 113.956C34.7906 114.314 34.6342 114.799 34.6342 115.409C34.6342 116.027 34.7906 116.519 35.1033 116.885C35.4161 117.251 35.8394 117.434 36.3733 117.434ZM40.6956 111.37V110.317H41.8512V111.37H40.6956ZM40.7985 118.326V112.754H41.7482V118.326H40.7985ZM45.8591 118.429C45.3099 118.429 44.8332 118.311 44.4289 118.075C44.0323 117.838 43.7234 117.503 43.5022 117.068C43.2886 116.633 43.1818 116.122 43.1818 115.535C43.1818 114.947 43.2886 114.44 43.5022 114.013C43.7234 113.578 44.0323 113.243 44.4289 113.006C44.8332 112.77 45.3099 112.651 45.8591 112.651C46.4007 112.651 46.8698 112.77 47.2664 113.006C47.6707 113.243 47.9796 113.578 48.1932 114.013C48.4144 114.44 48.525 114.947 48.525 115.535C48.525 116.122 48.4144 116.633 48.1932 117.068C47.9796 117.503 47.6707 117.838 47.2664 118.075C46.8698 118.311 46.4007 118.429 45.8591 118.429ZM45.8477 117.663C46.3816 117.663 46.8011 117.48 47.1062 117.114C47.419 116.74 47.5753 116.214 47.5753 115.535C47.5753 114.848 47.419 114.322 47.1062 113.956C46.8011 113.59 46.3816 113.407 45.8477 113.407C45.329 113.407 44.9133 113.59 44.6006 113.956C44.2878 114.322 44.1315 114.848 44.1315 115.535C44.1315 116.214 44.2878 116.74 44.6006 117.114C44.9133 117.48 45.329 117.663 45.8477 117.663ZM49.9606 118.326V112.754H50.8759V113.99H50.7729C50.9331 113.548 51.1963 113.216 51.5624 112.995C51.9285 112.766 52.3442 112.651 52.8095 112.651C53.2595 112.651 53.6295 112.732 53.9193 112.892C54.2168 113.052 54.438 113.296 54.5829 113.624C54.7355 113.952 54.8117 114.364 54.8117 114.86V118.326H53.8735V114.905C53.8735 114.57 53.8278 114.295 53.7362 114.082C53.6447 113.86 53.5036 113.696 53.3129 113.59C53.1298 113.483 52.8896 113.43 52.5921 113.43C52.2565 113.43 51.959 113.502 51.6997 113.647C51.448 113.784 51.2535 113.986 51.1162 114.253C50.9789 114.513 50.9102 114.814 50.9102 115.157V118.326H49.9606ZM56.4041 113.921V112.754H57.594V113.921H56.4041ZM56.4041 118.326V117.148H57.594V118.326H56.4041ZM65.5133 118.429C64.453 118.429 63.6483 118.151 63.0991 117.594C62.5499 117.037 62.2754 116.217 62.2754 115.134V110.26H63.225V115.1C63.225 115.931 63.4195 116.553 63.8085 116.965C64.1975 117.369 64.7658 117.571 65.5133 117.571C66.2608 117.571 66.8252 117.369 67.2066 116.965C67.588 116.553 67.7787 115.931 67.7787 115.1V110.26H68.7283V115.134C68.7283 116.217 68.4537 117.037 67.9045 117.594C67.363 118.151 66.5659 118.429 65.5133 118.429ZM73.3326 118.429C72.913 118.429 72.5164 118.395 72.1427 118.326C71.7689 118.25 71.4257 118.14 71.1129 117.995C70.8002 117.85 70.5218 117.678 70.2777 117.48L70.6095 116.702C70.8688 116.9 71.1358 117.068 71.4104 117.205C71.685 117.335 71.9787 117.43 72.2914 117.491C72.6117 117.552 72.9588 117.583 73.3326 117.583C74.0114 117.583 74.5186 117.457 74.8543 117.205C75.1899 116.946 75.3577 116.606 75.3577 116.187C75.3577 115.958 75.3043 115.767 75.1975 115.615C75.0907 115.455 74.9229 115.317 74.6941 115.203C74.4653 115.089 74.164 114.997 73.7902 114.928L72.5774 114.677C71.8528 114.532 71.3151 114.284 70.9642 113.933C70.6209 113.582 70.4493 113.117 70.4493 112.537C70.4493 112.057 70.5752 111.641 70.8269 111.29C71.0786 110.931 71.4257 110.653 71.8681 110.455C72.3181 110.256 72.8291 110.157 73.4012 110.157C73.775 110.157 74.1258 110.195 74.4538 110.272C74.7818 110.348 75.0831 110.459 75.3577 110.603C75.6399 110.748 75.8878 110.928 76.1014 111.141L75.7696 111.896C75.4263 111.584 75.064 111.359 74.6826 111.221C74.3013 111.076 73.8741 111.004 73.4012 111.004C72.9969 111.004 72.6461 111.065 72.3486 111.187C72.0511 111.309 71.8185 111.484 71.6507 111.713C71.4905 111.934 71.4104 112.201 71.4104 112.514C71.4104 112.873 71.521 113.159 71.7422 113.372C71.9634 113.578 72.3295 113.735 72.8406 113.841L74.0534 114.082C74.8161 114.242 75.3844 114.486 75.7581 114.814C76.1319 115.142 76.3188 115.584 76.3188 116.141C76.3188 116.591 76.1967 116.988 75.9526 117.331C75.7085 117.674 75.3615 117.945 74.9115 118.143C74.4691 118.334 73.9428 118.429 73.3326 118.429ZM76.8948 118.944V118.326H82.1808V118.944H76.8948ZM83.4164 118.326V110.26H88.5422V111.061H84.3546V113.83H88.3019V114.631H84.3546V117.526H88.5422V118.326H83.4164ZM91.7118 118.429C91.3304 118.429 90.9872 118.357 90.6821 118.212C90.377 118.059 90.1367 117.854 89.9613 117.594C89.7858 117.335 89.6981 117.045 89.6981 116.725C89.6981 116.313 89.8049 115.989 90.0185 115.752C90.232 115.508 90.5829 115.336 91.0711 115.237C91.5592 115.138 92.219 115.089 93.0504 115.089H93.6111V115.706H93.0733C92.608 115.706 92.219 115.722 91.9063 115.752C91.5936 115.783 91.3457 115.836 91.1626 115.912C90.9795 115.981 90.8461 116.08 90.7622 116.21C90.6859 116.332 90.6477 116.484 90.6477 116.667C90.6477 116.98 90.7583 117.236 90.9795 117.434C91.2007 117.625 91.4982 117.72 91.872 117.72C92.1847 117.72 92.4593 117.648 92.6957 117.503C92.9322 117.358 93.1191 117.159 93.2564 116.908C93.3937 116.648 93.4623 116.358 93.4623 116.038V114.734C93.4623 114.269 93.3593 113.929 93.1534 113.716C92.9551 113.502 92.6347 113.395 92.1923 113.395C91.8643 113.395 91.5402 113.445 91.2198 113.544C90.9071 113.643 90.5829 113.796 90.2473 114.002L89.9269 113.327C90.1329 113.182 90.3617 113.06 90.6134 112.96C90.8651 112.861 91.1283 112.785 91.4029 112.732C91.6851 112.678 91.9559 112.651 92.2152 112.651C92.6957 112.651 93.0962 112.728 93.4166 112.88C93.7369 113.033 93.9734 113.269 94.1259 113.59C94.2861 113.91 94.3662 114.318 94.3662 114.814V118.326H93.4852V117.045H93.5882C93.5119 117.32 93.386 117.564 93.2106 117.777C93.0428 117.983 92.8292 118.143 92.5699 118.258C92.3182 118.372 92.0321 118.429 91.7118 118.429ZM98.0167 118.429C97.7269 118.429 97.4446 118.399 97.17 118.338C96.8954 118.284 96.6399 118.208 96.4035 118.109C96.167 118.002 95.9649 117.876 95.7971 117.731L96.0946 117.068C96.2776 117.213 96.4759 117.335 96.6895 117.434C96.9107 117.526 97.1319 117.594 97.3531 117.64C97.5819 117.686 97.8108 117.709 98.0396 117.709C98.4744 117.709 98.8062 117.628 99.035 117.468C99.2638 117.308 99.3782 117.095 99.3782 116.828C99.3782 116.606 99.3058 116.435 99.1608 116.313C99.0159 116.191 98.7833 116.095 98.4629 116.027L97.3989 115.798C96.9183 115.699 96.556 115.527 96.3119 115.283C96.0755 115.031 95.9573 114.711 95.9573 114.322C95.9573 113.979 96.0488 113.685 96.2318 113.441C96.4149 113.189 96.6704 112.995 96.9984 112.857C97.334 112.72 97.7192 112.651 98.154 112.651C98.4133 112.651 98.665 112.678 98.9091 112.732C99.1608 112.785 99.3935 112.865 99.6071 112.972C99.8206 113.071 99.9999 113.197 100.145 113.349L99.8359 114.013C99.691 113.868 99.5232 113.75 99.3325 113.658C99.1494 113.567 98.9549 113.498 98.749 113.452C98.5506 113.399 98.3523 113.372 98.154 113.372C97.7269 113.372 97.3989 113.456 97.17 113.624C96.9488 113.784 96.8382 114.002 96.8382 114.276C96.8382 114.49 96.9069 114.665 97.0442 114.802C97.1815 114.932 97.3989 115.027 97.6963 115.089L98.749 115.317C99.2524 115.424 99.6299 115.596 99.8816 115.832C100.141 116.061 100.271 116.374 100.271 116.77C100.271 117.114 100.175 117.411 99.9846 117.663C99.8016 117.907 99.5422 118.098 99.2066 118.235C98.871 118.365 98.4744 118.429 98.0167 118.429ZM103.913 118.429C103.25 118.429 102.754 118.254 102.426 117.903C102.098 117.552 101.934 117.049 101.934 116.393V113.487H100.836V112.754H101.934V111.05H102.872V112.754H104.668V113.487H102.872V116.301C102.872 116.736 102.964 117.068 103.147 117.297C103.33 117.518 103.627 117.628 104.039 117.628C104.169 117.628 104.295 117.613 104.417 117.583C104.539 117.552 104.653 117.518 104.76 117.48L104.932 118.201C104.817 118.262 104.661 118.315 104.462 118.361C104.272 118.407 104.089 118.429 103.913 118.429Z" fill="#E4E4E7"/>
<path d="M19.3477 140.763C19.3477 138.054 21.543 135.859 24.2511 135.859H47.1339C49.842 135.859 52.0373 138.054 52.0373 140.763V163.645C52.0373 166.353 49.842 168.549 47.1339 168.549H24.2511C21.543 168.549 19.3477 166.353 19.3477 163.645V140.763Z" fill="#22C55E"/>
<g clip-path="url(#clip2_5273_9397)">
<path d="M39.4525 148.442L41.0647 146.83M30.3164 157.578L31.9287 155.966M33.2722 153.01L34.6157 151.666M34.8844 154.622L36.228 153.279M32.6273 156.664C32.7471 156.785 32.8895 156.88 33.0463 156.945C33.2031 157.01 33.3712 157.044 33.5409 157.044C33.7107 157.044 33.8788 157.01 34.0355 156.945C34.1923 156.88 34.3347 156.785 34.4545 156.664L35.6906 155.428L32.4661 152.204L31.23 153.44C31.1098 153.56 31.0144 153.702 30.9493 153.859C30.8842 154.016 30.8507 154.184 30.8507 154.353C30.8507 154.523 30.8842 154.691 30.9493 154.848C31.0144 155.005 31.1098 155.147 31.23 155.267L32.6273 156.664ZM35.6906 148.979L38.915 152.204L40.1511 150.968C40.2713 150.848 40.3667 150.705 40.4318 150.549C40.4969 150.392 40.5305 150.224 40.5305 150.054C40.5305 149.884 40.4969 149.716 40.4318 149.559C40.3667 149.403 40.2713 149.26 40.1511 149.14L38.7538 147.743C38.634 147.623 38.4916 147.528 38.3348 147.462C38.1781 147.397 38.01 147.364 37.8402 147.364C37.6705 147.364 37.5024 147.397 37.3456 147.462C37.1888 147.528 37.0464 147.623 36.9266 147.743L35.6906 148.979Z" stroke="#18181B" stroke-width="1.07214" stroke-linecap="round" stroke-linejoin="round"/>
</g>
<path d="M64.9336 140.763C64.9336 138.054 67.1289 135.859 69.837 135.859H92.7198C95.4279 135.859 97.6232 138.054 97.6232 140.763V163.645C97.6232 166.353 95.4279 168.549 92.7198 168.549H69.837C67.1289 168.549 64.9336 166.353 64.9336 163.645V140.763Z" fill="#22C55E"/>
<path d="M83.9663 147.905H82.8914C82.5946 147.905 82.354 148.145 82.354 148.442V155.966C82.354 156.263 82.5946 156.503 82.8914 156.503H83.9663C84.2631 156.503 84.5037 156.263 84.5037 155.966V148.442C84.5037 148.145 84.2631 147.905 83.9663 147.905Z" stroke="#18181B" stroke-width="1.07214" stroke-linecap="round" stroke-linejoin="round"/>
<path d="M79.6669 147.905H78.5921C78.2953 147.905 78.0547 148.145 78.0547 148.442V155.966C78.0547 156.263 78.2953 156.503 78.5921 156.503H79.6669C79.9637 156.503 80.2043 156.263 80.2043 155.966V148.442C80.2043 148.145 79.9637 147.905 79.6669 147.905Z" stroke="#18181B" stroke-width="1.07214" stroke-linecap="round" stroke-linejoin="round"/>
<g clip-path="url(#clip3_5273_9397)">
<path d="M34.5295 195.868H33.1968C32.9619 195.868 32.7333 195.944 32.546 196.086C32.3587 196.227 32.223 196.427 32.1595 196.653L30.8966 201.145C30.8885 201.173 30.8715 201.198 30.8483 201.215C30.825 201.233 30.7967 201.242 30.7676 201.242C30.7386 201.242 30.7103 201.233 30.687 201.215C30.6638 201.198 30.6468 201.173 30.6387 201.145L27.6721 190.591C27.664 190.563 27.647 190.538 27.6238 190.521C27.6005 190.503 27.5722 190.494 27.5432 190.494C27.5141 190.494 27.4858 190.503 27.4625 190.521C27.4393 190.538 27.4223 190.563 27.4142 190.591L26.1512 195.083C26.0881 195.309 25.9531 195.507 25.7669 195.649C25.5807 195.79 25.3534 195.867 25.1194 195.868H23.7812" stroke="white" stroke-width="1.07214" stroke-linecap="round" stroke-linejoin="round"/>
</g>
<path d="M45.4523 197.941C44.9095 197.941 44.4366 197.825 44.0335 197.594C43.6358 197.358 43.3295 197.022 43.1145 196.586C42.8996 196.146 42.7921 195.624 42.7921 195.023C42.7921 194.421 42.8996 193.902 43.1145 193.467C43.3295 193.031 43.6358 192.698 44.0335 192.467C44.4312 192.231 44.9041 192.112 45.4523 192.112C45.85 192.112 46.2127 192.174 46.5406 192.298C46.8684 192.416 47.1478 192.593 47.3789 192.83L47.1048 193.386C46.8576 193.166 46.6024 193.007 46.339 192.911C46.0811 192.814 45.7909 192.765 45.4684 192.765C44.8611 192.765 44.3882 192.959 44.0496 193.346C43.7111 193.727 43.5418 194.286 43.5418 195.023C43.5418 195.753 43.7111 196.315 44.0496 196.707C44.3882 197.094 44.8611 197.288 45.4684 197.288C45.7909 197.288 46.0811 197.239 46.339 197.143C46.6024 197.046 46.8576 196.887 47.1048 196.667L47.3789 197.223C47.1478 197.46 46.8684 197.64 46.5406 197.763C46.2127 197.882 45.85 197.941 45.4523 197.941ZM50.0385 197.941C49.6354 197.941 49.2861 197.855 48.9905 197.683C48.695 197.511 48.4666 197.272 48.3053 196.965C48.1441 196.654 48.0635 196.288 48.0635 195.869C48.0635 195.455 48.1441 195.095 48.3053 194.789C48.4666 194.482 48.695 194.243 48.9905 194.071C49.2861 193.899 49.6354 193.813 50.0385 193.813C50.4416 193.813 50.7882 193.899 51.0784 194.071C51.374 194.243 51.6024 194.482 51.7636 194.789C51.9248 195.095 52.0054 195.455 52.0054 195.869C52.0054 196.288 51.9248 196.654 51.7636 196.965C51.6024 197.272 51.374 197.511 51.0784 197.683C50.7882 197.855 50.4416 197.941 50.0385 197.941ZM50.0304 197.336C50.4228 197.336 50.7318 197.204 50.9575 196.941C51.1832 196.678 51.2961 196.32 51.2961 195.869C51.2961 195.418 51.1832 195.063 50.9575 194.805C50.7318 194.547 50.4254 194.418 50.0385 194.418C49.6462 194.418 49.3372 194.547 49.1115 194.805C48.8857 195.063 48.7729 195.418 48.7729 195.869C48.7729 196.32 48.8857 196.678 49.1115 196.941C49.3372 197.204 49.6435 197.336 50.0304 197.336ZM53.2019 197.868V193.886H53.871V194.748H53.8629C53.9919 194.453 54.1854 194.224 54.4433 194.063C54.7013 193.897 54.9942 193.813 55.322 193.813C55.6498 193.813 55.9239 193.872 56.1443 193.991C56.3646 194.104 56.5285 194.281 56.636 194.523C56.7435 194.759 56.7972 195.055 56.7972 195.409V197.868H56.0878V195.45C56.0878 195.235 56.0556 195.052 55.9911 194.902C55.932 194.746 55.8352 194.628 55.7009 194.547C55.5665 194.466 55.3865 194.426 55.1608 194.426C54.9189 194.426 54.704 194.48 54.5159 194.587C54.3278 194.695 54.18 194.84 54.0725 195.023C53.9704 195.205 53.9194 195.409 53.9194 195.635V197.868H53.2019ZM58.2166 197.868V193.886H58.8856V194.748H58.8776C59.0066 194.453 59.2 194.224 59.458 194.063C59.7159 193.897 60.0088 193.813 60.3367 193.813C60.6645 193.813 60.9386 193.872 61.1589 193.991C61.3792 194.104 61.5431 194.281 61.6506 194.523C61.7581 194.759 61.8119 195.055 61.8119 195.409V197.868H61.1025V195.45C61.1025 195.235 61.0702 195.052 61.0057 194.902C60.9466 194.746 60.8499 194.628 60.7155 194.547C60.5812 194.466 60.4011 194.426 60.1754 194.426C59.9336 194.426 59.7186 194.48 59.5305 194.587C59.3424 194.695 59.1946 194.84 59.0872 195.023C58.9851 195.205 58.934 195.409 58.934 195.635V197.868H58.2166ZM65.1417 197.941C64.6957 197.941 64.3114 197.86 63.989 197.699C63.6665 197.532 63.4193 197.296 63.2473 196.989C63.0753 196.678 62.9894 196.307 62.9894 195.877C62.9894 195.474 63.07 195.119 63.2312 194.813C63.3924 194.501 63.6208 194.257 63.9164 194.079C64.212 193.902 64.5613 193.813 64.9644 193.813C65.3567 193.813 65.6872 193.897 65.9559 194.063C66.23 194.23 66.4369 194.464 66.5766 194.765C66.7163 195.066 66.7862 195.423 66.7862 195.837V196.071H63.5214V195.571H66.3267L66.1735 195.732C66.1735 195.291 66.0688 194.953 65.8592 194.716C65.6549 194.48 65.3594 194.362 64.9724 194.362C64.7145 194.362 64.4887 194.421 64.2953 194.539C64.1018 194.652 63.9513 194.816 63.8439 195.031C63.7364 195.24 63.6826 195.493 63.6826 195.788V195.869C63.6826 196.191 63.7391 196.463 63.8519 196.683C63.9701 196.904 64.1394 197.07 64.3598 197.183C64.5801 197.296 64.8434 197.352 65.1498 197.352C65.3701 197.352 65.5931 197.323 65.8189 197.264C66.0499 197.199 66.2649 197.089 66.4637 196.933L66.7056 197.441C66.5067 197.613 66.2649 197.739 65.9801 197.82C65.6952 197.9 65.4158 197.941 65.1417 197.941ZM69.7438 197.941C69.3354 197.941 68.9807 197.855 68.6797 197.683C68.3788 197.511 68.145 197.272 67.9784 196.965C67.8118 196.654 67.7285 196.288 67.7285 195.869C67.7285 195.45 67.8118 195.087 67.9784 194.781C68.145 194.469 68.3788 194.23 68.6797 194.063C68.9807 193.897 69.3354 193.813 69.7438 193.813C70.0179 193.813 70.2785 193.859 70.5257 193.95C70.7729 194.042 70.9772 194.165 71.1384 194.321L70.8885 194.853C70.7326 194.714 70.558 194.609 70.3645 194.539C70.1764 194.464 69.991 194.426 69.8083 194.426C69.3837 194.426 69.0505 194.552 68.8087 194.805C68.5722 195.057 68.454 195.415 68.454 195.877C68.454 196.334 68.5722 196.691 68.8087 196.949C69.0505 197.202 69.381 197.328 69.8002 197.328C69.9829 197.328 70.1683 197.293 70.3564 197.223C70.5499 197.148 70.7219 197.043 70.8724 196.909L71.1223 197.441C70.9664 197.597 70.7649 197.72 70.5177 197.812C70.2758 197.898 70.0179 197.941 69.7438 197.941ZM73.7328 197.941C73.2545 197.941 72.8917 197.814 72.6445 197.562C72.3973 197.309 72.2737 196.949 72.2737 196.482V194.474H71.4756V193.886H72.3059V192.701H72.9911V193.886H74.418V194.474H72.9911V196.417C72.9911 196.723 73.061 196.952 73.2007 197.102C73.3405 197.247 73.55 197.32 73.8295 197.32C73.9424 197.32 74.0498 197.309 74.152 197.288C74.2594 197.266 74.3615 197.234 74.4583 197.191L74.5711 197.755C74.469 197.814 74.34 197.86 74.1842 197.892C74.0337 197.925 73.8832 197.941 73.7328 197.941ZM77.2808 197.941C76.8347 197.941 76.4505 197.86 76.128 197.699C75.8056 197.532 75.5584 197.296 75.3864 196.989C75.2144 196.678 75.1284 196.307 75.1284 195.877C75.1284 195.474 75.209 195.119 75.3703 194.813C75.5315 194.501 75.7599 194.257 76.0555 194.079C76.3511 193.902 76.7004 193.813 77.1034 193.813C77.4957 193.813 77.8263 193.897 78.095 194.063C78.369 194.23 78.5759 194.464 78.7157 194.765C78.8554 195.066 78.9253 195.423 78.9253 195.837V196.071H75.6605V195.571H78.4658L78.3126 195.732C78.3126 195.291 78.2078 194.953 77.9982 194.716C77.794 194.48 77.4984 194.362 77.1115 194.362C76.8535 194.362 76.6278 194.421 76.4344 194.539C76.2409 194.652 76.0904 194.816 75.9829 195.031C75.8754 195.24 75.8217 195.493 75.8217 195.788V195.869C75.8217 196.191 75.8781 196.463 75.991 196.683C76.1092 196.904 76.2785 197.07 76.4988 197.183C76.7192 197.296 76.9825 197.352 77.2888 197.352C77.5092 197.352 77.7322 197.323 77.9579 197.264C78.189 197.199 78.404 197.089 78.6028 196.933L78.8447 197.441C78.6458 197.613 78.404 197.739 78.1191 197.82C77.8343 197.9 77.5549 197.941 77.2808 197.941ZM81.6974 197.941C81.3266 197.941 81.0042 197.855 80.7301 197.683C80.456 197.511 80.2437 197.269 80.0933 196.957C79.9428 196.646 79.8675 196.285 79.8675 195.877C79.8675 195.463 79.9428 195.103 80.0933 194.797C80.2437 194.485 80.4533 194.243 80.722 194.071C80.9961 193.899 81.3186 193.813 81.6894 193.813C82.028 193.813 82.3208 193.894 82.5681 194.055C82.8153 194.216 82.9926 194.437 83.1001 194.716V192.185H83.8095V197.868H83.1565V196.989H83.1485C83.0356 197.29 82.8502 197.524 82.5922 197.691C82.3397 197.857 82.0414 197.941 81.6974 197.941ZM81.8506 197.352C82.2375 197.352 82.5439 197.221 82.7696 196.957C82.9953 196.694 83.1082 196.334 83.1082 195.877C83.1082 195.42 82.9953 195.06 82.7696 194.797C82.5439 194.534 82.2375 194.402 81.8506 194.402C81.4583 194.402 81.1493 194.534 80.9236 194.797C80.6979 195.06 80.585 195.42 80.585 195.877C80.585 196.334 80.6979 196.694 80.9236 196.957C81.1493 197.221 81.4583 197.352 81.8506 197.352Z" fill="#E4E4E7"/>
<circle cx="91.6346" cy="195.868" r="3.22449" fill="#22C55E"/>
<path d="M106.281 193.181V192.106C106.281 191.515 106.765 191.031 107.356 191.031H108.431M113.805 191.031H114.88C115.471 191.031 115.955 191.515 115.955 192.106V193.181M115.955 198.555V199.63C115.955 200.221 115.471 200.705 114.88 200.705H113.805M108.431 200.705H107.356C106.765 200.705 106.281 200.221 106.281 199.63V198.555M108.968 193.181H111.655C111.952 193.181 112.193 193.422 112.193 193.718V195.331C112.193 195.627 111.952 195.868 111.655 195.868H108.968C108.672 195.868 108.431 195.627 108.431 195.331V193.718C108.431 193.422 108.672 193.181 108.968 193.181ZM110.581 195.868H113.268C113.564 195.868 113.805 196.109 113.805 196.405V198.018C113.805 198.314 113.564 198.555 113.268 198.555H110.581C110.284 198.555 110.043 198.314 110.043 198.018V196.405C110.043 196.109 110.284 195.868 110.581 195.868Z" stroke="white" stroke-width="1.07214" stroke-linecap="round" stroke-linejoin="round"/>
<path d="M127.413 197.941C126.87 197.941 126.398 197.825 125.994 197.594C125.597 197.358 125.29 197.022 125.075 196.586C124.861 196.146 124.753 195.624 124.753 195.023C124.753 194.421 124.861 193.902 125.075 193.467C125.29 193.031 125.597 192.698 125.994 192.467C126.392 192.231 126.865 192.112 127.413 192.112C127.811 192.112 128.174 192.174 128.501 192.298C128.829 192.416 129.109 192.593 129.34 192.83L129.066 193.386C128.819 193.166 128.563 193.007 128.3 192.911C128.042 192.814 127.752 192.765 127.429 192.765C126.822 192.765 126.349 192.959 126.011 193.346C125.672 193.727 125.503 194.286 125.503 195.023C125.503 195.753 125.672 196.315 126.011 196.707C126.349 197.094 126.822 197.288 127.429 197.288C127.752 197.288 128.042 197.239 128.3 197.143C128.563 197.046 128.819 196.887 129.066 196.667L129.34 197.223C129.109 197.46 128.829 197.64 128.501 197.763C128.174 197.882 127.811 197.941 127.413 197.941ZM131.751 197.941C131.369 197.941 131.074 197.828 130.864 197.602C130.654 197.376 130.55 197.059 130.55 196.651V192.185H131.267V196.578C131.267 196.74 131.291 196.879 131.34 196.998C131.388 197.11 131.458 197.196 131.549 197.256C131.641 197.315 131.751 197.344 131.88 197.344C131.96 197.344 132.036 197.341 132.105 197.336C132.175 197.325 132.251 197.309 132.331 197.288L132.339 197.852C132.248 197.884 132.157 197.906 132.065 197.917C131.974 197.933 131.869 197.941 131.751 197.941ZM134.639 197.941C134.311 197.941 134.034 197.882 133.808 197.763C133.588 197.645 133.421 197.468 133.309 197.231C133.196 196.995 133.139 196.702 133.139 196.353V193.886H133.857V196.32C133.857 196.525 133.886 196.705 133.945 196.861C134.01 197.011 134.109 197.127 134.244 197.207C134.383 197.288 134.563 197.328 134.784 197.328C135.015 197.328 135.219 197.274 135.396 197.167C135.579 197.059 135.722 196.914 135.824 196.732C135.931 196.549 135.985 196.347 135.985 196.127V193.886H136.702V197.868H136.033V196.989H136.041C135.907 197.285 135.722 197.519 135.485 197.691C135.254 197.857 134.972 197.941 134.639 197.941ZM139.59 197.941C139.369 197.941 139.154 197.919 138.945 197.876C138.735 197.839 138.539 197.785 138.356 197.715C138.179 197.64 138.026 197.548 137.897 197.441L138.123 196.933C138.262 197.035 138.413 197.118 138.574 197.183C138.741 197.247 138.91 197.296 139.082 197.328C139.254 197.355 139.423 197.368 139.59 197.368C139.918 197.368 140.173 197.317 140.356 197.215C140.538 197.113 140.63 196.971 140.63 196.788C140.63 196.632 140.576 196.514 140.468 196.433C140.361 196.347 140.186 196.283 139.944 196.24L139.114 196.095C138.743 196.025 138.467 195.899 138.284 195.716C138.101 195.533 138.01 195.294 138.01 194.998C138.01 194.762 138.074 194.555 138.203 194.378C138.332 194.2 138.52 194.063 138.768 193.967C139.02 193.864 139.316 193.813 139.654 193.813C139.848 193.813 140.041 193.832 140.235 193.87C140.428 193.907 140.611 193.964 140.783 194.039C140.955 194.109 141.092 194.198 141.194 194.305L140.96 194.813C140.847 194.711 140.716 194.63 140.565 194.571C140.42 194.507 140.27 194.461 140.114 194.434C139.958 194.402 139.805 194.386 139.654 194.386C139.343 194.386 139.101 194.439 138.929 194.547C138.757 194.649 138.671 194.794 138.671 194.982C138.671 195.133 138.719 195.251 138.816 195.337C138.918 195.423 139.079 195.487 139.3 195.53L140.114 195.676C140.511 195.751 140.807 195.877 141 196.054C141.194 196.226 141.291 196.466 141.291 196.772C141.291 197.008 141.221 197.215 141.081 197.393C140.941 197.565 140.743 197.699 140.485 197.796C140.232 197.892 139.934 197.941 139.59 197.941ZM144.106 197.941C143.627 197.941 143.265 197.814 143.017 197.562C142.77 197.309 142.647 196.949 142.647 196.482V194.474H141.849V193.886H142.679V192.701H143.364V193.886H144.791V194.474H143.364V196.417C143.364 196.723 143.434 196.952 143.574 197.102C143.713 197.247 143.923 197.32 144.202 197.32C144.315 197.32 144.423 197.309 144.525 197.288C144.632 197.266 144.734 197.234 144.831 197.191L144.944 197.755C144.842 197.814 144.713 197.86 144.557 197.892C144.407 197.925 144.256 197.941 144.106 197.941ZM147.654 197.941C147.208 197.941 146.823 197.86 146.501 197.699C146.179 197.532 145.931 197.296 145.759 196.989C145.587 196.678 145.501 196.307 145.501 195.877C145.501 195.474 145.582 195.119 145.743 194.813C145.904 194.501 146.133 194.257 146.428 194.079C146.724 193.902 147.073 193.813 147.476 193.813C147.869 193.813 148.199 193.897 148.468 194.063C148.742 194.23 148.949 194.464 149.089 194.765C149.228 195.066 149.298 195.423 149.298 195.837V196.071H146.033V195.571H148.839L148.686 195.732C148.686 195.291 148.581 194.953 148.371 194.716C148.167 194.48 147.871 194.362 147.484 194.362C147.226 194.362 147.001 194.421 146.807 194.539C146.614 194.652 146.463 194.816 146.356 195.031C146.248 195.24 146.195 195.493 146.195 195.788V195.869C146.195 196.191 146.251 196.463 146.364 196.683C146.482 196.904 146.651 197.07 146.872 197.183C147.092 197.296 147.355 197.352 147.662 197.352C147.882 197.352 148.105 197.323 148.331 197.264C148.562 197.199 148.777 197.089 148.976 196.933L149.218 197.441C149.019 197.613 148.777 197.739 148.492 197.82C148.207 197.9 147.928 197.941 147.654 197.941ZM150.482 197.868V193.886H151.135V194.805C151.237 194.509 151.407 194.278 151.643 194.112C151.885 193.94 152.181 193.843 152.53 193.821L152.893 193.805L152.957 194.458L152.385 194.507C152.009 194.539 151.716 194.662 151.506 194.877C151.302 195.087 151.2 195.35 151.2 195.667V197.868H150.482ZM155.264 197.941C155.043 197.941 154.828 197.919 154.619 197.876C154.409 197.839 154.213 197.785 154.03 197.715C153.853 197.64 153.7 197.548 153.571 197.441L153.796 196.933C153.936 197.035 154.087 197.118 154.248 197.183C154.414 197.247 154.584 197.296 154.756 197.328C154.928 197.355 155.097 197.368 155.264 197.368C155.591 197.368 155.847 197.317 156.029 197.215C156.212 197.113 156.303 196.971 156.303 196.788C156.303 196.632 156.25 196.514 156.142 196.433C156.035 196.347 155.86 196.283 155.618 196.24L154.788 196.095C154.417 196.025 154.14 195.899 153.958 195.716C153.775 195.533 153.684 195.294 153.684 194.998C153.684 194.762 153.748 194.555 153.877 194.378C154.006 194.2 154.194 194.063 154.441 193.967C154.694 193.864 154.989 193.813 155.328 193.813C155.521 193.813 155.715 193.832 155.908 193.87C156.102 193.907 156.285 193.964 156.457 194.039C156.629 194.109 156.766 194.198 156.868 194.305L156.634 194.813C156.521 194.711 156.389 194.63 156.239 194.571C156.094 194.507 155.943 194.461 155.787 194.434C155.632 194.402 155.478 194.386 155.328 194.386C155.016 194.386 154.774 194.439 154.602 194.547C154.431 194.649 154.345 194.794 154.345 194.982C154.345 195.133 154.393 195.251 154.49 195.337C154.592 195.423 154.753 195.487 154.973 195.53L155.787 195.676C156.185 195.751 156.481 195.877 156.674 196.054C156.868 196.226 156.964 196.466 156.964 196.772C156.964 197.008 156.895 197.215 156.755 197.393C156.615 197.565 156.416 197.699 156.158 197.796C155.906 197.892 155.607 197.941 155.264 197.941ZM158.005 194.748V193.886H158.924V194.748H158.005ZM158.005 197.868V197.006H158.924V197.868H158.005ZM162.496 197.868V197.256H164.052V192.757L164.431 192.806L162.778 193.87L162.464 193.322L164.237 192.185H164.761V197.256H166.188V197.868H162.496Z" fill="#E4E4E7"/>
<path d="M20.186 230.247V224.563H22.5238C22.9268 224.563 23.2708 224.631 23.5556 224.765C23.8458 224.899 24.0662 225.095 24.2166 225.353C24.3671 225.606 24.4424 225.912 24.4424 226.272C24.4424 226.632 24.3644 226.941 24.2086 227.199C24.0581 227.457 23.8404 227.656 23.5556 227.796C23.2708 227.936 22.9268 228.006 22.5238 228.006H20.9035V230.247H20.186ZM20.9035 227.393H22.419C22.8489 227.393 23.1741 227.302 23.3944 227.119C23.6147 226.931 23.7249 226.651 23.7249 226.28C23.7249 225.904 23.6147 225.628 23.3944 225.45C23.1741 225.267 22.8489 225.176 22.419 225.176H20.9035V227.393ZM25.5127 230.247V226.264H26.1657V227.183C26.2678 226.888 26.4371 226.657 26.6735 226.49C26.9154 226.318 27.211 226.221 27.5603 226.2L27.923 226.184L27.9875 226.837L27.4152 226.885C27.039 226.917 26.7461 227.041 26.5365 227.256C26.3323 227.465 26.2302 227.729 26.2302 228.046V230.247H25.5127ZM30.5601 230.319C30.1571 230.319 29.8077 230.233 29.5122 230.061C29.2166 229.889 28.9882 229.65 28.827 229.344C28.6657 229.032 28.5851 228.667 28.5851 228.247C28.5851 227.834 28.6657 227.474 28.827 227.167C28.9882 226.861 29.2166 226.622 29.5122 226.45C29.8077 226.278 30.1571 226.192 30.5601 226.192C30.9632 226.192 31.3098 226.278 31.6 226.45C31.8956 226.622 32.124 226.861 32.2852 227.167C32.4465 227.474 32.5271 227.834 32.5271 228.247C32.5271 228.667 32.4465 229.032 32.2852 229.344C32.124 229.65 31.8956 229.889 31.6 230.061C31.3098 230.233 30.9632 230.319 30.5601 230.319ZM30.5521 229.715C30.9444 229.715 31.2534 229.583 31.4791 229.32C31.7048 229.056 31.8177 228.699 31.8177 228.247C31.8177 227.796 31.7048 227.441 31.4791 227.183C31.2534 226.925 30.9471 226.796 30.5601 226.796C30.1678 226.796 29.8588 226.925 29.6331 227.183C29.4074 227.441 29.2945 227.796 29.2945 228.247C29.2945 228.699 29.4074 229.056 29.6331 229.32C29.8588 229.583 30.1651 229.715 30.5521 229.715ZM34.7889 230.247L33.1203 226.264H33.8861L35.1759 229.545H35.1356L36.4415 226.264H37.1831L35.5064 230.247H34.7889ZM37.9805 225.305V224.507H38.8512V225.305H37.9805ZM38.0612 230.247V226.264H38.7786V230.247H38.0612ZM41.6615 230.319C41.4412 230.319 41.2262 230.298 41.0166 230.255C40.807 230.217 40.6109 230.163 40.4281 230.093C40.2508 230.018 40.0976 229.927 39.9686 229.819L40.1944 229.311C40.3341 229.414 40.4846 229.497 40.6458 229.561C40.8124 229.626 40.9817 229.674 41.1536 229.706C41.3256 229.733 41.4949 229.747 41.6615 229.747C41.9893 229.747 42.2446 229.696 42.4273 229.594C42.61 229.492 42.7014 229.349 42.7014 229.166C42.7014 229.011 42.6477 228.892 42.5402 228.812C42.4327 228.726 42.258 228.661 42.0162 228.618L41.1859 228.473C40.8151 228.403 40.5383 228.277 40.3556 228.094C40.1729 227.912 40.0815 227.672 40.0815 227.377C40.0815 227.14 40.146 226.933 40.275 226.756C40.404 226.579 40.592 226.442 40.8393 226.345C41.0918 226.243 41.3874 226.192 41.726 226.192C41.9195 226.192 42.1129 226.211 42.3064 226.248C42.4999 226.286 42.6826 226.342 42.8546 226.418C43.0265 226.487 43.1636 226.576 43.2657 226.684L43.0319 227.191C42.9191 227.089 42.7874 227.009 42.6369 226.95C42.4918 226.885 42.3413 226.839 42.1855 226.813C42.0296 226.78 41.8765 226.764 41.726 226.764C41.4143 226.764 41.1725 226.818 41.0005 226.925C40.8285 227.027 40.7425 227.173 40.7425 227.361C40.7425 227.511 40.7909 227.629 40.8876 227.715C40.9897 227.801 41.151 227.866 41.3713 227.909L42.1855 228.054C42.5832 228.129 42.8787 228.255 43.0722 228.433C43.2657 228.605 43.3624 228.844 43.3624 229.15C43.3624 229.387 43.2926 229.594 43.1528 229.771C43.0131 229.943 42.8143 230.077 42.5563 230.174C42.3037 230.271 42.0054 230.319 41.6615 230.319ZM44.4594 225.305V224.507H45.3301V225.305H44.4594ZM44.5401 230.247V226.264H45.2575V230.247H44.5401ZM48.4145 230.319C48.0114 230.319 47.6621 230.233 47.3665 230.061C47.0709 229.889 46.8425 229.65 46.6813 229.344C46.5201 229.032 46.4395 228.667 46.4395 228.247C46.4395 227.834 46.5201 227.474 46.6813 227.167C46.8425 226.861 47.0709 226.622 47.3665 226.45C47.6621 226.278 48.0114 226.192 48.4145 226.192C48.8175 226.192 49.1642 226.278 49.4544 226.45C49.75 226.622 49.9784 226.861 50.1396 227.167C50.3008 227.474 50.3814 227.834 50.3814 228.247C50.3814 228.667 50.3008 229.032 50.1396 229.344C49.9784 229.65 49.75 229.889 49.4544 230.061C49.1642 230.233 48.8175 230.319 48.4145 230.319ZM48.4064 229.715C48.7987 229.715 49.1077 229.583 49.3335 229.32C49.5592 229.056 49.672 228.699 49.672 228.247C49.672 227.796 49.5592 227.441 49.3335 227.183C49.1077 226.925 48.8014 226.796 48.4145 226.796C48.0222 226.796 47.7132 226.925 47.4874 227.183C47.2617 227.441 47.1489 227.796 47.1489 228.247C47.1489 228.699 47.2617 229.056 47.4874 229.32C47.7132 229.583 48.0195 229.715 48.4064 229.715ZM51.5779 230.247V226.264H52.247V227.127H52.2389C52.3679 226.831 52.5613 226.603 52.8193 226.442C53.0773 226.275 53.3702 226.192 53.698 226.192C54.0258 226.192 54.2999 226.251 54.5202 226.369C54.7406 226.482 54.9045 226.659 55.012 226.901C55.1194 227.138 55.1732 227.433 55.1732 227.788V230.247H54.4638V227.828C54.4638 227.613 54.4316 227.431 54.3671 227.28C54.3079 227.124 54.2112 227.006 54.0769 226.925C53.9425 226.845 53.7625 226.804 53.5368 226.804C53.2949 226.804 53.08 226.858 52.8919 226.966C52.7038 227.073 52.556 227.218 52.4485 227.401C52.3464 227.584 52.2953 227.788 52.2953 228.014V230.247H51.5779ZM58.503 230.319C58.057 230.319 57.6727 230.239 57.3503 230.077C57.0278 229.911 56.7806 229.674 56.6086 229.368C56.4367 229.056 56.3507 228.685 56.3507 228.255C56.3507 227.852 56.4313 227.498 56.5925 227.191C56.7537 226.88 56.9822 226.635 57.2777 226.458C57.5733 226.28 57.9226 226.192 58.3257 226.192C58.718 226.192 59.0485 226.275 59.3172 226.442C59.5913 226.608 59.7982 226.842 59.9379 227.143C60.0777 227.444 60.1475 227.801 60.1475 228.215V228.449H56.8827V227.949H59.688L59.5349 228.11C59.5349 227.67 59.4301 227.331 59.2205 227.095C59.0163 226.858 58.7207 226.74 58.3337 226.74C58.0758 226.74 57.8501 226.799 57.6566 226.917C57.4631 227.03 57.3127 227.194 57.2052 227.409C57.0977 227.619 57.044 227.871 57.044 228.167V228.247C57.044 228.57 57.1004 228.841 57.2132 229.062C57.3315 229.282 57.5008 229.449 57.7211 229.561C57.9414 229.674 58.2048 229.731 58.5111 229.731C58.7314 229.731 58.9545 229.701 59.1802 229.642C59.4113 229.578 59.6262 229.467 59.8251 229.311L60.0669 229.819C59.8681 229.991 59.6262 230.118 59.3414 230.198C59.0566 230.279 58.7771 230.319 58.503 230.319ZM62.9197 230.319C62.5489 230.319 62.2264 230.233 61.9524 230.061C61.6783 229.889 61.466 229.647 61.3155 229.336C61.165 229.024 61.0898 228.664 61.0898 228.255C61.0898 227.842 61.165 227.482 61.3155 227.175C61.466 226.864 61.6756 226.622 61.9443 226.45C62.2184 226.278 62.5408 226.192 62.9116 226.192C63.2502 226.192 63.5431 226.272 63.7903 226.434C64.0375 226.595 64.2149 226.815 64.3224 227.095V224.563H65.0317V230.247H64.3788V229.368H64.3707C64.2579 229.669 64.0725 229.903 63.8145 230.069C63.5619 230.236 63.2637 230.319 62.9197 230.319ZM63.0729 229.731C63.4598 229.731 63.7661 229.599 63.9918 229.336C64.2176 229.072 64.3304 228.712 64.3304 228.255C64.3304 227.799 64.2176 227.439 63.9918 227.175C63.7661 226.912 63.4598 226.78 63.0729 226.78C62.6806 226.78 62.3715 226.912 62.1458 227.175C61.9201 227.439 61.8073 227.799 61.8073 228.255C61.8073 228.712 61.9201 229.072 62.1458 229.336C62.3715 229.599 62.6806 229.731 63.0729 229.731ZM66.3273 227.127V226.264H67.2463V227.127H66.3273ZM66.3273 230.247V229.384H67.2463V230.247H66.3273ZM72.4144 230.319C72.178 230.319 71.9442 230.295 71.7131 230.247C71.482 230.198 71.2617 230.123 71.0521 230.021C70.8479 229.919 70.6598 229.792 70.4878 229.642L70.7619 229.078C71.0199 229.298 71.2886 229.457 71.568 229.553C71.8475 229.645 72.1296 229.69 72.4144 229.69C72.6509 229.69 72.8632 229.655 73.0513 229.586C73.2447 229.51 73.3952 229.4 73.5027 229.255C73.6156 229.105 73.672 228.911 73.672 228.675C73.672 228.347 73.5618 228.1 73.3415 227.933C73.1211 227.761 72.8014 227.675 72.3822 227.675H71.5277V227.054H72.2774C72.5192 227.054 72.7342 227.017 72.9223 226.941C73.1158 226.861 73.2662 226.743 73.3737 226.587C73.4812 226.431 73.535 226.237 73.535 226.006C73.535 225.711 73.4328 225.49 73.2286 225.345C73.0244 225.195 72.7611 225.12 72.4386 225.12C72.1538 225.12 71.8743 225.168 71.6003 225.265C71.3316 225.361 71.0843 225.528 70.8586 225.765L70.5926 225.208C70.8183 224.966 71.0978 224.786 71.431 224.668C71.7642 224.55 72.1108 224.491 72.4709 224.491C72.8309 224.491 73.14 224.55 73.3979 224.668C73.6612 224.781 73.8655 224.948 74.0106 225.168C74.1557 225.383 74.2282 225.644 74.2282 225.95C74.2282 226.272 74.1369 226.557 73.9541 226.804C73.7714 227.052 73.5215 227.226 73.2044 227.328V227.32C73.4355 227.363 73.6371 227.447 73.809 227.57C73.981 227.688 74.1154 227.844 74.2121 228.038C74.3142 228.226 74.3653 228.449 74.3653 228.707C74.3653 229.045 74.2846 229.336 74.1234 229.578C73.9622 229.819 73.7338 230.005 73.4382 230.134C73.148 230.257 72.8068 230.319 72.4144 230.319ZM77.3286 230.319C76.8933 230.319 76.5252 230.209 76.2243 229.989C75.9233 229.763 75.6949 229.435 75.539 229.005C75.3886 228.57 75.3133 228.035 75.3133 227.401C75.3133 226.767 75.3886 226.235 75.539 225.805C75.6949 225.375 75.9233 225.05 76.2243 224.829C76.5252 224.604 76.8933 224.491 77.3286 224.491C77.7747 224.491 78.1455 224.601 78.4411 224.821C78.7367 225.042 78.9597 225.367 79.1102 225.797C79.266 226.227 79.3439 226.759 79.3439 227.393C79.3439 228.027 79.266 228.562 79.1102 228.997C78.9597 229.432 78.734 229.763 78.433 229.989C78.1321 230.209 77.7639 230.319 77.3286 230.319ZM77.3286 229.69C77.7693 229.69 78.0971 229.505 78.3121 229.134C78.5271 228.763 78.6346 228.183 78.6346 227.393C78.6346 226.608 78.5271 226.033 78.3121 225.668C78.1025 225.302 77.7774 225.12 77.3367 225.12C76.8906 225.12 76.5601 225.305 76.3452 225.676C76.1302 226.041 76.0227 226.616 76.0227 227.401C76.0227 228.18 76.1302 228.758 76.3452 229.134C76.5601 229.505 76.888 229.69 77.3286 229.69ZM84.1719 230.319C83.9515 230.319 83.7366 230.298 83.527 230.255C83.3174 230.217 83.1212 230.163 82.9385 230.093C82.7611 230.018 82.608 229.927 82.479 229.819L82.7047 229.311C82.8444 229.414 82.9949 229.497 83.1561 229.561C83.3227 229.626 83.492 229.674 83.664 229.706C83.836 229.733 84.0053 229.747 84.1719 229.747C84.4997 229.747 84.755 229.696 84.9377 229.594C85.1204 229.492 85.2118 229.349 85.2118 229.166C85.2118 229.011 85.158 228.892 85.0505 228.812C84.9431 228.726 84.7684 228.661 84.5266 228.618L83.6962 228.473C83.3254 228.403 83.0487 228.277 82.8659 228.094C82.6832 227.912 82.5919 227.672 82.5919 227.377C82.5919 227.14 82.6564 226.933 82.7853 226.756C82.9143 226.579 83.1024 226.442 83.3496 226.345C83.6022 226.243 83.8978 226.192 84.2364 226.192C84.4298 226.192 84.6233 226.211 84.8168 226.248C85.0102 226.286 85.1929 226.342 85.3649 226.418C85.5369 226.487 85.6739 226.576 85.776 226.684L85.5423 227.191C85.4294 227.089 85.2977 227.009 85.1473 226.95C85.0022 226.885 84.8517 226.839 84.6958 226.813C84.54 226.78 84.3868 226.764 84.2364 226.764C83.9247 226.764 83.6828 226.818 83.5108 226.925C83.3389 227.027 83.2529 227.173 83.2529 227.361C83.2529 227.511 83.3012 227.629 83.398 227.715C83.5001 227.801 83.6613 227.866 83.8817 227.909L84.6958 228.054C85.0935 228.129 85.3891 228.255 85.5826 228.433C85.776 228.605 85.8728 228.844 85.8728 229.15C85.8728 229.387 85.8029 229.594 85.6632 229.771C85.5235 229.943 85.3246 230.077 85.0667 230.174C84.8141 230.271 84.5158 230.319 84.1719 230.319ZM88.9609 230.319C88.5149 230.319 88.1306 230.239 87.8082 230.077C87.4857 229.911 87.2385 229.674 87.0665 229.368C86.8946 229.056 86.8086 228.685 86.8086 228.255C86.8086 227.852 86.8892 227.498 87.0504 227.191C87.2116 226.88 87.44 226.635 87.7356 226.458C88.0312 226.28 88.3805 226.192 88.7836 226.192C89.1759 226.192 89.5064 226.275 89.7751 226.442C90.0492 226.608 90.2561 226.842 90.3958 227.143C90.5355 227.444 90.6054 227.801 90.6054 228.215V228.449H87.3406V227.949H90.1459L89.9928 228.11C89.9928 227.67 89.888 227.331 89.6784 227.095C89.4742 226.858 89.1786 226.74 88.7916 226.74C88.5337 226.74 88.308 226.799 88.1145 226.917C87.921 227.03 87.7705 227.194 87.6631 227.409C87.5556 227.619 87.5018 227.871 87.5018 228.167V228.247C87.5018 228.57 87.5583 228.841 87.6711 229.062C87.7894 229.282 87.9586 229.449 88.179 229.561C88.3993 229.674 88.6627 229.731 88.969 229.731C89.1893 229.731 89.4123 229.701 89.6381 229.642C89.8692 229.578 90.0841 229.467 90.283 229.311L90.5248 229.819C90.326 229.991 90.0841 230.118 89.7993 230.198C89.5145 230.279 89.235 230.319 88.9609 230.319ZM93.563 230.319C93.1546 230.319 92.7999 230.233 92.4989 230.061C92.198 229.889 91.9642 229.65 91.7976 229.344C91.631 229.032 91.5477 228.667 91.5477 228.247C91.5477 227.828 91.631 227.465 91.7976 227.159C91.9642 226.847 92.198 226.608 92.4989 226.442C92.7999 226.275 93.1546 226.192 93.563 226.192C93.8371 226.192 94.0977 226.237 94.3449 226.329C94.5922 226.42 94.7964 226.544 94.9576 226.7L94.7077 227.232C94.5518 227.092 94.3772 226.987 94.1837 226.917C93.9956 226.842 93.8102 226.804 93.6275 226.804C93.2029 226.804 92.8697 226.931 92.6279 227.183C92.3914 227.436 92.2732 227.793 92.2732 228.255C92.2732 228.712 92.3914 229.07 92.6279 229.328C92.8697 229.58 93.2002 229.706 93.6194 229.706C93.8022 229.706 93.9876 229.672 94.1757 229.602C94.3691 229.526 94.5411 229.422 94.6916 229.287L94.9415 229.819C94.7856 229.975 94.5841 230.099 94.3369 230.19C94.095 230.276 93.8371 230.319 93.563 230.319ZM97.5297 230.319C97.1266 230.319 96.7773 230.233 96.4817 230.061C96.1862 229.889 95.9578 229.65 95.7965 229.344C95.6353 229.032 95.5547 228.667 95.5547 228.247C95.5547 227.834 95.6353 227.474 95.7965 227.167C95.9578 226.861 96.1862 226.622 96.4817 226.45C96.7773 226.278 97.1266 226.192 97.5297 226.192C97.9328 226.192 98.2794 226.278 98.5696 226.45C98.8652 226.622 99.0936 226.861 99.2548 227.167C99.416 227.474 99.4966 227.834 99.4966 228.247C99.4966 228.667 99.416 229.032 99.2548 229.344C99.0936 229.65 98.8652 229.889 98.5696 230.061C98.2794 230.233 97.9328 230.319 97.5297 230.319ZM97.5216 229.715C97.9139 229.715 98.223 229.583 98.4487 229.32C98.6744 229.056 98.7872 228.699 98.7872 228.247C98.7872 227.796 98.6744 227.441 98.4487 227.183C98.223 226.925 97.9166 226.796 97.5297 226.796C97.1374 226.796 96.8284 226.925 96.6027 227.183C96.3769 227.441 96.2641 227.796 96.2641 228.247C96.2641 228.699 96.3769 229.056 96.6027 229.32C96.8284 229.583 97.1347 229.715 97.5216 229.715ZM100.693 230.247V226.264H101.362V227.127H101.354C101.483 226.831 101.677 226.603 101.935 226.442C102.192 226.275 102.485 226.192 102.813 226.192C103.141 226.192 103.415 226.251 103.635 226.369C103.856 226.482 104.02 226.659 104.127 226.901C104.235 227.138 104.288 227.433 104.288 227.788V230.247H103.579V227.828C103.579 227.613 103.547 227.431 103.482 227.28C103.423 227.124 103.326 227.006 103.192 226.925C103.058 226.845 102.878 226.804 102.652 226.804C102.41 226.804 102.195 226.858 102.007 226.966C101.819 227.073 101.671 227.218 101.564 227.401C101.462 227.584 101.411 227.788 101.411 228.014V230.247H100.693ZM107.296 230.319C106.925 230.319 106.603 230.233 106.328 230.061C106.054 229.889 105.842 229.647 105.692 229.336C105.541 229.024 105.466 228.664 105.466 228.255C105.466 227.842 105.541 227.482 105.692 227.175C105.842 226.864 106.052 226.622 106.32 226.45C106.594 226.278 106.917 226.192 107.288 226.192C107.626 226.192 107.919 226.272 108.166 226.434C108.414 226.595 108.591 226.815 108.698 227.095V224.563H109.408V230.247H108.755V229.368H108.747C108.634 229.669 108.449 229.903 108.191 230.069C107.938 230.236 107.64 230.319 107.296 230.319ZM107.449 229.731C107.836 229.731 108.142 229.599 108.368 229.336C108.594 229.072 108.707 228.712 108.707 228.255C108.707 227.799 108.594 227.439 108.368 227.175C108.142 226.912 107.836 226.78 107.449 226.78C107.057 226.78 106.748 226.912 106.522 227.175C106.296 227.439 106.183 227.799 106.183 228.255C106.183 228.712 106.296 229.072 106.522 229.336C106.748 229.599 107.057 229.731 107.449 229.731ZM112.3 230.319C112.079 230.319 111.864 230.298 111.655 230.255C111.445 230.217 111.249 230.163 111.066 230.093C110.889 230.018 110.736 229.927 110.607 229.819L110.832 229.311C110.972 229.414 111.123 229.497 111.284 229.561C111.45 229.626 111.62 229.674 111.792 229.706C111.964 229.733 112.133 229.747 112.3 229.747C112.627 229.747 112.883 229.696 113.065 229.594C113.248 229.492 113.339 229.349 113.339 229.166C113.339 229.011 113.286 228.892 113.178 228.812C113.071 228.726 112.896 228.661 112.654 228.618L111.824 228.473C111.453 228.403 111.176 228.277 110.994 228.094C110.811 227.912 110.72 227.672 110.72 227.377C110.72 227.14 110.784 226.933 110.913 226.756C111.042 226.579 111.23 226.442 111.477 226.345C111.73 226.243 112.025 226.192 112.364 226.192C112.558 226.192 112.751 226.211 112.944 226.248C113.138 226.286 113.321 226.342 113.493 226.418C113.665 226.487 113.802 226.576 113.904 226.684L113.67 227.191C113.557 227.089 113.425 227.009 113.275 226.95C113.13 226.885 112.979 226.839 112.824 226.813C112.668 226.78 112.515 226.764 112.364 226.764C112.052 226.764 111.811 226.818 111.639 226.925C111.467 227.027 111.381 227.173 111.381 227.361C111.381 227.511 111.429 227.629 111.526 227.715C111.628 227.801 111.789 227.866 112.009 227.909L112.824 228.054C113.221 228.129 113.517 228.255 113.71 228.433C113.904 228.605 114 228.844 114 229.15C114 229.387 113.931 229.594 113.791 229.771C113.651 229.943 113.452 230.077 113.194 230.174C112.942 230.271 112.644 230.319 112.3 230.319ZM118.752 230.319C118.472 230.319 118.22 230.268 117.994 230.166C117.768 230.058 117.591 229.913 117.462 229.731C117.333 229.548 117.268 229.344 117.268 229.118C117.268 228.812 117.354 228.573 117.526 228.401C117.698 228.223 117.962 228.097 118.316 228.022C118.676 227.946 119.136 227.909 119.695 227.909H120.259V228.401H119.727C119.415 228.401 119.149 228.411 118.929 228.433C118.709 228.449 118.529 228.484 118.389 228.538C118.249 228.586 118.147 228.653 118.083 228.739C118.018 228.825 117.986 228.938 117.986 229.078C117.986 229.293 118.069 229.462 118.236 229.586C118.408 229.704 118.625 229.763 118.889 229.763C119.12 229.763 119.329 229.709 119.517 229.602C119.706 229.494 119.856 229.352 119.969 229.174C120.087 228.997 120.146 228.801 120.146 228.586V227.675C120.146 227.358 120.058 227.13 119.88 226.99C119.703 226.845 119.442 226.772 119.098 226.772C118.856 226.772 118.62 226.804 118.389 226.869C118.158 226.933 117.916 227.041 117.663 227.191L117.438 226.667C117.599 226.565 117.774 226.479 117.962 226.409C118.155 226.34 118.354 226.286 118.558 226.248C118.762 226.211 118.964 226.192 119.163 226.192C119.507 226.192 119.805 226.246 120.058 226.353C120.31 226.46 120.504 226.63 120.638 226.861C120.778 227.087 120.848 227.379 120.848 227.74V230.247H120.219V229.368H120.211C120.141 229.54 120.039 229.698 119.904 229.844C119.77 229.989 119.606 230.104 119.413 230.19C119.219 230.276 118.999 230.319 118.752 230.319ZM123.98 231.77C123.663 231.77 123.349 231.722 123.037 231.625C122.726 231.534 122.457 231.407 122.231 231.246L122.465 230.69C122.615 230.787 122.774 230.87 122.94 230.94C123.107 231.015 123.276 231.072 123.448 231.109C123.626 231.147 123.798 231.166 123.964 231.166C124.383 231.166 124.709 231.058 124.94 230.843C125.171 230.634 125.286 230.335 125.286 229.948V229.215H125.27C125.173 229.489 124.999 229.712 124.746 229.884C124.499 230.05 124.209 230.134 123.876 230.134C123.499 230.134 123.172 230.053 122.892 229.892C122.613 229.725 122.395 229.494 122.239 229.199C122.089 228.903 122.013 228.556 122.013 228.159C122.013 227.766 122.089 227.422 122.239 227.127C122.395 226.831 122.613 226.603 122.892 226.442C123.172 226.275 123.499 226.192 123.876 226.192C124.209 226.192 124.502 226.278 124.754 226.45C125.007 226.622 125.184 226.853 125.286 227.143V226.264H125.963V229.884C125.963 230.276 125.883 230.612 125.722 230.891C125.566 231.171 125.34 231.386 125.044 231.536C124.749 231.692 124.394 231.77 123.98 231.77ZM123.997 229.545C124.383 229.545 124.69 229.419 124.915 229.166C125.147 228.914 125.262 228.578 125.262 228.159C125.262 227.74 125.147 227.406 124.915 227.159C124.69 226.907 124.383 226.78 123.997 226.78C123.61 226.78 123.301 226.907 123.069 227.159C122.844 227.406 122.731 227.74 122.731 228.159C122.731 228.578 122.844 228.914 123.069 229.166C123.301 229.419 123.61 229.545 123.997 229.545ZM129.129 230.319C128.726 230.319 128.377 230.233 128.081 230.061C127.786 229.889 127.557 229.65 127.396 229.344C127.235 229.032 127.154 228.667 127.154 228.247C127.154 227.834 127.235 227.474 127.396 227.167C127.557 226.861 127.786 226.622 128.081 226.45C128.377 226.278 128.726 226.192 129.129 226.192C129.532 226.192 129.879 226.278 130.169 226.45C130.465 226.622 130.693 226.861 130.854 227.167C131.015 227.474 131.096 227.834 131.096 228.247C131.096 228.667 131.015 229.032 130.854 229.344C130.693 229.65 130.465 229.889 130.169 230.061C129.879 230.233 129.532 230.319 129.129 230.319ZM129.121 229.715C129.513 229.715 129.822 229.583 130.048 229.32C130.274 229.056 130.387 228.699 130.387 228.247C130.387 227.796 130.274 227.441 130.048 227.183C129.822 226.925 129.516 226.796 129.129 226.796C128.737 226.796 128.428 226.925 128.202 227.183C127.976 227.441 127.863 227.796 127.863 228.247C127.863 228.699 127.976 229.056 128.202 229.32C128.428 229.583 128.734 229.715 129.121 229.715Z" fill="#E4E4E7"/>
</g>
<path d="M0 26.9441C0 23.109 3.10896 20 6.94406 20H367.097C370.932 20 374.041 23.109 374.041 26.9441V250.056C374.041 253.891 370.932 257 367.097 257H6.94407C3.10897 257 0 253.891 0 250.056V26.9441Z" stroke="#38373E" stroke-width="0.868007"/>
<g filter="url(#filter0_dd_5273_9397)">
<circle cx="42.5" cy="302.5" r="28.5" fill="white"/>
<circle cx="42.5" cy="302.5" r="28.066" stroke="#2563EB" stroke-width="0.868007"/>
</g>
<path d="M39.998 303C40.4275 303.574 40.9754 304.049 41.6046 304.393C42.2338 304.737 42.9296 304.941 43.6447 304.992C44.3598 305.044 45.0776 304.94 45.7494 304.69C46.4212 304.439 47.0312 304.047 47.538 303.54L50.538 300.54C51.4488 299.597 51.9528 298.334 51.9414 297.023C51.93 295.712 51.4042 294.458 50.4771 293.531C49.5501 292.604 48.296 292.078 46.9851 292.067C45.6741 292.055 44.4111 292.559 43.468 293.47L41.748 295.18M43.9982 301C43.5688 300.426 43.0209 299.951 42.3917 299.607C41.7625 299.263 41.0667 299.059 40.3516 299.008C39.6365 298.956 38.9187 299.06 38.2469 299.31C37.5751 299.561 36.9651 299.953 36.4582 300.46L33.4582 303.46C32.5475 304.403 32.0435 305.666 32.0549 306.977C32.0663 308.288 32.5921 309.542 33.5192 310.469C34.4462 311.396 35.7003 311.922 37.0112 311.933C38.3222 311.945 39.5852 311.441 40.5282 310.53L42.2382 308.82" stroke="#2563EB" stroke-width="1.5" stroke-linecap="round" stroke-linejoin="round"/>
<g filter="url(#filter1_dd_5273_9397)">
<circle cx="115.5" cy="302.5" r="28.5" fill="white"/>
<circle cx="115.5" cy="302.5" r="28.066" stroke="#2563EB" stroke-width="0.868007"/>
</g>
<path d="M105 303C105 303 108 296 115 296C122 296 125 303 125 303C125 303 122 310 115 310C108 310 105 303 105 303Z" stroke="#2563EB" stroke-width="1.5" stroke-linecap="round" stroke-linejoin="round"/>
<path d="M115 306C116.657 306 118 304.657 118 303C118 301.343 116.657 300 115 300C113.343 300 112 301.343 112 303C112 304.657 113.343 306 115 306Z" stroke="#2563EB" stroke-width="1.5" stroke-linecap="round" stroke-linejoin="round"/>
<g filter="url(#filter2_dd_5273_9397)">
<circle cx="188.5" cy="302.5" r="28.5" fill="white"/>
<circle cx="188.5" cy="302.5" r="28.066" stroke="#2563EB" stroke-width="0.868007"/>
</g>
<path d="M190 292V296C190 296.53 190.211 297.039 190.586 297.414C190.961 297.789 191.47 298 192 298H196M186 299H184M192 303H184M192 307H184M191 292H182C181.47 292 180.961 292.211 180.586 292.586C180.211 292.961 180 293.47 180 294V310C180 310.53 180.211 311.039 180.586 311.414C180.961 311.789 181.47 312 182 312H194C194.53 312 195.039 311.789 195.414 311.414C195.789 311.039 196 310.53 196 310V297L191 292Z" stroke="#2563EB" stroke-width="1.5" stroke-linecap="round" stroke-linejoin="round"/>
<g filter="url(#filter3_dd_5273_9397)">
<circle cx="262.5" cy="301.5" r="28.5" fill="white"/>
<circle cx="262.5" cy="301.5" r="28.066" stroke="#2563EB" stroke-width="0.868007"/>
</g>
<path d="M262.222 292H261.782C261.252 292 260.743 292.211 260.368 292.586C259.993 292.961 259.782 293.47 259.782 294V294.18C259.782 294.531 259.689 294.875 259.513 295.179C259.338 295.482 259.086 295.735 258.782 295.91L258.352 296.16C258.048 296.336 257.703 296.428 257.352 296.428C257.001 296.428 256.656 296.336 256.352 296.16L256.202 296.08C255.743 295.815 255.198 295.743 254.686 295.88C254.174 296.017 253.738 296.352 253.472 296.81L253.252 297.19C252.987 297.649 252.915 298.194 253.052 298.706C253.189 299.218 253.523 299.654 253.982 299.92L254.132 300.02C254.434 300.195 254.686 300.445 254.861 300.747C255.036 301.049 255.13 301.391 255.132 301.74V302.25C255.133 302.602 255.042 302.949 254.866 303.255C254.69 303.56 254.437 303.814 254.132 303.99L253.982 304.08C253.523 304.346 253.189 304.782 253.052 305.294C252.915 305.806 252.987 306.351 253.252 306.81L253.472 307.19C253.738 307.648 254.174 307.983 254.686 308.12C255.198 308.257 255.743 308.185 256.202 307.92L256.352 307.84C256.656 307.664 257.001 307.572 257.352 307.572C257.703 307.572 258.048 307.664 258.352 307.84L258.782 308.09C259.086 308.265 259.338 308.518 259.513 308.821C259.689 309.125 259.782 309.469 259.782 309.82V310C259.782 310.53 259.993 311.039 260.368 311.414C260.743 311.789 261.252 312 261.782 312H262.222C262.752 312 263.261 311.789 263.636 311.414C264.011 311.039 264.222 310.53 264.222 310V309.82C264.222 309.469 264.315 309.125 264.49 308.821C264.666 308.518 264.918 308.265 265.222 308.09L265.652 307.84C265.956 307.664 266.301 307.572 266.652 307.572C267.003 307.572 267.348 307.664 267.652 307.84L267.802 307.92C268.261 308.185 268.806 308.257 269.318 308.12C269.83 307.983 270.266 307.648 270.532 307.19L270.752 306.8C271.017 306.341 271.089 305.796 270.952 305.284C270.815 304.772 270.48 304.336 270.022 304.07L269.872 303.99C269.567 303.814 269.314 303.56 269.138 303.255C268.962 302.949 268.871 302.602 268.872 302.25V301.75C268.871 301.398 268.962 301.051 269.138 300.745C269.314 300.44 269.567 300.186 269.872 300.01L270.022 299.92C270.48 299.654 270.815 299.218 270.952 298.706C271.089 298.194 271.017 297.649 270.752 297.19L270.532 296.81C270.266 296.352 269.83 296.017 269.318 295.88C268.806 295.743 268.261 295.815 267.802 296.08L267.652 296.16C267.348 296.336 267.003 296.428 266.652 296.428C266.301 296.428 265.956 296.336 265.652 296.16L265.222 295.91C264.918 295.735 264.666 295.482 264.49 295.179C264.315 294.875 264.222 294.531 264.222 294.18V294C264.222 293.47 264.011 292.961 263.636 292.586C263.261 292.211 262.752 292 262.222 292Z" stroke="#2563EB" stroke-width="1.5" stroke-linecap="round" stroke-linejoin="round"/>
<path d="M262.002 305C263.659 305 265.002 303.657 265.002 302C265.002 300.343 263.659 299 262.002 299C260.345 299 259.002 300.343 259.002 302C259.002 303.657 260.345 305 262.002 305Z" stroke="#2563EB" stroke-width="1.5" stroke-linecap="round" stroke-linejoin="round"/>
</g>
<defs>
<filter id="filter0_dd_5273_9397" x="9" y="273" width="67" height="67" filterUnits="userSpaceOnUse" color-interpolation-filters="sRGB">
<feFlood flood-opacity="0" result="BackgroundImageFix"/>
<feColorMatrix in="SourceAlpha" type="matrix" values="0 0 0 0 0 0 0 0 0 0 0 0 0 0 0 0 0 0 127 0" result="hardAlpha"/>
<feMorphology radius="1" operator="erode" in="SourceAlpha" result="effect1_dropShadow_5273_9397"/>
<feOffset dy="2"/>
<feGaussianBlur stdDeviation="2"/>
<feColorMatrix type="matrix" values="0 0 0 0 0 0 0 0 0 0 0 0 0 0 0 0 0 0 0.06 0"/>
<feBlend mode="normal" in2="BackgroundImageFix" result="effect1_dropShadow_5273_9397"/>
<feColorMatrix in="SourceAlpha" type="matrix" values="0 0 0 0 0 0 0 0 0 0 0 0 0 0 0 0 0 0 127 0" result="hardAlpha"/>
<feMorphology radius="1" operator="erode" in="SourceAlpha" result="effect2_dropShadow_5273_9397"/>
<feOffset dy="4"/>
<feGaussianBlur stdDeviation="3"/>
<feColorMatrix type="matrix" values="0 0 0 0 0 0 0 0 0 0 0 0 0 0 0 0 0 0 0.1 0"/>
<feBlend mode="normal" in2="effect1_dropShadow_5273_9397" result="effect2_dropShadow_5273_9397"/>
<feBlend mode="normal" in="SourceGraphic" in2="effect2_dropShadow_5273_9397" result="shape"/>
</filter>
<filter id="filter1_dd_5273_9397" x="82" y="273" width="67" height="67" filterUnits="userSpaceOnUse" color-interpolation-filters="sRGB">
<feFlood flood-opacity="0" result="BackgroundImageFix"/>
<feColorMatrix in="SourceAlpha" type="matrix" values="0 0 0 0 0 0 0 0 0 0 0 0 0 0 0 0 0 0 127 0" result="hardAlpha"/>
<feMorphology radius="1" operator="erode" in="SourceAlpha" result="effect1_dropShadow_5273_9397"/>
<feOffset dy="2"/>
<feGaussianBlur stdDeviation="2"/>
<feColorMatrix type="matrix" values="0 0 0 0 0 0 0 0 0 0 0 0 0 0 0 0 0 0 0.06 0"/>
<feBlend mode="normal" in2="BackgroundImageFix" result="effect1_dropShadow_5273_9397"/>
<feColorMatrix in="SourceAlpha" type="matrix" values="0 0 0 0 0 0 0 0 0 0 0 0 0 0 0 0 0 0 127 0" result="hardAlpha"/>
<feMorphology radius="1" operator="erode" in="SourceAlpha" result="effect2_dropShadow_5273_9397"/>
<feOffset dy="4"/>
<feGaussianBlur stdDeviation="3"/>
<feColorMatrix type="matrix" values="0 0 0 0 0 0 0 0 0 0 0 0 0 0 0 0 0 0 0.1 0"/>
<feBlend mode="normal" in2="effect1_dropShadow_5273_9397" result="effect2_dropShadow_5273_9397"/>
<feBlend mode="normal" in="SourceGraphic" in2="effect2_dropShadow_5273_9397" result="shape"/>
</filter>
<filter id="filter2_dd_5273_9397" x="155" y="273" width="67" height="67" filterUnits="userSpaceOnUse" color-interpolation-filters="sRGB">
<feFlood flood-opacity="0" result="BackgroundImageFix"/>
<feColorMatrix in="SourceAlpha" type="matrix" values="0 0 0 0 0 0 0 0 0 0 0 0 0 0 0 0 0 0 127 0" result="hardAlpha"/>
<feMorphology radius="1" operator="erode" in="SourceAlpha" result="effect1_dropShadow_5273_9397"/>
<feOffset dy="2"/>
<feGaussianBlur stdDeviation="2"/>
<feColorMatrix type="matrix" values="0 0 0 0 0 0 0 0 0 0 0 0 0 0 0 0 0 0 0.06 0"/>
<feBlend mode="normal" in2="BackgroundImageFix" result="effect1_dropShadow_5273_9397"/>
<feColorMatrix in="SourceAlpha" type="matrix" values="0 0 0 0 0 0 0 0 0 0 0 0 0 0 0 0 0 0 127 0" result="hardAlpha"/>
<feMorphology radius="1" operator="erode" in="SourceAlpha" result="effect2_dropShadow_5273_9397"/>
<feOffset dy="4"/>
<feGaussianBlur stdDeviation="3"/>
<feColorMatrix type="matrix" values="0 0 0 0 0 0 0 0 0 0 0 0 0 0 0 0 0 0 0.1 0"/>
<feBlend mode="normal" in2="effect1_dropShadow_5273_9397" result="effect2_dropShadow_5273_9397"/>
<feBlend mode="normal" in="SourceGraphic" in2="effect2_dropShadow_5273_9397" result="shape"/>
</filter>
<filter id="filter3_dd_5273_9397" x="229" y="272" width="67" height="67" filterUnits="userSpaceOnUse" color-interpolation-filters="sRGB">
<feFlood flood-opacity="0" result="BackgroundImageFix"/>
<feColorMatrix in="SourceAlpha" type="matrix" values="0 0 0 0 0 0 0 0 0 0 0 0 0 0 0 0 0 0 127 0" result="hardAlpha"/>
<feMorphology radius="1" operator="erode" in="SourceAlpha" result="effect1_dropShadow_5273_9397"/>
<feOffset dy="2"/>
<feGaussianBlur stdDeviation="2"/>
<feColorMatrix type="matrix" values="0 0 0 0 0 0 0 0 0 0 0 0 0 0 0 0 0 0 0.06 0"/>
<feBlend mode="normal" in2="BackgroundImageFix" result="effect1_dropShadow_5273_9397"/>
<feColorMatrix in="SourceAlpha" type="matrix" values="0 0 0 0 0 0 0 0 0 0 0 0 0 0 0 0 0 0 127 0" result="hardAlpha"/>
<feMorphology radius="1" operator="erode" in="SourceAlpha" result="effect2_dropShadow_5273_9397"/>
<feOffset dy="4"/>
<feGaussianBlur stdDeviation="3"/>
<feColorMatrix type="matrix" values="0 0 0 0 0 0 0 0 0 0 0 0 0 0 0 0 0 0 0.1 0"/>
<feBlend mode="normal" in2="effect1_dropShadow_5273_9397" result="effect2_dropShadow_5273_9397"/>
<feBlend mode="normal" in="SourceGraphic" in2="effect2_dropShadow_5273_9397" result="shape"/>
</filter>
<linearGradient id="paint0_linear_5273_9397" x1="279.5" y1="45" x2="279.5" y2="376" gradientUnits="userSpaceOnUse">
<stop stop-color="#2563EB"/>
<stop offset="1" stop-color="#1A44A0"/>
</linearGradient>
<clipPath id="clip0_5273_9397">
<rect width="397" height="403" fill="white"/>
</clipPath>
<clipPath id="clip1_5273_9397">
<path d="M0 26.9441C0 23.109 3.10896 20 6.94406 20H367.097C370.932 20 374.041 23.109 374.041 26.9441V250.056C374.041 253.891 370.932 257 367.097 257H6.94407C3.10897 257 0 253.891 0 250.056V26.9441Z" fill="white"/>
</clipPath>
<clipPath id="clip2_5273_9397">
<rect width="12.898" height="12.898" fill="white" transform="translate(29.2422 145.755)"/>
</clipPath>
<clipPath id="clip3_5273_9397">
<rect width="12.898" height="12.898" fill="white" transform="translate(22.707 189.419)"/>
</clipPath>
</defs>
</svg>
