<svg width="208" height="20" viewBox="0 0 208 20" fill="none" xmlns="http://www.w3.org/2000/svg">
<rect width="208" height="20" fill="#16A34A"/>
<path d="M37.7991 6.28L36.3591 9.48H38.6791L34.4391 13.88L36.3991 10.52H34.1991L37.7991 6.28ZM53.1417 13.08C52.7897 13.08 52.4804 13.0107 52.2137 12.872C51.9524 12.728 51.7497 12.5307 51.6057 12.28C51.4617 12.0293 51.3897 11.736 51.3897 11.4H52.1097C52.1097 11.7253 52.2004 11.9813 52.3817 12.168C52.5684 12.3493 52.8244 12.44 53.1497 12.44C53.4804 12.44 53.7364 12.344 53.9177 12.152C54.099 11.96 54.1897 11.7093 54.1897 11.4V10.984C54.1897 10.6533 54.099 10.3973 53.9177 10.216C53.7364 10.0347 53.4804 9.944 53.1497 9.944H52.5497V9.224L53.9977 7.816H51.6297V7.16H54.7257V7.88L53.1657 9.392V9.304C53.699 9.304 54.123 9.456 54.4377 9.76C54.7524 10.064 54.9097 10.472 54.9097 10.984V11.4C54.9097 11.736 54.835 12.0293 54.6857 12.28C54.5417 12.5307 54.3364 12.728 54.0697 12.872C53.803 13.0107 53.4937 13.08 53.1417 13.08ZM56.8266 13L58.3866 10.736L56.9226 8.6H57.7706L58.6426 9.96C58.6799 10.0187 58.7146 10.0827 58.7466 10.152C58.7839 10.2213 58.8132 10.2773 58.8346 10.32C58.8506 10.2773 58.8746 10.2213 58.9066 10.152C58.9439 10.0827 58.9812 10.0187 59.0186 9.96L59.8986 8.6H60.7386L59.2746 10.744L60.8266 13H59.9786L59.0346 11.56C58.9972 11.5013 58.9599 11.4347 58.9226 11.36C58.8906 11.28 58.8612 11.216 58.8346 11.168C58.8132 11.216 58.7812 11.28 58.7386 11.36C58.7012 11.4347 58.6612 11.5013 58.6186 11.56L57.6666 13H56.8266ZM69.4843 12.72L70.7803 11.08C70.8336 11.0107 70.895 10.944 70.9643 10.88C71.0336 10.8107 71.0923 10.7573 71.1403 10.72V10.648C71.071 10.6533 70.983 10.6613 70.8763 10.672C70.7696 10.6773 70.671 10.68 70.5803 10.68H67.9403V10.04H70.5803C70.671 10.04 70.7696 10.0453 70.8763 10.056C70.983 10.0613 71.071 10.0693 71.1403 10.08V10.008C71.103 9.976 71.0496 9.92533 70.9803 9.856C70.9163 9.78667 70.8496 9.712 70.7803 9.632L69.4843 8H70.3243L72.1803 10.36L70.3323 12.72H69.4843ZM80.6781 12.72L81.9741 11.08C82.0274 11.0107 82.0887 10.944 82.1581 10.88C82.2274 10.8107 82.2861 10.7573 82.3341 10.72V10.648C82.2647 10.6533 82.1767 10.6613 82.0701 10.672C81.9634 10.6773 81.8647 10.68 81.7741 10.68H79.1341V10.04H81.7741C81.8647 10.04 81.9634 10.0453 82.0701 10.056C82.1767 10.0613 82.2647 10.0693 82.3341 10.08V10.008C82.2967 9.976 82.2434 9.92533 82.1741 9.856C82.1101 9.78667 82.0434 9.712 81.9741 9.632L80.6781 8H81.5181L83.3741 10.36L81.5261 12.72H80.6781ZM86.2749 12.72L87.5709 11.08C87.6243 11.0107 87.6856 10.944 87.7549 10.88C87.8243 10.8107 87.8829 10.7573 87.9309 10.72V10.648C87.8616 10.6533 87.7736 10.6613 87.6669 10.672C87.5603 10.6773 87.4616 10.68 87.3709 10.68H84.7309V10.04H87.3709C87.4616 10.04 87.5603 10.0453 87.6669 10.056C87.7736 10.0613 87.8616 10.0693 87.9309 10.08V10.008C87.8936 9.976 87.8403 9.92533 87.7709 9.856C87.7069 9.78667 87.6403 9.712 87.5709 9.632L86.2749 8H87.1149L88.9709 10.36L87.1229 12.72H86.2749ZM91.8718 12.72L93.1678 11.08C93.2211 11.0107 93.2825 10.944 93.3518 10.88C93.4211 10.8107 93.4798 10.7573 93.5278 10.72V10.648C93.4585 10.6533 93.3705 10.6613 93.2638 10.672C93.1571 10.6773 93.0585 10.68 92.9678 10.68H90.3278V10.04H92.9678C93.0585 10.04 93.1571 10.0453 93.2638 10.056C93.3705 10.0613 93.4585 10.0693 93.5278 10.08V10.008C93.4905 9.976 93.4371 9.92533 93.3678 9.856C93.3038 9.78667 93.2371 9.712 93.1678 9.632L91.8718 8H92.7118L94.5678 10.36L92.7198 12.72H91.8718ZM105.082 13.96C104.324 13.7733 103.735 13.4053 103.314 12.856C102.892 12.3067 102.682 11.6347 102.682 10.84V9.4C102.682 8.87733 102.778 8.40533 102.97 7.984C103.167 7.55733 103.444 7.19733 103.802 6.904C104.164 6.61067 104.591 6.40267 105.082 6.28V6.96C104.74 7.04 104.444 7.19467 104.194 7.424C103.943 7.648 103.748 7.928 103.61 8.264C103.471 8.6 103.402 8.97867 103.402 9.4V10.84C103.402 11.2507 103.468 11.624 103.602 11.96C103.74 12.296 103.935 12.576 104.186 12.8C104.442 13.0187 104.74 13.168 105.082 13.248V13.96ZM109.11 13.08C108.758 13.08 108.449 13.0107 108.182 12.872C107.921 12.728 107.718 12.5307 107.574 12.28C107.43 12.0293 107.358 11.736 107.358 11.4H108.078C108.078 11.7253 108.169 11.9813 108.35 12.168C108.537 12.3493 108.793 12.44 109.118 12.44C109.449 12.44 109.705 12.344 109.886 12.152C110.068 11.96 110.158 11.7093 110.158 11.4V10.984C110.158 10.6533 110.068 10.3973 109.886 10.216C109.705 10.0347 109.449 9.944 109.118 9.944H108.518V9.224L109.966 7.816H107.598V7.16H110.694V7.88L109.134 9.392V9.304C109.668 9.304 110.092 9.456 110.406 9.76C110.721 10.064 110.878 10.472 110.878 10.984V11.4C110.878 11.736 110.804 12.0293 110.654 12.28C110.51 12.5307 110.305 12.728 110.038 12.872C109.772 13.0107 109.462 13.08 109.11 13.08ZM112.795 13L114.355 10.736L112.891 8.6H113.739L114.611 9.96C114.649 10.0187 114.683 10.0827 114.715 10.152C114.753 10.2213 114.782 10.2773 114.803 10.32C114.819 10.2773 114.843 10.2213 114.875 10.152C114.913 10.0827 114.95 10.0187 114.987 9.96L115.867 8.6H116.707L115.243 10.744L116.795 13H115.947L115.003 11.56C114.966 11.5013 114.929 11.4347 114.891 11.36C114.859 11.28 114.83 11.216 114.803 11.168C114.782 11.216 114.75 11.28 114.707 11.36C114.67 11.4347 114.63 11.5013 114.587 11.56L113.635 13H112.795ZM124.349 13V7.152H127.789V7.808H125.053V9.752H127.581V10.408H125.069V13H124.349ZM131.202 13.08C130.738 13.08 130.373 12.9627 130.106 12.728C129.839 12.488 129.706 12.1653 129.706 11.76C129.706 11.3493 129.839 11.0267 130.106 10.792C130.373 10.5573 130.733 10.44 131.186 10.44H132.546V10C132.546 9.728 132.463 9.52 132.298 9.376C132.138 9.22667 131.909 9.152 131.61 9.152C131.349 9.152 131.13 9.208 130.954 9.32C130.778 9.42667 130.677 9.57333 130.65 9.76H129.93C129.978 9.38133 130.157 9.08 130.466 8.856C130.775 8.632 131.162 8.52 131.626 8.52C132.133 8.52 132.533 8.65067 132.826 8.912C133.119 9.17333 133.266 9.528 133.266 9.976V13H132.562V12.16H132.442L132.562 12.04C132.562 12.36 132.437 12.6133 132.186 12.8C131.941 12.9867 131.613 13.08 131.202 13.08ZM131.378 12.512C131.719 12.512 131.999 12.4267 132.218 12.256C132.437 12.0853 132.546 11.8667 132.546 11.6V10.976H131.202C130.962 10.976 130.773 11.0427 130.634 11.176C130.495 11.3093 130.426 11.4907 130.426 11.72C130.426 11.9653 130.509 12.16 130.674 12.304C130.845 12.4427 131.079 12.512 131.378 12.512ZM137.047 13.064C136.748 13.064 136.487 13.0187 136.263 12.928C136.044 12.832 135.868 12.6987 135.735 12.528C135.607 12.3573 135.529 12.1547 135.503 11.92H136.223C136.255 12.0747 136.34 12.1973 136.479 12.288C136.623 12.3787 136.812 12.424 137.047 12.424H137.383C137.665 12.424 137.876 12.368 138.015 12.256C138.153 12.1387 138.223 11.984 138.223 11.792C138.223 11.6053 138.159 11.4587 138.031 11.352C137.908 11.24 137.724 11.1653 137.479 11.128L136.887 11.032C136.455 10.9573 136.132 10.824 135.919 10.632C135.711 10.4347 135.607 10.1493 135.607 9.776C135.607 9.38133 135.732 9.07733 135.983 8.864C136.233 8.64533 136.609 8.536 137.111 8.536H137.415C137.836 8.536 138.175 8.63467 138.431 8.832C138.687 9.02933 138.841 9.296 138.895 9.632H138.175C138.143 9.49333 138.063 9.384 137.935 9.304C137.807 9.21867 137.633 9.176 137.415 9.176H137.111C136.839 9.176 136.639 9.22667 136.511 9.328C136.388 9.42933 136.327 9.58133 136.327 9.784C136.327 9.96533 136.38 10.0987 136.487 10.184C136.593 10.2693 136.761 10.3307 136.991 10.368L137.583 10.464C138.057 10.5387 138.401 10.6773 138.615 10.88C138.833 11.0827 138.943 11.376 138.943 11.76C138.943 12.1653 138.812 12.4853 138.551 12.72C138.295 12.9493 137.905 13.064 137.383 13.064H137.047ZM143.26 13C142.881 13 142.585 12.8987 142.372 12.696C142.164 12.4933 142.06 12.208 142.06 11.84V9.256H140.82V8.6H142.06V7.36H142.78V8.6H144.54V9.256H142.78V11.84C142.78 12.176 142.94 12.344 143.26 12.344H144.46V13H143.26ZM148.377 13.08C148.03 13.08 147.726 13.0107 147.465 12.872C147.209 12.7333 147.009 12.5387 146.865 12.288C146.726 12.032 146.657 11.736 146.657 11.4V10.2C146.657 9.85867 146.726 9.56267 146.865 9.312C147.009 9.06133 147.209 8.86667 147.465 8.728C147.726 8.58933 148.03 8.52 148.377 8.52C148.723 8.52 149.025 8.58933 149.281 8.728C149.542 8.86667 149.742 9.06133 149.881 9.312C150.025 9.56267 150.097 9.85867 150.097 10.2V10.976H147.361V11.4C147.361 11.7467 147.449 12.0133 147.625 12.2C147.801 12.3813 148.051 12.472 148.377 12.472C148.654 12.472 148.878 12.424 149.049 12.328C149.219 12.2267 149.323 12.0773 149.361 11.88H150.081C150.033 12.248 149.851 12.5413 149.537 12.76C149.227 12.9733 148.841 13.08 148.377 13.08ZM149.393 10.496V10.2C149.393 9.85333 149.305 9.58667 149.129 9.4C148.958 9.21333 148.707 9.12 148.377 9.12C148.051 9.12 147.801 9.21333 147.625 9.4C147.449 9.58667 147.361 9.85333 147.361 10.2V10.432H149.449L149.393 10.496ZM152.461 13V8.6H153.165V9.44H153.333L153.101 9.96C153.101 9.48533 153.203 9.128 153.405 8.888C153.613 8.64267 153.92 8.52 154.325 8.52C154.789 8.52 155.157 8.66667 155.429 8.96C155.707 9.248 155.845 9.64 155.845 10.136V10.4H155.125V10.2C155.125 9.85333 155.04 9.58933 154.869 9.408C154.704 9.22133 154.467 9.128 154.157 9.128C153.853 9.128 153.613 9.22133 153.437 9.408C153.267 9.59467 153.181 9.85867 153.181 10.2V13H152.461ZM158.09 13.96V13.248C158.437 13.168 158.736 13.0187 158.986 12.8C159.237 12.576 159.429 12.296 159.562 11.96C159.701 11.624 159.77 11.2507 159.77 10.84V9.4C159.77 8.97867 159.701 8.6 159.562 8.264C159.424 7.928 159.229 7.648 158.978 7.424C158.728 7.19467 158.432 7.04 158.09 6.96V6.28C158.586 6.40267 159.013 6.61067 159.37 6.904C159.728 7.19733 160.002 7.55733 160.194 7.984C160.392 8.40533 160.49 8.87733 160.49 9.4V10.84C160.49 11.6347 160.28 12.3067 159.858 12.856C159.437 13.4053 158.848 13.7733 158.09 13.96ZM172.124 6.28L170.684 9.48H173.004L168.764 13.88L170.724 10.52H168.524L172.124 6.28Z" fill="white"/>
</svg>
