<svg width="28" height="24" viewBox="0 0 28 24" fill="none" xmlns="http://www.w3.org/2000/svg">
<path d="M0.5 10.3535V22.8742L14.25 19.9159L28 22.8742V10.3535H0.5Z" fill="#7F7B79"/>
<path d="M28 0H0.5V9.74103H28V0Z" fill="#7F7B79"/>
<path d="M27.7051 23.9343L28 23.9971V23.464L27.7051 23.4012L14.3038 20.5495L14.2501 20.5381L0.88944 23.3841L0.5 23.467V24.0002L0.88944 23.9172L14.2501 21.0711L27.7051 23.9343Z" fill="#7F7B79"/>
<g opacity="0.1">
<path d="M28 22.8742V10.3535H14.25V19.9159L28 22.8742Z" fill="black"/>
<path d="M28 0H14.25V9.74103H28V0Z" fill="black"/>
<path d="M14.2501 21.0711L27.7051 23.9343L28 23.9971V23.464L27.7051 23.4012L14.3038 20.5495L14.2501 20.5381L14.25 20.5381V21.0711L14.2501 21.0711Z" fill="black"/>
</g>
<path d="M11.9141 1.78027H13.0003V1.8919H12.5221V3.15765H12.3922V1.89379H11.9141V1.78027Z" fill="white"/>
<path d="M13.1289 1.78027H13.2588V2.37815H14.0721V1.78027H14.202V3.15765H14.0721V2.49167H13.2588V3.15765H13.1289V1.78027Z" fill="white"/>
<path d="M14.4804 1.78027H15.4273V1.8919H14.6122V2.3895H15.3746V2.50113H14.6103V3.04413H15.4349V3.15765H14.4785V1.78027H14.4804Z" fill="white"/>
<path d="M11.9141 6.5752H12.7838V6.68682H12.0458V7.18442H12.701V7.29605H12.044V7.95257H11.9141V6.5752Z" fill="white"/>
<path d="M13.5187 6.54688C13.9479 6.54688 14.1626 6.88554 14.1626 7.26394C14.1626 7.64235 13.9479 7.98101 13.5187 7.98101C13.0876 7.98101 12.8711 7.64235 12.8711 7.26394C12.8711 6.88554 13.0857 6.54688 13.5187 6.54688ZM13.5187 7.86939C13.8802 7.86939 14.0327 7.56477 14.0327 7.26394C14.0327 6.96312 13.8783 6.6585 13.5187 6.6585C13.1554 6.6585 13.0029 6.96312 13.0029 7.26394C13.0029 7.56477 13.1554 7.86939 13.5187 7.86939Z" fill="white"/>
<path d="M14.3516 6.5752H14.4815V7.42849C14.4815 7.74635 14.6283 7.86933 14.8825 7.86933C15.1385 7.86933 15.2853 7.74635 15.2853 7.42849V6.5752H15.4152V7.45687C15.4152 7.74067 15.2627 7.98096 14.8825 7.98096C14.5041 7.98096 14.3516 7.74067 14.3516 7.45687L14.3516 6.5752Z" fill="white"/>
<path d="M15.6797 6.5752H15.8246L16.6229 7.74067H16.6266V6.5752H16.7565V7.95258H16.6116L15.8134 6.7871H15.8096V7.95258H15.6797V6.5752Z" fill="white"/>
<path d="M17.0332 6.5752H17.5076C17.9218 6.58466 18.1364 6.80791 18.1364 7.26389C18.1364 7.71986 17.9218 7.94311 17.5076 7.95257H17.0332V6.5752ZM17.1631 7.84095H17.4417C17.8352 7.84095 18.0065 7.67634 18.0065 7.26389C18.0065 6.85143 17.8352 6.68682 17.4417 6.68682H17.1631V7.84095Z" fill="white"/>
<path d="M18.7468 6.5752H18.8918L19.4283 7.95258H19.289L19.1215 7.52498H18.4983L18.3327 7.95258H18.1934L18.7468 6.5752ZM18.5398 7.41335H19.0782L18.8127 6.70764L18.5398 7.41335Z" fill="white"/>
<path d="M19.2773 6.5752H20.3636V6.68682H19.8854V7.95257H19.7555V6.68682H19.2773V6.5752Z" fill="white"/>
<path d="M20.502 6.5752H20.6319V7.95258H20.502V6.5752Z" fill="white"/>
<path d="M21.4933 6.54688C21.9225 6.54688 22.1372 6.88554 22.1372 7.26394C22.1372 7.64235 21.9225 7.98101 21.4933 7.98101C21.0622 7.98101 20.8457 7.64235 20.8457 7.26394C20.8457 6.88554 21.0603 6.54688 21.4933 6.54688ZM21.4933 7.86939C21.8548 7.86939 22.0073 7.56477 22.0073 7.26394C22.0073 6.96312 21.8529 6.6585 21.4933 6.6585C21.13 6.6585 20.9775 6.96312 20.9775 7.26394C20.9775 7.56477 21.13 7.86939 21.4933 7.86939Z" fill="white"/>
<path d="M22.3379 6.5752H22.4829L23.2811 7.74067H23.2848V6.5752H23.4147V7.95258H23.2698L22.4716 6.7871H22.4678V7.95258H22.3379V6.5752Z" fill="white"/>
<path d="M11.914 3.56836H12.6689V5.39982H13.7533V6.03175H11.9121V3.56836H11.914Z" fill="white"/>
<path d="M14.248 3.56836H15.003V6.03175H14.248V3.56836Z" fill="white"/>
<path d="M15.5664 3.56836H16.3383L17.0518 4.88709H17.0593V3.56836H17.7728V6.03175H17.0386L16.2874 4.68653H16.2799V6.03175H15.5664V3.56836Z" fill="white"/>
<path d="M20.5646 5.08007C20.5646 5.76687 20.2051 6.0904 19.4483 6.0904C18.6933 6.0904 18.3281 5.76687 18.3281 5.08007V3.56836H19.083V4.90979C19.083 5.15764 19.0793 5.4755 19.4502 5.4755C19.8078 5.4755 19.8078 5.15764 19.8078 4.90979V3.56836H20.5628V5.08007H20.5646Z" fill="white"/>
<path d="M21.7657 4.72059L20.958 3.56836H21.8447L22.2156 4.23813L22.579 3.56836H23.4167L22.6317 4.72816L23.5071 6.03175H22.5978L22.1798 5.29765L21.7469 6.03175H20.8809L21.7657 4.72059Z" fill="white"/>
<path opacity="0.8" d="M5.91662 6.71296V4.23633H4.68164V7.95223H8.38094V6.71296H5.91662Z" fill="white"/>
<path d="M10.8434 1.75781H4.68164V3.61576H5.91474V3.00275H9.61216V6.71297H8.99655V7.95224H10.8434V1.75781Z" fill="white"/>
<path d="M9.15105 14.5017C9.15105 14.3585 9.09728 14.2385 8.98972 14.1418C8.88218 14.0451 8.69147 13.9638 8.4176 13.8979C8.08638 13.8184 7.8279 13.7014 7.64224 13.5468C7.45653 13.3923 7.36369 13.198 7.36369 12.9639C7.36369 12.7184 7.46372 12.5133 7.66375 12.3486C7.86377 12.1839 8.12295 12.1016 8.44128 12.1016C8.78396 12.1016 9.05675 12.196 9.25966 12.3847C9.46254 12.5735 9.56042 12.7926 9.55326 13.0418L9.54895 13.0548H9.14459C9.14459 12.8704 9.08399 12.7212 8.96284 12.6074C8.84166 12.4936 8.66781 12.4366 8.44128 12.4366C8.23049 12.4366 8.06881 12.4846 7.95627 12.5804C7.84367 12.6762 7.7874 12.8012 7.7874 12.9554C7.7874 13.0923 7.84835 13.2065 7.97023 13.298C8.09208 13.3895 8.28996 13.4699 8.56386 13.539C8.89365 13.6212 9.14459 13.7422 9.31666 13.9022C9.48873 14.0621 9.57476 14.2603 9.57476 14.4966C9.57476 14.7502 9.47153 14.9542 9.26504 15.1083C9.05856 15.2626 8.78897 15.3396 8.45632 15.3396C8.1437 15.3396 7.86733 15.2542 7.62717 15.0835C7.387 14.9127 7.27047 14.6847 7.27766 14.3993L7.28196 14.3864H7.68632C7.68632 14.5881 7.76017 14.7416 7.90785 14.8468C8.05554 14.952 8.23834 15.0046 8.45632 15.0046C8.66997 15.0046 8.83918 14.9595 8.96391 14.8692C9.08867 14.779 9.15105 14.6564 9.15105 14.5017Z" fill="white"/>
<path d="M10.6231 15.2937H10.1973V12.1465H10.6231V15.2937Z" fill="white"/>
<path d="M11.8105 14.9587H13.2924V15.2937H11.3867V12.1465H11.8105V14.9587Z" fill="white"/>
<path d="M14.3725 14.5112L14.4435 14.7598H14.4564L14.5274 14.5112L15.3361 12.1465H15.7942L14.6306 15.2937H14.2671L13.1035 12.1465H13.5638L14.3725 14.5112Z" fill="white"/>
<path d="M18.1572 13.8347H16.7226V14.9587H18.3766V15.2937H16.2988V12.1465H18.3529V12.4815H16.7226V13.4996H18.1572V13.8347Z" fill="white"/>
<path d="M19.3339 13.9306V15.2945H18.9102V12.1494H20.0437C20.3863 12.1494 20.6481 12.2258 20.8287 12.3785C21.0094 12.5313 21.0997 12.7532 21.0997 13.0443C21.0997 13.2057 21.0578 13.3462 20.9739 13.4658C20.89 13.5854 20.7678 13.6806 20.6072 13.7511C20.7792 13.8073 20.9029 13.8985 20.9782 14.0246C21.0535 14.1507 21.0911 14.3067 21.0911 14.4926V14.7887C21.0911 14.8867 21.1019 14.9746 21.1234 15.0524C21.1449 15.1302 21.1822 15.1937 21.2352 15.2426V15.2945H20.7986C20.7427 15.2455 20.7068 15.1735 20.6911 15.0784C20.6753 14.9832 20.6674 14.8853 20.6674 14.7844V14.4969C20.6674 14.3269 20.6179 14.1899 20.519 14.0862C20.4201 13.9824 20.2874 13.9306 20.1211 13.9306H19.3339ZM19.3339 13.5955H20.0006C20.2401 13.5955 20.4125 13.5498 20.5179 13.4585C20.6233 13.3672 20.676 13.228 20.676 13.041C20.676 12.8641 20.6247 12.7272 20.5222 12.6301C20.4197 12.533 20.2602 12.4845 20.0437 12.4845H19.3339V13.5955Z" fill="white"/>
<path d="M9.20066 16.5996L9.79671 18.1269H9.80441L10.4005 16.5996H10.7242V18.4793H10.4711V17.7357L10.4968 16.9714L10.4904 16.9701L9.88406 18.4793H9.71576L9.11202 16.974L9.10561 16.9753L9.13002 17.7357V18.4793H8.87695V16.5996H9.20066Z" fill="white"/>
<path d="M12.2974 17.6079H11.4406V18.2792H12.4284V18.4793H11.1875V16.5996H12.4143V16.7997H11.4406V17.4078H12.2974V17.6079Z" fill="white"/>
<path d="M13.0483 16.5996L13.6444 18.1269H13.6521L14.2481 16.5996H14.5718V18.4793H14.3187V17.7357L14.3444 16.9714L14.338 16.9701L13.7317 18.4793H13.5634L12.9597 16.974L12.9533 16.9753L12.9777 17.7357V18.4793H12.7246V16.5996H13.0483Z" fill="white"/>
<path d="M15.0371 18.4793V16.5996H15.6473C15.8425 16.5996 15.9954 16.642 16.1059 16.7268C16.2163 16.8116 16.2716 16.9387 16.2716 17.1083C16.2716 17.1918 16.245 17.2664 16.1919 17.3322C16.1388 17.3981 16.069 17.4469 15.9825 17.4788C16.0956 17.5029 16.1844 17.5584 16.2491 17.6453C16.3137 17.7322 16.3461 17.8334 16.3461 17.9487C16.3461 18.1208 16.2906 18.2523 16.1797 18.3431C16.0688 18.4339 15.9183 18.4793 15.7282 18.4793H15.0371ZM15.2902 17.3987H15.6999C15.7941 17.3987 15.8708 17.3727 15.9299 17.3206C15.989 17.2686 16.0185 17.196 16.0185 17.1031C16.0185 17.0016 15.9866 16.9256 15.9228 16.8753C15.859 16.8249 15.7672 16.7997 15.6473 16.7997H15.2902V17.3987ZM15.2902 17.5988V18.2792H15.7282C15.843 18.2792 15.9325 18.2507 15.9967 18.1937C16.0609 18.1366 16.093 18.0558 16.093 17.9512C16.093 17.8415 16.0662 17.7553 16.0127 17.6927C15.9592 17.6301 15.8768 17.5988 15.7654 17.5988H15.2902Z" fill="white"/>
<path d="M17.8286 17.6079H16.9718V18.2792H17.9596V18.4793H16.7188V16.5996H17.9455V16.7997H16.9718V17.4078H17.8286V17.6079Z" fill="white"/>
<path d="M18.5089 17.6644V18.479H18.2559V16.6006H18.9328C19.1375 16.6006 19.2938 16.6462 19.4017 16.7374C19.5096 16.8287 19.5635 16.9612 19.5635 17.1351C19.5635 17.2314 19.5385 17.3154 19.4884 17.3868C19.4383 17.4582 19.3653 17.515 19.2694 17.5572C19.3721 17.5908 19.446 17.6452 19.491 17.7205C19.5359 17.7958 19.5584 17.889 19.5584 18V18.1769C19.5584 18.2354 19.5648 18.2879 19.5777 18.3344C19.5905 18.3808 19.6128 18.4187 19.6445 18.448V18.479H19.3837C19.3503 18.4497 19.3289 18.4067 19.3195 18.3499C19.31 18.2931 19.3054 18.2346 19.3054 18.1743V18.0026C19.3054 17.9011 19.2758 17.8193 19.2167 17.7573C19.1576 17.6954 19.0784 17.6644 18.9791 17.6644H18.5089ZM18.5089 17.4642H18.9071C19.0501 17.4642 19.1531 17.437 19.2161 17.3824C19.279 17.3279 19.3105 17.2448 19.3105 17.1331C19.3105 17.0275 19.2799 16.9457 19.2186 16.8877C19.1574 16.8297 19.0621 16.8007 18.9328 16.8007H18.5089V17.4642Z" fill="white"/>
</svg>
