<svg width="329" height="211" viewBox="0 0 329 211" fill="none" xmlns="http://www.w3.org/2000/svg">
<g filter="url(#filter0_dd_4485_47584)">
<path d="M4.81641 28C4.81641 25.7909 6.60727 24 8.81641 24H297.816C300.026 24 301.816 25.7909 301.816 28V177C301.816 179.209 300.026 181 297.816 181H8.81641C6.60727 181 4.81641 179.209 4.81641 177V28Z" fill="#F9F9F9"/>
<path d="M8.81641 24.2314H297.816C299.898 24.2314 301.585 25.9188 301.585 28V177C301.585 179.081 299.898 180.769 297.816 180.769H8.81641C6.73518 180.769 5.04785 179.081 5.04785 177V28C5.04785 25.9188 6.73518 24.2314 8.81641 24.2314Z" stroke="#F4F4F5" stroke-width="0.463211"/>
<path d="M36.9864 57.9414V52.6249H38.6324C38.948 52.6249 39.2247 52.6904 39.4626 52.8215C39.7005 52.9477 39.885 53.125 40.0161 53.3532C40.1472 53.5814 40.2128 53.8484 40.2128 54.1543C40.2128 54.5136 40.1181 54.8219 39.9287 55.0792C39.7442 55.3365 39.4918 55.5138 39.1713 55.6109L40.2856 57.9414H39.5136L38.494 55.6837H37.6419V57.9414H36.9864ZM37.6419 55.0938H38.6324C38.9043 55.0938 39.1228 55.0088 39.2878 54.8389C39.4529 54.6641 39.5355 54.4359 39.5355 54.1543C39.5355 53.8678 39.4529 53.6396 39.2878 53.4697C39.1228 53.2997 38.9043 53.2148 38.6324 53.2148H37.6419V55.0938ZM41.448 57.9414V57.3442H42.5332V53.2221H41.448V52.6249H44.2884V53.2221H43.2032V57.3442H44.2884V57.9414H41.448ZM47.2643 58.0142C46.9438 58.0142 46.6646 57.9535 46.4267 57.8322C46.1937 57.7108 46.0116 57.536 45.8805 57.3078C45.7543 57.0747 45.6911 56.8004 45.6911 56.4848V54.0814C45.6911 53.761 45.7543 53.4867 45.8805 53.2585C46.0116 53.0303 46.1937 52.8555 46.4267 52.7341C46.6646 52.6127 46.9438 52.552 47.2643 52.552C47.5847 52.552 47.8615 52.6152 48.0945 52.7414C48.3276 52.8628 48.5072 53.0376 48.6334 53.2658C48.7597 53.494 48.8228 53.7659 48.8228 54.0814H48.1673C48.1673 53.7804 48.0872 53.5498 47.927 53.3896C47.7716 53.2245 47.5507 53.142 47.2643 53.142C46.9778 53.142 46.752 53.2221 46.5869 53.3823C46.4267 53.5425 46.3466 53.7731 46.3466 54.0742V56.4848C46.3466 56.7858 46.4267 57.0189 46.5869 57.184C46.752 57.3491 46.9778 57.4316 47.2643 57.4316C47.5507 57.4316 47.7716 57.3491 47.927 57.184C48.0872 57.0189 48.1673 56.7858 48.1673 56.4848V55.8294H47.0895V55.2322H48.8228V56.4848C48.8228 56.7956 48.7597 57.0675 48.6334 57.3005C48.5072 57.5287 48.3276 57.7059 48.0945 57.8322C47.8615 57.9535 47.5847 58.0142 47.2643 58.0142ZM50.1819 57.9414V57.3442H51.267V53.2221H50.1819V52.6249H53.0222V53.2221H51.9371V57.3442H53.0222V57.9414H50.1819ZM54.4541 57.9414V52.6249H55.8306C56.1753 52.6249 56.4715 52.6904 56.7191 52.8215C56.9716 52.9526 57.1658 53.1371 57.3017 53.375C57.4425 53.6129 57.5129 53.8945 57.5129 54.2198V56.3392C57.5129 56.6645 57.4425 56.9485 57.3017 57.1913C57.1658 57.4292 56.9716 57.6137 56.7191 57.7448C56.4715 57.8759 56.1753 57.9414 55.8306 57.9414H54.4541ZM55.1096 57.3588H55.8306C56.151 57.3588 56.4011 57.2689 56.5807 57.0893C56.7652 56.9097 56.8575 56.6596 56.8575 56.3392V54.2198C56.8575 53.9042 56.7652 53.6566 56.5807 53.477C56.4011 53.2973 56.151 53.2075 55.8306 53.2075H55.1096V57.3588ZM64.7319 58.0142C64.3823 58.0142 64.0813 57.956 63.8288 57.8394C63.5812 57.7229 63.3894 57.5554 63.2535 57.3369C63.1175 57.1184 63.0471 56.8587 63.0423 56.5576H63.6977C63.6977 56.8247 63.7876 57.0359 63.9672 57.1913C64.1517 57.3466 64.4066 57.4243 64.7319 57.4243C65.0378 57.4243 65.2757 57.3491 65.4457 57.1985C65.6204 57.048 65.7078 56.8393 65.7078 56.5722C65.7078 56.3586 65.6496 56.1717 65.533 56.0114C65.4214 55.8512 65.2587 55.7395 65.0451 55.6764L64.3241 55.4506C63.9599 55.339 63.6783 55.152 63.4793 54.8899C63.285 54.6277 63.1879 54.3194 63.1879 53.9649C63.1879 53.6785 63.2511 53.4308 63.3773 53.2221C63.5084 53.0084 63.6905 52.8433 63.9235 52.7268C64.1566 52.6054 64.4309 52.5447 64.7465 52.5447C65.2126 52.5447 65.5865 52.6758 65.8681 52.938C66.1497 53.1954 66.2929 53.5401 66.2978 53.9722H65.6423C65.6423 53.71 65.5622 53.5061 65.402 53.3604C65.2466 53.2099 65.0257 53.1347 64.7392 53.1347C64.4576 53.1347 64.2367 53.2026 64.0765 53.3386C63.9211 53.4745 63.8434 53.6639 63.8434 53.9067C63.8434 54.1251 63.9017 54.3145 64.0182 54.4747C64.1347 54.635 64.3022 54.7491 64.5207 54.817L65.249 55.0501C65.6034 55.1618 65.8778 55.3511 66.072 55.6181C66.2662 55.8852 66.3633 56.1984 66.3633 56.5576C66.3633 56.849 66.2953 57.1039 66.1594 57.3224C66.0234 57.5408 65.8316 57.7108 65.584 57.8322C65.3413 57.9535 65.0572 58.0142 64.7319 58.0142ZM68.742 57.9414V55.9532L67.1397 52.6249H67.817L68.8731 54.8097C68.9313 54.9311 68.9775 55.0355 69.0114 55.1229C69.0454 55.2054 69.0673 55.2661 69.077 55.305C69.0867 55.2661 69.1086 55.2054 69.1425 55.1229C69.1814 55.0355 69.2299 54.9311 69.2882 54.8097L70.3224 52.6249H70.9997L69.3974 55.9532V57.9414H68.742ZM73.4658 58.0142C73.1162 58.0142 72.8152 57.956 72.5627 57.8394C72.3151 57.7229 72.1233 57.5554 71.9873 57.3369C71.8514 57.1184 71.781 56.8587 71.7761 56.5576H72.4316C72.4316 56.8247 72.5214 57.0359 72.7011 57.1913C72.8856 57.3466 73.1405 57.4243 73.4658 57.4243C73.7716 57.4243 74.0096 57.3491 74.1795 57.1985C74.3543 57.048 74.4417 56.8393 74.4417 56.5722C74.4417 56.3586 74.3834 56.1717 74.2669 56.0114C74.1552 55.8512 73.9926 55.7395 73.7789 55.6764L73.0579 55.4506C72.6938 55.339 72.4122 55.152 72.2131 54.8899C72.0189 54.6277 71.9218 54.3194 71.9218 53.9649C71.9218 53.6785 71.9849 53.4308 72.1111 53.2221C72.2422 53.0084 72.4243 52.8433 72.6574 52.7268C72.8904 52.6054 73.1647 52.5447 73.4803 52.5447C73.9464 52.5447 74.3203 52.6758 74.6019 52.938C74.8835 53.1954 75.0267 53.5401 75.0316 53.9722H74.3761C74.3761 53.71 74.296 53.5061 74.1358 53.3604C73.9804 53.2099 73.7595 53.1347 73.473 53.1347C73.1914 53.1347 72.9705 53.2026 72.8103 53.3386C72.6549 53.4745 72.5772 53.6639 72.5772 53.9067C72.5772 54.1251 72.6355 54.3145 72.752 54.4747C72.8686 54.635 73.0361 54.7491 73.2546 54.817L73.9828 55.0501C74.3373 55.1618 74.6116 55.3511 74.8058 55.6181C75 55.8852 75.0971 56.1984 75.0971 56.5576C75.0971 56.849 75.0292 57.1039 74.8932 57.3224C74.7573 57.5408 74.5655 57.7108 74.3179 57.8322C74.0751 57.9535 73.7911 58.0142 73.4658 58.0142ZM77.4758 57.9414V53.2148H76.0192V52.6176H79.5879V53.2148H78.1313V57.9414H77.4758ZM80.7139 57.9414V52.6249H83.7727V53.2221H81.3621V54.868H83.5178V55.4579H81.3621V57.3442H83.7727V57.9414H80.7139ZM84.906 57.9414V52.6249H85.7654L86.3189 54.3436C86.3723 54.499 86.4209 54.6544 86.4646 54.8097C86.5083 54.9603 86.5398 55.0768 86.5592 55.1593C86.5835 55.0768 86.6151 54.9603 86.6539 54.8097C86.6928 54.6544 86.7364 54.4966 86.785 54.3364L87.3094 52.6249H88.1688V57.9414H87.5279V56.0114C87.5279 55.7978 87.5351 55.555 87.5497 55.2831C87.5643 55.0112 87.5837 54.7345 87.608 54.4529C87.6323 54.1664 87.6565 53.8945 87.6808 53.6372C87.7099 53.375 87.7342 53.1468 87.7536 52.9526L86.8942 55.6109H86.2024L85.3357 52.9526C85.36 53.142 85.3843 53.3629 85.4085 53.6153C85.4328 53.863 85.4547 54.1276 85.4741 54.4092C85.4935 54.6859 85.5105 54.9627 85.5251 55.2394C85.5396 55.5162 85.5469 55.7735 85.5469 56.0114V57.9414H84.906ZM90.9043 54.9554C90.7247 54.9554 90.579 54.9068 90.4673 54.8097C90.3557 54.7078 90.2998 54.5743 90.2998 54.4092C90.2998 54.2441 90.3557 54.113 90.4673 54.0159C90.579 53.9139 90.7247 53.863 90.9043 53.863C91.0888 53.863 91.2345 53.9139 91.3413 54.0159C91.4529 54.113 91.5088 54.2441 91.5088 54.4092C91.5088 54.5743 91.4529 54.7078 91.3413 54.8097C91.2345 54.9068 91.0888 54.9554 90.9043 54.9554ZM90.9043 58.0142C90.7247 58.0142 90.579 57.9657 90.4673 57.8686C90.3557 57.7666 90.2998 57.6331 90.2998 57.468C90.2998 57.3029 90.3557 57.1718 90.4673 57.0747C90.579 56.9728 90.7247 56.9218 90.9043 56.9218C91.0888 56.9218 91.2345 56.9728 91.3413 57.0747C91.4529 57.1718 91.5088 57.3029 91.5088 57.468C91.5088 57.6331 91.4529 57.7666 91.3413 57.8686C91.2345 57.9657 91.0888 58.0142 90.9043 58.0142ZM36.3164 70.4512H43.5993V63.1683H36.3164V70.4512ZM49.8234 69.9414V65.2148H48.3668V64.6176H51.9355V65.2148H50.4789V69.9414H49.8234ZM54.5181 70.0142C54.2025 70.0142 53.9257 69.9511 53.6878 69.8249C53.4548 69.6986 53.2727 69.5214 53.1416 69.2932C53.0153 69.0602 52.9522 68.7907 52.9522 68.4848V67.3924C52.9522 67.0816 53.0153 66.8122 53.1416 66.584C53.2727 66.3558 53.4548 66.1786 53.6878 66.0523C53.9257 65.9261 54.2025 65.863 54.5181 65.863C54.8337 65.863 55.108 65.9261 55.341 66.0523C55.5789 66.1786 55.761 66.3558 55.8873 66.584C56.0183 66.8122 56.0839 67.0816 56.0839 67.3924V68.0988H53.5931V68.4848C53.5931 68.8004 53.6732 69.0432 53.8335 69.2131C53.9937 69.3782 54.2219 69.4607 54.5181 69.4607C54.7705 69.4607 54.9745 69.417 55.1298 69.3296C55.2852 69.2374 55.3799 69.1014 55.4139 68.9218H56.0693C56.0256 69.2568 55.8605 69.5239 55.5741 69.7229C55.2925 69.9171 54.9405 70.0142 54.5181 70.0142ZM55.443 67.6618V67.3924C55.443 67.0768 55.3629 66.834 55.2027 66.6641C55.0473 66.4941 54.8191 66.4092 54.5181 66.4092C54.2219 66.4092 53.9937 66.4941 53.8335 66.6641C53.6732 66.834 53.5931 67.0768 53.5931 67.3924V67.6036H55.494L55.443 67.6618ZM58.5354 70.0142C58.113 70.0142 57.7804 69.9074 57.5376 69.6938C57.2949 69.4753 57.1735 69.1816 57.1735 68.8126C57.1735 68.4387 57.2949 68.1449 57.5376 67.9313C57.7804 67.7177 58.1081 67.6109 58.5208 67.6109H59.7589V67.2103C59.7589 66.9627 59.6837 66.7733 59.5332 66.6422C59.3875 66.5063 59.1787 66.4383 58.9068 66.4383C58.6689 66.4383 58.4699 66.4893 58.3096 66.5913C58.1494 66.6884 58.0572 66.8219 58.0329 66.9918H57.3774C57.4211 66.6471 57.5838 66.3728 57.8654 66.1688C58.147 65.9649 58.499 65.863 58.9214 65.863C59.3826 65.863 59.7468 65.9819 60.0138 66.2198C60.2809 66.4577 60.4144 66.7806 60.4144 67.1885V69.9414H59.7735V69.1767H59.6643L59.7735 69.0675C59.7735 69.3588 59.6594 69.5894 59.4312 69.7593C59.2079 69.9293 58.9093 70.0142 58.5354 70.0142ZM58.6956 69.4971C59.0064 69.4971 59.2613 69.4195 59.4603 69.2641C59.6594 69.1087 59.7589 68.9097 59.7589 68.6669V68.0988H58.5354C58.3169 68.0988 58.1445 68.1595 58.0183 68.2809C57.8921 68.4023 57.829 68.5674 57.829 68.7761C57.829 68.9995 57.9042 69.1767 58.0547 69.3078C58.2101 69.434 58.4237 69.4971 58.6956 69.4971ZM61.5477 69.9414V65.9358H62.123V66.4165H62.2541L62.1522 66.5913C62.1522 66.3679 62.2104 66.1907 62.327 66.0596C62.4483 65.9285 62.611 65.863 62.8149 65.863C63.0383 65.863 63.2106 65.9455 63.332 66.1106C63.4534 66.2757 63.5141 66.5087 63.5141 66.8097L63.3174 66.4165H63.6233L63.485 66.5913C63.485 66.3679 63.5456 66.1907 63.667 66.0596C63.7933 65.9285 63.9583 65.863 64.1623 65.863C64.4147 65.863 64.609 65.9576 64.7449 66.147C64.8857 66.3364 64.9561 66.5864 64.9561 66.8971V69.9414H64.3516V66.8899C64.3516 66.7248 64.3152 66.5961 64.2424 66.5039C64.1744 66.4116 64.0724 66.3655 63.9365 66.3655C63.8054 66.3655 63.701 66.4116 63.6233 66.5039C63.5505 66.5913 63.5141 66.7175 63.5141 66.8826V69.9414H62.9897V66.8899C62.9897 66.7199 62.9509 66.5913 62.8732 66.5039C62.8004 66.4116 62.696 66.3655 62.56 66.3655C62.4241 66.3655 62.3221 66.4116 62.2541 66.5039C62.1862 66.5913 62.1522 66.7175 62.1522 66.8826V69.9414H61.5477ZM240.111 70.4512H247.394V63.1683H240.111V70.4512ZM252.554 69.9414L251.943 64.6249H252.569L252.969 68.5576C252.979 68.6645 252.989 68.7761 252.999 68.8927C253.008 69.0043 253.016 69.1112 253.02 69.2131C253.03 69.3151 253.035 69.4 253.035 69.468C253.045 69.4 253.052 69.3151 253.057 69.2131C253.067 69.1112 253.076 69.0043 253.086 68.8927C253.101 68.7761 253.115 68.6645 253.13 68.5576L253.625 64.6249H254.302L254.754 68.5576C254.768 68.6645 254.78 68.7761 254.79 68.8927C254.805 69.0043 254.817 69.1112 254.827 69.2131C254.841 69.3151 254.851 69.4 254.856 69.468C254.861 69.4 254.865 69.3151 254.87 69.2131C254.88 69.1112 254.89 69.0043 254.899 68.8927C254.914 68.7761 254.926 68.6645 254.936 68.5576L255.351 64.6249H255.948L255.322 69.9414H254.499L254.047 65.9358C254.038 65.8241 254.025 65.7149 254.011 65.6081C254.001 65.5012 253.992 65.4017 253.982 65.3095C253.972 65.2172 253.965 65.142 253.96 65.0837C253.955 65.142 253.945 65.2172 253.931 65.3095C253.921 65.4017 253.911 65.5012 253.902 65.6081C253.892 65.7149 253.88 65.8241 253.865 65.9358L253.377 69.9414H252.554ZM256.492 69.9414L257.875 64.6249H258.757L260.133 69.9414H259.47L259.121 68.5285H257.511L257.162 69.9414H256.492ZM257.642 67.975H258.982L258.574 66.3364C258.497 66.0256 258.436 65.7659 258.392 65.5571C258.349 65.3483 258.322 65.2124 258.312 65.1492C258.303 65.2124 258.276 65.3483 258.232 65.5571C258.188 65.7659 258.128 66.0232 258.05 66.3291L257.642 67.975ZM261.332 69.9414V64.6249H261.987V69.3442H264.391V69.9414H261.332ZM265.699 69.9414V64.6249H266.354V69.3442H268.758V69.9414H265.699ZM232.828 82.4512H240.111V75.1683H232.828V82.4512ZM235.042 94.0142C234.721 94.0142 234.442 93.9535 234.204 93.8322C233.971 93.7108 233.789 93.536 233.658 93.3078C233.532 93.0747 233.469 92.8004 233.469 92.4848V90.0814C233.469 89.761 233.532 89.4867 233.658 89.2585C233.789 89.0303 233.971 88.8555 234.204 88.7341C234.442 88.6127 234.721 88.552 235.042 88.552C235.362 88.552 235.639 88.6152 235.872 88.7414C236.105 88.8628 236.285 89.0376 236.411 89.2658C236.537 89.494 236.6 89.7659 236.6 90.0814H235.945C235.945 89.7804 235.865 89.5498 235.704 89.3896C235.549 89.2245 235.328 89.142 235.042 89.142C234.755 89.142 234.529 89.2221 234.364 89.3823C234.204 89.5425 234.124 89.7731 234.124 90.0742V92.4848C234.124 92.7858 234.204 93.0189 234.364 93.184C234.529 93.3442 234.755 93.4243 235.042 93.4243C235.328 93.4243 235.549 93.3442 235.704 93.184C235.865 93.0189 235.945 92.7858 235.945 92.4848H236.6C236.6 92.7956 236.537 93.0675 236.411 93.3005C236.285 93.5287 236.105 93.7059 235.872 93.8322C235.639 93.9535 235.362 94.0142 235.042 94.0142ZM237.865 93.9414V88.6249H239.511C239.826 88.6249 240.103 88.6904 240.341 88.8215C240.579 88.9477 240.763 89.125 240.894 89.3532C241.025 89.5814 241.091 89.8484 241.091 90.1543C241.091 90.5136 240.996 90.8219 240.807 91.0792C240.622 91.3365 240.37 91.5138 240.05 91.6109L241.164 93.9414H240.392L239.372 91.6837H238.52V93.9414H237.865ZM238.52 91.0938H239.511C239.782 91.0938 240.001 91.0088 240.166 90.8389C240.331 90.6641 240.414 90.4359 240.414 90.1543C240.414 89.8678 240.331 89.6396 240.166 89.4697C240.001 89.2997 239.782 89.2148 239.511 89.2148H238.52V91.0938ZM241.926 93.9414L243.309 88.6249H244.191L245.567 93.9414H244.904L244.555 92.5285H242.945L242.596 93.9414H241.926ZM243.076 91.975H244.416L244.009 90.3364C243.931 90.0256 243.87 89.7659 243.827 89.5571C243.783 89.3483 243.756 89.2124 243.746 89.1492C243.737 89.2124 243.71 89.3483 243.666 89.5571C243.623 89.7659 243.562 90.0232 243.484 90.3291L243.076 91.975ZM248.142 94.0142C247.793 94.0142 247.492 93.956 247.239 93.8394C246.992 93.7229 246.8 93.5554 246.664 93.3369C246.528 93.1184 246.458 92.8587 246.453 92.5576H247.108C247.108 92.8247 247.198 93.0359 247.378 93.1913C247.562 93.3466 247.817 93.4243 248.142 93.4243C248.448 93.4243 248.686 93.3491 248.856 93.1985C249.031 93.048 249.118 92.8393 249.118 92.5722C249.118 92.3586 249.06 92.1717 248.944 92.0114C248.832 91.8512 248.669 91.7395 248.456 91.6764L247.735 91.4506C247.37 91.339 247.089 91.152 246.89 90.8899C246.696 90.6277 246.598 90.3194 246.598 89.9649C246.598 89.6785 246.662 89.4308 246.788 89.2221C246.919 89.0084 247.101 88.8433 247.334 88.7268C247.567 88.6054 247.841 88.5447 248.157 88.5447C248.623 88.5447 248.997 88.6758 249.279 88.938C249.56 89.1954 249.703 89.5401 249.708 89.9722H249.053C249.053 89.71 248.973 89.5061 248.812 89.3604C248.657 89.2099 248.436 89.1347 248.15 89.1347C247.868 89.1347 247.647 89.2026 247.487 89.3386C247.332 89.4745 247.254 89.6639 247.254 89.9067C247.254 90.1251 247.312 90.3145 247.429 90.4747C247.545 90.635 247.713 90.7491 247.931 90.817L248.66 91.0501C249.014 91.1618 249.288 91.3511 249.483 91.6181C249.677 91.8852 249.774 92.1984 249.774 92.5576C249.774 92.849 249.706 93.1039 249.57 93.3224C249.434 93.5408 249.242 93.7108 248.995 93.8322C248.752 93.9535 248.468 94.0142 248.142 94.0142ZM250.973 93.9414V88.6249H251.628V90.8971H253.332V88.6249H253.988V93.9414H253.332V91.4943H251.628V93.9414H250.973ZM256.614 92.3756L256.461 89.4988V88.6249H257.233V89.4988L257.08 92.3756H256.614ZM256.738 93.9778C256.612 93.9778 256.507 93.9366 256.425 93.854C256.342 93.7715 256.301 93.6671 256.301 93.5408C256.301 93.4146 256.342 93.3102 256.425 93.2277C256.507 93.1451 256.612 93.1039 256.738 93.1039H256.956C257.097 93.1039 257.204 93.1451 257.277 93.2277C257.355 93.3054 257.393 93.4073 257.393 93.5336C257.393 93.6598 257.352 93.7666 257.27 93.854C257.187 93.9366 257.083 93.9778 256.956 93.9778H256.738Z" fill="#24272D"/>
<path d="M69.6552 67.975V66.5184H74.3163V67.975H69.6552ZM74.0221 67.975V66.5184H78.6832V67.975H74.0221ZM78.389 67.975V66.5184H83.0501V67.975H78.389ZM82.7559 67.975V66.5184H87.417V67.975H82.7559ZM87.1229 67.975V66.5184H91.7839V67.975H87.1229ZM91.4898 67.975V66.5184H96.1509V67.975H91.4898ZM95.8567 67.975V66.5184H100.518V67.975H95.8567ZM100.224 67.975V66.5184H104.885V67.975H100.224ZM104.591 67.975V66.5184H109.252V67.975H104.591ZM108.957 67.975V66.5184H113.619V67.975H108.957ZM113.324 67.975V66.5184H117.985V67.975H113.324ZM117.691 67.975V66.5184H122.352V67.975H117.691ZM122.058 67.975V66.5184H126.719V67.975H122.058ZM126.425 67.975V66.5184H131.086V67.975H126.425ZM130.792 67.975V66.5184H135.453V67.975H130.792ZM135.159 67.975V66.5184H139.82V67.975H135.159ZM139.526 67.975V66.5184H144.187V67.975H139.526ZM143.893 67.975V66.5184H148.554V67.975H143.893ZM148.26 67.975V66.5184H152.921V67.975H148.26ZM152.627 67.975V66.5184H157.288V67.975H152.627ZM156.994 67.975V66.5184H161.655V67.975H156.994ZM161.36 67.975V66.5184H166.022V67.975H161.36ZM165.727 67.975V66.5184H170.388V67.975H165.727ZM170.094 67.975V66.5184H174.755V67.975H170.094ZM174.461 67.975V66.5184H179.122V67.975H174.461ZM178.828 67.975V66.5184H183.489V67.975H178.828ZM183.195 67.975V66.5184H187.856V67.975H183.195ZM187.562 67.975V66.5184H192.223V67.975H187.562ZM191.929 67.975V66.5184H196.59V67.975H191.929ZM196.296 67.975V66.5184H200.957V67.975H196.296ZM200.663 67.975V66.5184H205.324V67.975H200.663ZM205.03 67.975V66.5184H209.691V67.975H205.03ZM209.397 67.975V66.5184H214.058V67.975H209.397ZM213.763 67.975V66.5184H218.425V67.975H213.763ZM218.13 67.975V66.5184H222.791V67.975H218.13ZM222.497 67.975V66.5184H227.158V67.975H222.497ZM226.864 67.975V66.5184H231.525V67.975H226.864ZM231.377 69.5773V65.0618L235.819 67.3195L231.377 69.5773Z" fill="#EF4444"/>
<path d="M37.5083 117.059V111.735H40.6399V112.332H38.1492V114.102H40.4506V114.699H38.1637V117.059H37.5083ZM42.0209 117.059V111.742H42.6763V116.461H45.0797V117.059H42.0209ZM46.2785 117.059V111.742H49.3374V112.339H46.9267V113.985H49.0825V114.575H46.9267V116.461H49.3374V117.059H46.2785ZM50.2085 117.059L51.7379 114.364L50.2886 111.742H51.046L51.869 113.315C51.9127 113.398 51.9564 113.488 52.0001 113.585C52.0486 113.677 52.0875 113.75 52.1166 113.803C52.1409 113.75 52.1749 113.677 52.2186 113.585C52.2671 113.488 52.3132 113.398 52.3569 113.315L53.1945 111.742H53.9155L52.4662 114.32L53.9956 117.059H53.2455L52.3351 115.369C52.2914 115.286 52.2453 115.199 52.1967 115.107C52.153 115.01 52.119 114.932 52.0948 114.874C52.0705 114.932 52.0341 115.007 51.9855 115.099C51.9418 115.192 51.8981 115.279 51.8544 115.362L50.9368 117.059H50.2085ZM55.0488 117.059V116.461H56.1339V112.339H55.0488V111.742H57.8891V112.339H56.804V116.461H57.8891V117.059H55.0488ZM59.3283 117.059V111.742H60.8359C61.3214 111.742 61.7001 111.863 61.972 112.106C62.2488 112.349 62.3871 112.686 62.3871 113.119C62.3871 113.361 62.3362 113.572 62.2342 113.752C62.1322 113.932 61.9866 114.07 61.7972 114.167C61.6127 114.264 61.3894 114.31 61.1272 114.306V114.196C61.4088 114.192 61.6516 114.245 61.8555 114.357C62.0643 114.468 62.2245 114.629 62.3362 114.837C62.4527 115.046 62.511 115.294 62.511 115.58C62.511 115.881 62.4478 116.143 62.3216 116.367C62.1954 116.59 62.0157 116.762 61.7827 116.884C61.5496 117 61.2704 117.059 60.9451 117.059H59.3283ZM59.9692 116.469H60.8723C61.1782 116.469 61.4185 116.389 61.5933 116.228C61.7729 116.063 61.8628 115.84 61.8628 115.558C61.8628 115.267 61.7729 115.032 61.5933 114.852C61.4185 114.667 61.1782 114.575 60.8723 114.575H59.9692V116.469ZM59.9692 114.007H60.8286C61.1102 114.007 61.3311 113.932 61.4913 113.781C61.6564 113.631 61.739 113.427 61.739 113.17C61.739 112.912 61.6588 112.708 61.4986 112.558C61.3384 112.407 61.1175 112.332 60.8359 112.332H59.9692V114.007ZM63.8554 117.059V111.742H64.5109V116.461H66.9143V117.059H63.8554ZM68.1131 117.059V111.742H71.172V112.339H68.7613V113.985H70.9171V114.575H68.7613V116.461H71.172V117.059H68.1131ZM76.7887 117.059V111.742H78.5002C78.8303 111.742 79.1168 111.808 79.3596 111.939C79.6023 112.065 79.7893 112.245 79.9204 112.478C80.0563 112.711 80.1243 112.987 80.1243 113.308C80.1243 113.623 80.0563 113.9 79.9204 114.138C79.7893 114.371 79.6023 114.553 79.3596 114.684C79.1168 114.811 78.8303 114.874 78.5002 114.874H77.4442V117.059H76.7887ZM77.4442 114.284H78.5002C78.7866 114.284 79.0148 114.196 79.1848 114.022C79.3596 113.842 79.447 113.604 79.447 113.308C79.447 113.007 79.3596 112.769 79.1848 112.594C79.0148 112.419 78.7866 112.332 78.5002 112.332H77.4442V114.284ZM81.3231 117.059V111.742H81.9786V116.461H84.382V117.059H81.3231ZM85.2166 117.059L86.6004 111.742H87.4816L88.8581 117.059H88.1954L87.8458 115.646H86.2363L85.8867 117.059H85.2166ZM86.3674 115.092H87.7074L87.2996 113.454C87.2219 113.143 87.1612 112.883 87.1175 112.674C87.0738 112.465 87.0471 112.33 87.0374 112.266C87.0277 112.33 87.001 112.465 86.9573 112.674C86.9136 112.883 86.8529 113.14 86.7752 113.446L86.3674 115.092ZM91.0766 117.059V112.332H89.62V111.735H93.1886V112.332H91.732V117.059H91.0766ZM94.2782 117.059V111.735H97.4099V112.332H94.9191V114.102H97.2205V114.699H94.9337V117.059H94.2782ZM100.138 117.131C99.8177 117.131 99.5409 117.071 99.3079 116.949C99.0797 116.828 98.9025 116.653 98.7762 116.425C98.6548 116.192 98.5942 115.918 98.5942 115.602V113.199C98.5942 112.878 98.6548 112.604 98.7762 112.376C98.9025 112.147 99.0797 111.973 99.3079 111.851C99.5409 111.73 99.8177 111.669 100.138 111.669C100.459 111.669 100.733 111.73 100.961 111.851C101.194 111.973 101.371 112.147 101.493 112.376C101.619 112.604 101.682 112.876 101.682 113.191V115.602C101.682 115.918 101.619 116.192 101.493 116.425C101.371 116.653 101.194 116.828 100.961 116.949C100.733 117.071 100.459 117.131 100.138 117.131ZM100.138 116.542C100.425 116.542 100.643 116.461 100.794 116.301C100.949 116.136 101.027 115.903 101.027 115.602V113.199C101.027 112.898 100.949 112.667 100.794 112.507C100.643 112.342 100.425 112.259 100.138 112.259C99.8565 112.259 99.638 112.342 99.4827 112.507C99.3273 112.667 99.2496 112.898 99.2496 113.199V115.602C99.2496 115.903 99.3273 116.136 99.4827 116.301C99.638 116.461 99.8565 116.542 100.138 116.542ZM102.99 117.059V111.742H104.636C104.952 111.742 105.228 111.808 105.466 111.939C105.704 112.065 105.889 112.242 106.02 112.47C106.151 112.699 106.217 112.966 106.217 113.271C106.217 113.631 106.122 113.939 105.933 114.196C105.748 114.454 105.496 114.631 105.175 114.728L106.289 117.059H105.517L104.498 114.801H103.646V117.059H102.99ZM103.646 114.211H104.636C104.908 114.211 105.127 114.126 105.292 113.956C105.457 113.781 105.539 113.553 105.539 113.271C105.539 112.985 105.457 112.757 105.292 112.587C105.127 112.417 104.908 112.332 104.636 112.332H103.646V114.211ZM107.241 117.059V111.742H108.1L108.653 113.461C108.707 113.616 108.755 113.772 108.799 113.927C108.843 114.077 108.874 114.194 108.894 114.277C108.918 114.194 108.95 114.077 108.988 113.927C109.027 113.772 109.071 113.614 109.12 113.454L109.644 111.742H110.503V117.059H109.862V115.129C109.862 114.915 109.87 114.672 109.884 114.4C109.899 114.128 109.918 113.852 109.943 113.57C109.967 113.284 109.991 113.012 110.015 112.754C110.045 112.492 110.069 112.264 110.088 112.07L109.229 114.728H108.537L107.67 112.07C107.695 112.259 107.719 112.48 107.743 112.733C107.767 112.98 107.789 113.245 107.809 113.526C107.828 113.803 107.845 114.08 107.86 114.357C107.874 114.633 107.881 114.891 107.881 115.129V117.059H107.241ZM113.239 114.073C113.059 114.073 112.914 114.024 112.802 113.927C112.69 113.825 112.634 113.691 112.634 113.526C112.634 113.361 112.69 113.23 112.802 113.133C112.914 113.031 113.059 112.98 113.239 112.98C113.423 112.98 113.569 113.031 113.676 113.133C113.788 113.23 113.843 113.361 113.843 113.526C113.843 113.691 113.788 113.825 113.676 113.927C113.569 114.024 113.423 114.073 113.239 114.073ZM113.239 117.131C113.059 117.131 112.914 117.083 112.802 116.986C112.69 116.884 112.634 116.75 112.634 116.585C112.634 116.42 112.69 116.289 112.802 116.192C112.914 116.09 113.059 116.039 113.239 116.039C113.423 116.039 113.569 116.09 113.676 116.192C113.788 116.289 113.843 116.42 113.843 116.585C113.843 116.75 113.788 116.884 113.676 116.986C113.569 117.083 113.423 117.131 113.239 117.131ZM36.8164 129.568H44.0993V122.285H36.8164V129.568ZM50.3234 129.059V124.332H48.8668V123.735H52.4355V124.332H50.9789V129.059H50.3234ZM55.0181 129.131C54.7025 129.131 54.4257 129.068 54.1878 128.942C53.9548 128.816 53.7727 128.639 53.6416 128.41C53.5153 128.177 53.4522 127.908 53.4522 127.602V126.51C53.4522 126.199 53.5153 125.929 53.6416 125.701C53.7727 125.473 53.9548 125.296 54.1878 125.17C54.4257 125.043 54.7025 124.98 55.0181 124.98C55.3337 124.98 55.608 125.043 55.841 125.17C56.0789 125.296 56.261 125.473 56.3873 125.701C56.5183 125.929 56.5839 126.199 56.5839 126.51V127.216H54.0931V127.602C54.0931 127.918 54.1732 128.16 54.3335 128.33C54.4937 128.495 54.7219 128.578 55.0181 128.578C55.2705 128.578 55.4745 128.534 55.6298 128.447C55.7852 128.355 55.8799 128.219 55.9139 128.039H56.5693C56.5256 128.374 56.3605 128.641 56.0741 128.84C55.7925 129.034 55.4405 129.131 55.0181 129.131ZM55.943 126.779V126.51C55.943 126.194 55.8629 125.951 55.7027 125.781C55.5473 125.611 55.3191 125.526 55.0181 125.526C54.7219 125.526 54.4937 125.611 54.3335 125.781C54.1732 125.951 54.0931 126.194 54.0931 126.51V126.721H55.994L55.943 126.779ZM59.0354 129.131C58.613 129.131 58.2804 129.025 58.0376 128.811C57.7949 128.592 57.6735 128.299 57.6735 127.93C57.6735 127.556 57.7949 127.262 58.0376 127.049C58.2804 126.835 58.6081 126.728 59.0208 126.728H60.2589V126.327C60.2589 126.08 60.1837 125.891 60.0332 125.759C59.8875 125.623 59.6787 125.556 59.4068 125.556C59.1689 125.556 58.9699 125.606 58.8096 125.708C58.6494 125.806 58.5572 125.939 58.5329 126.109H57.8774C57.9211 125.764 58.0838 125.49 58.3654 125.286C58.647 125.082 58.999 124.98 59.4214 124.98C59.8826 124.98 60.2468 125.099 60.5138 125.337C60.7809 125.575 60.9144 125.898 60.9144 126.306V129.059H60.2735V128.294H60.1643L60.2735 128.185C60.2735 128.476 60.1594 128.707 59.9312 128.877C59.7079 129.046 59.4093 129.131 59.0354 129.131ZM59.1956 128.614C59.5064 128.614 59.7613 128.537 59.9603 128.381C60.1594 128.226 60.2589 128.027 60.2589 127.784V127.216H59.0354C58.8169 127.216 58.6445 127.277 58.5183 127.398C58.3921 127.519 58.329 127.685 58.329 127.893C58.329 128.117 58.4042 128.294 58.5547 128.425C58.7101 128.551 58.9237 128.614 59.1956 128.614ZM62.0477 129.059V125.053H62.623V125.534H62.7541L62.6522 125.708C62.6522 125.485 62.7104 125.308 62.827 125.177C62.9483 125.046 63.111 124.98 63.3149 124.98C63.5383 124.98 63.7106 125.063 63.832 125.228C63.9534 125.393 64.0141 125.626 64.0141 125.927L63.8174 125.534H64.1233L63.985 125.708C63.985 125.485 64.0456 125.308 64.167 125.177C64.2933 125.046 64.4583 124.98 64.6623 124.98C64.9147 124.98 65.109 125.075 65.2449 125.264C65.3857 125.454 65.4561 125.704 65.4561 126.014V129.059H64.8516V126.007C64.8516 125.842 64.8152 125.713 64.7424 125.621C64.6744 125.529 64.5724 125.483 64.4365 125.483C64.3054 125.483 64.201 125.529 64.1233 125.621C64.0505 125.708 64.0141 125.835 64.0141 126V129.059H63.4897V126.007C63.4897 125.837 63.4509 125.708 63.3732 125.621C63.3004 125.529 63.196 125.483 63.06 125.483C62.9241 125.483 62.8221 125.529 62.7541 125.621C62.6862 125.708 62.6522 125.835 62.6522 126V129.059H62.0477ZM119.791 129.568H127.074V122.285H119.791V129.568ZM132.234 129.059L131.623 123.742H132.249L132.65 127.675C132.659 127.782 132.669 127.893 132.679 128.01C132.688 128.122 132.696 128.228 132.7 128.33C132.71 128.432 132.715 128.517 132.715 128.585C132.725 128.517 132.732 128.432 132.737 128.33C132.747 128.228 132.756 128.122 132.766 128.01C132.781 127.893 132.795 127.782 132.81 127.675L133.305 123.742H133.982L134.434 127.675C134.448 127.782 134.461 127.893 134.47 128.01C134.485 128.122 134.497 128.228 134.507 128.33C134.521 128.432 134.531 128.517 134.536 128.585C134.541 128.517 134.546 128.432 134.55 128.33C134.56 128.228 134.57 128.122 134.579 128.01C134.594 127.893 134.606 127.782 134.616 127.675L135.031 123.742H135.628L135.002 129.059H134.179L133.727 125.053C133.718 124.941 133.706 124.832 133.691 124.725C133.681 124.618 133.672 124.519 133.662 124.427C133.652 124.334 133.645 124.259 133.64 124.201C133.635 124.259 133.625 124.334 133.611 124.427C133.601 124.519 133.591 124.618 133.582 124.725C133.572 124.832 133.56 124.941 133.545 125.053L133.057 129.059H132.234ZM136.172 129.059L137.555 123.742H138.437L139.813 129.059H139.15L138.801 127.646H137.191L136.842 129.059H136.172ZM137.322 127.092H138.662L138.255 125.454C138.177 125.143 138.116 124.883 138.072 124.674C138.029 124.465 138.002 124.33 137.992 124.266C137.983 124.33 137.956 124.465 137.912 124.674C137.869 124.883 137.808 125.14 137.73 125.446L137.322 127.092ZM141.012 129.059V123.742H141.667V128.461H144.071V129.059H141.012ZM145.379 129.059V123.742H146.034V128.461H148.438V129.059H145.379ZM180.925 153.568H188.208V146.285H180.925V153.568ZM194.789 153.131C194.439 153.131 194.138 153.073 193.885 152.957C193.638 152.84 193.446 152.673 193.31 152.454C193.174 152.236 193.104 151.976 193.099 151.675H193.754C193.754 151.942 193.844 152.153 194.024 152.308C194.208 152.464 194.463 152.542 194.789 152.542C195.094 152.542 195.332 152.466 195.502 152.316C195.677 152.165 195.764 151.956 195.764 151.689C195.764 151.476 195.706 151.289 195.59 151.129C195.478 150.968 195.315 150.857 195.102 150.794L194.381 150.568C194.017 150.456 193.735 150.269 193.536 150.007C193.342 149.745 193.245 149.437 193.245 149.082C193.245 148.796 193.308 148.548 193.434 148.339C193.565 148.126 193.747 147.961 193.98 147.844C194.213 147.723 194.488 147.662 194.803 147.662C195.269 147.662 195.643 147.793 195.925 148.055C196.206 148.313 196.35 148.657 196.354 149.089H195.699C195.699 148.827 195.619 148.623 195.459 148.478C195.303 148.327 195.082 148.252 194.796 148.252C194.514 148.252 194.293 148.32 194.133 148.456C193.978 148.592 193.9 148.781 193.9 149.024C193.9 149.242 193.958 149.432 194.075 149.592C194.191 149.752 194.359 149.866 194.577 149.934L195.306 150.167C195.66 150.279 195.934 150.468 196.129 150.735C196.323 151.002 196.42 151.316 196.42 151.675C196.42 151.966 196.352 152.221 196.216 152.44C196.08 152.658 195.888 152.828 195.641 152.949C195.398 153.071 195.114 153.131 194.789 153.131ZM199.126 153.131C198.631 153.131 198.252 152.995 197.99 152.724C197.728 152.447 197.597 152.073 197.597 151.602V147.742H198.252V151.602C198.252 151.893 198.323 152.124 198.464 152.294C198.609 152.464 198.83 152.549 199.126 152.549C199.418 152.549 199.636 152.464 199.782 152.294C199.927 152.124 200 151.893 200 151.602V147.742H200.656V151.602C200.656 152.078 200.525 152.452 200.262 152.724C200.005 152.995 199.626 153.131 199.126 153.131ZM203.522 153.131C203.202 153.131 202.923 153.071 202.685 152.949C202.452 152.828 202.27 152.653 202.139 152.425C202.012 152.192 201.949 151.918 201.949 151.602V149.199C201.949 148.878 202.012 148.604 202.139 148.376C202.27 148.147 202.452 147.973 202.685 147.851C202.923 147.73 203.202 147.669 203.522 147.669C203.843 147.669 204.12 147.732 204.353 147.859C204.586 147.98 204.765 148.155 204.892 148.383C205.018 148.611 205.081 148.883 205.081 149.199H204.425C204.425 148.898 204.345 148.667 204.185 148.507C204.03 148.342 203.809 148.259 203.522 148.259C203.236 148.259 203.01 148.339 202.845 148.499C202.685 148.66 202.605 148.89 202.605 149.191V151.602C202.605 151.903 202.685 152.136 202.845 152.301C203.01 152.461 203.236 152.542 203.522 152.542C203.809 152.542 204.03 152.461 204.185 152.301C204.345 152.136 204.425 151.903 204.425 151.602H205.081C205.081 151.913 205.018 152.185 204.892 152.418C204.765 152.646 204.586 152.823 204.353 152.949C204.12 153.071 203.843 153.131 203.522 153.131ZM207.889 153.131C207.569 153.131 207.29 153.071 207.052 152.949C206.819 152.828 206.637 152.653 206.506 152.425C206.379 152.192 206.316 151.918 206.316 151.602V149.199C206.316 148.878 206.379 148.604 206.506 148.376C206.637 148.147 206.819 147.973 207.052 147.851C207.29 147.73 207.569 147.669 207.889 147.669C208.21 147.669 208.487 147.732 208.72 147.859C208.953 147.98 209.132 148.155 209.258 148.383C209.385 148.611 209.448 148.883 209.448 149.199H208.792C208.792 148.898 208.712 148.667 208.552 148.507C208.397 148.342 208.176 148.259 207.889 148.259C207.603 148.259 207.377 148.339 207.212 148.499C207.052 148.66 206.972 148.89 206.972 149.191V151.602C206.972 151.903 207.052 152.136 207.212 152.301C207.377 152.461 207.603 152.542 207.889 152.542C208.176 152.542 208.397 152.461 208.552 152.301C208.712 152.136 208.792 151.903 208.792 151.602H209.448C209.448 151.913 209.385 152.185 209.258 152.418C209.132 152.646 208.953 152.823 208.72 152.949C208.487 153.071 208.21 153.131 207.889 153.131ZM210.77 153.059V147.742H213.829V148.339H211.419V149.985H213.574V150.575H211.419V152.461H213.829V153.059H210.77ZM216.623 153.131C216.274 153.131 215.973 153.073 215.72 152.957C215.472 152.84 215.281 152.673 215.145 152.454C215.009 152.236 214.938 151.976 214.934 151.675H215.589C215.589 151.942 215.679 152.153 215.858 152.308C216.043 152.464 216.298 152.542 216.623 152.542C216.929 152.542 217.167 152.466 217.337 152.316C217.512 152.165 217.599 151.956 217.599 151.689C217.599 151.476 217.541 151.289 217.424 151.129C217.313 150.968 217.15 150.857 216.936 150.794L216.215 150.568C215.851 150.456 215.57 150.269 215.37 150.007C215.176 149.745 215.079 149.437 215.079 149.082C215.079 148.796 215.142 148.548 215.269 148.339C215.4 148.126 215.582 147.961 215.815 147.844C216.048 147.723 216.322 147.662 216.638 147.662C217.104 147.662 217.478 147.793 217.759 148.055C218.041 148.313 218.184 148.657 218.189 149.089H217.534C217.534 148.827 217.453 148.623 217.293 148.478C217.138 148.327 216.917 148.252 216.63 148.252C216.349 148.252 216.128 148.32 215.968 148.456C215.812 148.592 215.735 148.781 215.735 149.024C215.735 149.242 215.793 149.432 215.909 149.592C216.026 149.752 216.193 149.866 216.412 149.934L217.14 150.167C217.495 150.279 217.769 150.468 217.963 150.735C218.157 151.002 218.255 151.316 218.255 151.675C218.255 151.966 218.187 152.221 218.051 152.44C217.915 152.658 217.723 152.828 217.475 152.949C217.232 153.071 216.948 153.131 216.623 153.131ZM220.99 153.131C220.64 153.131 220.339 153.073 220.087 152.957C219.839 152.84 219.648 152.673 219.512 152.454C219.376 152.236 219.305 151.976 219.3 151.675H219.956C219.956 151.942 220.046 152.153 220.225 152.308C220.41 152.464 220.665 152.542 220.99 152.542C221.296 152.542 221.534 152.466 221.704 152.316C221.879 152.165 221.966 151.956 221.966 151.689C221.966 151.476 221.908 151.289 221.791 151.129C221.68 150.968 221.517 150.857 221.303 150.794L220.582 150.568C220.218 150.456 219.936 150.269 219.737 150.007C219.543 149.745 219.446 149.437 219.446 149.082C219.446 148.796 219.509 148.548 219.635 148.339C219.767 148.126 219.949 147.961 220.182 147.844C220.415 147.723 220.689 147.662 221.005 147.662C221.471 147.662 221.845 147.793 222.126 148.055C222.408 148.313 222.551 148.657 222.556 149.089H221.9C221.9 148.827 221.82 148.623 221.66 148.478C221.505 148.327 221.284 148.252 220.997 148.252C220.716 148.252 220.495 148.32 220.335 148.456C220.179 148.592 220.102 148.781 220.102 149.024C220.102 149.242 220.16 149.432 220.276 149.592C220.393 149.752 220.56 149.866 220.779 149.934L221.507 150.167C221.862 150.279 222.136 150.468 222.33 150.735C222.524 151.002 222.621 151.316 222.621 151.675C222.621 151.966 222.553 152.221 222.418 152.44C222.282 152.658 222.09 152.828 221.842 152.949C221.599 153.071 221.315 153.131 220.99 153.131Z" fill="#24272D"/>
<path d="M70.1552 127.092V125.636H74.8163V127.092H70.1552ZM74.5221 127.092V125.636H79.1832V127.092H74.5221ZM78.889 127.092V125.636H83.5501V127.092H78.889ZM83.2559 127.092V125.636H87.917V127.092H83.2559ZM87.6229 127.092V125.636H92.2839V127.092H87.6229ZM91.9898 127.092V125.636H96.6509V127.092H91.9898ZM96.3567 127.092V125.636H101.018V127.092H96.3567ZM100.724 127.092V125.636H105.385V127.092H100.724ZM105.091 127.092V125.636H109.752V127.092H105.091ZM112.878 131.243V128.476C112.878 128.122 112.807 127.813 112.666 127.551C112.526 127.289 112.327 127.087 112.069 126.947C111.817 126.801 111.516 126.728 111.166 126.728H110.911V126H111.166C111.661 126 112.091 126.102 112.455 126.306C112.819 126.51 113.101 126.798 113.3 127.172C113.504 127.541 113.606 127.976 113.606 128.476V131.243H112.878ZM112.875 143.243V133.63H113.603V143.243H112.875ZM112.875 150.728V145.63H113.603V150H115.569V150.728H112.875ZM115.275 150.728V150H119.936V150.728H115.275ZM119.642 150.728V150H124.303V150.728H119.642ZM124.009 150.728V150H128.67V150.728H124.009ZM128.376 150.728V150H133.037V150.728H128.376ZM132.743 150.728V150H137.404V150.728H132.743ZM137.11 150.728V150H141.771V150.728H137.11ZM141.477 150.728V150H146.138V150.728H141.477ZM145.844 150.728V150H150.505V150.728H145.844ZM150.211 150.728V150H154.872V150.728H150.211ZM154.578 150.728V150H159.239V150.728H154.578ZM158.944 150.728V150H163.606V150.728H158.944ZM163.311 150.728V150H167.972V150.728H163.311ZM167.678 150.728V150H172.339V150.728H167.678ZM172.191 152.694V148.179L176.633 150.437L172.191 152.694Z" fill="#16A34A"/>
</g>
<path d="M215.965 161.854C215.965 158.789 218.449 156.305 221.514 156.305H316.694C319.759 156.305 322.243 158.789 322.243 161.854V186.349C322.243 189.414 319.759 191.899 316.694 191.899H221.514C218.449 191.899 215.965 189.414 215.965 186.349V161.854Z" fill="#16A34A"/>
<path d="M239.018 178.218C238.543 178.218 238.094 178.179 237.671 178.102C237.248 178.015 236.859 177.894 236.506 177.739C236.152 177.575 235.832 177.376 235.547 177.143L235.962 176.185C236.247 176.401 236.544 176.587 236.855 176.742C237.166 176.889 237.498 177.001 237.852 177.079C238.206 177.148 238.595 177.182 239.018 177.182C239.777 177.182 240.334 177.044 240.688 176.768C241.051 176.492 241.232 176.129 241.232 175.68C241.232 175.43 241.176 175.218 241.064 175.046C240.951 174.873 240.77 174.726 240.52 174.605C240.269 174.485 239.941 174.385 239.536 174.308L238.163 174.023C237.352 173.85 236.743 173.565 236.337 173.168C235.94 172.771 235.742 172.24 235.742 171.575C235.742 171.031 235.884 170.557 236.169 170.151C236.462 169.737 236.859 169.417 237.36 169.193C237.869 168.968 238.457 168.856 239.121 168.856C239.536 168.856 239.928 168.899 240.3 168.986C240.671 169.063 241.016 169.188 241.335 169.361C241.655 169.525 241.935 169.728 242.177 169.97L241.776 170.889C241.396 170.544 240.99 170.293 240.559 170.138C240.127 169.974 239.643 169.892 239.108 169.892C238.668 169.892 238.284 169.961 237.956 170.099C237.636 170.237 237.386 170.432 237.205 170.682C237.032 170.924 236.946 171.208 236.946 171.536C236.946 171.934 237.067 172.244 237.308 172.469C237.55 172.693 237.956 172.866 238.526 172.987L239.885 173.259C240.748 173.44 241.387 173.721 241.802 174.1C242.225 174.472 242.436 174.972 242.436 175.602C242.436 176.12 242.298 176.578 242.022 176.975C241.746 177.363 241.348 177.67 240.83 177.894C240.321 178.11 239.717 178.218 239.018 178.218ZM246.129 178.218C245.619 178.218 245.192 178.123 244.847 177.933C244.51 177.743 244.26 177.463 244.096 177.092C243.932 176.72 243.85 176.254 243.85 175.693V171.795H245.028V175.693C245.028 176.047 245.076 176.341 245.17 176.574C245.265 176.807 245.412 176.979 245.611 177.092C245.818 177.204 246.077 177.26 246.388 177.26C246.733 177.26 247.035 177.182 247.294 177.027C247.553 176.871 247.756 176.651 247.903 176.366C248.049 176.082 248.123 175.749 248.123 175.369V171.795H249.301V178.102H248.149V176.677H248.317C248.144 177.178 247.864 177.562 247.475 177.83C247.096 178.089 246.647 178.218 246.129 178.218ZM253.929 178.218C253.291 178.218 252.738 178.084 252.272 177.817C251.806 177.54 251.448 177.156 251.197 176.664C250.947 176.164 250.822 175.577 250.822 174.903C250.822 174.238 250.947 173.664 251.197 173.181C251.448 172.698 251.806 172.326 252.272 172.067C252.738 171.808 253.291 171.679 253.929 171.679C254.327 171.679 254.715 171.748 255.095 171.886C255.483 172.024 255.803 172.218 256.053 172.469L255.665 173.298C255.414 173.073 255.142 172.905 254.849 172.793C254.555 172.68 254.275 172.624 254.007 172.624C253.377 172.624 252.889 172.823 252.544 173.22C252.199 173.617 252.026 174.182 252.026 174.916C252.026 175.65 252.199 176.228 252.544 176.651C252.889 177.066 253.377 177.273 254.007 177.273C254.275 177.273 254.555 177.217 254.849 177.104C255.142 176.992 255.414 176.82 255.665 176.587L256.053 177.428C255.803 177.679 255.479 177.873 255.082 178.011C254.693 178.149 254.309 178.218 253.929 178.218ZM259.822 178.218C259.183 178.218 258.631 178.084 258.165 177.817C257.699 177.54 257.34 177.156 257.09 176.664C256.84 176.164 256.715 175.577 256.715 174.903C256.715 174.238 256.84 173.664 257.09 173.181C257.34 172.698 257.699 172.326 258.165 172.067C258.631 171.808 259.183 171.679 259.822 171.679C260.219 171.679 260.608 171.748 260.988 171.886C261.376 172.024 261.696 172.218 261.946 172.469L261.557 173.298C261.307 173.073 261.035 172.905 260.742 172.793C260.448 172.68 260.168 172.624 259.9 172.624C259.27 172.624 258.782 172.823 258.437 173.22C258.091 173.617 257.919 174.182 257.919 174.916C257.919 175.65 258.091 176.228 258.437 176.651C258.782 177.066 259.27 177.273 259.9 177.273C260.168 177.273 260.448 177.217 260.742 177.104C261.035 176.992 261.307 176.82 261.557 176.587L261.946 177.428C261.696 177.679 261.372 177.873 260.975 178.011C260.586 178.149 260.202 178.218 259.822 178.218ZM265.896 178.218C265.214 178.218 264.627 178.089 264.135 177.83C263.652 177.562 263.276 177.187 263.009 176.703C262.741 176.211 262.607 175.633 262.607 174.968C262.607 174.312 262.737 173.738 262.996 173.246C263.263 172.754 263.626 172.37 264.083 172.093C264.55 171.817 265.08 171.679 265.676 171.679C266.255 171.679 266.747 171.804 267.152 172.054C267.567 172.305 267.882 172.663 268.098 173.129C268.322 173.587 268.434 174.139 268.434 174.787V175.214H263.527V174.463H267.657L267.437 174.644C267.437 173.971 267.29 173.453 266.997 173.09C266.703 172.719 266.272 172.534 265.702 172.534C265.288 172.534 264.934 172.633 264.64 172.831C264.347 173.021 264.122 173.293 263.967 173.647C263.812 173.992 263.734 174.394 263.734 174.851V174.929C263.734 175.447 263.816 175.883 263.98 176.237C264.152 176.582 264.399 176.846 264.718 177.027C265.037 177.199 265.43 177.286 265.896 177.286C266.267 177.286 266.626 177.23 266.971 177.117C267.325 176.997 267.657 176.811 267.968 176.561L268.331 177.376C268.046 177.635 267.679 177.843 267.23 177.998C266.79 178.145 266.345 178.218 265.896 178.218ZM272.075 178.218C271.747 178.218 271.423 178.188 271.104 178.127C270.793 178.067 270.504 177.981 270.236 177.868C269.977 177.748 269.749 177.605 269.55 177.441L269.9 176.625C270.107 176.781 270.331 176.915 270.573 177.027C270.815 177.13 271.065 177.208 271.324 177.26C271.583 177.312 271.842 177.338 272.101 177.338C272.576 177.338 272.934 177.251 273.176 177.079C273.418 176.906 273.538 176.677 273.538 176.392C273.538 176.151 273.456 175.965 273.292 175.836C273.137 175.697 272.891 175.594 272.554 175.525L271.35 175.279C270.815 175.158 270.409 174.959 270.133 174.683C269.865 174.398 269.731 174.036 269.731 173.595C269.731 173.207 269.835 172.87 270.042 172.585C270.258 172.292 270.556 172.067 270.936 171.912C271.316 171.757 271.751 171.679 272.244 171.679C272.537 171.679 272.822 171.709 273.098 171.77C273.374 171.83 273.633 171.916 273.875 172.029C274.117 172.141 274.32 172.288 274.484 172.469L274.121 173.272C273.957 173.116 273.772 172.987 273.564 172.883C273.357 172.78 273.141 172.702 272.917 172.65C272.692 172.59 272.468 172.559 272.244 172.559C271.777 172.559 271.423 172.65 271.182 172.831C270.949 173.013 270.832 173.25 270.832 173.544C270.832 173.768 270.901 173.954 271.039 174.1C271.186 174.247 271.415 174.355 271.726 174.424L272.93 174.67C273.491 174.791 273.914 174.985 274.199 175.253C274.484 175.512 274.626 175.866 274.626 176.315C274.626 176.712 274.518 177.053 274.302 177.338C274.095 177.622 273.797 177.843 273.409 177.998C273.029 178.145 272.585 178.218 272.075 178.218ZM278.335 178.218C278.007 178.218 277.683 178.188 277.364 178.127C277.053 178.067 276.764 177.981 276.496 177.868C276.237 177.748 276.008 177.605 275.81 177.441L276.159 176.625C276.366 176.781 276.591 176.915 276.833 177.027C277.074 177.13 277.325 177.208 277.584 177.26C277.843 177.312 278.102 177.338 278.361 177.338C278.835 177.338 279.194 177.251 279.435 177.079C279.677 176.906 279.798 176.677 279.798 176.392C279.798 176.151 279.716 175.965 279.552 175.836C279.396 175.697 279.15 175.594 278.814 175.525L277.61 175.279C277.074 175.158 276.669 174.959 276.392 174.683C276.125 174.398 275.991 174.036 275.991 173.595C275.991 173.207 276.095 172.87 276.302 172.585C276.518 172.292 276.815 172.067 277.195 171.912C277.575 171.757 278.011 171.679 278.503 171.679C278.797 171.679 279.081 171.709 279.358 171.77C279.634 171.83 279.893 171.916 280.135 172.029C280.376 172.141 280.579 172.288 280.743 172.469L280.381 173.272C280.217 173.116 280.031 172.987 279.824 172.883C279.617 172.78 279.401 172.702 279.176 172.65C278.952 172.59 278.727 172.559 278.503 172.559C278.037 172.559 277.683 172.65 277.441 172.831C277.208 173.013 277.092 173.25 277.092 173.544C277.092 173.768 277.161 173.954 277.299 174.1C277.446 174.247 277.674 174.355 277.985 174.424L279.189 174.67C279.75 174.791 280.173 174.985 280.458 175.253C280.743 175.512 280.886 175.866 280.886 176.315C280.886 176.712 280.778 177.053 280.562 177.338C280.355 177.622 280.057 177.843 279.668 177.998C279.289 178.145 278.844 178.218 278.335 178.218Z" fill="#FAFAFA"/>
<path d="M300.906 170.542L294.38 177.068L291.414 174.102" stroke="#FAFAFA" stroke-width="1.1835" stroke-linecap="round" stroke-linejoin="round"/>
<defs>
<filter id="filter0_dd_4485_47584" x="3.42677" y="23.0736" width="299.779" height="159.779" filterUnits="userSpaceOnUse" color-interpolation-filters="sRGB">
<feFlood flood-opacity="0" result="BackgroundImageFix"/>
<feColorMatrix in="SourceAlpha" type="matrix" values="0 0 0 0 0 0 0 0 0 0 0 0 0 0 0 0 0 0 127 0" result="hardAlpha"/>
<feOffset dy="0.463211"/>
<feGaussianBlur stdDeviation="0.463211"/>
<feColorMatrix type="matrix" values="0 0 0 0 0 0 0 0 0 0 0 0 0 0 0 0 0 0 0.06 0"/>
<feBlend mode="normal" in2="BackgroundImageFix" result="effect1_dropShadow_4485_47584"/>
<feColorMatrix in="SourceAlpha" type="matrix" values="0 0 0 0 0 0 0 0 0 0 0 0 0 0 0 0 0 0 127 0" result="hardAlpha"/>
<feOffset dy="0.463211"/>
<feGaussianBlur stdDeviation="0.694816"/>
<feColorMatrix type="matrix" values="0 0 0 0 0 0 0 0 0 0 0 0 0 0 0 0 0 0 0.1 0"/>
<feBlend mode="normal" in2="effect1_dropShadow_4485_47584" result="effect2_dropShadow_4485_47584"/>
<feBlend mode="normal" in="SourceGraphic" in2="effect2_dropShadow_4485_47584" result="shape"/>
</filter>
</defs>
</svg>
