<svg width="329" height="211" viewBox="0 0 329 211" fill="none" xmlns="http://www.w3.org/2000/svg">
<g filter="url(#filter0_dd_4485_47584)">
<rect x="5" y="24" width="293" height="155" rx="4" fill="white"/>
<rect x="5.23161" y="24.2316" width="292.537" height="154.537" rx="3.76839" stroke="#F4F4F5" stroke-width="0.463211"/>
<path d="M35.17 56.9414V51.6249H36.816C37.1316 51.6249 37.4083 51.6904 37.6462 51.8215C37.8841 51.9477 38.0686 52.125 38.1997 52.3532C38.3308 52.5814 38.3964 52.8484 38.3964 53.1543C38.3964 53.5136 38.3017 53.8219 38.1123 54.0792C37.9278 54.3365 37.6754 54.5138 37.3549 54.6109L38.4692 56.9414H37.6972L36.6776 54.6837H35.8255V56.9414H35.17ZM35.8255 54.0938H36.816C37.0879 54.0938 37.3064 54.0088 37.4714 53.8389C37.6365 53.6641 37.7191 53.4359 37.7191 53.1543C37.7191 52.8678 37.6365 52.6396 37.4714 52.4697C37.3064 52.2997 37.0879 52.2148 36.816 52.2148H35.8255V54.0938ZM39.6316 56.9414V56.3442H40.7168V52.2221H39.6316V51.6249H42.472V52.2221H41.3868V56.3442H42.472V56.9414H39.6316ZM45.4478 57.0142C45.1274 57.0142 44.8482 56.9535 44.6103 56.8322C44.3773 56.7108 44.1952 56.536 44.0641 56.3078C43.9379 56.0747 43.8747 55.8004 43.8747 55.4848V53.0814C43.8747 52.761 43.9379 52.4867 44.0641 52.2585C44.1952 52.0303 44.3773 51.8555 44.6103 51.7341C44.8482 51.6127 45.1274 51.552 45.4478 51.552C45.7683 51.552 46.045 51.6152 46.2781 51.7414C46.5112 51.8628 46.6908 52.0376 46.817 52.2658C46.9433 52.494 47.0064 52.7659 47.0064 53.0814H46.3509C46.3509 52.7804 46.2708 52.5498 46.1106 52.3896C45.9552 52.2245 45.7343 52.142 45.4478 52.142C45.1614 52.142 44.9356 52.2221 44.7705 52.3823C44.6103 52.5425 44.5302 52.7731 44.5302 53.0742V55.4848C44.5302 55.7858 44.6103 56.0189 44.7705 56.184C44.9356 56.3491 45.1614 56.4316 45.4478 56.4316C45.7343 56.4316 45.9552 56.3491 46.1106 56.184C46.2708 56.0189 46.3509 55.7858 46.3509 55.4848V54.8294H45.2731V54.2322H47.0064V55.4848C47.0064 55.7956 46.9433 56.0675 46.817 56.3005C46.6908 56.5287 46.5112 56.7059 46.2781 56.8322C46.045 56.9535 45.7683 57.0142 45.4478 57.0142ZM48.3655 56.9414V56.3442H49.4506V52.2221H48.3655V51.6249H51.2058V52.2221H50.1206V56.3442H51.2058V56.9414H48.3655ZM52.6377 56.9414V51.6249H54.0142C54.3589 51.6249 54.6551 51.6904 54.9027 51.8215C55.1552 51.9526 55.3494 52.1371 55.4853 52.375C55.6261 52.6129 55.6965 52.8945 55.6965 53.2198V55.3392C55.6965 55.6645 55.6261 55.9485 55.4853 56.1913C55.3494 56.4292 55.1552 56.6137 54.9027 56.7448C54.6551 56.8759 54.3589 56.9414 54.0142 56.9414H52.6377ZM53.2932 56.3588H54.0142C54.3346 56.3588 54.5847 56.2689 54.7643 56.0893C54.9488 55.9097 55.0411 55.6596 55.0411 55.3392V53.2198C55.0411 52.9042 54.9488 52.6566 54.7643 52.477C54.5847 52.2973 54.3346 52.2075 54.0142 52.2075H53.2932V56.3588ZM62.9155 57.0142C62.5659 57.0142 62.2649 56.956 62.0124 56.8394C61.7648 56.7229 61.573 56.5554 61.4371 56.3369C61.3011 56.1184 61.2307 55.8587 61.2259 55.5576H61.8813C61.8813 55.8247 61.9712 56.0359 62.1508 56.1913C62.3353 56.3466 62.5902 56.4243 62.9155 56.4243C63.2214 56.4243 63.4593 56.3491 63.6292 56.1985C63.804 56.048 63.8914 55.8393 63.8914 55.5722C63.8914 55.3586 63.8332 55.1717 63.7166 55.0114C63.605 54.8512 63.4423 54.7395 63.2287 54.6764L62.5077 54.4506C62.1435 54.339 61.8619 54.152 61.6629 53.8899C61.4686 53.6277 61.3715 53.3194 61.3715 52.9649C61.3715 52.6785 61.4347 52.4308 61.5609 52.2221C61.692 52.0084 61.8741 51.8433 62.1071 51.7268C62.3402 51.6054 62.6145 51.5447 62.9301 51.5447C63.3962 51.5447 63.7701 51.6758 64.0517 51.938C64.3333 52.1954 64.4765 52.5401 64.4814 52.9722H63.8259C63.8259 52.71 63.7458 52.5061 63.5855 52.3604C63.4302 52.2099 63.2093 52.1347 62.9228 52.1347C62.6412 52.1347 62.4203 52.2026 62.2601 52.3386C62.1047 52.4745 62.027 52.6639 62.027 52.9067C62.027 53.1251 62.0853 53.3145 62.2018 53.4747C62.3183 53.635 62.4858 53.7491 62.7043 53.817L63.4326 54.0501C63.787 54.1618 64.0614 54.3511 64.2556 54.6181C64.4498 54.8852 64.5469 55.1984 64.5469 55.5576C64.5469 55.849 64.4789 56.1039 64.343 56.3224C64.207 56.5408 64.0152 56.7108 63.7676 56.8322C63.5249 56.9535 63.2408 57.0142 62.9155 57.0142ZM66.9256 56.9414V54.9532L65.3233 51.6249H66.0006L67.0567 53.8097C67.1149 53.9311 67.1611 54.0355 67.195 54.1229C67.229 54.2054 67.2509 54.2661 67.2606 54.305C67.2703 54.2661 67.2921 54.2054 67.3261 54.1229C67.365 54.0355 67.4135 53.9311 67.4718 53.8097L68.506 51.6249H69.1833L67.581 54.9532V56.9414H66.9256ZM71.6494 57.0142C71.2998 57.0142 70.9987 56.956 70.7463 56.8394C70.4986 56.7229 70.3069 56.5554 70.1709 56.3369C70.035 56.1184 69.9646 55.8587 69.9597 55.5576H70.6152C70.6152 55.8247 70.705 56.0359 70.8846 56.1913C71.0691 56.3466 71.324 56.4243 71.6494 56.4243C71.9552 56.4243 72.1931 56.3491 72.3631 56.1985C72.5379 56.048 72.6253 55.8393 72.6253 55.5722C72.6253 55.3586 72.567 55.1717 72.4505 55.0114C72.3388 54.8512 72.1762 54.7395 71.9625 54.6764L71.2415 54.4506C70.8774 54.339 70.5958 54.152 70.3967 53.8899C70.2025 53.6277 70.1054 53.3194 70.1054 52.9649C70.1054 52.6785 70.1685 52.4308 70.2947 52.2221C70.4258 52.0084 70.6079 51.8433 70.8409 51.7268C71.074 51.6054 71.3483 51.5447 71.6639 51.5447C72.13 51.5447 72.5039 51.6758 72.7855 51.938C73.0671 52.1954 73.2103 52.5401 73.2152 52.9722H72.5597C72.5597 52.71 72.4796 52.5061 72.3194 52.3604C72.164 52.2099 71.9431 52.1347 71.6566 52.1347C71.375 52.1347 71.1541 52.2026 70.9939 52.3386C70.8385 52.4745 70.7608 52.6639 70.7608 52.9067C70.7608 53.1251 70.8191 53.3145 70.9356 53.4747C71.0522 53.635 71.2197 53.7491 71.4381 53.817L72.1664 54.0501C72.5209 54.1618 72.7952 54.3511 72.9894 54.6181C73.1836 54.8852 73.2807 55.1984 73.2807 55.5576C73.2807 55.849 73.2128 56.1039 73.0768 56.3224C72.9409 56.5408 72.7491 56.7108 72.5015 56.8322C72.2587 56.9535 71.9747 57.0142 71.6494 57.0142ZM75.6594 56.9414V52.2148H74.2028V51.6176H77.7715V52.2148H76.3149V56.9414H75.6594ZM78.8975 56.9414V51.6249H81.9563V52.2221H79.5456V53.868H81.7014V54.4579H79.5456V56.3442H81.9563V56.9414H78.8975ZM83.0896 56.9414V51.6249H83.949L84.5025 53.3436C84.5559 53.499 84.6044 53.6544 84.6481 53.8097C84.6918 53.9603 84.7234 54.0768 84.7428 54.1593C84.7671 54.0768 84.7987 53.9603 84.8375 53.8097C84.8763 53.6544 84.92 53.4966 84.9686 53.3364L85.493 51.6249H86.3524V56.9414H85.7115V55.0114C85.7115 54.7978 85.7187 54.555 85.7333 54.2831C85.7479 54.0112 85.7673 53.7345 85.7916 53.4529C85.8158 53.1664 85.8401 52.8945 85.8644 52.6372C85.8935 52.375 85.9178 52.1468 85.9372 51.9526L85.0778 54.6109H84.386L83.5193 51.9526C83.5436 52.142 83.5678 52.3629 83.5921 52.6153C83.6164 52.863 83.6382 53.1276 83.6577 53.4092C83.6771 53.6859 83.6941 53.9627 83.7086 54.2394C83.7232 54.5162 83.7305 54.7735 83.7305 55.0114V56.9414H83.0896ZM89.0879 53.9554C88.9082 53.9554 88.7626 53.9068 88.6509 53.8097C88.5392 53.7078 88.4834 53.5743 88.4834 53.4092C88.4834 53.2441 88.5392 53.113 88.6509 53.0159C88.7626 52.9139 88.9082 52.863 89.0879 52.863C89.2724 52.863 89.4181 52.9139 89.5249 53.0159C89.6365 53.113 89.6924 53.2441 89.6924 53.4092C89.6924 53.5743 89.6365 53.7078 89.5249 53.8097C89.4181 53.9068 89.2724 53.9554 89.0879 53.9554ZM89.0879 57.0142C88.9082 57.0142 88.7626 56.9657 88.6509 56.8686C88.5392 56.7666 88.4834 56.6331 88.4834 56.468C88.4834 56.3029 88.5392 56.1718 88.6509 56.0747C88.7626 55.9728 88.9082 55.9218 89.0879 55.9218C89.2724 55.9218 89.4181 55.9728 89.5249 56.0747C89.6365 56.1718 89.6924 56.3029 89.6924 56.468C89.6924 56.6331 89.6365 56.7666 89.5249 56.8686C89.4181 56.9657 89.2724 57.0142 89.0879 57.0142ZM34.5 69.4512H41.7829V62.1683H34.5V69.4512ZM48.007 68.9414V64.2148H46.5504V63.6176H50.1191V64.2148H48.6625V68.9414H48.007ZM52.7017 69.0142C52.3861 69.0142 52.1093 68.9511 51.8714 68.8249C51.6383 68.6986 51.4563 68.5214 51.3252 68.2932C51.1989 68.0602 51.1358 67.7907 51.1358 67.4848V66.3924C51.1358 66.0816 51.1989 65.8122 51.3252 65.584C51.4563 65.3558 51.6383 65.1786 51.8714 65.0523C52.1093 64.9261 52.3861 64.863 52.7017 64.863C53.0172 64.863 53.2916 64.9261 53.5246 65.0523C53.7625 65.1786 53.9446 65.3558 54.0708 65.584C54.2019 65.8122 54.2675 66.0816 54.2675 66.3924V67.0988H51.7767V67.4848C51.7767 67.8004 51.8568 68.0432 52.0171 68.2131C52.1773 68.3782 52.4055 68.4607 52.7017 68.4607C52.9541 68.4607 53.1581 68.417 53.3134 68.3296C53.4688 68.2374 53.5635 68.1014 53.5975 67.9218H54.2529C54.2092 68.2568 54.0441 68.5239 53.7577 68.7229C53.4761 68.9171 53.1241 69.0142 52.7017 69.0142ZM53.6266 66.6618V66.3924C53.6266 66.0768 53.5465 65.834 53.3863 65.6641C53.2309 65.4941 53.0027 65.4092 52.7017 65.4092C52.4055 65.4092 52.1773 65.4941 52.0171 65.6641C51.8568 65.834 51.7767 66.0768 51.7767 66.3924V66.6036H53.6776L53.6266 66.6618ZM56.719 69.0142C56.2966 69.0142 55.964 68.9074 55.7212 68.6938C55.4785 68.4753 55.3571 68.1816 55.3571 67.8126C55.3571 67.4387 55.4785 67.1449 55.7212 66.9313C55.964 66.7177 56.2917 66.6109 56.7044 66.6109H57.9425V66.2103C57.9425 65.9627 57.8673 65.7733 57.7168 65.6422C57.5711 65.5063 57.3623 65.4383 57.0904 65.4383C56.8525 65.4383 56.6534 65.4893 56.4932 65.5913C56.333 65.6884 56.2407 65.8219 56.2165 65.9918H55.561C55.6047 65.6471 55.7674 65.3728 56.049 65.1688C56.3306 64.9649 56.6826 64.863 57.105 64.863C57.5662 64.863 57.9304 64.9819 58.1974 65.2198C58.4645 65.4577 58.598 65.7806 58.598 66.1885V68.9414H57.9571V68.1767H57.8478L57.9571 68.0675C57.9571 68.3588 57.843 68.5894 57.6148 68.7593C57.3914 68.9293 57.0928 69.0142 56.719 69.0142ZM56.8792 68.4971C57.19 68.4971 57.4449 68.4195 57.6439 68.2641C57.843 68.1087 57.9425 67.9097 57.9425 67.6669V67.0988H56.719C56.5005 67.0988 56.3281 67.1595 56.2019 67.2809C56.0757 67.4023 56.0125 67.5674 56.0125 67.7761C56.0125 67.9995 56.0878 68.1767 56.2383 68.3078C56.3937 68.434 56.6073 68.4971 56.8792 68.4971ZM59.7313 68.9414V64.9358H60.3066V65.4165H60.4377L60.3358 65.5913C60.3358 65.3679 60.394 65.1907 60.5106 65.0596C60.6319 64.9285 60.7946 64.863 60.9985 64.863C61.2219 64.863 61.3942 64.9455 61.5156 65.1106C61.637 65.2757 61.6977 65.5087 61.6977 65.8097L61.501 65.4165H61.8069L61.6685 65.5913C61.6685 65.3679 61.7292 65.1907 61.8506 65.0596C61.9769 64.9285 62.1419 64.863 62.3459 64.863C62.5983 64.863 62.7925 64.9576 62.9285 65.147C63.0693 65.3364 63.1397 65.5864 63.1397 65.8971V68.9414H62.5352V65.8899C62.5352 65.7248 62.4988 65.5961 62.426 65.5039C62.358 65.4116 62.256 65.3655 62.1201 65.3655C61.989 65.3655 61.8846 65.4116 61.8069 65.5039C61.7341 65.5913 61.6977 65.7175 61.6977 65.8826V68.9414H61.1733V65.8899C61.1733 65.7199 61.1345 65.5913 61.0568 65.5039C60.9839 65.4116 60.8796 65.3655 60.7436 65.3655C60.6077 65.3655 60.5057 65.4116 60.4377 65.5039C60.3698 65.5913 60.3358 65.7175 60.3358 65.8826V68.9414H59.7313ZM238.294 69.4512H245.577V62.1683H238.294V69.4512ZM250.738 68.9414L250.126 63.6249H250.752L251.153 67.5576C251.163 67.6645 251.172 67.7761 251.182 67.8927C251.192 68.0043 251.199 68.1112 251.204 68.2131C251.214 68.3151 251.219 68.4 251.219 68.468C251.228 68.4 251.236 68.3151 251.24 68.2131C251.25 68.1112 251.26 68.0043 251.27 67.8927C251.284 67.7761 251.299 67.6645 251.313 67.5576L251.809 63.6249H252.486L252.937 67.5576C252.952 67.6645 252.964 67.7761 252.974 67.8927C252.988 68.0043 253 68.1112 253.01 68.2131C253.025 68.3151 253.034 68.4 253.039 68.468C253.044 68.4 253.049 68.3151 253.054 68.2131C253.064 68.1112 253.073 68.0043 253.083 67.8927C253.098 67.7761 253.11 67.6645 253.119 67.5576L253.535 63.6249H254.132L253.505 68.9414H252.682L252.231 64.9358C252.221 64.8241 252.209 64.7149 252.195 64.6081C252.185 64.5012 252.175 64.4017 252.165 64.3095C252.156 64.2172 252.148 64.142 252.144 64.0837C252.139 64.142 252.129 64.2172 252.114 64.3095C252.105 64.4017 252.095 64.5012 252.085 64.6081C252.076 64.7149 252.063 64.8241 252.049 64.9358L251.561 68.9414H250.738ZM254.675 68.9414L256.059 63.6249H256.94L258.317 68.9414H257.654L257.304 67.5285H255.695L255.345 68.9414H254.675ZM255.826 66.975H257.166L256.758 65.3364C256.68 65.0256 256.62 64.7659 256.576 64.5571C256.532 64.3483 256.506 64.2124 256.496 64.1492C256.486 64.2124 256.459 64.3483 256.416 64.5571C256.372 64.7659 256.311 65.0232 256.234 65.3291L255.826 66.975ZM259.515 68.9414V63.6249H260.171V68.3442H262.574V68.9414H259.515ZM263.882 68.9414V63.6249H264.538V68.3442H266.941V68.9414H263.882ZM231.011 81.4512H238.294V74.1683H231.011V81.4512ZM233.225 93.0142C232.905 93.0142 232.626 92.9535 232.388 92.8322C232.155 92.7108 231.973 92.536 231.842 92.3078C231.715 92.0747 231.652 91.8004 231.652 91.4848V89.0814C231.652 88.761 231.715 88.4867 231.842 88.2585C231.973 88.0303 232.155 87.8555 232.388 87.7341C232.626 87.6127 232.905 87.552 233.225 87.552C233.546 87.552 233.823 87.6152 234.056 87.7414C234.289 87.8628 234.468 88.0376 234.594 88.2658C234.721 88.494 234.784 88.7659 234.784 89.0814H234.128C234.128 88.7804 234.048 88.5498 233.888 88.3896C233.733 88.2245 233.512 88.142 233.225 88.142C232.939 88.142 232.713 88.2221 232.548 88.3823C232.388 88.5425 232.308 88.7731 232.308 89.0742V91.4848C232.308 91.7858 232.388 92.0189 232.548 92.184C232.713 92.3442 232.939 92.4243 233.225 92.4243C233.512 92.4243 233.733 92.3442 233.888 92.184C234.048 92.0189 234.128 91.7858 234.128 91.4848H234.784C234.784 91.7956 234.721 92.0675 234.594 92.3005C234.468 92.5287 234.289 92.7059 234.056 92.8322C233.823 92.9535 233.546 93.0142 233.225 93.0142ZM236.048 92.9414V87.6249H237.694C238.01 87.6249 238.287 87.6904 238.524 87.8215C238.762 87.9477 238.947 88.125 239.078 88.3532C239.209 88.5814 239.275 88.8484 239.275 89.1543C239.275 89.5136 239.18 89.8219 238.991 90.0792C238.806 90.3365 238.554 90.5138 238.233 90.6109L239.347 92.9414H238.575L237.556 90.6837H236.704V92.9414H236.048ZM236.704 90.0938H237.694C237.966 90.0938 238.185 90.0088 238.35 89.8389C238.515 89.6641 238.597 89.4359 238.597 89.1543C238.597 88.8678 238.515 88.6396 238.35 88.4697C238.185 88.2997 237.966 88.2148 237.694 88.2148H236.704V90.0938ZM240.109 92.9414L241.493 87.6249H242.374L243.751 92.9414H243.088L242.738 91.5285H241.129L240.779 92.9414H240.109ZM241.26 90.975H242.6L242.192 89.3364C242.115 89.0256 242.054 88.7659 242.01 88.5571C241.966 88.3483 241.94 88.2124 241.93 88.1492C241.92 88.2124 241.894 88.3483 241.85 88.5571C241.806 88.7659 241.746 89.0232 241.668 89.3291L241.26 90.975ZM246.326 93.0142C245.976 93.0142 245.675 92.956 245.423 92.8394C245.175 92.7229 244.984 92.5554 244.848 92.3369C244.712 92.1184 244.641 91.8587 244.636 91.5576H245.292C245.292 91.8247 245.382 92.0359 245.561 92.1913C245.746 92.3466 246.001 92.4243 246.326 92.4243C246.632 92.4243 246.87 92.3491 247.04 92.1985C247.215 92.048 247.302 91.8393 247.302 91.5722C247.302 91.3586 247.244 91.1717 247.127 91.0114C247.016 90.8512 246.853 90.7395 246.639 90.6764L245.918 90.4506C245.554 90.339 245.272 90.152 245.073 89.8899C244.879 89.6277 244.782 89.3194 244.782 88.9649C244.782 88.6785 244.845 88.4308 244.971 88.2221C245.103 88.0084 245.285 87.8433 245.518 87.7268C245.751 87.6054 246.025 87.5447 246.341 87.5447C246.807 87.5447 247.181 87.6758 247.462 87.938C247.744 88.1954 247.887 88.5401 247.892 88.9722H247.236C247.236 88.71 247.156 88.5061 246.996 88.3604C246.841 88.2099 246.62 88.1347 246.333 88.1347C246.052 88.1347 245.831 88.2026 245.671 88.3386C245.515 88.4745 245.438 88.6639 245.438 88.9067C245.438 89.1251 245.496 89.3145 245.612 89.4747C245.729 89.635 245.896 89.7491 246.115 89.817L246.843 90.0501C247.198 90.1618 247.472 90.3511 247.666 90.6181C247.86 90.8852 247.957 91.1984 247.957 91.5576C247.957 91.849 247.889 92.1039 247.754 92.3224C247.618 92.5408 247.426 92.7108 247.178 92.8322C246.935 92.9535 246.651 93.0142 246.326 93.0142ZM249.156 92.9414V87.6249H249.812V89.8971H251.516V87.6249H252.171V92.9414H251.516V90.4943H249.812V92.9414H249.156ZM254.798 91.3756L254.645 88.4988V87.6249H255.417V88.4988L255.264 91.3756H254.798ZM254.922 92.9778C254.795 92.9778 254.691 92.9366 254.608 92.854C254.526 92.7715 254.485 92.6671 254.485 92.5408C254.485 92.4146 254.526 92.3102 254.608 92.2277C254.691 92.1451 254.795 92.1039 254.922 92.1039H255.14C255.281 92.1039 255.388 92.1451 255.46 92.2277C255.538 92.3054 255.577 92.4073 255.577 92.5336C255.577 92.6598 255.536 92.7666 255.453 92.854C255.371 92.9366 255.266 92.9778 255.14 92.9778H254.922Z" fill="#24272D"/>
<path d="M67.8388 66.975V65.5184H72.4999V66.975H67.8388ZM72.2057 66.975V65.5184H76.8668V66.975H72.2057ZM76.5726 66.975V65.5184H81.2337V66.975H76.5726ZM80.9395 66.975V65.5184H85.6006V66.975H80.9395ZM85.3065 66.975V65.5184H89.9675V66.975H85.3065ZM89.6734 66.975V65.5184H94.3345V66.975H89.6734ZM94.0403 66.975V65.5184H98.7014V66.975H94.0403ZM98.4072 66.975V65.5184H103.068V66.975H98.4072ZM102.774 66.975V65.5184H107.435V66.975H102.774ZM107.141 66.975V65.5184H111.802V66.975H107.141ZM111.508 66.975V65.5184H116.169V66.975H111.508ZM115.875 66.975V65.5184H120.536V66.975H115.875ZM120.242 66.975V65.5184H124.903V66.975H120.242ZM124.609 66.975V65.5184H129.27V66.975H124.609ZM128.976 66.975V65.5184H133.637V66.975H128.976ZM133.343 66.975V65.5184H138.004V66.975H133.343ZM137.709 66.975V65.5184H142.371V66.975H137.709ZM142.076 66.975V65.5184H146.737V66.975H142.076ZM146.443 66.975V65.5184H151.104V66.975H146.443ZM150.81 66.975V65.5184H155.471V66.975H150.81ZM155.177 66.975V65.5184H159.838V66.975H155.177ZM159.544 66.975V65.5184H164.205V66.975H159.544ZM163.911 66.975V65.5184H168.572V66.975H163.911ZM168.278 66.975V65.5184H172.939V66.975H168.278ZM172.645 66.975V65.5184H177.306V66.975H172.645ZM177.012 66.975V65.5184H181.673V66.975H177.012ZM181.379 66.975V65.5184H186.04V66.975H181.379ZM185.746 66.975V65.5184H190.407V66.975H185.746ZM190.112 66.975V65.5184H194.774V66.975H190.112ZM194.479 66.975V65.5184H199.14V66.975H194.479ZM198.846 66.975V65.5184H203.507V66.975H198.846ZM203.213 66.975V65.5184H207.874V66.975H203.213ZM207.58 66.975V65.5184H212.241V66.975H207.58ZM211.947 66.975V65.5184H216.608V66.975H211.947ZM216.314 66.975V65.5184H220.975V66.975H216.314ZM220.681 66.975V65.5184H225.342V66.975H220.681ZM225.048 66.975V65.5184H229.709V66.975H225.048ZM229.56 68.5773V64.0618L234.003 66.3195L229.56 68.5773Z" fill="#EF4444"/>
<path d="M35.6919 116.059V110.735H38.8235V111.332H36.3328V113.102H38.6342V113.699H36.3473V116.059H35.6919ZM40.2045 116.059V110.742H40.8599V115.461H43.2633V116.059H40.2045ZM44.4621 116.059V110.742H47.521V111.339H45.1103V112.985H47.2661V113.575H45.1103V115.461H47.521V116.059H44.4621ZM48.3921 116.059L49.9215 113.364L48.4722 110.742H49.2296L50.0526 112.315C50.0963 112.398 50.14 112.488 50.1837 112.585C50.2322 112.677 50.2711 112.75 50.3002 112.803C50.3245 112.75 50.3585 112.677 50.4022 112.585C50.4507 112.488 50.4968 112.398 50.5405 112.315L51.3781 110.742H52.0991L50.6498 113.32L52.1792 116.059H51.4291L50.5187 114.369C50.475 114.286 50.4289 114.199 50.3803 114.107C50.3366 114.01 50.3026 113.932 50.2784 113.874C50.2541 113.932 50.2177 114.007 50.1691 114.099C50.1254 114.192 50.0817 114.279 50.038 114.362L49.1204 116.059H48.3921ZM53.2324 116.059V115.461H54.3175V111.339H53.2324V110.742H56.0727V111.339H54.9876V115.461H56.0727V116.059H53.2324ZM57.5119 116.059V110.742H59.0195C59.505 110.742 59.8837 110.863 60.1556 111.106C60.4324 111.349 60.5707 111.686 60.5707 112.119C60.5707 112.361 60.5198 112.572 60.4178 112.752C60.3158 112.932 60.1702 113.07 59.9808 113.167C59.7963 113.264 59.573 113.31 59.3108 113.306V113.196C59.5924 113.192 59.8352 113.245 60.0391 113.357C60.2479 113.468 60.4081 113.629 60.5198 113.837C60.6363 114.046 60.6945 114.294 60.6945 114.58C60.6945 114.881 60.6314 115.143 60.5052 115.367C60.379 115.59 60.1993 115.762 59.9663 115.884C59.7332 116 59.454 116.059 59.1287 116.059H57.5119ZM58.1528 115.469H59.0559C59.3618 115.469 59.6021 115.389 59.7769 115.228C59.9565 115.063 60.0464 114.84 60.0464 114.558C60.0464 114.267 59.9565 114.032 59.7769 113.852C59.6021 113.667 59.3618 113.575 59.0559 113.575H58.1528V115.469ZM58.1528 113.007H59.0122C59.2938 113.007 59.5147 112.932 59.6749 112.781C59.84 112.631 59.9226 112.427 59.9226 112.17C59.9226 111.912 59.8424 111.708 59.6822 111.558C59.522 111.407 59.3011 111.332 59.0195 111.332H58.1528V113.007ZM62.039 116.059V110.742H62.6945V115.461H65.0979V116.059H62.039ZM66.2967 116.059V110.742H69.3556V111.339H66.9449V112.985H69.1006V113.575H66.9449V115.461H69.3556V116.059H66.2967ZM74.9723 116.059V110.742H76.6838C77.0139 110.742 77.3004 110.808 77.5432 110.939C77.7859 111.065 77.9729 111.245 78.104 111.478C78.2399 111.711 78.3079 111.987 78.3079 112.308C78.3079 112.623 78.2399 112.9 78.104 113.138C77.9729 113.371 77.7859 113.553 77.5432 113.684C77.3004 113.811 77.0139 113.874 76.6838 113.874H75.6278V116.059H74.9723ZM75.6278 113.284H76.6838C76.9702 113.284 77.1984 113.196 77.3684 113.022C77.5432 112.842 77.6306 112.604 77.6306 112.308C77.6306 112.007 77.5432 111.769 77.3684 111.594C77.1984 111.419 76.9702 111.332 76.6838 111.332H75.6278V113.284ZM79.5067 116.059V110.742H80.1622V115.461H82.5655V116.059H79.5067ZM83.4002 116.059L84.784 110.742H85.6652L87.0417 116.059H86.379L86.0294 114.646H84.4199L84.0703 116.059H83.4002ZM84.5509 114.092H85.891L85.4832 112.454C85.4055 112.143 85.3448 111.883 85.3011 111.674C85.2574 111.465 85.2307 111.33 85.221 111.266C85.2113 111.33 85.1846 111.465 85.1409 111.674C85.0972 111.883 85.0365 112.14 84.9588 112.446L84.5509 114.092ZM89.2602 116.059V111.332H87.8036V110.735H91.3722V111.332H89.9156V116.059H89.2602ZM92.4618 116.059V110.735H95.5935V111.332H93.1027V113.102H95.4041V113.699H93.1173V116.059H92.4618ZM98.3217 116.131C98.0013 116.131 97.7245 116.071 97.4915 115.949C97.2633 115.828 97.0861 115.653 96.9598 115.425C96.8384 115.192 96.7777 114.918 96.7777 114.602V112.199C96.7777 111.878 96.8384 111.604 96.9598 111.376C97.0861 111.147 97.2633 110.973 97.4915 110.851C97.7245 110.73 98.0013 110.669 98.3217 110.669C98.6422 110.669 98.9165 110.73 99.1447 110.851C99.3778 110.973 99.555 111.147 99.6764 111.376C99.8026 111.604 99.8657 111.876 99.8657 112.191V114.602C99.8657 114.918 99.8026 115.192 99.6764 115.425C99.555 115.653 99.3778 115.828 99.1447 115.949C98.9165 116.071 98.6422 116.131 98.3217 116.131ZM98.3217 115.542C98.6082 115.542 98.8267 115.461 98.9772 115.301C99.1326 115.136 99.2102 114.903 99.2102 114.602V112.199C99.2102 111.898 99.1326 111.667 98.9772 111.507C98.8267 111.342 98.6082 111.259 98.3217 111.259C98.0401 111.259 97.8216 111.342 97.6663 111.507C97.5109 111.667 97.4332 111.898 97.4332 112.199V114.602C97.4332 114.903 97.5109 115.136 97.6663 115.301C97.8216 115.461 98.0401 115.542 98.3217 115.542ZM101.174 116.059V110.742H102.82C103.135 110.742 103.412 110.808 103.65 110.939C103.888 111.065 104.072 111.242 104.203 111.47C104.335 111.699 104.4 111.966 104.4 112.271C104.4 112.631 104.305 112.939 104.116 113.196C103.932 113.454 103.679 113.631 103.359 113.728L104.473 116.059H103.701L102.681 113.801H101.829V116.059H101.174ZM101.829 113.211H102.82C103.092 113.211 103.31 113.126 103.475 112.956C103.64 112.781 103.723 112.553 103.723 112.271C103.723 111.985 103.64 111.757 103.475 111.587C103.31 111.417 103.092 111.332 102.82 111.332H101.829V113.211ZM105.424 116.059V110.742H106.284L106.837 112.461C106.89 112.616 106.939 112.772 106.983 112.927C107.026 113.077 107.058 113.194 107.077 113.277C107.102 113.194 107.133 113.077 107.172 112.927C107.211 112.772 107.255 112.614 107.303 112.454L107.828 110.742H108.687V116.059H108.046V114.129C108.046 113.915 108.053 113.672 108.068 113.4C108.082 113.128 108.102 112.852 108.126 112.57C108.15 112.284 108.175 112.012 108.199 111.754C108.228 111.492 108.252 111.264 108.272 111.07L107.412 113.728H106.721L105.854 111.07C105.878 111.259 105.902 111.48 105.927 111.733C105.951 111.98 105.973 112.245 105.992 112.526C106.012 112.803 106.029 113.08 106.043 113.357C106.058 113.633 106.065 113.891 106.065 114.129V116.059H105.424ZM111.422 113.073C111.243 113.073 111.097 113.024 110.986 112.927C110.874 112.825 110.818 112.691 110.818 112.526C110.818 112.361 110.874 112.23 110.986 112.133C111.097 112.031 111.243 111.98 111.422 111.98C111.607 111.98 111.753 112.031 111.859 112.133C111.971 112.23 112.027 112.361 112.027 112.526C112.027 112.691 111.971 112.825 111.859 112.927C111.753 113.024 111.607 113.073 111.422 113.073ZM111.422 116.131C111.243 116.131 111.097 116.083 110.986 115.986C110.874 115.884 110.818 115.75 110.818 115.585C110.818 115.42 110.874 115.289 110.986 115.192C111.097 115.09 111.243 115.039 111.422 115.039C111.607 115.039 111.753 115.09 111.859 115.192C111.971 115.289 112.027 115.42 112.027 115.585C112.027 115.75 111.971 115.884 111.859 115.986C111.753 116.083 111.607 116.131 111.422 116.131ZM35 128.568H42.2829V121.285H35V128.568ZM48.507 128.059V123.332H47.0504V122.735H50.6191V123.332H49.1625V128.059H48.507ZM53.2017 128.131C52.8861 128.131 52.6093 128.068 52.3714 127.942C52.1383 127.816 51.9563 127.639 51.8252 127.41C51.6989 127.177 51.6358 126.908 51.6358 126.602V125.51C51.6358 125.199 51.6989 124.929 51.8252 124.701C51.9563 124.473 52.1383 124.296 52.3714 124.17C52.6093 124.043 52.8861 123.98 53.2017 123.98C53.5172 123.98 53.7916 124.043 54.0246 124.17C54.2625 124.296 54.4446 124.473 54.5708 124.701C54.7019 124.929 54.7675 125.199 54.7675 125.51V126.216H52.2767V126.602C52.2767 126.918 52.3568 127.16 52.5171 127.33C52.6773 127.495 52.9055 127.578 53.2017 127.578C53.4541 127.578 53.6581 127.534 53.8134 127.447C53.9688 127.355 54.0635 127.219 54.0975 127.039H54.7529C54.7092 127.374 54.5441 127.641 54.2577 127.84C53.9761 128.034 53.6241 128.131 53.2017 128.131ZM54.1266 125.779V125.51C54.1266 125.194 54.0465 124.951 53.8863 124.781C53.7309 124.611 53.5027 124.526 53.2017 124.526C52.9055 124.526 52.6773 124.611 52.5171 124.781C52.3568 124.951 52.2767 125.194 52.2767 125.51V125.721H54.1776L54.1266 125.779ZM57.219 128.131C56.7966 128.131 56.464 128.025 56.2212 127.811C55.9785 127.592 55.8571 127.299 55.8571 126.93C55.8571 126.556 55.9785 126.262 56.2212 126.049C56.464 125.835 56.7917 125.728 57.2044 125.728H58.4425V125.327C58.4425 125.08 58.3673 124.891 58.2168 124.759C58.0711 124.623 57.8623 124.556 57.5904 124.556C57.3525 124.556 57.1534 124.606 56.9932 124.708C56.833 124.806 56.7407 124.939 56.7165 125.109H56.061C56.1047 124.764 56.2674 124.49 56.549 124.286C56.8306 124.082 57.1826 123.98 57.605 123.98C58.0662 123.98 58.4304 124.099 58.6974 124.337C58.9645 124.575 59.098 124.898 59.098 125.306V128.059H58.4571V127.294H58.3478L58.4571 127.185C58.4571 127.476 58.343 127.707 58.1148 127.877C57.8914 128.046 57.5928 128.131 57.219 128.131ZM57.3792 127.614C57.69 127.614 57.9449 127.537 58.1439 127.381C58.343 127.226 58.4425 127.027 58.4425 126.784V126.216H57.219C57.0005 126.216 56.8281 126.277 56.7019 126.398C56.5757 126.519 56.5125 126.685 56.5125 126.893C56.5125 127.117 56.5878 127.294 56.7383 127.425C56.8937 127.551 57.1073 127.614 57.3792 127.614ZM60.2313 128.059V124.053H60.8066V124.534H60.9377L60.8358 124.708C60.8358 124.485 60.894 124.308 61.0106 124.177C61.1319 124.046 61.2946 123.98 61.4985 123.98C61.7219 123.98 61.8942 124.063 62.0156 124.228C62.137 124.393 62.1977 124.626 62.1977 124.927L62.001 124.534H62.3069L62.1685 124.708C62.1685 124.485 62.2292 124.308 62.3506 124.177C62.4769 124.046 62.6419 123.98 62.8459 123.98C63.0983 123.98 63.2925 124.075 63.4285 124.264C63.5693 124.454 63.6397 124.704 63.6397 125.014V128.059H63.0352V125.007C63.0352 124.842 62.9988 124.713 62.926 124.621C62.858 124.529 62.756 124.483 62.6201 124.483C62.489 124.483 62.3846 124.529 62.3069 124.621C62.2341 124.708 62.1977 124.835 62.1977 125V128.059H61.6733V125.007C61.6733 124.837 61.6345 124.708 61.5568 124.621C61.4839 124.529 61.3796 124.483 61.2436 124.483C61.1077 124.483 61.0057 124.529 60.9377 124.621C60.8698 124.708 60.8358 124.835 60.8358 125V128.059H60.2313ZM117.974 128.568H125.257V121.285H117.974V128.568ZM130.418 128.059L129.806 122.742H130.433L130.833 126.675C130.843 126.782 130.853 126.893 130.862 127.01C130.872 127.122 130.879 127.228 130.884 127.33C130.894 127.432 130.899 127.517 130.899 127.585C130.908 127.517 130.916 127.432 130.921 127.33C130.93 127.228 130.94 127.122 130.95 127.01C130.964 126.893 130.979 126.782 130.993 126.675L131.489 122.742H132.166L132.617 126.675C132.632 126.782 132.644 126.893 132.654 127.01C132.668 127.122 132.681 127.228 132.69 127.33C132.705 127.432 132.715 127.517 132.719 127.585C132.724 127.517 132.729 127.432 132.734 127.33C132.744 127.228 132.753 127.122 132.763 127.01C132.778 126.893 132.79 126.782 132.799 126.675L133.215 122.742H133.812L133.185 128.059H132.363L131.911 124.053C131.901 123.941 131.889 123.832 131.875 123.725C131.865 123.618 131.855 123.519 131.845 123.427C131.836 123.334 131.828 123.259 131.824 123.201C131.819 123.259 131.809 123.334 131.794 123.427C131.785 123.519 131.775 123.618 131.765 123.725C131.756 123.832 131.743 123.941 131.729 124.053L131.241 128.059H130.418ZM134.355 128.059L135.739 122.742H136.62L137.997 128.059H137.334L136.984 126.646H135.375L135.025 128.059H134.355ZM135.506 126.092H136.846L136.438 124.454C136.36 124.143 136.3 123.883 136.256 123.674C136.212 123.465 136.186 123.33 136.176 123.266C136.166 123.33 136.14 123.465 136.096 123.674C136.052 123.883 135.991 124.14 135.914 124.446L135.506 126.092ZM139.196 128.059V122.742H139.851V127.461H142.254V128.059H139.196ZM143.562 128.059V122.742H144.218V127.461H146.621V128.059H143.562ZM179.108 152.568H186.391V145.285H179.108V152.568ZM192.972 152.131C192.623 152.131 192.322 152.073 192.069 151.957C191.821 151.84 191.63 151.673 191.494 151.454C191.358 151.236 191.287 150.976 191.283 150.675H191.938C191.938 150.942 192.028 151.153 192.207 151.308C192.392 151.464 192.647 151.542 192.972 151.542C193.278 151.542 193.516 151.466 193.686 151.316C193.861 151.165 193.948 150.956 193.948 150.689C193.948 150.476 193.89 150.289 193.773 150.129C193.662 149.968 193.499 149.857 193.285 149.794L192.564 149.568C192.2 149.456 191.919 149.269 191.719 149.007C191.525 148.745 191.428 148.437 191.428 148.082C191.428 147.796 191.491 147.548 191.618 147.339C191.749 147.126 191.931 146.961 192.164 146.844C192.397 146.723 192.671 146.662 192.987 146.662C193.453 146.662 193.827 146.793 194.108 147.055C194.39 147.313 194.533 147.657 194.538 148.089H193.883C193.883 147.827 193.802 147.623 193.642 147.478C193.487 147.327 193.266 147.252 192.979 147.252C192.698 147.252 192.477 147.32 192.317 147.456C192.161 147.592 192.084 147.781 192.084 148.024C192.084 148.242 192.142 148.432 192.258 148.592C192.375 148.752 192.542 148.866 192.761 148.934L193.489 149.167C193.844 149.279 194.118 149.468 194.312 149.735C194.506 150.002 194.604 150.316 194.604 150.675C194.604 150.966 194.536 151.221 194.4 151.44C194.264 151.658 194.072 151.828 193.824 151.949C193.581 152.071 193.297 152.131 192.972 152.131ZM197.31 152.131C196.815 152.131 196.436 151.995 196.174 151.724C195.912 151.447 195.781 151.073 195.781 150.602V146.742H196.436V150.602C196.436 150.893 196.506 151.124 196.647 151.294C196.793 151.464 197.014 151.549 197.31 151.549C197.601 151.549 197.82 151.464 197.965 151.294C198.111 151.124 198.184 150.893 198.184 150.602V146.742H198.839V150.602C198.839 151.078 198.708 151.452 198.446 151.724C198.189 151.995 197.81 152.131 197.31 152.131ZM201.706 152.131C201.386 152.131 201.106 152.071 200.868 151.949C200.635 151.828 200.453 151.653 200.322 151.425C200.196 151.192 200.133 150.918 200.133 150.602V148.199C200.133 147.878 200.196 147.604 200.322 147.376C200.453 147.147 200.635 146.973 200.868 146.851C201.106 146.73 201.386 146.669 201.706 146.669C202.026 146.669 202.303 146.732 202.536 146.859C202.769 146.98 202.949 147.155 203.075 147.383C203.201 147.611 203.265 147.883 203.265 148.199H202.609C202.609 147.898 202.529 147.667 202.369 147.507C202.213 147.342 201.992 147.259 201.706 147.259C201.42 147.259 201.194 147.339 201.029 147.499C200.868 147.66 200.788 147.89 200.788 148.191V150.602C200.788 150.903 200.868 151.136 201.029 151.301C201.194 151.461 201.42 151.542 201.706 151.542C201.992 151.542 202.213 151.461 202.369 151.301C202.529 151.136 202.609 150.903 202.609 150.602H203.265C203.265 150.913 203.201 151.185 203.075 151.418C202.949 151.646 202.769 151.823 202.536 151.949C202.303 152.071 202.026 152.131 201.706 152.131ZM206.073 152.131C205.752 152.131 205.473 152.071 205.235 151.949C205.002 151.828 204.82 151.653 204.689 151.425C204.563 151.192 204.5 150.918 204.5 150.602V148.199C204.5 147.878 204.563 147.604 204.689 147.376C204.82 147.147 205.002 146.973 205.235 146.851C205.473 146.73 205.752 146.669 206.073 146.669C206.393 146.669 206.67 146.732 206.903 146.859C207.136 146.98 207.316 147.155 207.442 147.383C207.568 147.611 207.631 147.883 207.631 148.199H206.976C206.976 147.898 206.896 147.667 206.736 147.507C206.58 147.342 206.359 147.259 206.073 147.259C205.786 147.259 205.561 147.339 205.396 147.499C205.235 147.66 205.155 147.89 205.155 148.191V150.602C205.155 150.903 205.235 151.136 205.396 151.301C205.561 151.461 205.786 151.542 206.073 151.542C206.359 151.542 206.58 151.461 206.736 151.301C206.896 151.136 206.976 150.903 206.976 150.602H207.631C207.631 150.913 207.568 151.185 207.442 151.418C207.316 151.646 207.136 151.823 206.903 151.949C206.67 152.071 206.393 152.131 206.073 152.131ZM208.954 152.059V146.742H212.013V147.339H209.602V148.985H211.758V149.575H209.602V151.461H212.013V152.059H208.954ZM214.807 152.131C214.457 152.131 214.156 152.073 213.904 151.957C213.656 151.84 213.464 151.673 213.328 151.454C213.192 151.236 213.122 150.976 213.117 150.675H213.773C213.773 150.942 213.862 151.153 214.042 151.308C214.227 151.464 214.481 151.542 214.807 151.542C215.113 151.542 215.351 151.466 215.52 151.316C215.695 151.165 215.783 150.956 215.783 150.689C215.783 150.476 215.724 150.289 215.608 150.129C215.496 149.968 215.334 149.857 215.12 149.794L214.399 149.568C214.035 149.456 213.753 149.269 213.554 149.007C213.36 148.745 213.263 148.437 213.263 148.082C213.263 147.796 213.326 147.548 213.452 147.339C213.583 147.126 213.765 146.961 213.998 146.844C214.231 146.723 214.506 146.662 214.821 146.662C215.287 146.662 215.661 146.793 215.943 147.055C216.224 147.313 216.368 147.657 216.373 148.089H215.717C215.717 147.827 215.637 147.623 215.477 147.478C215.321 147.327 215.1 147.252 214.814 147.252C214.532 147.252 214.312 147.32 214.151 147.456C213.996 147.592 213.918 147.781 213.918 148.024C213.918 148.242 213.976 148.432 214.093 148.592C214.21 148.752 214.377 148.866 214.596 148.934L215.324 149.167C215.678 149.279 215.953 149.468 216.147 149.735C216.341 150.002 216.438 150.316 216.438 150.675C216.438 150.966 216.37 151.221 216.234 151.44C216.098 151.658 215.906 151.828 215.659 151.949C215.416 152.071 215.132 152.131 214.807 152.131ZM219.174 152.131C218.824 152.131 218.523 152.073 218.271 151.957C218.023 151.84 217.831 151.673 217.695 151.454C217.559 151.236 217.489 150.976 217.484 150.675H218.139C218.139 150.942 218.229 151.153 218.409 151.308C218.593 151.464 218.848 151.542 219.174 151.542C219.48 151.542 219.717 151.466 219.887 151.316C220.062 151.165 220.15 150.956 220.15 150.689C220.15 150.476 220.091 150.289 219.975 150.129C219.863 149.968 219.7 149.857 219.487 149.794L218.766 149.568C218.402 149.456 218.12 149.269 217.921 149.007C217.727 148.745 217.63 148.437 217.63 148.082C217.63 147.796 217.693 147.548 217.819 147.339C217.95 147.126 218.132 146.961 218.365 146.844C218.598 146.723 218.873 146.662 219.188 146.662C219.654 146.662 220.028 146.793 220.31 147.055C220.591 147.313 220.735 147.657 220.739 148.089H220.084C220.084 147.827 220.004 147.623 219.844 147.478C219.688 147.327 219.467 147.252 219.181 147.252C218.899 147.252 218.678 147.32 218.518 147.456C218.363 147.592 218.285 147.781 218.285 148.024C218.285 148.242 218.343 148.432 218.46 148.592C218.576 148.752 218.744 148.866 218.962 148.934L219.691 149.167C220.045 149.279 220.32 149.468 220.514 149.735C220.708 150.002 220.805 150.316 220.805 150.675C220.805 150.966 220.737 151.221 220.601 151.44C220.465 151.658 220.273 151.828 220.026 151.949C219.783 152.071 219.499 152.131 219.174 152.131Z" fill="#24272D"/>
<path d="M68.3388 126.092V124.636H72.9999V126.092H68.3388ZM72.7057 126.092V124.636H77.3668V126.092H72.7057ZM77.0726 126.092V124.636H81.7337V126.092H77.0726ZM81.4395 126.092V124.636H86.1006V126.092H81.4395ZM85.8065 126.092V124.636H90.4675V126.092H85.8065ZM90.1734 126.092V124.636H94.8345V126.092H90.1734ZM94.5403 126.092V124.636H99.2014V126.092H94.5403ZM98.9072 126.092V124.636H103.568V126.092H98.9072ZM103.274 126.092V124.636H107.935V126.092H103.274ZM111.061 130.243V127.476C111.061 127.122 110.991 126.813 110.85 126.551C110.709 126.289 110.51 126.087 110.253 125.947C110 125.801 109.699 125.728 109.35 125.728H109.095V125H109.35C109.845 125 110.275 125.102 110.639 125.306C111.003 125.51 111.285 125.798 111.484 126.172C111.688 126.541 111.789 126.976 111.789 127.476V130.243H111.061ZM111.058 142.243V132.63H111.787V142.243H111.058ZM111.058 149.728V144.63H111.787V149H113.753V149.728H111.058ZM113.459 149.728V149H118.12V149.728H113.459ZM117.826 149.728V149H122.487V149.728H117.826ZM122.193 149.728V149H126.854V149.728H122.193ZM126.56 149.728V149H131.221V149.728H126.56ZM130.927 149.728V149H135.588V149.728H130.927ZM135.293 149.728V149H139.955V149.728H135.293ZM139.66 149.728V149H144.321V149.728H139.66ZM144.027 149.728V149H148.688V149.728H144.027ZM148.394 149.728V149H153.055V149.728H148.394ZM152.761 149.728V149H157.422V149.728H152.761ZM157.128 149.728V149H161.789V149.728H157.128ZM161.495 149.728V149H166.156V149.728H161.495ZM165.862 149.728V149H170.523V149.728H165.862ZM170.374 151.694V147.179L174.817 149.437L170.374 151.694Z" fill="#16A34A"/>
</g>
<path d="M218 161.854C218 158.789 220.485 156.305 223.55 156.305H318.729C321.794 156.305 324.279 158.789 324.279 161.854V186.349C324.279 189.414 321.794 191.899 318.729 191.899H223.55C220.485 191.899 218 189.414 218 186.349V161.854Z" fill="#16A34A"/>
<path d="M241.053 178.218C240.578 178.218 240.129 178.179 239.706 178.102C239.283 178.015 238.895 177.894 238.541 177.739C238.187 177.575 237.867 177.376 237.582 177.143L237.997 176.185C238.282 176.401 238.58 176.587 238.89 176.742C239.201 176.889 239.533 177.001 239.887 177.079C240.241 177.148 240.63 177.182 241.053 177.182C241.812 177.182 242.369 177.044 242.723 176.768C243.086 176.492 243.267 176.129 243.267 175.68C243.267 175.43 243.211 175.218 243.099 175.046C242.986 174.873 242.805 174.726 242.555 174.605C242.305 174.485 241.976 174.385 241.571 174.308L240.198 174.023C239.387 173.85 238.778 173.565 238.372 173.168C237.975 172.771 237.777 172.24 237.777 171.575C237.777 171.031 237.919 170.557 238.204 170.151C238.498 169.737 238.895 169.417 239.395 169.193C239.905 168.968 240.492 168.856 241.156 168.856C241.571 168.856 241.964 168.899 242.335 168.986C242.706 169.063 243.051 169.188 243.371 169.361C243.69 169.525 243.971 169.728 244.212 169.97L243.811 170.889C243.431 170.544 243.025 170.293 242.594 170.138C242.162 169.974 241.679 169.892 241.143 169.892C240.703 169.892 240.319 169.961 239.991 170.099C239.672 170.237 239.421 170.432 239.24 170.682C239.067 170.924 238.981 171.208 238.981 171.536C238.981 171.934 239.102 172.244 239.344 172.469C239.585 172.693 239.991 172.866 240.561 172.987L241.92 173.259C242.784 173.44 243.422 173.721 243.837 174.1C244.26 174.472 244.471 174.972 244.471 175.602C244.471 176.12 244.333 176.578 244.057 176.975C243.781 177.363 243.384 177.67 242.866 177.894C242.356 178.11 241.752 178.218 241.053 178.218ZM248.164 178.218C247.655 178.218 247.227 178.123 246.882 177.933C246.545 177.743 246.295 177.463 246.131 177.092C245.967 176.72 245.885 176.254 245.885 175.693V171.795H247.063V175.693C247.063 176.047 247.111 176.341 247.206 176.574C247.301 176.807 247.447 176.979 247.646 177.092C247.853 177.204 248.112 177.26 248.423 177.26C248.768 177.26 249.07 177.182 249.329 177.027C249.588 176.871 249.791 176.651 249.938 176.366C250.085 176.082 250.158 175.749 250.158 175.369V171.795H251.336V178.102H250.184V176.677H250.352C250.18 177.178 249.899 177.562 249.511 177.83C249.131 178.089 248.682 178.218 248.164 178.218ZM255.965 178.218C255.326 178.218 254.773 178.084 254.307 177.817C253.841 177.54 253.483 177.156 253.232 176.664C252.982 176.164 252.857 175.577 252.857 174.903C252.857 174.238 252.982 173.664 253.232 173.181C253.483 172.698 253.841 172.326 254.307 172.067C254.773 171.808 255.326 171.679 255.965 171.679C256.362 171.679 256.75 171.748 257.13 171.886C257.519 172.024 257.838 172.218 258.088 172.469L257.7 173.298C257.449 173.073 257.178 172.905 256.884 172.793C256.59 172.68 256.31 172.624 256.042 172.624C255.412 172.624 254.924 172.823 254.579 173.22C254.234 173.617 254.061 174.182 254.061 174.916C254.061 175.65 254.234 176.228 254.579 176.651C254.924 177.066 255.412 177.273 256.042 177.273C256.31 177.273 256.59 177.217 256.884 177.104C257.178 176.992 257.449 176.82 257.7 176.587L258.088 177.428C257.838 177.679 257.514 177.873 257.117 178.011C256.729 178.149 256.344 178.218 255.965 178.218ZM261.857 178.218C261.219 178.218 260.666 178.084 260.2 177.817C259.734 177.54 259.376 177.156 259.125 176.664C258.875 176.164 258.75 175.577 258.75 174.903C258.75 174.238 258.875 173.664 259.125 173.181C259.376 172.698 259.734 172.326 260.2 172.067C260.666 171.808 261.219 171.679 261.857 171.679C262.254 171.679 262.643 171.748 263.023 171.886C263.411 172.024 263.731 172.218 263.981 172.469L263.593 173.298C263.342 173.073 263.07 172.905 262.777 172.793C262.483 172.68 262.203 172.624 261.935 172.624C261.305 172.624 260.817 172.823 260.472 173.22C260.127 173.617 259.954 174.182 259.954 174.916C259.954 175.65 260.127 176.228 260.472 176.651C260.817 177.066 261.305 177.273 261.935 177.273C262.203 177.273 262.483 177.217 262.777 177.104C263.07 176.992 263.342 176.82 263.593 176.587L263.981 177.428C263.731 177.679 263.407 177.873 263.01 178.011C262.621 178.149 262.237 178.218 261.857 178.218ZM267.931 178.218C267.249 178.218 266.662 178.089 266.17 177.83C265.687 177.562 265.311 177.187 265.044 176.703C264.776 176.211 264.642 175.633 264.642 174.968C264.642 174.312 264.772 173.738 265.031 173.246C265.298 172.754 265.661 172.37 266.119 172.093C266.585 171.817 267.116 171.679 267.711 171.679C268.29 171.679 268.782 171.804 269.187 172.054C269.602 172.305 269.917 172.663 270.133 173.129C270.357 173.587 270.469 174.139 270.469 174.787V175.214H265.562V174.463H269.692L269.472 174.644C269.472 173.971 269.326 173.453 269.032 173.09C268.739 172.719 268.307 172.534 267.737 172.534C267.323 172.534 266.969 172.633 266.675 172.831C266.382 173.021 266.157 173.293 266.002 173.647C265.847 173.992 265.769 174.394 265.769 174.851V174.929C265.769 175.447 265.851 175.883 266.015 176.237C266.188 176.582 266.434 176.846 266.753 177.027C267.072 177.199 267.465 177.286 267.931 177.286C268.303 177.286 268.661 177.23 269.006 177.117C269.36 176.997 269.692 176.811 270.003 176.561L270.366 177.376C270.081 177.635 269.714 177.843 269.265 177.998C268.825 178.145 268.38 178.218 267.931 178.218ZM274.11 178.218C273.782 178.218 273.459 178.188 273.139 178.127C272.828 178.067 272.539 177.981 272.272 177.868C272.013 177.748 271.784 177.605 271.585 177.441L271.935 176.625C272.142 176.781 272.367 176.915 272.608 177.027C272.85 177.13 273.1 177.208 273.359 177.26C273.618 177.312 273.877 177.338 274.136 177.338C274.611 177.338 274.969 177.251 275.211 177.079C275.453 176.906 275.574 176.677 275.574 176.392C275.574 176.151 275.492 175.965 275.328 175.836C275.172 175.697 274.926 175.594 274.589 175.525L273.385 175.279C272.85 175.158 272.444 174.959 272.168 174.683C271.9 174.398 271.767 174.036 271.767 173.595C271.767 173.207 271.87 172.87 272.077 172.585C272.293 172.292 272.591 172.067 272.971 171.912C273.351 171.757 273.787 171.679 274.279 171.679C274.572 171.679 274.857 171.709 275.133 171.77C275.41 171.83 275.669 171.916 275.91 172.029C276.152 172.141 276.355 172.288 276.519 172.469L276.156 173.272C275.992 173.116 275.807 172.987 275.599 172.883C275.392 172.78 275.176 172.702 274.952 172.65C274.728 172.59 274.503 172.559 274.279 172.559C273.813 172.559 273.459 172.65 273.217 172.831C272.984 173.013 272.867 173.25 272.867 173.544C272.867 173.768 272.936 173.954 273.074 174.1C273.221 174.247 273.45 174.355 273.761 174.424L274.965 174.67C275.526 174.791 275.949 174.985 276.234 175.253C276.519 175.512 276.661 175.866 276.661 176.315C276.661 176.712 276.553 177.053 276.338 177.338C276.13 177.622 275.833 177.843 275.444 177.998C275.064 178.145 274.62 178.218 274.11 178.218ZM280.37 178.218C280.042 178.218 279.718 178.188 279.399 178.127C279.088 178.067 278.799 177.981 278.531 177.868C278.272 177.748 278.043 177.605 277.845 177.441L278.194 176.625C278.402 176.781 278.626 176.915 278.868 177.027C279.109 177.13 279.36 177.208 279.619 177.26C279.878 177.312 280.137 177.338 280.396 177.338C280.871 177.338 281.229 177.251 281.47 177.079C281.712 176.906 281.833 176.677 281.833 176.392C281.833 176.151 281.751 175.965 281.587 175.836C281.432 175.697 281.186 175.594 280.849 175.525L279.645 175.279C279.109 175.158 278.704 174.959 278.428 174.683C278.16 174.398 278.026 174.036 278.026 173.595C278.026 173.207 278.13 172.87 278.337 172.585C278.553 172.292 278.851 172.067 279.23 171.912C279.61 171.757 280.046 171.679 280.538 171.679C280.832 171.679 281.117 171.709 281.393 171.77C281.669 171.83 281.928 171.916 282.17 172.029C282.411 172.141 282.614 172.288 282.778 172.469L282.416 173.272C282.252 173.116 282.066 172.987 281.859 172.883C281.652 172.78 281.436 172.702 281.212 172.65C280.987 172.59 280.763 172.559 280.538 172.559C280.072 172.559 279.718 172.65 279.476 172.831C279.243 173.013 279.127 173.25 279.127 173.544C279.127 173.768 279.196 173.954 279.334 174.1C279.481 174.247 279.709 174.355 280.02 174.424L281.224 174.67C281.786 174.791 282.209 174.985 282.493 175.253C282.778 175.512 282.921 175.866 282.921 176.315C282.921 176.712 282.813 177.053 282.597 177.338C282.39 177.622 282.092 177.843 281.704 177.998C281.324 178.145 280.879 178.218 280.37 178.218Z" fill="#FAFAFA"/>
<path d="M302.941 170.542L296.415 177.068L293.449 174.102" stroke="#FAFAFA" stroke-width="1.1835" stroke-linecap="round" stroke-linejoin="round"/>
<defs>
<filter id="filter0_dd_4485_47584" x="3.61037" y="23.0736" width="295.779" height="157.779" filterUnits="userSpaceOnUse" color-interpolation-filters="sRGB">
<feFlood flood-opacity="0" result="BackgroundImageFix"/>
<feColorMatrix in="SourceAlpha" type="matrix" values="0 0 0 0 0 0 0 0 0 0 0 0 0 0 0 0 0 0 127 0" result="hardAlpha"/>
<feOffset dy="0.463211"/>
<feGaussianBlur stdDeviation="0.463211"/>
<feColorMatrix type="matrix" values="0 0 0 0 0 0 0 0 0 0 0 0 0 0 0 0 0 0 0.06 0"/>
<feBlend mode="normal" in2="BackgroundImageFix" result="effect1_dropShadow_4485_47584"/>
<feColorMatrix in="SourceAlpha" type="matrix" values="0 0 0 0 0 0 0 0 0 0 0 0 0 0 0 0 0 0 127 0" result="hardAlpha"/>
<feOffset dy="0.463211"/>
<feGaussianBlur stdDeviation="0.694816"/>
<feColorMatrix type="matrix" values="0 0 0 0 0 0 0 0 0 0 0 0 0 0 0 0 0 0 0.1 0"/>
<feBlend mode="normal" in2="effect1_dropShadow_4485_47584" result="effect2_dropShadow_4485_47584"/>
<feBlend mode="normal" in="SourceGraphic" in2="effect2_dropShadow_4485_47584" result="shape"/>
</filter>
</defs>
</svg>
