<svg width="329" height="211" viewBox="0 0 329 211" fill="none" xmlns="http://www.w3.org/2000/svg">
<g filter="url(#filter0_dd_4470_4800)">
<rect x="16.4883" y="26.7715" width="309.511" height="163.924" rx="4" fill="#F9F9F9"/>
<rect x="16.7199" y="27.0031" width="309.048" height="163.46" rx="3.76839" stroke="#F4F4F5" stroke-width="0.463211"/>
</g>
<path d="M3 5.54952C3 2.4846 5.48461 0 8.54952 0H103.729C106.794 0 109.279 2.48461 109.279 5.54952V30.0446C109.279 33.1095 106.794 35.5941 103.729 35.5941H8.54952C5.48461 35.5941 3 33.1095 3 30.0446V5.54952Z" fill="#16A34A"/>
<path d="M29.7002 21.9134C28.4917 21.9134 27.5723 21.594 26.9421 20.9552C26.3119 20.3164 25.9968 19.3798 25.9968 18.1453V12.6679H27.2011V18.1064C27.2011 19.0301 27.4126 19.7207 27.8356 20.1783C28.2586 20.6272 28.8801 20.8516 29.7002 20.8516C30.5203 20.8516 31.1419 20.6272 31.5649 20.1783C31.9879 19.7207 32.1994 19.0301 32.1994 18.1064V12.6679H33.3907V18.1453C33.3907 19.3798 33.0756 20.3164 32.4454 20.9552C31.8238 21.594 30.9088 21.9134 29.7002 21.9134ZM35.3776 21.7969V15.4908H36.5301V16.8634H36.3876C36.5689 16.3713 36.8624 16.0001 37.2681 15.7497C37.6825 15.4994 38.153 15.3742 38.6796 15.3742C39.1889 15.3742 39.6076 15.4649 39.9356 15.6462C40.2637 15.8274 40.5097 16.108 40.6737 16.4878C40.8377 16.859 40.9197 17.3252 40.9197 17.8863V21.7969H39.7414V17.9511C39.7414 17.5799 39.6939 17.2734 39.5989 17.0317C39.504 16.79 39.3529 16.613 39.1457 16.5008C38.9472 16.3886 38.6925 16.3324 38.3817 16.3324C38.0192 16.3324 37.6998 16.4101 37.4235 16.5655C37.1473 16.7209 36.9315 16.941 36.7761 17.2259C36.6293 17.5108 36.556 17.8431 36.556 18.223V21.7969H35.3776ZM44.7949 21.9134C44.1215 21.9134 43.6165 21.7235 43.2799 21.3437C42.9518 20.9552 42.7878 20.3984 42.7878 19.6733V12.6679H43.9662V19.5826C43.9662 19.8761 44.005 20.1265 44.0827 20.3337C44.169 20.5322 44.2899 20.679 44.4453 20.7739C44.6093 20.8689 44.8121 20.9164 45.0539 20.9164C45.1488 20.9164 45.2438 20.912 45.3387 20.9034C45.4423 20.8948 45.5373 20.8775 45.6236 20.8516L45.5977 21.8098C45.4596 21.8444 45.3215 21.8703 45.1834 21.8875C45.0539 21.9048 44.9244 21.9134 44.7949 21.9134ZM49.2998 21.9134C48.6782 21.9134 48.1387 21.7796 47.6812 21.512C47.2236 21.2444 46.8697 20.8646 46.6194 20.3725C46.369 19.8804 46.2438 19.3021 46.2438 18.6373C46.2438 17.9726 46.369 17.3986 46.6194 16.9151C46.8697 16.4231 47.2236 16.0433 47.6812 15.7756C48.1387 15.508 48.6782 15.3742 49.2998 15.3742C49.9213 15.3742 50.4609 15.508 50.9184 15.7756C51.3759 16.0433 51.7299 16.4231 51.9802 16.9151C52.2305 17.3986 52.3557 17.9726 52.3557 18.6373C52.3557 19.3021 52.2305 19.8804 51.9802 20.3725C51.7299 20.8646 51.3759 21.2444 50.9184 21.512C50.4609 21.7796 49.9213 21.9134 49.2998 21.9134ZM49.2998 20.9811C49.8695 20.9811 50.3227 20.7825 50.6594 20.3854C50.9961 19.9797 51.1644 19.397 51.1644 18.6373C51.1644 17.8777 50.9961 17.2993 50.6594 16.9022C50.3227 16.5051 49.8695 16.3065 49.2998 16.3065C48.7387 16.3065 48.2855 16.5051 47.9401 16.9022C47.6035 17.2993 47.4351 17.8777 47.4351 18.6373C47.4351 19.397 47.6035 19.9797 47.9401 20.3854C48.2855 20.7825 48.7387 20.9811 49.2998 20.9811ZM56.5974 21.9134C55.9586 21.9134 55.4061 21.7796 54.9399 21.512C54.4738 21.2358 54.1155 20.8516 53.8652 20.3595C53.6148 19.8589 53.4897 19.2718 53.4897 18.5985C53.4897 17.9338 53.6148 17.3597 53.8652 16.8763C54.1155 16.3929 54.4738 16.0217 54.9399 15.7627C55.4061 15.5037 55.9586 15.3742 56.5974 15.3742C56.9945 15.3742 57.383 15.4433 57.7628 15.5814C58.1513 15.7195 58.4707 15.9138 58.721 16.1641L58.3325 16.9928C58.0822 16.7684 57.8103 16.6001 57.5168 16.4878C57.2232 16.3756 56.9427 16.3195 56.6751 16.3195C56.0449 16.3195 55.5572 16.518 55.2119 16.9151C54.8666 17.3122 54.6939 17.8777 54.6939 18.6114C54.6939 19.3452 54.8666 19.9236 55.2119 20.3466C55.5572 20.761 56.0449 20.9681 56.6751 20.9681C56.9427 20.9681 57.2232 20.912 57.5168 20.7998C57.8103 20.6876 58.0822 20.5149 58.3325 20.2819L58.721 21.1235C58.4707 21.3739 58.1469 21.5681 57.7498 21.7062C57.3614 21.8444 56.9772 21.9134 56.5974 21.9134ZM59.8844 21.7969V12.6679H61.0627V18.2748H61.0886L63.9244 15.4908H65.4006L62.008 18.8186V18.2359L65.6466 21.7969H64.1705L61.0886 18.8704H61.0627V21.7969H59.8844Z" fill="#FAFAFA"/>
<g clip-path="url(#clip0_4470_4800)">
<path d="M77.2323 17.2039V14.831C77.2316 14.0954 77.5042 13.3858 77.9972 12.8399C78.4902 12.294 79.1685 11.9508 79.9004 11.8768C80.6323 11.8029 81.3655 12.0036 81.9577 12.4398C82.55 12.8761 82.959 13.5169 83.1053 14.2377M76.0458 17.204H84.3511C85.0064 17.204 85.5376 17.7352 85.5376 18.3904V22.5431C85.5376 23.1984 85.0064 23.7296 84.3511 23.7296H76.0458C75.3906 23.7296 74.8594 23.1984 74.8594 22.5431V18.3904C74.8594 17.7352 75.3906 17.204 76.0458 17.204Z" stroke="#FAFAFA" stroke-width="1.1835" stroke-linecap="round" stroke-linejoin="round"/>
</g>
<path d="M45.5535 136.357V131.04H46.4129L46.9664 132.759C47.0198 132.915 47.0684 133.07 47.1121 133.225C47.1557 133.376 47.1873 133.492 47.2067 133.575C47.231 133.492 47.2626 133.376 47.3014 133.225C47.3403 133.07 47.3839 132.912 47.4325 132.752L47.9569 131.04H48.8163V136.357H48.1754V134.427C48.1754 134.213 48.1826 133.971 48.1972 133.699C48.2118 133.427 48.2312 133.15 48.2555 132.868C48.2797 132.582 48.304 132.31 48.3283 132.053C48.3574 131.791 48.3817 131.562 48.4011 131.368L47.5417 134.026H46.8499L45.9832 131.368C46.0075 131.557 46.0317 131.778 46.056 132.031C46.0803 132.278 46.1022 132.543 46.1216 132.825C46.141 133.101 46.158 133.378 46.1726 133.655C46.1871 133.932 46.1944 134.189 46.1944 134.427V136.357H45.5535ZM51.5518 136.43C51.2313 136.43 50.9546 136.369 50.7215 136.248C50.4933 136.126 50.3161 135.952 50.1899 135.723C50.0685 135.49 50.0078 135.216 50.0078 134.9V132.497C50.0078 132.177 50.0685 131.902 50.1899 131.674C50.3161 131.446 50.4933 131.271 50.7215 131.15C50.9546 131.028 51.2313 130.968 51.5518 130.968C51.8722 130.968 52.1466 131.028 52.3748 131.15C52.6078 131.271 52.785 131.446 52.9064 131.674C53.0327 131.902 53.0958 132.174 53.0958 132.49V134.9C53.0958 135.216 53.0327 135.49 52.9064 135.723C52.785 135.952 52.6078 136.126 52.3748 136.248C52.1466 136.369 51.8722 136.43 51.5518 136.43ZM51.5518 135.84C51.8383 135.84 52.0567 135.76 52.2073 135.6C52.3626 135.434 52.4403 135.201 52.4403 134.9V132.497C52.4403 132.196 52.3626 131.965 52.2073 131.805C52.0567 131.64 51.8383 131.557 51.5518 131.557C51.2702 131.557 51.0517 131.64 50.8963 131.805C50.741 131.965 50.6633 132.196 50.6633 132.497V134.9C50.6633 135.201 50.741 135.434 50.8963 135.6C51.0517 135.76 51.2702 135.84 51.5518 135.84ZM54.4039 136.357V131.04H55.7803C56.1251 131.04 56.4212 131.106 56.6689 131.237C56.9213 131.368 57.1155 131.553 57.2515 131.791C57.3923 132.028 57.4627 132.31 57.4627 132.635V134.755C57.4627 135.08 57.3923 135.364 57.2515 135.607C57.1155 135.845 56.9213 136.029 56.6689 136.16C56.4212 136.291 56.1251 136.357 55.7803 136.357H54.4039ZM55.0593 135.774H55.7803C56.1008 135.774 56.3508 135.684 56.5305 135.505C56.715 135.325 56.8072 135.075 56.8072 134.755V132.635C56.8072 132.32 56.715 132.072 56.5305 131.892C56.3508 131.713 56.1008 131.623 55.7803 131.623H55.0593V135.774ZM58.829 136.357V131.04H61.8879V131.638H59.4772V133.284H61.633V133.873H59.4772V135.76H61.8879V136.357H58.829ZM63.1377 136.357V131.04H64.7836C65.0992 131.04 65.376 131.106 65.6139 131.237C65.8518 131.363 66.0363 131.54 66.1674 131.769C66.2985 131.997 66.364 132.264 66.364 132.57C66.364 132.929 66.2694 133.237 66.08 133.495C65.8955 133.752 65.643 133.929 65.3226 134.026L66.4369 136.357H65.6649L64.6453 134.099H63.7932V136.357H63.1377ZM63.7932 133.509H64.7836C65.0555 133.509 65.274 133.424 65.4391 133.254C65.6042 133.08 65.6867 132.851 65.6867 132.57C65.6867 132.283 65.6042 132.055 65.4391 131.885C65.274 131.715 65.0555 131.63 64.7836 131.63H63.7932V133.509ZM67.49 136.357V131.04H68.364L69.9881 135.592C69.9784 135.471 69.9662 135.323 69.9517 135.148C69.942 134.968 69.9323 134.781 69.9226 134.587C69.9177 134.388 69.9153 134.201 69.9153 134.026V131.04H70.5489V136.357H69.6749L68.0581 131.805C68.0678 131.922 68.0775 132.07 68.0873 132.249C68.097 132.424 68.1042 132.611 68.1091 132.81C68.1188 133.004 68.1237 133.191 68.1237 133.371V136.357H67.49ZM76.2385 136.357V131.04H77.9499C78.2801 131.04 78.5666 131.106 78.8093 131.237C79.0521 131.363 79.239 131.543 79.3701 131.776C79.5061 132.009 79.574 132.286 79.574 132.606C79.574 132.922 79.5061 133.199 79.3701 133.436C79.239 133.67 79.0521 133.852 78.8093 133.983C78.5666 134.109 78.2801 134.172 77.9499 134.172H76.8939V136.357H76.2385ZM76.8939 133.582H77.9499C78.2364 133.582 78.4646 133.495 78.6345 133.32C78.8093 133.14 78.8967 132.902 78.8967 132.606C78.8967 132.305 78.8093 132.067 78.6345 131.892C78.4646 131.718 78.2364 131.63 77.9499 131.63H76.8939V133.582ZM80.2995 136.357L81.6832 131.04H82.5645L83.941 136.357H83.2782L82.9286 134.944H81.3191L80.9695 136.357H80.2995ZM81.4502 134.391H82.7902L82.3824 132.752C82.3047 132.441 82.244 132.181 82.2003 131.973C82.1566 131.764 82.1299 131.628 82.1202 131.565C82.1105 131.628 82.0838 131.764 82.0401 131.973C81.9964 132.181 81.9357 132.439 81.858 132.745L81.4502 134.391ZM86.5163 136.43C86.1958 136.43 85.9166 136.369 85.6787 136.248C85.4457 136.126 85.2636 135.952 85.1325 135.723C85.0063 135.49 84.9432 135.216 84.9432 134.9V132.497C84.9432 132.177 85.0063 131.902 85.1325 131.674C85.2636 131.446 85.4457 131.271 85.6787 131.15C85.9166 131.028 86.1958 130.968 86.5163 130.968C86.8367 130.968 87.1135 131.031 87.3465 131.157C87.5796 131.278 87.7592 131.453 87.8855 131.681C88.0117 131.909 88.0748 132.181 88.0748 132.497H87.4194C87.4194 132.196 87.3392 131.965 87.179 131.805C87.0236 131.64 86.8027 131.557 86.5163 131.557C86.2298 131.557 86.004 131.638 85.839 131.798C85.6787 131.958 85.5986 132.189 85.5986 132.49V134.9C85.5986 135.201 85.6787 135.434 85.839 135.6C86.004 135.76 86.2298 135.84 86.5163 135.84C86.8027 135.84 87.0236 135.76 87.179 135.6C87.3392 135.434 87.4194 135.201 87.4194 134.9H88.0748C88.0748 135.211 88.0117 135.483 87.8855 135.716C87.7592 135.944 87.5796 136.121 87.3465 136.248C87.1135 136.369 86.8367 136.43 86.5163 136.43ZM89.3975 136.357V131.04H92.4563V131.638H90.0456V133.284H92.2014V133.873H90.0456V135.76H92.4563V136.357H89.3975ZM95.221 133.371C95.0413 133.371 94.8957 133.322 94.784 133.225C94.6723 133.123 94.6165 132.99 94.6165 132.825C94.6165 132.66 94.6723 132.529 94.784 132.431C94.8957 132.329 95.0413 132.278 95.221 132.278C95.4055 132.278 95.5511 132.329 95.6579 132.431C95.7696 132.529 95.8255 132.66 95.8255 132.825C95.8255 132.99 95.7696 133.123 95.6579 133.225C95.5511 133.322 95.4055 133.371 95.221 133.371ZM95.221 136.43C95.0413 136.43 94.8957 136.381 94.784 136.284C94.6723 136.182 94.6165 136.049 94.6165 135.884C94.6165 135.718 94.6723 135.587 94.784 135.49C94.8957 135.388 95.0413 135.337 95.221 135.337C95.4055 135.337 95.5511 135.388 95.6579 135.49C95.7696 135.587 95.8255 135.718 95.8255 135.884C95.8255 136.049 95.7696 136.182 95.6579 136.284C95.5511 136.381 95.4055 136.43 95.221 136.43ZM47.952 148.454C47.4859 148.454 47.0845 148.376 46.7479 148.221C46.4177 148.066 46.162 147.842 45.9808 147.551C45.7995 147.26 45.7056 146.913 45.6992 146.512H46.5731C46.5731 146.868 46.6929 147.15 46.9324 147.357C47.1784 147.564 47.5183 147.667 47.952 147.667C48.3599 147.667 48.6771 147.567 48.9037 147.366C49.1367 147.166 49.2532 146.887 49.2532 146.531C49.2532 146.247 49.1756 145.997 49.0202 145.784C48.8713 145.57 48.6544 145.421 48.3696 145.337L47.4082 145.036C46.9227 144.887 46.5472 144.638 46.2818 144.288C46.0228 143.939 45.8934 143.528 45.8934 143.055C45.8934 142.673 45.9775 142.343 46.1458 142.064C46.3206 141.78 46.5634 141.56 46.8741 141.404C47.1849 141.242 47.5506 141.161 47.9714 141.161C48.5929 141.161 49.0914 141.336 49.4669 141.686C49.8423 142.029 50.0333 142.489 50.0398 143.065H49.1658C49.1658 142.715 49.059 142.443 48.8454 142.249C48.6382 142.048 48.3437 141.948 47.9617 141.948C47.5863 141.948 47.2917 142.039 47.0781 142.22C46.8709 142.401 46.7673 142.654 46.7673 142.977C46.7673 143.269 46.845 143.521 47.0004 143.735C47.1557 143.948 47.3791 144.1 47.6704 144.191L48.6415 144.502C49.1141 144.651 49.4798 144.903 49.7388 145.259C49.9977 145.615 50.1272 146.033 50.1272 146.512C50.1272 146.9 50.0366 147.24 49.8553 147.532C49.674 147.823 49.4183 148.049 49.0882 148.211C48.7645 148.373 48.3858 148.454 47.952 148.454ZM53.2988 148.357V142.055H51.3566V141.258H56.1148V142.055H54.1727V148.357H53.2988ZM57.1306 148.357L58.9757 141.268H60.1506L61.9859 148.357H61.1023L60.6362 146.473H58.4901L58.024 148.357H57.1306ZM58.6649 145.735H60.4517L59.9079 143.55C59.8043 143.136 59.7234 142.79 59.6651 142.511C59.6068 142.233 59.5712 142.052 59.5583 141.967C59.5453 142.052 59.5097 142.233 59.4515 142.511C59.3932 142.79 59.3123 143.133 59.2087 143.54L58.6649 145.735ZM63.361 148.357V141.268H65.5556C65.9764 141.268 66.3454 141.356 66.6626 141.53C66.9799 141.699 67.2259 141.935 67.4006 142.239C67.5754 142.544 67.6628 142.9 67.6628 143.307C67.6628 143.786 67.5366 144.198 67.2841 144.541C67.0381 144.884 66.7015 145.12 66.2742 145.25L67.7599 148.357H66.7306L65.3711 145.347H64.235V148.357H63.361ZM64.235 144.56H65.5556C65.9182 144.56 66.2095 144.447 66.4296 144.22C66.6497 143.987 66.7597 143.683 66.7597 143.307C66.7597 142.925 66.6497 142.621 66.4296 142.395C66.2095 142.168 65.9182 142.055 65.5556 142.055H64.235V144.56ZM70.7664 148.357V142.055H68.8243V141.258H73.5825V142.055H71.6404V148.357H70.7664ZM120.693 149.037H130.404V139.326H120.693V149.037ZM140.936 149.522C140.017 149.296 139.301 148.849 138.79 148.182C138.279 147.515 138.023 146.7 138.023 145.735V143.987C138.023 143.353 138.139 142.78 138.372 142.268C138.612 141.751 138.949 141.314 139.382 140.957C139.823 140.601 140.34 140.349 140.936 140.2V141.025C140.522 141.123 140.162 141.31 139.858 141.589C139.554 141.861 139.318 142.2 139.149 142.608C138.981 143.016 138.897 143.476 138.897 143.987V145.735C138.897 146.234 138.978 146.687 139.14 147.095C139.308 147.502 139.544 147.842 139.848 148.114C140.159 148.38 140.522 148.561 140.936 148.658V149.522ZM142.971 148.357V141.258H147.147V142.055H143.826V144.414H146.895V145.211H143.845V148.357H142.971ZM148.357 148.357L150.202 141.268H151.377L153.212 148.357H152.329L151.863 146.473H149.717L149.25 148.357H148.357ZM149.891 145.735H151.678L151.134 143.55C151.031 143.136 150.95 142.79 150.891 142.511C150.833 142.233 150.798 142.052 150.785 141.967C150.772 142.052 150.736 142.233 150.678 142.511C150.62 142.79 150.539 143.133 150.435 143.54L149.891 145.735ZM156.646 148.454C156.18 148.454 155.779 148.376 155.442 148.221C155.112 148.066 154.856 147.842 154.675 147.551C154.494 147.26 154.4 146.913 154.393 146.512H155.267C155.267 146.868 155.387 147.15 155.626 147.357C155.872 147.564 156.212 147.667 156.646 147.667C157.054 147.667 157.371 147.567 157.598 147.366C157.831 147.166 157.947 146.887 157.947 146.531C157.947 146.247 157.87 145.997 157.714 145.784C157.565 145.57 157.348 145.421 157.064 145.337L156.102 145.036C155.617 144.887 155.241 144.638 154.976 144.288C154.717 143.939 154.587 143.528 154.587 143.055C154.587 142.673 154.672 142.343 154.84 142.064C155.015 141.78 155.257 141.56 155.568 141.404C155.879 141.242 156.245 141.161 156.665 141.161C157.287 141.161 157.785 141.336 158.161 141.686C158.536 142.029 158.727 142.489 158.734 143.065H157.86C157.86 142.715 157.753 142.443 157.539 142.249C157.332 142.048 157.038 141.948 156.656 141.948C156.28 141.948 155.986 142.039 155.772 142.22C155.565 142.401 155.461 142.654 155.461 142.977C155.461 143.269 155.539 143.521 155.694 143.735C155.85 143.948 156.073 144.1 156.364 144.191L157.336 144.502C157.808 144.651 158.174 144.903 158.433 145.259C158.692 145.615 158.821 146.033 158.821 146.512C158.821 146.9 158.731 147.24 158.549 147.532C158.368 147.823 158.112 148.049 157.782 148.211C157.459 148.373 157.08 148.454 156.646 148.454ZM161.993 148.357V142.055H160.051V141.258H164.809V142.055H162.867V148.357H161.993ZM166.456 149.522V148.658C166.877 148.561 167.239 148.38 167.543 148.114C167.848 147.842 168.081 147.502 168.243 147.095C168.411 146.687 168.495 146.234 168.495 145.735V143.987C168.495 143.476 168.411 143.016 168.243 142.608C168.074 142.2 167.838 141.861 167.534 141.589C167.229 141.31 166.87 141.123 166.456 141.025V140.2C167.058 140.349 167.576 140.601 168.01 140.957C168.443 141.314 168.777 141.751 169.01 142.268C169.249 142.78 169.369 143.353 169.369 143.987V145.735C169.369 146.7 169.113 147.515 168.602 148.182C168.09 148.849 167.375 149.296 166.456 149.522Z" fill="#24272D"/>
<path d="M79.7411 145.735V143.793H85.9559V145.735H79.7411ZM85.5637 145.735V143.793H91.7785V145.735H85.5637ZM91.3862 145.735V143.793H97.601V145.735H91.3862ZM97.2088 145.735V143.793H103.424V145.735H97.2088ZM103.031 145.735V143.793H109.246V145.735H103.031ZM109.048 147.871V141.851L114.972 144.861L109.048 147.871Z" fill="#22C55E"/>
<path d="M44.8375 74.9131V69.5965H45.493V74.3159H47.8964V74.9131H44.8375ZM49.0952 74.9131V69.5965H52.154V70.1937H49.7434V71.8397H51.8991V72.4296H49.7434V74.3159H52.154V74.9131H49.0952ZM54.9478 74.9859C54.6274 74.9859 54.3482 74.9252 54.1103 74.8038C53.8773 74.6825 53.6952 74.5077 53.5641 74.2795C53.4379 74.0464 53.3747 73.7721 53.3747 73.4565V71.0531C53.3747 70.7327 53.4379 70.4584 53.5641 70.2302C53.6952 70.002 53.8773 69.8272 54.1103 69.7058C54.3482 69.5844 54.6274 69.5237 54.9478 69.5237C55.2683 69.5237 55.545 69.5868 55.7781 69.7131C56.0112 69.8345 56.1908 70.0092 56.317 70.2374C56.4433 70.4656 56.5064 70.7375 56.5064 71.0531H55.8509C55.8509 70.7521 55.7708 70.5215 55.6106 70.3613C55.4552 70.1962 55.2343 70.1136 54.9478 70.1136C54.6614 70.1136 54.4356 70.1937 54.2705 70.354C54.1103 70.5142 54.0302 70.7448 54.0302 71.0458V73.4565C54.0302 73.7575 54.1103 73.9906 54.2705 74.1557C54.4356 74.3207 54.6614 74.4033 54.9478 74.4033C55.2343 74.4033 55.4552 74.3207 55.6106 74.1557C55.7708 73.9906 55.8509 73.7575 55.8509 73.4565V72.801H54.7731V72.2038H56.5064V73.4565C56.5064 73.7672 56.4433 74.0391 56.317 74.2722C56.1908 74.5004 56.0112 74.6776 55.7781 74.8038C55.545 74.9252 55.2683 74.9859 54.9478 74.9859ZM57.4649 74.9131L58.8487 69.5965H59.7299L61.1064 74.9131H60.4436L60.094 73.5002H58.4845L58.1349 74.9131H57.4649ZM58.6156 72.9467H59.9557L59.5478 71.308C59.4701 70.9973 59.4094 70.7375 59.3657 70.5288C59.322 70.32 59.2953 70.184 59.2856 70.1209C59.2759 70.184 59.2492 70.32 59.2055 70.5288C59.1618 70.7375 59.1011 70.9949 59.0234 71.3007L58.6156 72.9467ZM63.6817 74.9859C63.3612 74.9859 63.0821 74.9252 62.8441 74.8038C62.6111 74.6825 62.429 74.5077 62.2979 74.2795C62.1717 74.0464 62.1086 73.7721 62.1086 73.4565V71.0531C62.1086 70.7327 62.1717 70.4584 62.2979 70.2302C62.429 70.002 62.6111 69.8272 62.8441 69.7058C63.0821 69.5844 63.3612 69.5237 63.6817 69.5237C64.0021 69.5237 64.2789 69.5868 64.5119 69.7131C64.745 69.8345 64.9246 70.0092 65.0509 70.2374C65.1771 70.4656 65.2402 70.7375 65.2402 71.0531H64.5848C64.5848 70.7521 64.5047 70.5215 64.3444 70.3613C64.1891 70.1962 63.9681 70.1136 63.6817 70.1136C63.3952 70.1136 63.1694 70.1937 63.0044 70.354C62.8441 70.5142 62.764 70.7448 62.764 71.0458V73.4565C62.764 73.7575 62.8441 73.9906 63.0044 74.1557C63.1694 74.3159 63.3952 74.396 63.6817 74.396C63.9681 74.396 64.1891 74.3159 64.3444 74.1557C64.5047 73.9906 64.5848 73.7575 64.5848 73.4565H65.2402C65.2402 73.7672 65.1771 74.0391 65.0509 74.2722C64.9246 74.5004 64.745 74.6776 64.5119 74.8038C64.2789 74.9252 64.0021 74.9859 63.6817 74.9859ZM67.6917 74.9131V72.9248L66.0895 69.5965H66.7668L67.8228 71.7814C67.8811 71.9028 67.9272 72.0072 67.9612 72.0946C67.9952 72.1771 68.017 72.2378 68.0267 72.2767C68.0365 72.2378 68.0583 72.1771 68.0923 72.0946C68.1311 72.0072 68.1797 71.9028 68.238 71.7814L69.2721 69.5965H69.9494L68.3472 72.9248V74.9131H67.6917ZM75.2385 74.9131V69.5965H76.9499C77.2801 69.5965 77.5666 69.6621 77.8093 69.7932C78.0521 69.9194 78.239 70.0991 78.3701 70.3321C78.5061 70.5652 78.574 70.8419 78.574 71.1624C78.574 71.478 78.5061 71.7547 78.3701 71.9926C78.239 72.2257 78.0521 72.4078 77.8093 72.5388C77.5666 72.6651 77.2801 72.7282 76.9499 72.7282H75.8939V74.9131H75.2385ZM75.8939 72.1383H76.9499C77.2364 72.1383 77.4646 72.0509 77.6345 71.8761C77.8093 71.6965 77.8967 71.4585 77.8967 71.1624C77.8967 70.8613 77.8093 70.6234 77.6345 70.4486C77.4646 70.2739 77.2364 70.1865 76.9499 70.1865H75.8939V72.1383ZM79.2995 74.9131L80.6832 69.5965H81.5645L82.941 74.9131H82.2782L81.9286 73.5002H80.3191L79.9695 74.9131H79.2995ZM80.4502 72.9467H81.7902L81.3824 71.308C81.3047 70.9973 81.244 70.7375 81.2003 70.5288C81.1566 70.32 81.1299 70.184 81.1202 70.1209C81.1105 70.184 81.0838 70.32 81.0401 70.5288C80.9964 70.7375 80.9357 70.9949 80.858 71.3007L80.4502 72.9467ZM85.5163 74.9859C85.1958 74.9859 84.9166 74.9252 84.6787 74.8038C84.4457 74.6825 84.2636 74.5077 84.1325 74.2795C84.0063 74.0464 83.9432 73.7721 83.9432 73.4565V71.0531C83.9432 70.7327 84.0063 70.4584 84.1325 70.2302C84.2636 70.002 84.4457 69.8272 84.6787 69.7058C84.9166 69.5844 85.1958 69.5237 85.5163 69.5237C85.8367 69.5237 86.1135 69.5868 86.3465 69.7131C86.5796 69.8345 86.7592 70.0092 86.8855 70.2374C87.0117 70.4656 87.0748 70.7375 87.0748 71.0531H86.4194C86.4194 70.7521 86.3392 70.5215 86.179 70.3613C86.0236 70.1962 85.8027 70.1136 85.5163 70.1136C85.2298 70.1136 85.004 70.1937 84.839 70.354C84.6787 70.5142 84.5986 70.7448 84.5986 71.0458V73.4565C84.5986 73.7575 84.6787 73.9906 84.839 74.1557C85.004 74.3159 85.2298 74.396 85.5163 74.396C85.8027 74.396 86.0236 74.3159 86.179 74.1557C86.3392 73.9906 86.4194 73.7575 86.4194 73.4565H87.0748C87.0748 73.7672 87.0117 74.0391 86.8855 74.2722C86.7592 74.5004 86.5796 74.6776 86.3465 74.8038C86.1135 74.9252 85.8367 74.9859 85.5163 74.9859ZM88.3975 74.9131V69.5965H91.4563V70.1937H89.0456V71.8397H91.2014V72.4296H89.0456V74.3159H91.4563V74.9131H88.3975ZM94.221 71.9271C94.0413 71.9271 93.8957 71.8785 93.784 71.7814C93.6723 71.6795 93.6165 71.5459 93.6165 71.3809C93.6165 71.2158 93.6723 71.0847 93.784 70.9876C93.8957 70.8856 94.0413 70.8346 94.221 70.8346C94.4055 70.8346 94.5511 70.8856 94.6579 70.9876C94.7696 71.0847 94.8255 71.2158 94.8255 71.3809C94.8255 71.5459 94.7696 71.6795 94.6579 71.7814C94.5511 71.8785 94.4055 71.9271 94.221 71.9271ZM94.221 74.9859C94.0413 74.9859 93.8957 74.9374 93.784 74.8403C93.6723 74.7383 93.6165 74.6048 93.6165 74.4397C93.6165 74.2746 93.6723 74.1435 93.784 74.0464C93.8957 73.9445 94.0413 73.8935 94.221 73.8935C94.4055 73.8935 94.5511 73.9445 94.6579 74.0464C94.7696 74.1435 94.8255 74.2746 94.8255 74.4397C94.8255 74.6048 94.7696 74.7383 94.6579 74.8403C94.5511 74.9374 94.4055 74.9859 94.221 74.9859ZM51.3189 87.0102C50.8528 87.0102 50.4515 86.9325 50.1148 86.7771C49.7847 86.6218 49.529 86.3984 49.3477 86.1071C49.1664 85.8158 49.0726 85.4694 49.0661 85.0681H49.94C49.94 85.4241 50.0598 85.7057 50.2993 85.9129C50.5453 86.1201 50.8852 86.2236 51.3189 86.2236C51.7268 86.2236 52.044 86.1233 52.2706 85.9226C52.5036 85.7219 52.6202 85.4436 52.6202 85.0875C52.6202 84.8027 52.5425 84.5534 52.3871 84.3398C52.2382 84.1261 52.0213 83.9773 51.7365 83.8931L50.7751 83.5921C50.2896 83.4432 49.9141 83.1939 49.6487 82.8444C49.3898 82.4948 49.2603 82.0837 49.2603 81.6111C49.2603 81.2292 49.3444 80.899 49.5128 80.6206C49.6876 80.3358 49.9303 80.1157 50.2411 79.9603C50.5518 79.7985 50.9176 79.7175 51.3384 79.7175C51.9598 79.7175 52.4583 79.8923 52.8338 80.2419C53.2093 80.585 53.4002 81.0447 53.4067 81.6208H52.5328C52.5328 81.2712 52.4259 80.9993 52.2123 80.8051C52.0051 80.6044 51.7106 80.5041 51.3286 80.5041C50.9532 80.5041 50.6586 80.5947 50.445 80.776C50.2378 80.9573 50.1342 81.2097 50.1342 81.5334C50.1342 81.8247 50.2119 82.0772 50.3673 82.2908C50.5227 82.5045 50.746 82.6566 51.0373 82.7472L52.0084 83.058C52.481 83.2069 52.8467 83.4594 53.1057 83.8154C53.3646 84.1715 53.4941 84.589 53.4941 85.0681C53.4941 85.4565 53.4035 85.7964 53.2222 86.0877C53.0409 86.379 52.7852 86.6056 52.4551 86.7674C52.1314 86.9293 51.7527 87.0102 51.3189 87.0102ZM56.6657 86.9131V80.6109H54.7236V79.8146H59.4817V80.6109H57.5396V86.9131H56.6657ZM60.4976 86.9131L62.3426 79.8244H63.5176L65.3529 86.9131H64.4692L64.0031 85.0292H61.857L61.3909 86.9131H60.4976ZM62.0318 84.2912H63.8186L63.2748 82.1063C63.1712 81.692 63.0903 81.3457 63.032 81.0673C62.9738 80.7889 62.9382 80.6077 62.9252 80.5235C62.9123 80.6077 62.8767 80.7889 62.8184 81.0673C62.7601 81.3457 62.6792 81.6888 62.5756 82.0966L62.0318 84.2912ZM66.728 86.9131V79.8244H68.9226C69.3433 79.8244 69.7123 79.9118 70.0296 80.0865C70.3468 80.2549 70.5928 80.4912 70.7676 80.7954C70.9424 81.0997 71.0297 81.4557 71.0297 81.8636C71.0297 82.3426 70.9035 82.7537 70.651 83.0968C70.405 83.4399 70.0684 83.6762 69.6411 83.8057L71.1269 86.9131H70.0975L68.7381 83.9028H67.6019V86.9131H66.728ZM67.6019 83.1162H68.9226C69.2851 83.1162 69.5764 83.003 69.7965 82.7764C70.0166 82.5433 70.1267 82.2391 70.1267 81.8636C70.1267 81.4816 70.0166 81.1774 69.7965 80.9508C69.5764 80.7242 69.2851 80.6109 68.9226 80.6109H67.6019V83.1162ZM74.1333 86.9131V80.6109H72.1912V79.8146H76.9494V80.6109H75.0073V86.9131H74.1333ZM240.511 87.5928H250.222V77.8822H240.511V87.5928ZM260.754 88.0784C259.835 87.8518 259.119 87.4051 258.608 86.7383C258.097 86.0715 257.841 85.2558 257.841 84.2912V82.5433C257.841 81.9089 257.957 81.336 258.19 80.8246C258.43 80.3067 258.767 79.8697 259.2 79.5136C259.641 79.1576 260.158 78.9051 260.754 78.7562V79.5816C260.34 79.6787 259.98 79.8664 259.676 80.1448C259.372 80.4167 259.136 80.7566 258.967 81.1644C258.799 81.5723 258.715 82.0319 258.715 82.5433V84.2912C258.715 84.7897 258.796 85.2429 258.958 85.6507C259.126 86.0586 259.362 86.3984 259.666 86.6703C259.977 86.9357 260.34 87.117 260.754 87.2141V88.0784ZM264.819 87.0102C264.353 87.0102 263.952 86.9325 263.615 86.7771C263.285 86.6218 263.029 86.3984 262.848 86.1071C262.666 85.8158 262.573 85.4694 262.566 85.0681H263.44C263.44 85.4241 263.56 85.7057 263.799 85.9129C264.045 86.1201 264.385 86.2236 264.819 86.2236C265.227 86.2236 265.544 86.1233 265.771 85.9226C266.004 85.7219 266.12 85.4436 266.12 85.0875C266.12 84.8027 266.043 84.5534 265.887 84.3398C265.738 84.1261 265.521 83.9773 265.237 83.8931L264.275 83.5921C263.79 83.4432 263.414 83.1939 263.149 82.8444C262.89 82.4948 262.76 82.0837 262.76 81.6111C262.76 81.2292 262.845 80.899 263.013 80.6206C263.188 80.3358 263.43 80.1157 263.741 79.9603C264.052 79.7985 264.418 79.7175 264.838 79.7175C265.46 79.7175 265.958 79.8923 266.334 80.2419C266.709 80.585 266.9 81.0447 266.907 81.6208H266.033C266.033 81.2712 265.926 80.9993 265.712 80.8051C265.505 80.6044 265.211 80.5041 264.829 80.5041C264.453 80.5041 264.159 80.5947 263.945 80.776C263.738 80.9573 263.634 81.2097 263.634 81.5334C263.634 81.8247 263.712 82.0772 263.867 82.2908C264.023 82.5045 264.246 82.6566 264.537 82.7472L265.508 83.058C265.981 83.2069 266.347 83.4594 266.606 83.8154C266.865 84.1715 266.994 84.589 266.994 85.0681C266.994 85.4565 266.904 85.7964 266.722 86.0877C266.541 86.379 266.285 86.6056 265.955 86.7674C265.631 86.9293 265.253 87.0102 264.819 87.0102ZM268.806 86.9131V79.8244H269.68V86.1168H272.885V86.9131H268.806ZM276.425 87.0102C275.998 87.0102 275.629 86.9293 275.318 86.7674C275.014 86.6056 274.778 86.3725 274.609 86.0683C274.448 85.7575 274.367 85.3918 274.367 84.971V81.7665C274.367 81.3392 274.448 80.9734 274.609 80.6692C274.778 80.3649 275.014 80.1319 275.318 79.97C275.629 79.8082 275.998 79.7273 276.425 79.7273C276.853 79.7273 277.218 79.8082 277.523 79.97C277.833 80.1319 278.07 80.3649 278.231 80.6692C278.4 80.9734 278.484 81.336 278.484 81.7568V84.971C278.484 85.3918 278.4 85.7575 278.231 86.0683C278.07 86.3725 277.833 86.6056 277.523 86.7674C277.218 86.9293 276.853 87.0102 276.425 87.0102ZM276.425 86.2236C276.807 86.2236 277.099 86.1168 277.299 85.9032C277.506 85.6831 277.61 85.3723 277.61 84.971V81.7665C277.61 81.3651 277.506 81.0576 277.299 80.844C277.099 80.6239 276.807 80.5138 276.425 80.5138C276.05 80.5138 275.758 80.6239 275.551 80.844C275.344 81.0576 275.241 81.3651 275.241 81.7665V84.971C275.241 85.3723 275.344 85.6831 275.551 85.9032C275.758 86.1168 276.05 86.2236 276.425 86.2236ZM280.393 86.9131L279.577 79.8244H280.413L280.947 85.0681C280.96 85.2105 280.972 85.3594 280.985 85.5148C280.998 85.6637 281.008 85.8061 281.015 85.942C281.028 86.078 281.034 86.1913 281.034 86.2819C281.047 86.1913 281.057 86.078 281.063 85.942C281.076 85.8061 281.089 85.6637 281.102 85.5148C281.121 85.3594 281.141 85.2105 281.16 85.0681L281.821 79.8244H282.724L283.326 85.0681C283.345 85.2105 283.361 85.3594 283.374 85.5148C283.394 85.6637 283.41 85.8061 283.423 85.942C283.442 86.078 283.455 86.1913 283.462 86.2819C283.468 86.1913 283.475 86.078 283.481 85.942C283.494 85.8061 283.507 85.6637 283.52 85.5148C283.539 85.3594 283.556 85.2105 283.568 85.0681L284.122 79.8244H284.918L284.083 86.9131H282.986L282.384 81.5723C282.371 81.4234 282.355 81.2777 282.335 81.1353C282.322 80.9929 282.309 80.8602 282.296 80.7372C282.283 80.6142 282.274 80.5138 282.267 80.4361C282.261 80.5138 282.248 80.6142 282.228 80.7372C282.215 80.8602 282.202 80.9929 282.19 81.1353C282.177 81.2777 282.16 81.4234 282.141 81.5723L281.49 86.9131H280.393ZM286.274 88.0784V87.2141C286.695 87.117 287.057 86.9357 287.361 86.6703C287.666 86.3984 287.899 86.0586 288.061 85.6507C288.229 85.2429 288.313 84.7897 288.313 84.2912V82.5433C288.313 82.0319 288.229 81.5723 288.061 81.1644C287.892 80.7566 287.656 80.4167 287.352 80.1448C287.048 79.8664 286.688 79.6787 286.274 79.5816V78.7562C286.876 78.9051 287.394 79.1576 287.828 79.5136C288.261 79.8697 288.595 80.3067 288.828 80.8246C289.067 81.336 289.187 81.9089 289.187 82.5433V84.2912C289.187 85.2558 288.931 86.0715 288.42 86.7383C287.909 87.4051 287.193 87.8518 286.274 88.0784Z" fill="#24272D"/>
<path d="M83.108 84.2912V82.3491H89.3228V84.2912H83.108ZM88.9306 84.2912V82.3491H95.1454V84.2912H88.9306ZM94.7532 84.2912V82.3491H100.968V84.2912H94.7532ZM100.576 84.2912V82.3491H106.79V84.2912H100.576ZM106.398 84.2912V82.3491H112.613V84.2912H106.398ZM112.221 84.2912V82.3491H118.436V84.2912H112.221ZM118.043 84.2912V82.3491H124.258V84.2912H118.043ZM123.866 84.2912V82.3491H130.081V84.2912H123.866ZM129.688 84.2912V82.3491H135.903V84.2912H129.688ZM135.511 84.2912V82.3491H141.726V84.2912H135.511ZM141.334 84.2912V82.3491H147.548V84.2912H141.334ZM147.156 84.2912V82.3491H153.371V84.2912H147.156ZM152.979 84.2912V82.3491H159.193V84.2912H152.979ZM158.801 84.2912V82.3491H165.016V84.2912H158.801ZM164.624 84.2912V82.3491H170.839V84.2912H164.624ZM170.446 84.2912V82.3491H176.661V84.2912H170.446ZM176.269 84.2912V82.3491H182.484V84.2912H176.269ZM182.092 84.2912V82.3491H188.306V84.2912H182.092ZM187.914 84.2912V82.3491H194.129V84.2912H187.914ZM193.737 84.2912V82.3491H199.951V84.2912H193.737ZM199.559 84.2912V82.3491H205.774V84.2912H199.559ZM205.382 84.2912V82.3491H211.597V84.2912H205.382ZM211.204 84.2912V82.3491H217.419V84.2912H211.204ZM217.027 84.2912V82.3491H223.242V84.2912H217.027ZM222.849 84.2912V82.3491H229.064V84.2912H222.849ZM228.866 86.4276V80.407L234.79 83.4173L228.866 86.4276Z" fill="#EF4444"/>
<defs>
<filter id="filter0_dd_4470_4800" x="15.0986" y="25.8451" width="312.291" height="166.703" filterUnits="userSpaceOnUse" color-interpolation-filters="sRGB">
<feFlood flood-opacity="0" result="BackgroundImageFix"/>
<feColorMatrix in="SourceAlpha" type="matrix" values="0 0 0 0 0 0 0 0 0 0 0 0 0 0 0 0 0 0 127 0" result="hardAlpha"/>
<feOffset dy="0.463211"/>
<feGaussianBlur stdDeviation="0.463211"/>
<feColorMatrix type="matrix" values="0 0 0 0 0 0 0 0 0 0 0 0 0 0 0 0 0 0 0.06 0"/>
<feBlend mode="normal" in2="BackgroundImageFix" result="effect1_dropShadow_4470_4800"/>
<feColorMatrix in="SourceAlpha" type="matrix" values="0 0 0 0 0 0 0 0 0 0 0 0 0 0 0 0 0 0 127 0" result="hardAlpha"/>
<feOffset dy="0.463211"/>
<feGaussianBlur stdDeviation="0.694816"/>
<feColorMatrix type="matrix" values="0 0 0 0 0 0 0 0 0 0 0 0 0 0 0 0 0 0 0.1 0"/>
<feBlend mode="normal" in2="effect1_dropShadow_4470_4800" result="effect2_dropShadow_4470_4800"/>
<feBlend mode="normal" in="SourceGraphic" in2="effect2_dropShadow_4470_4800" result="shape"/>
</filter>
<clipPath id="clip0_4470_4800">
<rect width="14.2376" height="14.2376" fill="white" transform="translate(73.0801 10.6782)"/>
</clipPath>
</defs>
</svg>
