<svg width="329" height="211" viewBox="0 0 329 211" fill="none" xmlns="http://www.w3.org/2000/svg">
<g filter="url(#filter0_dd_4470_4800)">
<rect x="30" y="35.6953" width="293" height="155" rx="4" fill="white"/>
<rect x="30.2316" y="35.9269" width="292.537" height="154.537" rx="3.76839" stroke="#F4F4F5" stroke-width="0.463211"/>
</g>
<path d="M3 25.5495C3 22.4846 5.48461 20 8.54952 20H103.729C106.794 20 109.279 22.4846 109.279 25.5495V50.0446C109.279 53.1095 106.794 55.5941 103.729 55.5941H8.54952C5.48461 55.5941 3 53.1095 3 50.0446V25.5495Z" fill="#16A34A"/>
<path d="M29.7002 41.9134C28.4917 41.9134 27.5723 41.594 26.9421 40.9552C26.3119 40.3164 25.9968 39.3798 25.9968 38.1453V32.6679H27.2011V38.1064C27.2011 39.0301 27.4126 39.7207 27.8356 40.1783C28.2586 40.6272 28.8801 40.8516 29.7002 40.8516C30.5203 40.8516 31.1419 40.6272 31.5649 40.1783C31.9879 39.7207 32.1994 39.0301 32.1994 38.1064V32.6679H33.3907V38.1453C33.3907 39.3798 33.0756 40.3164 32.4454 40.9552C31.8238 41.594 30.9088 41.9134 29.7002 41.9134ZM35.3776 41.7969V35.4908H36.5301V36.8634H36.3876C36.5689 36.3713 36.8624 36.0001 37.2681 35.7497C37.6825 35.4994 38.153 35.3742 38.6796 35.3742C39.1889 35.3742 39.6076 35.4649 39.9356 35.6462C40.2637 35.8274 40.5097 36.108 40.6737 36.4878C40.8377 36.859 40.9197 37.3252 40.9197 37.8863V41.7969H39.7414V37.9511C39.7414 37.5799 39.6939 37.2734 39.5989 37.0317C39.504 36.79 39.3529 36.613 39.1457 36.5008C38.9472 36.3886 38.6925 36.3324 38.3817 36.3324C38.0192 36.3324 37.6998 36.4101 37.4235 36.5655C37.1473 36.7209 36.9315 36.941 36.7761 37.2259C36.6293 37.5108 36.556 37.8431 36.556 38.223V41.7969H35.3776ZM44.7949 41.9134C44.1215 41.9134 43.6165 41.7235 43.2799 41.3437C42.9518 40.9552 42.7878 40.3984 42.7878 39.6733V32.6679H43.9662V39.5826C43.9662 39.8761 44.005 40.1265 44.0827 40.3337C44.169 40.5322 44.2899 40.679 44.4453 40.7739C44.6093 40.8689 44.8121 40.9164 45.0539 40.9164C45.1488 40.9164 45.2438 40.912 45.3387 40.9034C45.4423 40.8948 45.5373 40.8775 45.6236 40.8516L45.5977 41.8098C45.4596 41.8444 45.3215 41.8703 45.1834 41.8875C45.0539 41.9048 44.9244 41.9134 44.7949 41.9134ZM49.2998 41.9134C48.6782 41.9134 48.1387 41.7796 47.6812 41.512C47.2236 41.2444 46.8697 40.8646 46.6194 40.3725C46.369 39.8804 46.2438 39.3021 46.2438 38.6373C46.2438 37.9726 46.369 37.3986 46.6194 36.9151C46.8697 36.4231 47.2236 36.0433 47.6812 35.7756C48.1387 35.508 48.6782 35.3742 49.2998 35.3742C49.9213 35.3742 50.4609 35.508 50.9184 35.7756C51.3759 36.0433 51.7299 36.4231 51.9802 36.9151C52.2305 37.3986 52.3557 37.9726 52.3557 38.6373C52.3557 39.3021 52.2305 39.8804 51.9802 40.3725C51.7299 40.8646 51.3759 41.2444 50.9184 41.512C50.4609 41.7796 49.9213 41.9134 49.2998 41.9134ZM49.2998 40.9811C49.8695 40.9811 50.3227 40.7825 50.6594 40.3854C50.9961 39.9797 51.1644 39.397 51.1644 38.6373C51.1644 37.8777 50.9961 37.2993 50.6594 36.9022C50.3227 36.5051 49.8695 36.3065 49.2998 36.3065C48.7387 36.3065 48.2855 36.5051 47.9401 36.9022C47.6035 37.2993 47.4351 37.8777 47.4351 38.6373C47.4351 39.397 47.6035 39.9797 47.9401 40.3854C48.2855 40.7825 48.7387 40.9811 49.2998 40.9811ZM56.5974 41.9134C55.9586 41.9134 55.4061 41.7796 54.9399 41.512C54.4738 41.2358 54.1155 40.8516 53.8652 40.3595C53.6148 39.8589 53.4897 39.2718 53.4897 38.5985C53.4897 37.9338 53.6148 37.3597 53.8652 36.8763C54.1155 36.3929 54.4738 36.0217 54.9399 35.7627C55.4061 35.5037 55.9586 35.3742 56.5974 35.3742C56.9945 35.3742 57.383 35.4433 57.7628 35.5814C58.1513 35.7195 58.4707 35.9138 58.721 36.1641L58.3325 36.9928C58.0822 36.7684 57.8103 36.6001 57.5168 36.4878C57.2232 36.3756 56.9427 36.3195 56.6751 36.3195C56.0449 36.3195 55.5572 36.518 55.2119 36.9151C54.8666 37.3122 54.6939 37.8777 54.6939 38.6114C54.6939 39.3452 54.8666 39.9236 55.2119 40.3466C55.5572 40.761 56.0449 40.9681 56.6751 40.9681C56.9427 40.9681 57.2232 40.912 57.5168 40.7998C57.8103 40.6876 58.0822 40.5149 58.3325 40.2819L58.721 41.1235C58.4707 41.3739 58.1469 41.5681 57.7498 41.7062C57.3614 41.8444 56.9772 41.9134 56.5974 41.9134ZM59.8844 41.7969V32.6679H61.0627V38.2748H61.0886L63.9244 35.4908H65.4006L62.008 38.8186V38.2359L65.6466 41.7969H64.1705L61.0886 38.8704H61.0627V41.7969H59.8844Z" fill="#FAFAFA"/>
<g clip-path="url(#clip0_4470_4800)">
<path d="M77.2323 37.2039V34.831C77.2316 34.0954 77.5042 33.3858 77.9972 32.8399C78.4902 32.294 79.1685 31.9508 79.9004 31.8768C80.6323 31.8029 81.3655 32.0036 81.9577 32.4398C82.55 32.8761 82.959 33.5169 83.1053 34.2377M76.0458 37.204H84.3511C85.0064 37.204 85.5376 37.7352 85.5376 38.3904V42.5431C85.5376 43.1984 85.0064 43.7296 84.3511 43.7296H76.0458C75.3906 43.7296 74.8594 43.1984 74.8594 42.5431V38.3904C74.8594 37.7352 75.3906 37.204 76.0458 37.204Z" stroke="#FAFAFA" stroke-width="1.1835" stroke-linecap="round" stroke-linejoin="round"/>
</g>
<path d="M45.5535 143V137.683H46.4129L46.9664 139.402C47.0198 139.558 47.0684 139.713 47.1121 139.868C47.1557 140.019 47.1873 140.135 47.2067 140.218C47.231 140.135 47.2626 140.019 47.3014 139.868C47.3403 139.713 47.3839 139.555 47.4325 139.395L47.9569 137.683H48.8163V143H48.1754V141.07C48.1754 140.856 48.1826 140.614 48.1972 140.342C48.2118 140.07 48.2312 139.793 48.2555 139.511C48.2797 139.225 48.304 138.953 48.3283 138.696C48.3574 138.434 48.3817 138.205 48.4011 138.011L47.5417 140.669H46.8499L45.9832 138.011C46.0075 138.201 46.0317 138.421 46.056 138.674C46.0803 138.922 46.1022 139.186 46.1216 139.468C46.141 139.745 46.158 140.021 46.1726 140.298C46.1871 140.575 46.1944 140.832 46.1944 141.07V143H45.5535ZM51.5518 143.073C51.2313 143.073 50.9546 143.012 50.7215 142.891C50.4933 142.769 50.3161 142.595 50.1899 142.366C50.0685 142.133 50.0078 141.859 50.0078 141.543V139.14C50.0078 138.82 50.0685 138.545 50.1899 138.317C50.3161 138.089 50.4933 137.914 50.7215 137.793C50.9546 137.671 51.2313 137.611 51.5518 137.611C51.8722 137.611 52.1466 137.671 52.3748 137.793C52.6078 137.914 52.785 138.089 52.9064 138.317C53.0327 138.545 53.0958 138.817 53.0958 139.133V141.543C53.0958 141.859 53.0327 142.133 52.9064 142.366C52.785 142.595 52.6078 142.769 52.3748 142.891C52.1466 143.012 51.8722 143.073 51.5518 143.073ZM51.5518 142.483C51.8383 142.483 52.0567 142.403 52.2073 142.243C52.3626 142.077 52.4403 141.844 52.4403 141.543V139.14C52.4403 138.839 52.3626 138.608 52.2073 138.448C52.0567 138.283 51.8383 138.201 51.5518 138.201C51.2702 138.201 51.0517 138.283 50.8963 138.448C50.741 138.608 50.6633 138.839 50.6633 139.14V141.543C50.6633 141.844 50.741 142.077 50.8963 142.243C51.0517 142.403 51.2702 142.483 51.5518 142.483ZM54.4039 143V137.683H55.7803C56.1251 137.683 56.4212 137.749 56.6689 137.88C56.9213 138.011 57.1155 138.196 57.2515 138.434C57.3923 138.672 57.4627 138.953 57.4627 139.278V141.398C57.4627 141.723 57.3923 142.007 57.2515 142.25C57.1155 142.488 56.9213 142.672 56.6689 142.803C56.4212 142.934 56.1251 143 55.7803 143H54.4039ZM55.0593 142.417H55.7803C56.1008 142.417 56.3508 142.328 56.5305 142.148C56.715 141.968 56.8072 141.718 56.8072 141.398V139.278C56.8072 138.963 56.715 138.715 56.5305 138.536C56.3508 138.356 56.1008 138.266 55.7803 138.266H55.0593V142.417ZM58.829 143V137.683H61.8879V138.281H59.4772V139.927H61.633V140.517H59.4772V142.403H61.8879V143H58.829ZM63.1377 143V137.683H64.7836C65.0992 137.683 65.376 137.749 65.6139 137.88C65.8518 138.006 66.0363 138.184 66.1674 138.412C66.2985 138.64 66.364 138.907 66.364 139.213C66.364 139.572 66.2694 139.88 66.08 140.138C65.8955 140.395 65.643 140.572 65.3226 140.669L66.4369 143H65.6649L64.6453 140.742H63.7932V143H63.1377ZM63.7932 140.152H64.7836C65.0555 140.152 65.274 140.067 65.4391 139.897C65.6042 139.723 65.6867 139.494 65.6867 139.213C65.6867 138.926 65.6042 138.698 65.4391 138.528C65.274 138.358 65.0555 138.273 64.7836 138.273H63.7932V140.152ZM67.49 143V137.683H68.364L69.9881 142.235C69.9784 142.114 69.9662 141.966 69.9517 141.791C69.942 141.611 69.9323 141.424 69.9226 141.23C69.9177 141.031 69.9153 140.844 69.9153 140.669V137.683H70.5489V143H69.6749L68.0581 138.448C68.0678 138.565 68.0775 138.713 68.0873 138.892C68.097 139.067 68.1042 139.254 68.1091 139.453C68.1188 139.647 68.1237 139.834 68.1237 140.014V143H67.49ZM76.2385 143V137.683H77.9499C78.2801 137.683 78.5666 137.749 78.8093 137.88C79.0521 138.006 79.239 138.186 79.3701 138.419C79.5061 138.652 79.574 138.929 79.574 139.249C79.574 139.565 79.5061 139.842 79.3701 140.08C79.239 140.313 79.0521 140.495 78.8093 140.626C78.5666 140.752 78.2801 140.815 77.9499 140.815H76.8939V143H76.2385ZM76.8939 140.225H77.9499C78.2364 140.225 78.4646 140.138 78.6345 139.963C78.8093 139.783 78.8967 139.545 78.8967 139.249C78.8967 138.948 78.8093 138.71 78.6345 138.536C78.4646 138.361 78.2364 138.273 77.9499 138.273H76.8939V140.225ZM80.2995 143L81.6832 137.683H82.5645L83.941 143H83.2782L82.9286 141.587H81.3191L80.9695 143H80.2995ZM81.4502 141.034H82.7902L82.3824 139.395C82.3047 139.084 82.244 138.824 82.2003 138.616C82.1566 138.407 82.1299 138.271 82.1202 138.208C82.1105 138.271 82.0838 138.407 82.0401 138.616C81.9964 138.824 81.9357 139.082 81.858 139.388L81.4502 141.034ZM86.5163 143.073C86.1958 143.073 85.9166 143.012 85.6787 142.891C85.4457 142.769 85.2636 142.595 85.1325 142.366C85.0063 142.133 84.9432 141.859 84.9432 141.543V139.14C84.9432 138.82 85.0063 138.545 85.1325 138.317C85.2636 138.089 85.4457 137.914 85.6787 137.793C85.9166 137.671 86.1958 137.611 86.5163 137.611C86.8367 137.611 87.1135 137.674 87.3465 137.8C87.5796 137.921 87.7592 138.096 87.8855 138.324C88.0117 138.553 88.0748 138.824 88.0748 139.14H87.4194C87.4194 138.839 87.3392 138.608 87.179 138.448C87.0236 138.283 86.8027 138.201 86.5163 138.201C86.2298 138.201 86.004 138.281 85.839 138.441C85.6787 138.601 85.5986 138.832 85.5986 139.133V141.543C85.5986 141.844 85.6787 142.077 85.839 142.243C86.004 142.403 86.2298 142.483 86.5163 142.483C86.8027 142.483 87.0236 142.403 87.179 142.243C87.3392 142.077 87.4194 141.844 87.4194 141.543H88.0748C88.0748 141.854 88.0117 142.126 87.8855 142.359C87.7592 142.587 87.5796 142.765 87.3465 142.891C87.1135 143.012 86.8367 143.073 86.5163 143.073ZM89.3975 143V137.683H92.4563V138.281H90.0456V139.927H92.2014V140.517H90.0456V142.403H92.4563V143H89.3975ZM95.221 140.014C95.0413 140.014 94.8957 139.965 94.784 139.868C94.6723 139.766 94.6165 139.633 94.6165 139.468C94.6165 139.303 94.6723 139.172 94.784 139.074C94.8957 138.973 95.0413 138.922 95.221 138.922C95.4055 138.922 95.5511 138.973 95.6579 139.074C95.7696 139.172 95.8255 139.303 95.8255 139.468C95.8255 139.633 95.7696 139.766 95.6579 139.868C95.5511 139.965 95.4055 140.014 95.221 140.014ZM95.221 143.073C95.0413 143.073 94.8957 143.024 94.784 142.927C94.6723 142.825 94.6165 142.692 94.6165 142.527C94.6165 142.362 94.6723 142.23 94.784 142.133C94.8957 142.031 95.0413 141.98 95.221 141.98C95.4055 141.98 95.5511 142.031 95.6579 142.133C95.7696 142.23 95.8255 142.362 95.8255 142.527C95.8255 142.692 95.7696 142.825 95.6579 142.927C95.5511 143.024 95.4055 143.073 95.221 143.073ZM47.952 155.097C47.4859 155.097 47.0845 155.019 46.7479 154.864C46.4177 154.709 46.162 154.485 45.9808 154.194C45.7995 153.903 45.7056 153.556 45.6992 153.155H46.5731C46.5731 153.511 46.6929 153.793 46.9324 154C47.1784 154.207 47.5183 154.311 47.952 154.311C48.3599 154.311 48.6771 154.21 48.9037 154.01C49.1367 153.809 49.2532 153.53 49.2532 153.174C49.2532 152.89 49.1756 152.64 49.0202 152.427C48.8713 152.213 48.6544 152.064 48.3696 151.98L47.4082 151.679C46.9227 151.53 46.5472 151.281 46.2818 150.931C46.0228 150.582 45.8934 150.171 45.8934 149.698C45.8934 149.316 45.9775 148.986 46.1458 148.708C46.3206 148.423 46.5634 148.203 46.8741 148.047C47.1849 147.885 47.5506 147.804 47.9714 147.804C48.5929 147.804 49.0914 147.979 49.4669 148.329C49.8423 148.672 50.0333 149.132 50.0398 149.708H49.1658C49.1658 149.358 49.059 149.086 48.8454 148.892C48.6382 148.691 48.3437 148.591 47.9617 148.591C47.5863 148.591 47.2917 148.682 47.0781 148.863C46.8709 149.044 46.7673 149.297 46.7673 149.62C46.7673 149.912 46.845 150.164 47.0004 150.378C47.1557 150.591 47.3791 150.744 47.6704 150.834L48.6415 151.145C49.1141 151.294 49.4798 151.546 49.7388 151.902C49.9977 152.258 50.1272 152.676 50.1272 153.155C50.1272 153.543 50.0366 153.883 49.8553 154.175C49.674 154.466 49.4183 154.692 49.0882 154.854C48.7645 155.016 48.3858 155.097 47.952 155.097ZM53.2988 155V148.698H51.3566V147.902H56.1148V148.698H54.1727V155H53.2988ZM57.1306 155L58.9757 147.911H60.1506L61.9859 155H61.1023L60.6362 153.116H58.4901L58.024 155H57.1306ZM58.6649 152.378H60.4517L59.9079 150.193C59.8043 149.779 59.7234 149.433 59.6651 149.154C59.6068 148.876 59.5712 148.695 59.5583 148.61C59.5453 148.695 59.5097 148.876 59.4515 149.154C59.3932 149.433 59.3123 149.776 59.2087 150.184L58.6649 152.378ZM63.361 155V147.911H65.5556C65.9764 147.911 66.3454 147.999 66.6626 148.173C66.9799 148.342 67.2259 148.578 67.4006 148.882C67.5754 149.187 67.6628 149.543 67.6628 149.95C67.6628 150.43 67.5366 150.841 67.2841 151.184C67.0381 151.527 66.7015 151.763 66.2742 151.893L67.7599 155H66.7306L65.3711 151.99H64.235V155H63.361ZM64.235 151.203H65.5556C65.9182 151.203 66.2095 151.09 66.4296 150.863C66.6497 150.63 66.7597 150.326 66.7597 149.95C66.7597 149.569 66.6497 149.264 66.4296 149.038C66.2095 148.811 65.9182 148.698 65.5556 148.698H64.235V151.203ZM70.7664 155V148.698H68.8243V147.902H73.5825V148.698H71.6404V155H70.7664ZM120.693 155.68H130.404V145.969H120.693V155.68ZM140.936 156.165C140.017 155.939 139.301 155.492 138.79 154.825C138.279 154.158 138.023 153.343 138.023 152.378V150.63C138.023 149.996 138.139 149.423 138.372 148.911C138.612 148.394 138.949 147.957 139.382 147.601C139.823 147.244 140.34 146.992 140.936 146.843V147.669C140.522 147.766 140.162 147.953 139.858 148.232C139.554 148.504 139.318 148.843 139.149 149.251C138.981 149.659 138.897 150.119 138.897 150.63V152.378C138.897 152.877 138.978 153.33 139.14 153.738C139.308 154.145 139.544 154.485 139.848 154.757C140.159 155.023 140.522 155.204 140.936 155.301V156.165ZM142.971 155V147.902H147.147V148.698H143.826V151.058H146.895V151.854H143.845V155H142.971ZM148.357 155L150.202 147.911H151.377L153.212 155H152.329L151.863 153.116H149.717L149.25 155H148.357ZM149.891 152.378H151.678L151.134 150.193C151.031 149.779 150.95 149.433 150.891 149.154C150.833 148.876 150.798 148.695 150.785 148.61C150.772 148.695 150.736 148.876 150.678 149.154C150.62 149.433 150.539 149.776 150.435 150.184L149.891 152.378ZM156.646 155.097C156.18 155.097 155.779 155.019 155.442 154.864C155.112 154.709 154.856 154.485 154.675 154.194C154.494 153.903 154.4 153.556 154.393 153.155H155.267C155.267 153.511 155.387 153.793 155.626 154C155.872 154.207 156.212 154.311 156.646 154.311C157.054 154.311 157.371 154.21 157.598 154.01C157.831 153.809 157.947 153.53 157.947 153.174C157.947 152.89 157.87 152.64 157.714 152.427C157.565 152.213 157.348 152.064 157.064 151.98L156.102 151.679C155.617 151.53 155.241 151.281 154.976 150.931C154.717 150.582 154.587 150.171 154.587 149.698C154.587 149.316 154.672 148.986 154.84 148.708C155.015 148.423 155.257 148.203 155.568 148.047C155.879 147.885 156.245 147.804 156.665 147.804C157.287 147.804 157.785 147.979 158.161 148.329C158.536 148.672 158.727 149.132 158.734 149.708H157.86C157.86 149.358 157.753 149.086 157.539 148.892C157.332 148.691 157.038 148.591 156.656 148.591C156.28 148.591 155.986 148.682 155.772 148.863C155.565 149.044 155.461 149.297 155.461 149.62C155.461 149.912 155.539 150.164 155.694 150.378C155.85 150.591 156.073 150.744 156.364 150.834L157.336 151.145C157.808 151.294 158.174 151.546 158.433 151.902C158.692 152.258 158.821 152.676 158.821 153.155C158.821 153.543 158.731 153.883 158.549 154.175C158.368 154.466 158.112 154.692 157.782 154.854C157.459 155.016 157.08 155.097 156.646 155.097ZM161.993 155V148.698H160.051V147.902H164.809V148.698H162.867V155H161.993ZM166.456 156.165V155.301C166.877 155.204 167.239 155.023 167.543 154.757C167.848 154.485 168.081 154.145 168.243 153.738C168.411 153.33 168.495 152.877 168.495 152.378V150.63C168.495 150.119 168.411 149.659 168.243 149.251C168.074 148.843 167.838 148.504 167.534 148.232C167.229 147.953 166.87 147.766 166.456 147.669V146.843C167.058 146.992 167.576 147.244 168.01 147.601C168.443 147.957 168.777 148.394 169.01 148.911C169.249 149.423 169.369 149.996 169.369 150.63V152.378C169.369 153.343 169.113 154.158 168.602 154.825C168.09 155.492 167.375 155.939 166.456 156.165Z" fill="#24272D"/>
<path d="M79.7411 152.378V150.436H85.9559V152.378H79.7411ZM85.5637 152.378V150.436H91.7785V152.378H85.5637ZM91.3862 152.378V150.436H97.601V152.378H91.3862ZM97.2088 152.378V150.436H103.424V152.378H97.2088ZM103.031 152.378V150.436H109.246V152.378H103.031ZM109.048 154.514V148.494L114.972 151.504L109.048 154.514Z" fill="#22C55E"/>
<path d="M44.8375 88V82.6835H45.493V87.4028H47.8964V88H44.8375ZM49.0952 88V82.6835H52.154V83.2807H49.7434V84.9266H51.8991V85.5165H49.7434V87.4028H52.154V88H49.0952ZM54.9478 88.0728C54.6274 88.0728 54.3482 88.0121 54.1103 87.8908C53.8773 87.7694 53.6952 87.5946 53.5641 87.3664C53.4379 87.1333 53.3747 86.859 53.3747 86.5434V84.14C53.3747 83.8196 53.4379 83.5453 53.5641 83.3171C53.6952 83.0889 53.8773 82.9141 54.1103 82.7927C54.3482 82.6713 54.6274 82.6106 54.9478 82.6106C55.2683 82.6106 55.545 82.6737 55.7781 82.8C56.0112 82.9214 56.1908 83.0962 56.317 83.3244C56.4433 83.5526 56.5064 83.8244 56.5064 84.14H55.8509C55.8509 83.839 55.7708 83.6084 55.6106 83.4482C55.4552 83.2831 55.2343 83.2005 54.9478 83.2005C54.6614 83.2005 54.4356 83.2807 54.2705 83.4409C54.1103 83.6011 54.0302 83.8317 54.0302 84.1328V86.5434C54.0302 86.8444 54.1103 87.0775 54.2705 87.2426C54.4356 87.4077 54.6614 87.4902 54.9478 87.4902C55.2343 87.4902 55.4552 87.4077 55.6106 87.2426C55.7708 87.0775 55.8509 86.8444 55.8509 86.5434V85.8879H54.7731V85.2907H56.5064V86.5434C56.5064 86.8542 56.4433 87.126 56.317 87.3591C56.1908 87.5873 56.0112 87.7645 55.7781 87.8908C55.545 88.0121 55.2683 88.0728 54.9478 88.0728ZM57.4649 88L58.8487 82.6835H59.7299L61.1064 88H60.4436L60.094 86.5871H58.4845L58.1349 88H57.4649ZM58.6156 86.0336H59.9557L59.5478 84.3949C59.4701 84.0842 59.4094 83.8244 59.3657 83.6157C59.322 83.4069 59.2953 83.2709 59.2856 83.2078C59.2759 83.2709 59.2492 83.4069 59.2055 83.6157C59.1618 83.8244 59.1011 84.0818 59.0234 84.3877L58.6156 86.0336ZM63.6817 88.0728C63.3612 88.0728 63.0821 88.0121 62.8441 87.8908C62.6111 87.7694 62.429 87.5946 62.2979 87.3664C62.1717 87.1333 62.1086 86.859 62.1086 86.5434V84.14C62.1086 83.8196 62.1717 83.5453 62.2979 83.3171C62.429 83.0889 62.6111 82.9141 62.8441 82.7927C63.0821 82.6713 63.3612 82.6106 63.6817 82.6106C64.0021 82.6106 64.2789 82.6737 64.5119 82.8C64.745 82.9214 64.9246 83.0962 65.0509 83.3244C65.1771 83.5526 65.2402 83.8244 65.2402 84.14H64.5848C64.5848 83.839 64.5047 83.6084 64.3444 83.4482C64.1891 83.2831 63.9681 83.2005 63.6817 83.2005C63.3952 83.2005 63.1694 83.2807 63.0044 83.4409C62.8441 83.6011 62.764 83.8317 62.764 84.1328V86.5434C62.764 86.8444 62.8441 87.0775 63.0044 87.2426C63.1694 87.4028 63.3952 87.4829 63.6817 87.4829C63.9681 87.4829 64.1891 87.4028 64.3444 87.2426C64.5047 87.0775 64.5848 86.8444 64.5848 86.5434H65.2402C65.2402 86.8542 65.1771 87.126 65.0509 87.3591C64.9246 87.5873 64.745 87.7645 64.5119 87.8908C64.2789 88.0121 64.0021 88.0728 63.6817 88.0728ZM67.6917 88V86.0118L66.0895 82.6835H66.7668L67.8228 84.8683C67.8811 84.9897 67.9272 85.0941 67.9612 85.1815C67.9952 85.264 68.017 85.3247 68.0267 85.3636C68.0365 85.3247 68.0583 85.264 68.0923 85.1815C68.1311 85.0941 68.1797 84.9897 68.238 84.8683L69.2721 82.6835H69.9494L68.3472 86.0118V88H67.6917ZM75.2385 88V82.6835H76.9499C77.2801 82.6835 77.5666 82.749 77.8093 82.8801C78.0521 83.0063 78.239 83.186 78.3701 83.419C78.5061 83.6521 78.574 83.9288 78.574 84.2493C78.574 84.5649 78.5061 84.8416 78.3701 85.0795C78.239 85.3126 78.0521 85.4947 77.8093 85.6258C77.5666 85.752 77.2801 85.8151 76.9499 85.8151H75.8939V88H75.2385ZM75.8939 85.2252H76.9499C77.2364 85.2252 77.4646 85.1378 77.6345 84.963C77.8093 84.7834 77.8967 84.5455 77.8967 84.2493C77.8967 83.9483 77.8093 83.7103 77.6345 83.5356C77.4646 83.3608 77.2364 83.2734 76.9499 83.2734H75.8939V85.2252ZM79.2995 88L80.6832 82.6835H81.5645L82.941 88H82.2782L81.9286 86.5871H80.3191L79.9695 88H79.2995ZM80.4502 86.0336H81.7902L81.3824 84.3949C81.3047 84.0842 81.244 83.8244 81.2003 83.6157C81.1566 83.4069 81.1299 83.2709 81.1202 83.2078C81.1105 83.2709 81.0838 83.4069 81.0401 83.6157C80.9964 83.8244 80.9357 84.0818 80.858 84.3877L80.4502 86.0336ZM85.5163 88.0728C85.1958 88.0728 84.9166 88.0121 84.6787 87.8908C84.4457 87.7694 84.2636 87.5946 84.1325 87.3664C84.0063 87.1333 83.9432 86.859 83.9432 86.5434V84.14C83.9432 83.8196 84.0063 83.5453 84.1325 83.3171C84.2636 83.0889 84.4457 82.9141 84.6787 82.7927C84.9166 82.6713 85.1958 82.6106 85.5163 82.6106C85.8367 82.6106 86.1135 82.6737 86.3465 82.8C86.5796 82.9214 86.7592 83.0962 86.8855 83.3244C87.0117 83.5526 87.0748 83.8244 87.0748 84.14H86.4194C86.4194 83.839 86.3392 83.6084 86.179 83.4482C86.0236 83.2831 85.8027 83.2005 85.5163 83.2005C85.2298 83.2005 85.004 83.2807 84.839 83.4409C84.6787 83.6011 84.5986 83.8317 84.5986 84.1328V86.5434C84.5986 86.8444 84.6787 87.0775 84.839 87.2426C85.004 87.4028 85.2298 87.4829 85.5163 87.4829C85.8027 87.4829 86.0236 87.4028 86.179 87.2426C86.3392 87.0775 86.4194 86.8444 86.4194 86.5434H87.0748C87.0748 86.8542 87.0117 87.126 86.8855 87.3591C86.7592 87.5873 86.5796 87.7645 86.3465 87.8908C86.1135 88.0121 85.8367 88.0728 85.5163 88.0728ZM88.3975 88V82.6835H91.4563V83.2807H89.0456V84.9266H91.2014V85.5165H89.0456V87.4028H91.4563V88H88.3975ZM94.221 85.014C94.0413 85.014 93.8957 84.9654 93.784 84.8683C93.6723 84.7664 93.6165 84.6329 93.6165 84.4678C93.6165 84.3027 93.6723 84.1716 93.784 84.0745C93.8957 83.9725 94.0413 83.9216 94.221 83.9216C94.4055 83.9216 94.5511 83.9725 94.6579 84.0745C94.7696 84.1716 94.8255 84.3027 94.8255 84.4678C94.8255 84.6329 94.7696 84.7664 94.6579 84.8683C94.5511 84.9654 94.4055 85.014 94.221 85.014ZM94.221 88.0728C94.0413 88.0728 93.8957 88.0243 93.784 87.9272C93.6723 87.8252 93.6165 87.6917 93.6165 87.5266C93.6165 87.3615 93.6723 87.2304 93.784 87.1333C93.8957 87.0314 94.0413 86.9804 94.221 86.9804C94.4055 86.9804 94.5511 87.0314 94.6579 87.1333C94.7696 87.2304 94.8255 87.3615 94.8255 87.5266C94.8255 87.6917 94.7696 87.8252 94.6579 87.9272C94.5511 88.0243 94.4055 88.0728 94.221 88.0728ZM51.3189 100.097C50.8528 100.097 50.4515 100.019 50.1148 99.8641C49.7847 99.7087 49.529 99.4853 49.3477 99.194C49.1664 98.9027 49.0726 98.5564 49.0661 98.155H49.94C49.94 98.511 50.0598 98.7927 50.2993 98.9998C50.5453 99.207 50.8852 99.3105 51.3189 99.3105C51.7268 99.3105 52.044 99.2102 52.2706 99.0095C52.5036 98.8088 52.6202 98.5305 52.6202 98.1744C52.6202 97.8896 52.5425 97.6403 52.3871 97.4267C52.2382 97.2131 52.0213 97.0642 51.7365 96.98L50.7751 96.679C50.2896 96.5301 49.9141 96.2808 49.6487 95.9313C49.3898 95.5817 49.2603 95.1706 49.2603 94.698C49.2603 94.3161 49.3444 93.9859 49.5128 93.7075C49.6876 93.4227 49.9303 93.2026 50.2411 93.0472C50.5518 92.8854 50.9176 92.8045 51.3384 92.8045C51.9598 92.8045 52.4583 92.9792 52.8338 93.3288C53.2093 93.6719 53.4002 94.1316 53.4067 94.7077H52.5328C52.5328 94.3582 52.4259 94.0863 52.2123 93.892C52.0051 93.6914 51.7106 93.591 51.3286 93.591C50.9532 93.591 50.6586 93.6816 50.445 93.8629C50.2378 94.0442 50.1342 94.2967 50.1342 94.6203C50.1342 94.9117 50.2119 95.1641 50.3673 95.3778C50.5227 95.5914 50.746 95.7435 51.0373 95.8342L52.0084 96.1449C52.481 96.2938 52.8467 96.5463 53.1057 96.9023C53.3646 97.2584 53.4941 97.6759 53.4941 98.155C53.4941 98.5434 53.4035 98.8833 53.2222 99.1746C53.0409 99.4659 52.7852 99.6925 52.4551 99.8543C52.1314 100.016 51.7527 100.097 51.3189 100.097ZM56.6657 100V93.6978H54.7236V92.9016H59.4817V93.6978H57.5396V100H56.6657ZM60.4976 100L62.3426 92.9113H63.5176L65.3529 100H64.4692L64.0031 98.1161H61.857L61.3909 100H60.4976ZM62.0318 97.3781H63.8186L63.2748 95.1933C63.1712 94.7789 63.0903 94.4326 63.032 94.1542C62.9738 93.8759 62.9382 93.6946 62.9252 93.6104C62.9123 93.6946 62.8767 93.8759 62.8184 94.1542C62.7601 94.4326 62.6792 94.7757 62.5756 95.1836L62.0318 97.3781ZM66.728 100V92.9113H68.9226C69.3433 92.9113 69.7123 92.9987 70.0296 93.1735C70.3468 93.3418 70.5928 93.5781 70.7676 93.8823C70.9424 94.1866 71.0297 94.5427 71.0297 94.9505C71.0297 95.4296 70.9035 95.8406 70.651 96.1837C70.405 96.5268 70.0684 96.7631 69.6411 96.8926L71.1269 100H70.0975L68.7381 96.9897H67.6019V100H66.728ZM67.6019 96.2032H68.9226C69.2851 96.2032 69.5764 96.0899 69.7965 95.8633C70.0166 95.6302 70.1267 95.326 70.1267 94.9505C70.1267 94.5685 70.0166 94.2643 69.7965 94.0377C69.5764 93.8111 69.2851 93.6978 68.9226 93.6978H67.6019V96.2032ZM74.1333 100V93.6978H72.1912V92.9016H76.9494V93.6978H75.0073V100H74.1333ZM240.511 100.68H250.222V90.9692H240.511V100.68ZM260.754 101.165C259.835 100.939 259.119 100.492 258.608 99.8252C258.097 99.1584 257.841 98.3427 257.841 97.3781V95.6302C257.841 94.9958 257.957 94.4229 258.19 93.9115C258.43 93.3936 258.767 92.9566 259.2 92.6005C259.641 92.2445 260.158 91.992 260.754 91.8431V92.6685C260.34 92.7656 259.98 92.9534 259.676 93.2317C259.372 93.5036 259.136 93.8435 258.967 94.2513C258.799 94.6592 258.715 95.1188 258.715 95.6302V97.3781C258.715 97.8766 258.796 98.3298 258.958 98.7376C259.126 99.1455 259.362 99.4853 259.666 99.7572C259.977 100.023 260.34 100.204 260.754 100.301V101.165ZM264.819 100.097C264.353 100.097 263.952 100.019 263.615 99.8641C263.285 99.7087 263.029 99.4853 262.848 99.194C262.666 98.9027 262.573 98.5564 262.566 98.155H263.44C263.44 98.511 263.56 98.7927 263.799 98.9998C264.045 99.207 264.385 99.3105 264.819 99.3105C265.227 99.3105 265.544 99.2102 265.771 99.0095C266.004 98.8088 266.12 98.5305 266.12 98.1744C266.12 97.8896 266.043 97.6403 265.887 97.4267C265.738 97.2131 265.521 97.0642 265.237 96.98L264.275 96.679C263.79 96.5301 263.414 96.2808 263.149 95.9313C262.89 95.5817 262.76 95.1706 262.76 94.698C262.76 94.3161 262.845 93.9859 263.013 93.7075C263.188 93.4227 263.43 93.2026 263.741 93.0472C264.052 92.8854 264.418 92.8045 264.838 92.8045C265.46 92.8045 265.958 92.9792 266.334 93.3288C266.709 93.6719 266.9 94.1316 266.907 94.7077H266.033C266.033 94.3582 265.926 94.0863 265.712 93.892C265.505 93.6914 265.211 93.591 264.829 93.591C264.453 93.591 264.159 93.6816 263.945 93.8629C263.738 94.0442 263.634 94.2967 263.634 94.6203C263.634 94.9117 263.712 95.1641 263.867 95.3778C264.023 95.5914 264.246 95.7435 264.537 95.8342L265.508 96.1449C265.981 96.2938 266.347 96.5463 266.606 96.9023C266.865 97.2584 266.994 97.6759 266.994 98.155C266.994 98.5434 266.904 98.8833 266.722 99.1746C266.541 99.4659 266.285 99.6925 265.955 99.8543C265.631 100.016 265.253 100.097 264.819 100.097ZM268.806 100V92.9113H269.68V99.2037H272.885V100H268.806ZM276.425 100.097C275.998 100.097 275.629 100.016 275.318 99.8543C275.014 99.6925 274.778 99.4594 274.609 99.1552C274.448 98.8444 274.367 98.4787 274.367 98.0579V94.8534C274.367 94.4261 274.448 94.0604 274.609 93.7561C274.778 93.4518 275.014 93.2188 275.318 93.0569C275.629 92.8951 275.998 92.8142 276.425 92.8142C276.853 92.8142 277.218 92.8951 277.523 93.0569C277.833 93.2188 278.07 93.4518 278.231 93.7561C278.4 94.0604 278.484 94.4229 278.484 94.8437V98.0579C278.484 98.4787 278.4 98.8444 278.231 99.1552C278.07 99.4594 277.833 99.6925 277.523 99.8543C277.218 100.016 276.853 100.097 276.425 100.097ZM276.425 99.3105C276.807 99.3105 277.099 99.2037 277.299 98.9901C277.506 98.77 277.61 98.4593 277.61 98.0579V94.8534C277.61 94.452 277.506 94.1445 277.299 93.9309C277.099 93.7108 276.807 93.6007 276.425 93.6007C276.05 93.6007 275.758 93.7108 275.551 93.9309C275.344 94.1445 275.241 94.452 275.241 94.8534V98.0579C275.241 98.4593 275.344 98.77 275.551 98.9901C275.758 99.2037 276.05 99.3105 276.425 99.3105ZM280.393 100L279.577 92.9113H280.413L280.947 98.155C280.96 98.2974 280.972 98.4463 280.985 98.6017C280.998 98.7506 281.008 98.893 281.015 99.0289C281.028 99.1649 281.034 99.2782 281.034 99.3688C281.047 99.2782 281.057 99.1649 281.063 99.0289C281.076 98.893 281.089 98.7506 281.102 98.6017C281.121 98.4463 281.141 98.2974 281.16 98.155L281.821 92.9113H282.724L283.326 98.155C283.345 98.2974 283.361 98.4463 283.374 98.6017C283.394 98.7506 283.41 98.893 283.423 99.0289C283.442 99.1649 283.455 99.2782 283.462 99.3688C283.468 99.2782 283.475 99.1649 283.481 99.0289C283.494 98.893 283.507 98.7506 283.52 98.6017C283.539 98.4463 283.556 98.2974 283.568 98.155L284.122 92.9113H284.918L284.083 100H282.986L282.384 94.6592C282.371 94.5103 282.355 94.3646 282.335 94.2222C282.322 94.0798 282.309 93.9471 282.296 93.8241C282.283 93.7011 282.274 93.6007 282.267 93.523C282.261 93.6007 282.248 93.7011 282.228 93.8241C282.215 93.9471 282.202 94.0798 282.19 94.2222C282.177 94.3646 282.16 94.5103 282.141 94.6592L281.49 100H280.393ZM286.274 101.165V100.301C286.695 100.204 287.057 100.023 287.361 99.7572C287.666 99.4853 287.899 99.1455 288.061 98.7376C288.229 98.3298 288.313 97.8766 288.313 97.3781V95.6302C288.313 95.1188 288.229 94.6592 288.061 94.2513C287.892 93.8435 287.656 93.5036 287.352 93.2317C287.048 92.9534 286.688 92.7656 286.274 92.6685V91.8431C286.876 91.992 287.394 92.2445 287.828 92.6005C288.261 92.9566 288.595 93.3936 288.828 93.9115C289.067 94.4229 289.187 94.9958 289.187 95.6302V97.3781C289.187 98.3427 288.931 99.1584 288.42 99.8252C287.909 100.492 287.193 100.939 286.274 101.165Z" fill="#24272D"/>
<path d="M83.108 97.3781V95.436H89.3228V97.3781H83.108ZM88.9306 97.3781V95.436H95.1454V97.3781H88.9306ZM94.7532 97.3781V95.436H100.968V97.3781H94.7532ZM100.576 97.3781V95.436H106.79V97.3781H100.576ZM106.398 97.3781V95.436H112.613V97.3781H106.398ZM112.221 97.3781V95.436H118.436V97.3781H112.221ZM118.043 97.3781V95.436H124.258V97.3781H118.043ZM123.866 97.3781V95.436H130.081V97.3781H123.866ZM129.688 97.3781V95.436H135.903V97.3781H129.688ZM135.511 97.3781V95.436H141.726V97.3781H135.511ZM141.334 97.3781V95.436H147.548V97.3781H141.334ZM147.156 97.3781V95.436H153.371V97.3781H147.156ZM152.979 97.3781V95.436H159.193V97.3781H152.979ZM158.801 97.3781V95.436H165.016V97.3781H158.801ZM164.624 97.3781V95.436H170.839V97.3781H164.624ZM170.446 97.3781V95.436H176.661V97.3781H170.446ZM176.269 97.3781V95.436H182.484V97.3781H176.269ZM182.092 97.3781V95.436H188.306V97.3781H182.092ZM187.914 97.3781V95.436H194.129V97.3781H187.914ZM193.737 97.3781V95.436H199.951V97.3781H193.737ZM199.559 97.3781V95.436H205.774V97.3781H199.559ZM205.382 97.3781V95.436H211.597V97.3781H205.382ZM211.204 97.3781V95.436H217.419V97.3781H211.204ZM217.027 97.3781V95.436H223.242V97.3781H217.027ZM222.849 97.3781V95.436H229.064V97.3781H222.849ZM228.866 99.5145V93.4939L234.79 96.5042L228.866 99.5145Z" fill="#EF4444"/>
<defs>
<filter id="filter0_dd_4470_4800" x="28.6104" y="34.7689" width="295.779" height="157.779" filterUnits="userSpaceOnUse" color-interpolation-filters="sRGB">
<feFlood flood-opacity="0" result="BackgroundImageFix"/>
<feColorMatrix in="SourceAlpha" type="matrix" values="0 0 0 0 0 0 0 0 0 0 0 0 0 0 0 0 0 0 127 0" result="hardAlpha"/>
<feOffset dy="0.463211"/>
<feGaussianBlur stdDeviation="0.463211"/>
<feColorMatrix type="matrix" values="0 0 0 0 0 0 0 0 0 0 0 0 0 0 0 0 0 0 0.06 0"/>
<feBlend mode="normal" in2="BackgroundImageFix" result="effect1_dropShadow_4470_4800"/>
<feColorMatrix in="SourceAlpha" type="matrix" values="0 0 0 0 0 0 0 0 0 0 0 0 0 0 0 0 0 0 127 0" result="hardAlpha"/>
<feOffset dy="0.463211"/>
<feGaussianBlur stdDeviation="0.694816"/>
<feColorMatrix type="matrix" values="0 0 0 0 0 0 0 0 0 0 0 0 0 0 0 0 0 0 0.1 0"/>
<feBlend mode="normal" in2="effect1_dropShadow_4470_4800" result="effect2_dropShadow_4470_4800"/>
<feBlend mode="normal" in="SourceGraphic" in2="effect2_dropShadow_4470_4800" result="shape"/>
</filter>
<clipPath id="clip0_4470_4800">
<rect width="14.2376" height="14.2376" fill="white" transform="translate(73.0801 30.6782)"/>
</clipPath>
</defs>
</svg>
