<svg width="98" height="48" viewBox="0 0 98 48" fill="none" xmlns="http://www.w3.org/2000/svg">
<path d="M2.18164 3.27246H47.0907C48.1953 3.27246 49.0907 4.16789 49.0907 5.27246V42.727C49.0907 43.8316 48.1953 44.727 47.0907 44.727H2.18164V3.27246Z" fill="#FF8345"/>
<path d="M24.1386 36.5836V27.2327L16.6033 10.8246H21.216L25.2301 19.752C25.5353 20.4578 25.7935 21.1517 26.0048 21.8339C26.2161 22.5161 26.3569 23.0454 26.4273 23.4218C26.5212 23.0454 26.6621 22.5161 26.8499 21.8339C27.0611 21.1517 27.3193 20.4578 27.6245 19.752L31.533 10.8246H36.1105L28.5752 27.2327V36.5836H24.1386Z" fill="#30343B"/>
<path d="M39.0193 41.4531V37.4658H55.9209V41.4531H39.0193Z" fill="#30343B"/>
<path d="M59.2522 36.5836L65.7311 10.8246H71.4002L77.9143 36.5836H73.4073L71.9988 30.3379H65.1678L63.7593 36.5836H59.2522ZM65.9776 26.7387H71.1889L69.6396 19.8226C69.3814 18.6699 69.1584 17.6348 68.9706 16.7174C68.7828 15.7764 68.6537 15.0942 68.5833 14.6708C68.5128 15.0942 68.3837 15.7764 68.1959 16.7174C68.0316 17.6348 67.8086 18.6582 67.5269 19.7873L65.9776 26.7387Z" fill="#30343B"/>
<path d="M82.302 36.5836V32.7021H87.4781V14.7061H82.302V10.8246H97.0909V14.7061H91.9148V32.7021H97.0909V36.5836H82.302Z" fill="#30343B"/>
<path d="M3.67266 0C2.59117 0 1.71069 0.351015 1.02521 1.05304C0.341737 1.75507 0 2.64875 0 3.73205V10.6273H3.7189V4.87991C3.7189 3.92168 4.14908 3.44357 5.00544 3.44357H10.9617V0H3.67266Z" fill="#16181C"/>
<path d="M3.67266 48C2.59117 48 1.71069 47.649 1.02521 46.947C0.341737 46.2449 0 45.3512 0 44.2659V37.3707H3.7189V43.1181C3.7189 44.0763 4.14908 44.5544 5.00544 44.5544H10.9617V48H3.67266Z" fill="#16181C"/>
</svg>
