<svg width="120" height="48" viewBox="0 0 120 48" fill="none" xmlns="http://www.w3.org/2000/svg">
<path d="M2.18164 3.27197H47.0907C48.1953 3.27197 49.0907 4.1674 49.0907 5.27197V42.7265C49.0907 43.8311 48.1953 44.7265 47.0907 44.7265H2.18164V3.27197Z" fill="#7CE483"/>
<path d="M24.1315 36.5836V27.2327L16.5984 10.8246H21.2098L25.2228 19.752C25.5278 20.4578 25.786 21.1517 25.9972 21.8339C26.2084 22.5161 26.3492 23.0454 26.4196 23.4218C26.5135 23.0454 26.6543 22.5161 26.842 21.8339C27.0532 21.1517 27.3114 20.4578 27.6164 19.752L31.5238 10.8246H36.0999L28.5669 27.2327V36.5836H24.1315Z" fill="#30343B"/>
<path d="M39.0079 41.4531V37.4658H55.9045V41.4531H39.0079Z" fill="#30343B"/>
<path d="M59.2349 36.5836L65.7119 10.8246H71.3793L77.8916 36.5836H73.3858L71.9778 30.3379H65.1487L63.7407 36.5836H59.2349ZM65.9583 26.7387H71.1681L69.6193 19.8226C69.3611 18.6699 69.1382 17.6348 68.9504 16.7174C68.7627 15.7764 68.6336 15.0942 68.5632 14.6708C68.4928 15.0942 68.3637 15.7764 68.176 16.7174C68.0117 17.6348 67.7888 18.6582 67.5072 19.7873L65.9583 26.7387Z" fill="#30343B"/>
<path d="M81.8204 36.5836V10.8246H90.3743C92.0874 10.8246 93.5776 11.1539 94.8448 11.8126C96.1355 12.4713 97.1329 13.4005 97.8369 14.6002C98.541 15.7764 98.893 17.1644 98.893 18.764C98.893 20.3401 98.5292 21.7281 97.8017 22.9278C97.0977 24.1275 96.1121 25.0567 94.8448 25.7154C93.5776 26.3741 92.0874 26.7034 90.3743 26.7034H86.2205V36.5836H81.8204ZM86.2205 22.7161H90.3743C91.5946 22.7161 92.5685 22.3632 93.296 21.6575C94.0469 20.9282 94.4224 19.9637 94.4224 18.764C94.4224 17.5408 94.0469 16.5763 93.296 15.8705C92.5685 15.1648 91.5946 14.8119 90.3743 14.8119H86.2205V22.7161Z" fill="#30343B"/>
<path d="M102.927 36.5836V10.8246H111.481C113.194 10.8246 114.685 11.1539 115.952 11.8126C117.243 12.4713 118.24 13.4005 118.944 14.6002C119.648 15.7764 120 17.1644 120 18.764C120 20.3401 119.636 21.7281 118.909 22.9278C118.205 24.1275 117.219 25.0567 115.952 25.7154C114.685 26.3741 113.194 26.7034 111.481 26.7034H107.328V36.5836H102.927ZM107.328 22.7161H111.481C112.702 22.7161 113.675 22.3632 114.403 21.6575C115.154 20.9282 115.529 19.9637 115.529 18.764C115.529 17.5408 115.154 16.5763 114.403 15.8705C113.675 15.1648 112.702 14.8119 111.481 14.8119H107.328V22.7161Z" fill="#30343B"/>
<path d="M3.67159 0C2.59041 0 1.71019 0.351015 1.02491 1.05304C0.341637 1.75507 0 2.64875 0 3.73205V10.6273H3.71781V4.87991C3.71781 3.92168 4.14787 3.44357 5.00397 3.44357H10.9585V0H3.67159Z" fill="#16181C"/>
<path d="M3.67159 48C2.59041 48 1.71019 47.649 1.02491 46.947C0.341637 46.2449 0 45.3512 0 44.2659V37.3707H3.71781V43.1181C3.71781 44.0763 4.14787 44.5544 5.00397 44.5544H10.9585V48H3.67159Z" fill="#16181C"/>
</svg>
