<svg width="119" height="48" viewBox="0 0 119 48" fill="none" xmlns="http://www.w3.org/2000/svg">
<path d="M3.27148 3.81836H41.0897C45.5079 3.81836 49.0897 7.40008 49.0897 11.8184V36.7274C49.0897 41.1457 45.5079 44.7275 41.0897 44.7275H3.27148V3.81836Z" fill="#FACC15"/>
<path d="M24.1674 36.5836V27.2327L16.6231 10.8246H21.2413L25.2602 19.752C25.5657 20.4578 25.8243 21.1517 26.0358 21.8339C26.2473 22.5161 26.3883 23.0454 26.4588 23.4218C26.5528 23.0454 26.6939 22.5161 26.8819 21.8339C27.0934 21.1517 27.3519 20.4578 27.6575 19.752L31.5706 10.8246H36.1536L28.6093 27.2327V36.5836H24.1674Z" fill="#30343B"/>
<path d="M39.0658 41.4531V37.4658H55.9875V41.4531H39.0658Z" fill="#30343B"/>
<path d="M61.1913 36.5836V10.8246H76.6324V14.6708H65.5275V21.3752H75.3985V25.1861H65.5275V32.7374H76.6324V36.5836H61.1913Z" fill="#30343B"/>
<path d="M81.8714 36.5836V10.8246H89.5214C91.2606 10.8246 92.7647 11.1539 94.0338 11.8126C95.3265 12.4713 96.3253 13.4005 97.0304 14.6002C97.7355 15.8 98.088 17.2232 98.088 18.8699V28.503C98.088 30.1262 97.7355 31.5494 97.0304 32.7727C96.3253 33.9724 95.3265 34.9134 94.0338 35.5956C92.7647 36.2543 91.2606 36.5836 89.5214 36.5836H81.8714ZM86.2781 32.5257H89.5214C90.7905 32.5257 91.8011 32.1728 92.5532 31.4671C93.3053 30.7378 93.6813 29.7498 93.6813 28.503V18.8699C93.6813 17.6466 93.3053 16.6821 92.5532 15.9764C91.8011 15.2471 90.7905 14.8825 89.5214 14.8825H86.2781V32.5257Z" fill="#30343B"/>
<path d="M103.468 36.5836V10.8246H118.909V14.6708H107.804V21.3752H117.675V25.1861H107.804V32.7374H118.909V36.5836H103.468Z" fill="#30343B"/>
<path d="M3.67704 0C2.59426 0 1.71273 0.351015 1.02643 1.05304C0.342144 1.75507 0 2.64875 0 3.73205V10.6273H3.72333V4.87991C3.72333 3.92168 4.15403 3.44357 5.0114 3.44357H10.9748V0H3.67704Z" fill="#16181C"/>
<path d="M3.67704 48C2.59426 48 1.71273 47.649 1.02643 46.947C0.342144 46.2449 0 45.3512 0 44.2659V37.3707H3.72333V43.1181C3.72333 44.0763 4.15403 44.5544 5.0114 44.5544H10.9748V48H3.67704Z" fill="#16181C"/>
</svg>
