<svg width="561" height="265" viewBox="0 0 561 265" fill="none" xmlns="http://www.w3.org/2000/svg">
<rect x="43.0371" y="15.6484" width="475.926" height="224.926" rx="8.05651" fill="#FACC15" fill-opacity="0.25"/>
<rect x="43.0371" y="15.6484" width="475.926" height="224.926" rx="8.05651" stroke="#FACC15" stroke-width="1.0742"/>
<g filter="url(#filter0_dd_4756_114184)">
<circle cx="41.653" cy="37.2702" r="35.2702" fill="white"/>
<circle cx="41.653" cy="37.2702" r="34.7331" stroke="#24272D" stroke-width="1.0742"/>
</g>
<path d="M33.6072 25.5137V40.3643M33.6072 40.3643C34.5918 40.3643 35.5362 40.7554 36.2324 41.4517C36.9287 42.1479 37.3198 43.0923 37.3198 44.0769C37.3198 45.0616 36.9287 46.0059 36.2324 46.7022C35.5362 47.3984 34.5918 47.7896 33.6072 47.7896C32.6225 47.7896 31.6782 47.3984 30.9819 46.7022C30.2857 46.0059 29.8945 45.0616 29.8945 44.0769C29.8945 43.0923 30.2857 42.1479 30.9819 41.4517C31.6782 40.7554 32.6225 40.3643 33.6072 40.3643ZM33.6072 40.3643C33.6072 37.4103 34.7806 34.5773 36.8694 32.4885C38.9582 30.3998 41.7912 29.2263 44.7451 29.2263M44.7451 29.2263C44.7451 28.2417 45.1363 27.2973 45.8325 26.6011C46.5288 25.9048 47.4731 25.5137 48.4578 25.5137C49.4424 25.5137 50.3868 25.9048 51.083 26.6011C51.7793 27.2973 52.1704 28.2417 52.1704 29.2263C52.1704 30.211 51.7793 31.1553 51.083 31.8516C50.3868 32.5478 49.4424 32.939 48.4578 32.939C47.4731 32.939 46.5288 32.5478 45.8325 31.8516C45.1363 31.1553 44.7451 30.211 44.7451 29.2263ZM48.4578 40.3643V47.7896M52.1704 44.0769H44.7451" stroke="#24272D" stroke-width="1.85632" stroke-linecap="round" stroke-linejoin="round"/>
<g filter="url(#filter1_dd_4756_114184)">
<circle cx="519.344" cy="117.711" r="35.2702" fill="white"/>
<circle cx="519.344" cy="117.711" r="34.7331" stroke="#24272D" stroke-width="1.0742"/>
</g>
<path d="M531.103 117.092C531.103 123.927 525.562 129.467 518.727 129.467M531.103 117.092C531.103 110.257 525.562 104.716 518.727 104.716M531.103 117.092H506.352M518.727 129.467C511.892 129.467 506.352 123.927 506.352 117.092M518.727 129.467C515.549 126.131 513.777 121.7 513.777 117.092C513.777 112.484 515.549 108.053 518.727 104.716M518.727 129.467C521.905 126.131 523.677 121.7 523.677 117.092C523.677 112.484 521.905 108.053 518.727 104.716M506.352 117.092C506.352 110.257 511.892 104.716 518.727 104.716" stroke="#24272D" stroke-width="1.85632" stroke-linecap="round" stroke-linejoin="round"/>
<g filter="url(#filter2_dd_4756_114184)">
<circle cx="41.653" cy="127.611" r="35.2702" fill="white"/>
<circle cx="41.653" cy="127.611" r="34.7331" stroke="#24272D" stroke-width="1.0742"/>
</g>
<path d="M33.6072 115.855V130.706M33.6072 130.706C34.5918 130.706 35.5362 131.097 36.2324 131.793C36.9287 132.489 37.3198 133.434 37.3198 134.418C37.3198 135.403 36.9287 136.347 36.2324 137.043C35.5362 137.74 34.5918 138.131 33.6072 138.131C32.6225 138.131 31.6782 137.74 30.9819 137.043C30.2857 136.347 29.8945 135.403 29.8945 134.418C29.8945 133.434 30.2857 132.489 30.9819 131.793C31.6782 131.097 32.6225 130.706 33.6072 130.706ZM33.6072 130.706C33.6072 127.752 34.7806 124.919 36.8694 122.83C38.9582 120.741 41.7912 119.568 44.7451 119.568M44.7451 119.568C44.7451 118.583 45.1363 117.639 45.8325 116.942C46.5288 116.246 47.4731 115.855 48.4578 115.855C49.4424 115.855 50.3868 116.246 51.083 116.942C51.7793 117.639 52.1704 118.583 52.1704 119.568C52.1704 120.552 51.7793 121.497 51.083 122.193C50.3868 122.889 49.4424 123.28 48.4578 123.28C47.4731 123.28 46.5288 122.889 45.8325 122.193C45.1363 121.497 44.7451 120.552 44.7451 119.568ZM48.4578 130.706V138.131M52.1704 134.418H44.7451" stroke="#24272D" stroke-width="1.85632" stroke-linecap="round" stroke-linejoin="round"/>
<g filter="url(#filter3_dd_4756_114184)">
<circle cx="41.653" cy="217.952" r="35.2702" fill="white"/>
<circle cx="41.653" cy="217.952" r="34.7331" stroke="#24272D" stroke-width="1.0742"/>
</g>
<path d="M33.6072 206.196V221.046M33.6072 221.046C34.5918 221.046 35.5362 221.438 36.2324 222.134C36.9287 222.83 37.3198 223.774 37.3198 224.759C37.3198 225.744 36.9287 226.688 36.2324 227.384C35.5362 228.081 34.5918 228.472 33.6072 228.472C32.6225 228.472 31.6782 228.081 30.9819 227.384C30.2857 226.688 29.8945 225.744 29.8945 224.759C29.8945 223.774 30.2857 222.83 30.9819 222.134C31.6782 221.438 32.6225 221.046 33.6072 221.046ZM33.6072 221.046C33.6072 218.092 34.7806 215.259 36.8694 213.171C38.9582 211.082 41.7912 209.908 44.7451 209.908M44.7451 209.908C44.7451 208.924 45.1363 207.979 45.8325 207.283C46.5288 206.587 47.4731 206.196 48.4578 206.196C49.4424 206.196 50.3868 206.587 51.083 207.283C51.7793 207.979 52.1704 208.924 52.1704 209.908C52.1704 210.893 51.7793 211.837 51.083 212.534C50.3868 213.23 49.4424 213.621 48.4578 213.621C47.4731 213.621 46.5288 213.23 45.8325 212.534C45.1363 211.837 44.7451 210.893 44.7451 209.908ZM48.4578 221.046V228.472M52.1704 224.759H44.7451" stroke="#24272D" stroke-width="1.85632" stroke-linecap="round" stroke-linejoin="round"/>
<path d="M143.476 36.6514L144.009 36.3362L143.829 36.0326L143.476 36.0326L143.476 36.6514ZM177.01 94.178C177.341 94.2629 177.678 94.0634 177.763 93.7324L179.146 88.338C179.231 88.007 179.032 87.6698 178.701 87.5849C178.37 87.5 178.032 87.6995 177.948 88.0306L176.718 92.8256L171.923 91.5958C171.592 91.5109 171.255 91.7104 171.17 92.0414C171.085 92.3725 171.284 92.7096 171.615 92.7945L177.01 94.178ZM76.9219 36.6514L76.9219 37.2702L143.476 37.2701L143.476 36.6514L143.476 36.0326L76.9219 36.0326L76.9219 36.6514ZM143.476 36.6514L142.944 36.9665L176.631 93.8938L177.163 93.5787L177.696 93.2635L144.009 36.3362L143.476 36.6514Z" fill="#FACC15"/>
<path d="M143.476 218.571L144.009 218.886L143.829 219.19L143.476 219.19L143.476 218.571ZM177.01 161.045C177.341 160.96 177.678 161.159 177.763 161.49L179.146 166.885C179.231 167.216 179.032 167.553 178.701 167.638C178.37 167.723 178.032 167.523 177.948 167.192L176.718 162.397L171.923 163.627C171.592 163.712 171.255 163.512 171.17 163.181C171.085 162.85 171.284 162.513 171.615 162.428L177.01 161.045ZM76.9219 218.571L76.9219 217.952L143.476 217.953L143.476 218.571L143.476 219.19L76.9219 219.19L76.9219 218.571ZM143.476 218.571L142.944 218.256L176.631 161.329L177.163 161.644L177.696 161.959L144.009 218.886L143.476 218.571Z" fill="#FACC15"/>
<path d="M177.601 127.43C177.843 127.189 177.843 126.797 177.601 126.555L173.663 122.617C173.421 122.376 173.03 122.376 172.788 122.617C172.546 122.859 172.546 123.251 172.788 123.492L176.288 126.993L172.788 130.493C172.546 130.735 172.546 131.126 172.788 131.368C173.03 131.61 173.421 131.61 173.663 131.368L177.601 127.43ZM76.9219 126.993V127.611H177.163V126.993V126.374H76.9219V126.993Z" fill="#FACC15"/>
<path d="M469.438 124.438C469.679 124.196 469.679 123.804 469.438 123.562L465.5 119.625C465.258 119.383 464.866 119.383 464.625 119.625C464.383 119.866 464.383 120.258 464.625 120.5L468.125 124L464.625 127.5C464.383 127.742 464.383 128.134 464.625 128.375C464.866 128.617 465.258 128.617 465.5 128.375L469.438 124.438ZM375 124L375 124.619L469 124.619L469 124L469 123.381L375 123.381L375 124Z" fill="#FACC15"/>
<g filter="url(#filter4_dd_4756_114184)">
<g clip-path="url(#clip0_4756_114184)">
<rect x="192.016" y="46.5518" width="183.157" height="158.406" rx="8.59361" fill="white"/>
<path d="M242.344 95.8477L238.219 101.004L242.344 106.161M250.595 119.567H252.657M250.595 95.8477L254.72 101.004L250.595 106.161M232.031 119.567C230.937 119.567 229.888 119.133 229.114 118.359C228.341 117.586 227.906 116.536 227.906 115.442V86.5661C227.906 85.472 228.341 84.4228 229.114 83.6492C229.888 82.8755 230.937 82.4409 232.031 82.4409H260.908C262.002 82.4409 263.051 82.8755 263.825 83.6492C264.598 84.4228 265.033 85.472 265.033 86.5661V115.442C265.033 116.536 264.598 117.586 263.825 118.359C263.051 119.133 262.002 119.567 260.908 119.567M240.282 119.567H242.344" stroke="#18181B" stroke-width="2.4751" stroke-linecap="round" stroke-linejoin="round"/>
<path d="M293.809 112.742V91.1087H306.522V93.9536H296.95V100.088H305.485V102.903H296.95V109.897H306.522V112.742H293.809ZM311.193 112.742V91.1087H315.223L321.535 109.097C321.496 108.524 321.446 107.842 321.387 107.052C321.328 106.262 321.278 105.442 321.239 104.592C321.219 103.743 321.209 102.972 321.209 102.281V91.1087H324.173V112.742H320.142L313.86 94.7537C313.899 95.2673 313.939 95.9094 313.978 96.6799C314.038 97.4504 314.077 98.2505 314.097 99.0803C314.136 99.9101 314.156 100.681 314.156 101.392V112.742H311.193ZM333.318 112.742L327.836 91.1087H331.125L334.592 105.511C334.81 106.36 334.997 107.21 335.155 108.059C335.333 108.889 335.462 109.541 335.541 110.015C335.62 109.541 335.728 108.889 335.867 108.059C336.025 107.21 336.212 106.351 336.43 105.481L339.867 91.1087H343.068L337.556 112.742H333.318Z" fill="#16181C"/>
<path d="M244.786 162.848H242.74C242.379 162.848 242.028 162.965 241.741 163.183C241.453 163.4 241.245 163.706 241.147 164.053L239.209 170.95C239.196 170.993 239.17 171.031 239.134 171.058C239.099 171.084 239.055 171.099 239.011 171.099C238.966 171.099 238.923 171.084 238.887 171.058C238.851 171.031 238.825 170.993 238.813 170.95L234.258 154.747C234.246 154.704 234.22 154.666 234.184 154.639C234.148 154.613 234.105 154.598 234.06 154.598C234.016 154.598 233.972 154.613 233.937 154.639C233.901 154.666 233.875 154.704 233.862 154.747L231.924 161.644C231.827 161.99 231.619 162.294 231.334 162.512C231.048 162.729 230.699 162.847 230.339 162.848H228.285" stroke="#09090B" stroke-width="1.64594" stroke-linecap="round" stroke-linejoin="round"/>
<path d="M261.156 166.96C260.298 166.96 259.564 166.778 258.953 166.415C258.343 166.052 257.872 165.536 257.542 164.868C257.22 164.2 257.06 163.404 257.06 162.48C257.06 161.556 257.22 160.764 257.542 160.104C257.872 159.435 258.343 158.92 258.953 158.557C259.564 158.194 260.298 158.012 261.156 158.012C261.758 158.012 262.315 158.107 262.827 158.297C263.338 158.486 263.767 158.763 264.114 159.126L263.718 159.955C263.338 159.6 262.942 159.344 262.53 159.188C262.125 159.023 261.676 158.94 261.181 158.94C260.199 158.94 259.448 159.25 258.928 159.868C258.409 160.487 258.149 161.358 258.149 162.48C258.149 163.602 258.409 164.476 258.928 165.103C259.448 165.722 260.199 166.031 261.181 166.031C261.676 166.031 262.125 165.953 262.53 165.796C262.942 165.631 263.338 165.371 263.718 165.017L264.114 165.846C263.767 166.2 263.338 166.477 262.827 166.675C262.315 166.865 261.758 166.96 261.156 166.96ZM267.637 166.96C267.051 166.96 266.544 166.832 266.115 166.576C265.686 166.32 265.352 165.961 265.112 165.499C264.881 165.029 264.766 164.476 264.766 163.841C264.766 163.206 264.881 162.657 265.112 162.195C265.352 161.725 265.686 161.362 266.115 161.106C266.544 160.85 267.051 160.722 267.637 160.722C268.223 160.722 268.73 160.85 269.159 161.106C269.588 161.362 269.918 161.725 270.149 162.195C270.388 162.657 270.508 163.206 270.508 163.841C270.508 164.476 270.388 165.029 270.149 165.499C269.918 165.961 269.588 166.32 269.159 166.576C268.73 166.832 268.223 166.96 267.637 166.96ZM267.637 166.155C268.206 166.155 268.656 165.957 268.986 165.561C269.324 165.157 269.493 164.579 269.493 163.829C269.493 163.086 269.324 162.517 268.986 162.121C268.656 161.725 268.206 161.527 267.637 161.527C267.076 161.527 266.626 161.725 266.288 162.121C265.95 162.517 265.781 163.086 265.781 163.829C265.781 164.579 265.95 165.157 266.288 165.561C266.626 165.957 267.076 166.155 267.637 166.155ZM272.014 166.848V160.834H272.991V162.17H272.855C273.028 161.692 273.309 161.333 273.697 161.094C274.093 160.846 274.546 160.722 275.058 160.722C275.537 160.722 275.933 160.809 276.246 160.982C276.568 161.147 276.807 161.407 276.964 161.762C277.121 162.117 277.199 162.562 277.199 163.098V166.848H276.197V163.16C276.197 162.789 276.147 162.484 276.048 162.244C275.957 162.005 275.809 161.828 275.603 161.712C275.405 161.597 275.145 161.539 274.823 161.539C274.46 161.539 274.142 161.617 273.87 161.774C273.598 161.931 273.387 162.15 273.239 162.43C273.09 162.711 273.016 163.041 273.016 163.42V166.848H272.014ZM279.047 166.848V160.834H280.025V162.17H279.889C280.062 161.692 280.343 161.333 280.73 161.094C281.126 160.846 281.58 160.722 282.092 160.722C282.57 160.722 282.966 160.809 283.28 160.982C283.602 161.147 283.841 161.407 283.998 161.762C284.154 162.117 284.233 162.562 284.233 163.098V166.848H283.23V163.16C283.23 162.789 283.181 162.484 283.082 162.244C282.991 162.005 282.843 161.828 282.636 161.712C282.438 161.597 282.178 161.539 281.857 161.539C281.494 161.539 281.176 161.617 280.904 161.774C280.631 161.931 280.421 162.15 280.273 162.43C280.124 162.711 280.05 163.041 280.05 163.42V166.848H279.047ZM288.791 166.96C288.156 166.96 287.607 166.836 287.145 166.588C286.692 166.332 286.337 165.974 286.081 165.512C285.834 165.05 285.71 164.497 285.71 163.853C285.71 163.226 285.834 162.682 286.081 162.22C286.329 161.749 286.667 161.382 287.096 161.118C287.533 160.854 288.036 160.722 288.606 160.722C289.15 160.722 289.616 160.842 290.004 161.081C290.392 161.32 290.689 161.659 290.895 162.096C291.11 162.533 291.217 163.057 291.217 163.668V164.051H286.477V163.395H290.549L290.351 163.556C290.351 162.896 290.202 162.385 289.905 162.022C289.616 161.65 289.191 161.465 288.63 161.465C288.21 161.465 287.851 161.564 287.554 161.762C287.265 161.952 287.046 162.22 286.898 162.566C286.749 162.904 286.675 163.301 286.675 163.754V163.829C286.675 164.332 286.753 164.757 286.91 165.103C287.075 165.45 287.319 165.714 287.64 165.895C287.962 166.068 288.346 166.155 288.791 166.155C289.146 166.155 289.488 166.101 289.818 165.994C290.157 165.879 290.474 165.693 290.771 165.437L291.118 166.143C290.846 166.39 290.499 166.588 290.078 166.737C289.658 166.885 289.229 166.96 288.791 166.96ZM295.217 166.96C294.615 166.96 294.095 166.828 293.658 166.564C293.22 166.299 292.882 165.932 292.643 165.462C292.412 164.984 292.296 164.431 292.296 163.804C292.296 163.168 292.412 162.62 292.643 162.158C292.882 161.696 293.22 161.341 293.658 161.094C294.095 160.846 294.615 160.722 295.217 160.722C295.588 160.722 295.955 160.788 296.318 160.92C296.681 161.052 296.983 161.238 297.222 161.477L296.875 162.207C296.636 161.976 296.372 161.807 296.083 161.7C295.803 161.593 295.535 161.539 295.279 161.539C294.652 161.539 294.169 161.737 293.831 162.133C293.493 162.521 293.324 163.082 293.324 163.816C293.324 164.534 293.493 165.103 293.831 165.524C294.169 165.936 294.652 166.143 295.279 166.143C295.535 166.143 295.803 166.089 296.083 165.982C296.372 165.875 296.636 165.701 296.875 165.462L297.222 166.192C296.983 166.432 296.677 166.621 296.306 166.762C295.943 166.894 295.58 166.96 295.217 166.96ZM300.809 166.96C300.1 166.96 299.568 166.77 299.213 166.39C298.858 166.011 298.681 165.47 298.681 164.769V161.613H297.505V160.834H298.681V158.99H299.683V160.834H301.589V161.613H299.683V164.67C299.683 165.14 299.782 165.499 299.98 165.747C300.178 165.986 300.5 166.106 300.946 166.106C301.078 166.106 301.21 166.089 301.342 166.056C301.474 166.023 301.593 165.99 301.7 165.957L301.874 166.724C301.766 166.782 301.61 166.836 301.403 166.885C301.197 166.935 300.999 166.96 300.809 166.96ZM305.373 166.96C304.737 166.96 304.189 166.836 303.727 166.588C303.273 166.332 302.918 165.974 302.662 165.512C302.415 165.05 302.291 164.497 302.291 163.853C302.291 163.226 302.415 162.682 302.662 162.22C302.91 161.749 303.248 161.382 303.677 161.118C304.114 160.854 304.618 160.722 305.187 160.722C305.731 160.722 306.198 160.842 306.585 161.081C306.973 161.32 307.27 161.659 307.476 162.096C307.691 162.533 307.798 163.057 307.798 163.668V164.051H303.058V163.395H307.13L306.932 163.556C306.932 162.896 306.783 162.385 306.486 162.022C306.198 161.65 305.773 161.465 305.212 161.465C304.791 161.465 304.432 161.564 304.135 161.762C303.846 161.952 303.628 162.22 303.479 162.566C303.331 162.904 303.256 163.301 303.256 163.754V163.829C303.256 164.332 303.335 164.757 303.491 165.103C303.656 165.45 303.9 165.714 304.222 165.895C304.543 166.068 304.927 166.155 305.373 166.155C305.727 166.155 306.07 166.101 306.4 165.994C306.738 165.879 307.056 165.693 307.353 165.437L307.699 166.143C307.427 166.39 307.08 166.588 306.66 166.737C306.239 166.885 305.81 166.96 305.373 166.96ZM311.538 166.96C311.002 166.96 310.532 166.832 310.128 166.576C309.732 166.32 309.422 165.961 309.199 165.499C308.985 165.029 308.878 164.476 308.878 163.841C308.878 163.197 308.985 162.645 309.199 162.183C309.422 161.712 309.732 161.353 310.128 161.106C310.532 160.85 311.002 160.722 311.538 160.722C312.083 160.722 312.549 160.858 312.937 161.131C313.325 161.403 313.584 161.77 313.716 162.232H313.58V158.123H314.583V166.848H313.605V165.413H313.729C313.597 165.883 313.333 166.258 312.937 166.539C312.549 166.819 312.083 166.96 311.538 166.96ZM311.749 166.155C312.318 166.155 312.768 165.957 313.098 165.561C313.436 165.157 313.605 164.583 313.605 163.841C313.605 163.09 313.436 162.517 313.098 162.121C312.768 161.725 312.318 161.527 311.749 161.527C311.188 161.527 310.738 161.725 310.4 162.121C310.062 162.517 309.892 163.09 309.892 163.841C309.892 164.583 310.062 165.157 310.4 165.561C310.738 165.957 311.188 166.155 311.749 166.155Z" fill="#71717A"/>
<circle cx="326.204" cy="162.848" r="4.9502" fill="#22C55E"/>
</g>
<rect x="192.553" y="47.0889" width="182.083" height="157.332" rx="8.05651" stroke="#24272D" stroke-width="1.0742"/>
</g>
<defs>
<filter id="filter0_dd_4756_114184" x="0.195065" y="0.76245" width="82.9146" height="82.916" filterUnits="userSpaceOnUse" color-interpolation-filters="sRGB">
<feFlood flood-opacity="0" result="BackgroundImageFix"/>
<feColorMatrix in="SourceAlpha" type="matrix" values="0 0 0 0 0 0 0 0 0 0 0 0 0 0 0 0 0 0 127 0" result="hardAlpha"/>
<feMorphology radius="1.23755" operator="erode" in="SourceAlpha" result="effect1_dropShadow_4756_114184"/>
<feOffset dy="2.4751"/>
<feGaussianBlur stdDeviation="2.4751"/>
<feColorMatrix type="matrix" values="0 0 0 0 0 0 0 0 0 0 0 0 0 0 0 0 0 0 0.06 0"/>
<feBlend mode="normal" in2="BackgroundImageFix" result="effect1_dropShadow_4756_114184"/>
<feColorMatrix in="SourceAlpha" type="matrix" values="0 0 0 0 0 0 0 0 0 0 0 0 0 0 0 0 0 0 127 0" result="hardAlpha"/>
<feMorphology radius="1.23755" operator="erode" in="SourceAlpha" result="effect2_dropShadow_4756_114184"/>
<feOffset dy="4.9502"/>
<feGaussianBlur stdDeviation="3.71265"/>
<feColorMatrix type="matrix" values="0 0 0 0 0 0 0 0 0 0 0 0 0 0 0 0 0 0 0.1 0"/>
<feBlend mode="normal" in2="effect1_dropShadow_4756_114184" result="effect2_dropShadow_4756_114184"/>
<feBlend mode="normal" in="SourceGraphic" in2="effect2_dropShadow_4756_114184" result="shape"/>
</filter>
<filter id="filter1_dd_4756_114184" x="477.886" y="81.2029" width="82.9146" height="82.916" filterUnits="userSpaceOnUse" color-interpolation-filters="sRGB">
<feFlood flood-opacity="0" result="BackgroundImageFix"/>
<feColorMatrix in="SourceAlpha" type="matrix" values="0 0 0 0 0 0 0 0 0 0 0 0 0 0 0 0 0 0 127 0" result="hardAlpha"/>
<feMorphology radius="1.23755" operator="erode" in="SourceAlpha" result="effect1_dropShadow_4756_114184"/>
<feOffset dy="2.4751"/>
<feGaussianBlur stdDeviation="2.4751"/>
<feColorMatrix type="matrix" values="0 0 0 0 0 0 0 0 0 0 0 0 0 0 0 0 0 0 0.06 0"/>
<feBlend mode="normal" in2="BackgroundImageFix" result="effect1_dropShadow_4756_114184"/>
<feColorMatrix in="SourceAlpha" type="matrix" values="0 0 0 0 0 0 0 0 0 0 0 0 0 0 0 0 0 0 127 0" result="hardAlpha"/>
<feMorphology radius="1.23755" operator="erode" in="SourceAlpha" result="effect2_dropShadow_4756_114184"/>
<feOffset dy="4.9502"/>
<feGaussianBlur stdDeviation="3.71265"/>
<feColorMatrix type="matrix" values="0 0 0 0 0 0 0 0 0 0 0 0 0 0 0 0 0 0 0.1 0"/>
<feBlend mode="normal" in2="effect1_dropShadow_4756_114184" result="effect2_dropShadow_4756_114184"/>
<feBlend mode="normal" in="SourceGraphic" in2="effect2_dropShadow_4756_114184" result="shape"/>
</filter>
<filter id="filter2_dd_4756_114184" x="0.195065" y="91.1038" width="82.9146" height="82.916" filterUnits="userSpaceOnUse" color-interpolation-filters="sRGB">
<feFlood flood-opacity="0" result="BackgroundImageFix"/>
<feColorMatrix in="SourceAlpha" type="matrix" values="0 0 0 0 0 0 0 0 0 0 0 0 0 0 0 0 0 0 127 0" result="hardAlpha"/>
<feMorphology radius="1.23755" operator="erode" in="SourceAlpha" result="effect1_dropShadow_4756_114184"/>
<feOffset dy="2.4751"/>
<feGaussianBlur stdDeviation="2.4751"/>
<feColorMatrix type="matrix" values="0 0 0 0 0 0 0 0 0 0 0 0 0 0 0 0 0 0 0.06 0"/>
<feBlend mode="normal" in2="BackgroundImageFix" result="effect1_dropShadow_4756_114184"/>
<feColorMatrix in="SourceAlpha" type="matrix" values="0 0 0 0 0 0 0 0 0 0 0 0 0 0 0 0 0 0 127 0" result="hardAlpha"/>
<feMorphology radius="1.23755" operator="erode" in="SourceAlpha" result="effect2_dropShadow_4756_114184"/>
<feOffset dy="4.9502"/>
<feGaussianBlur stdDeviation="3.71265"/>
<feColorMatrix type="matrix" values="0 0 0 0 0 0 0 0 0 0 0 0 0 0 0 0 0 0 0.1 0"/>
<feBlend mode="normal" in2="effect1_dropShadow_4756_114184" result="effect2_dropShadow_4756_114184"/>
<feBlend mode="normal" in="SourceGraphic" in2="effect2_dropShadow_4756_114184" result="shape"/>
</filter>
<filter id="filter3_dd_4756_114184" x="0.195065" y="181.445" width="82.9146" height="82.916" filterUnits="userSpaceOnUse" color-interpolation-filters="sRGB">
<feFlood flood-opacity="0" result="BackgroundImageFix"/>
<feColorMatrix in="SourceAlpha" type="matrix" values="0 0 0 0 0 0 0 0 0 0 0 0 0 0 0 0 0 0 127 0" result="hardAlpha"/>
<feMorphology radius="1.23755" operator="erode" in="SourceAlpha" result="effect1_dropShadow_4756_114184"/>
<feOffset dy="2.4751"/>
<feGaussianBlur stdDeviation="2.4751"/>
<feColorMatrix type="matrix" values="0 0 0 0 0 0 0 0 0 0 0 0 0 0 0 0 0 0 0.06 0"/>
<feBlend mode="normal" in2="BackgroundImageFix" result="effect1_dropShadow_4756_114184"/>
<feColorMatrix in="SourceAlpha" type="matrix" values="0 0 0 0 0 0 0 0 0 0 0 0 0 0 0 0 0 0 127 0" result="hardAlpha"/>
<feMorphology radius="1.23755" operator="erode" in="SourceAlpha" result="effect2_dropShadow_4756_114184"/>
<feOffset dy="4.9502"/>
<feGaussianBlur stdDeviation="3.71265"/>
<feColorMatrix type="matrix" values="0 0 0 0 0 0 0 0 0 0 0 0 0 0 0 0 0 0 0.1 0"/>
<feBlend mode="normal" in2="effect1_dropShadow_4756_114184" result="effect2_dropShadow_4756_114184"/>
<feBlend mode="normal" in="SourceGraphic" in2="effect2_dropShadow_4756_114184" result="shape"/>
</filter>
<filter id="filter4_dd_4756_114184" x="185.828" y="45.3142" width="195.532" height="170.782" filterUnits="userSpaceOnUse" color-interpolation-filters="sRGB">
<feFlood flood-opacity="0" result="BackgroundImageFix"/>
<feColorMatrix in="SourceAlpha" type="matrix" values="0 0 0 0 0 0 0 0 0 0 0 0 0 0 0 0 0 0 127 0" result="hardAlpha"/>
<feMorphology radius="1.23755" operator="erode" in="SourceAlpha" result="effect1_dropShadow_4756_114184"/>
<feOffset dy="2.4751"/>
<feGaussianBlur stdDeviation="2.4751"/>
<feColorMatrix type="matrix" values="0 0 0 0 0 0 0 0 0 0 0 0 0 0 0 0 0 0 0.06 0"/>
<feBlend mode="normal" in2="BackgroundImageFix" result="effect1_dropShadow_4756_114184"/>
<feColorMatrix in="SourceAlpha" type="matrix" values="0 0 0 0 0 0 0 0 0 0 0 0 0 0 0 0 0 0 127 0" result="hardAlpha"/>
<feMorphology radius="1.23755" operator="erode" in="SourceAlpha" result="effect2_dropShadow_4756_114184"/>
<feOffset dy="4.9502"/>
<feGaussianBlur stdDeviation="3.71265"/>
<feColorMatrix type="matrix" values="0 0 0 0 0 0 0 0 0 0 0 0 0 0 0 0 0 0 0.1 0"/>
<feBlend mode="normal" in2="effect1_dropShadow_4756_114184" result="effect2_dropShadow_4756_114184"/>
<feBlend mode="normal" in="SourceGraphic" in2="effect2_dropShadow_4756_114184" result="shape"/>
</filter>
<clipPath id="clip0_4756_114184">
<rect x="192.016" y="46.5518" width="183.157" height="158.406" rx="8.59361" fill="white"/>
</clipPath>
</defs>
</svg>
