<svg width="163" height="48" viewBox="0 0 163 48" fill="none" xmlns="http://www.w3.org/2000/svg">
<path d="M2.18359 3.27197H47.0942C48.1988 3.27197 49.0942 4.1674 49.0942 5.27197V42.7269C49.0942 43.8315 48.1988 44.7269 47.0942 44.7269H2.18359V3.27197Z" fill="#2563EB"/>
<path d="M144.012 36.5844L150.505 10.8252H156.186L162.714 36.5844H158.197L156.786 30.3387H149.94L148.529 36.5844H144.012ZM150.752 26.7395H155.974L154.422 19.8233C154.163 18.6706 153.939 17.6355 153.751 16.7181C153.563 15.7771 153.433 15.0949 153.363 14.6714C153.292 15.0949 153.163 15.7771 152.975 16.7181C152.81 17.6355 152.587 18.6588 152.304 19.788L150.752 26.7395Z" fill="#16181C"/>
<path d="M124.297 36.5844V10.8252H132.448C134.166 10.8252 135.648 11.1428 136.895 11.7779C138.165 12.4131 139.153 13.307 139.859 14.4597C140.564 15.5889 140.917 16.9298 140.917 18.4824C140.917 20.1761 140.482 21.6699 139.612 22.9638C138.765 24.2576 137.612 25.1751 136.153 25.7161L141.27 36.5844H136.33L131.848 26.3513H128.708V36.5844H124.297ZM128.708 22.4698H132.448C133.695 22.4698 134.671 22.1287 135.377 21.4465C136.083 20.7643 136.436 19.8233 136.436 18.6235C136.436 17.4003 136.083 16.4475 135.377 15.7653C134.671 15.0596 133.695 14.7067 132.448 14.7067H128.708V22.4698Z" fill="#16181C"/>
<path d="M103.279 36.5844V10.8252H119.3V14.9184H107.62V21.7993H118.382V25.8926H107.69V36.5844H103.279Z" fill="#16181C"/>
<path d="M81.8418 36.5844V10.8252H87.2408L94.4041 31.6443C94.3336 30.8915 94.2512 30.0094 94.1571 28.9978C94.0866 27.9627 94.0277 26.9159 93.9807 25.8573C93.9336 24.7752 93.9101 23.8342 93.9101 23.0344V10.8252H97.9329V36.5844H92.5339L85.4411 15.7653C85.4882 16.4475 85.547 17.2709 85.6176 18.2354C85.6881 19.1999 85.7469 20.1879 85.794 21.1995C85.841 22.211 85.8646 23.1402 85.8646 23.9871V36.5844H81.8418Z" fill="#16181C"/>
<path d="M61.3105 36.5844V32.7029H66.4978V14.7067H61.3105V10.8252H76.1313V14.7067H70.944V32.7029H76.1313V36.5844H61.3105Z" fill="#16181C"/>
<path d="M39.0996 41.4532V37.4658H56.0376V41.4532H39.0996Z" fill="#16181C"/>
<path d="M24.1863 36.5844V27.2335L16.6348 10.8252H21.2574L25.2802 19.7527C25.586 20.4584 25.8448 21.1524 26.0565 21.8346C26.2682 22.5168 26.4094 23.0461 26.48 23.4225C26.5741 23.0461 26.7152 22.5168 26.9034 21.8346C27.1151 21.1524 27.3739 20.4584 27.6797 19.7527L31.5967 10.8252H36.184L28.6325 27.2335V36.5844H24.1863Z" fill="#16181C"/>
<path d="M3.68058 0C2.59675 0 1.71438 0.351018 1.02742 1.05305C0.342473 1.75509 0 2.64877 0 3.73208V10.6274H3.72692V4.87995C3.72692 3.92172 4.15803 3.4436 5.01623 3.4436H10.9853V0H3.68058Z" fill="#16181C"/>
<path d="M3.68058 48C2.59675 48 1.71438 47.649 1.02742 46.9469C0.342473 46.2449 0 45.3512 0 44.2659V37.3706H3.72692V43.118C3.72692 44.0763 4.15803 44.5544 5.01623 44.5544H10.9853V48H3.68058Z" fill="#16181C"/>
</svg>
